<?xml version="1.0" encoding="UTF-8" standalone="no"?>
<!-- Created with Inkscape (http://www.inkscape.org/) -->

<svg
   xmlns:dc="http://purl.org/dc/elements/1.1/"
   xmlns:cc="http://creativecommons.org/ns#"
   xmlns:rdf="http://www.w3.org/1999/02/22-rdf-syntax-ns#"
   xmlns:svg="http://www.w3.org/2000/svg"
   xmlns="http://www.w3.org/2000/svg"
   xmlns:xlink="http://www.w3.org/1999/xlink"
   xmlns:sodipodi="http://sodipodi.sourceforge.net/DTD/sodipodi-0.dtd"
   xmlns:inkscape="http://www.inkscape.org/namespaces/inkscape"
   version="1.1"
   width="32"
   height="32"
   id="svg2973"
   sodipodi:docname="accessories-text-editor.svg"
   inkscape:version="0.92.4 5da689c313, 2019-01-14">
  <sodipodi:namedview
     pagecolor="#ffffff"
     bordercolor="#666666"
     borderopacity="1"
     objecttolerance="10"
     gridtolerance="10"
     guidetolerance="10"
     inkscape:pageopacity="0"
     inkscape:pageshadow="2"
     inkscape:window-width="1680"
     inkscape:window-height="990"
     id="namedview1363"
     showgrid="false"
     inkscape:zoom="12.34375"
     inkscape:cx="19.888562"
     inkscape:cy="11.634988"
     inkscape:window-x="0"
     inkscape:window-y="31"
     inkscape:window-maximized="1"
     inkscape:current-layer="svg2973" />
  <metadata
     id="metadata59">
    <rdf:RDF>
      <cc:Work
         rdf:about="">
        <dc:format>image/svg+xml</dc:format>
        <dc:type
           rdf:resource="http://purl.org/dc/dcmitype/StillImage" />
      </cc:Work>
    </rdf:RDF>
  </metadata>
  <defs
     id="defs2975">
    <linearGradient
       x1="9"
       y1="29.056757"
       x2="9"
       y2="26.02973"
       id="linearGradient5778"
       xlink:href="#linearGradient3290-678-5"
       gradientUnits="userSpaceOnUse"
       gradientTransform="matrix(0.45885021,-0.46197601,0.61823523,0.61632854,-4.3693703,10.364525)" />
    <linearGradient
       id="linearGradient3290-678-5">
      <stop
         id="stop2607-6"
         style="stop-color:#ece5a5;stop-opacity:1"
         offset="0" />
      <stop
         id="stop2609-6"
         style="stop-color:#fcfbf2;stop-opacity:1"
         offset="1" />
    </linearGradient>
    <linearGradient
       x1="5.5178981"
       y1="37.371799"
       x2="9.5220556"
       y2="41.391716"
       id="linearGradient5780"
       xlink:href="#linearGradient3191-577-0"
       gradientUnits="userSpaceOnUse"
       gradientTransform="matrix(0.36996806,0.01599857,0.01594875,0.37020976,12.718935,8.7218547)" />
    <linearGradient
       id="linearGradient3191-577-0">
      <stop
         id="stop2613-0"
         style="stop-color:#dbce48;stop-opacity:1"
         offset="0" />
      <stop
         id="stop2615-4"
         style="stop-color:#c5b625;stop-opacity:1"
         offset="1" />
    </linearGradient>
    <linearGradient
       x1="23.575972"
       y1="25.356892"
       x2="23.575972"
       y2="31.210939"
       id="linearGradient5803"
       xlink:href="#linearGradient3155-40-5"
       gradientUnits="userSpaceOnUse"
       gradientTransform="matrix(0.47624246,-0.47386433,0.53278651,0.52491526,-2.6408825,12.664093)"
       spreadMethod="pad" />
    <linearGradient
       id="linearGradient3155-40-5">
      <stop
         id="stop2541-0"
         style="stop-color:#181818;stop-opacity:1"
         offset="0" />
      <stop
         id="stop2543-6"
         style="stop-color:#dbdbdb;stop-opacity:1"
         offset="0.13482948" />
      <stop
         id="stop2545-4"
         style="stop-color:#a4a4a4;stop-opacity:1"
         offset="0.20224422" />
      <stop
         id="stop2547-6"
         style="stop-color:#ffffff;stop-opacity:1"
         offset="0.26965895" />
      <stop
         id="stop2549-2"
         style="stop-color:#8d8d8d;stop-opacity:1"
         offset="0.44650277" />
      <stop
         id="stop2551-5"
         style="stop-color:#959595;stop-opacity:1"
         offset="0.57114136" />
      <stop
         id="stop2553-8"
         style="stop-color:#cecece;stop-opacity:1"
         offset="0.72038066" />
      <stop
         id="stop2555-6"
         style="stop-color:#181818;stop-opacity:1"
         offset="1" />
    </linearGradient>
    <linearGradient
       x1="21.862232"
       y1="38.581444"
       x2="21.862232"
       y2="19.561583"
       id="linearGradient5807"
       xlink:href="#linearGradient4338-2"
       gradientUnits="userSpaceOnUse"
       gradientTransform="matrix(0.68629628,0,0,1.4407757,1.1504266,-25.863084)" />
    <linearGradient
       id="linearGradient4338-2">
      <stop
         id="stop4340-6"
         style="stop-color:#8e8e8e;stop-opacity:1"
         offset="0" />
      <stop
         id="stop4342-7"
         style="stop-color:#b5b5b5;stop-opacity:1"
         offset="1" />
    </linearGradient>
    <linearGradient
       x1="-60.969666"
       y1="13.668072"
       x2="-60.908253"
       y2="114.5354"
       id="linearGradient5811"
       xlink:href="#linearGradient3600-6"
       gradientUnits="userSpaceOnUse"
       gradientTransform="matrix(0.3057426,1.8370635e-4,-1.8615014e-4,0.30172886,31.483821,-4.9515531)" />
    <linearGradient
       id="linearGradient3600-6">
      <stop
         id="stop3602-9"
         style="stop-color:#f4f4f4;stop-opacity:1"
         offset="0" />
      <stop
         id="stop3604-4"
         style="stop-color:#dbdbdb;stop-opacity:1"
         offset="1" />
    </linearGradient>
    <linearGradient
       x1="11.536495"
       y1="44.952385"
       x2="11.536495"
       y2="-1.0040783"
       id="linearGradient5813"
       xlink:href="#linearGradient3104-2"
       gradientUnits="userSpaceOnUse"
       gradientTransform="matrix(0.6571572,0,0,0.65851156,0.2284785,0.2275912)" />
    <linearGradient
       id="linearGradient3104-2">
      <stop
         id="stop3106-6"
         style="stop-color:#a0a0a0;stop-opacity:1"
         offset="0" />
      <stop
         id="stop3108-4"
         style="stop-color:#c8c8c8;stop-opacity:1"
         offset="1" />
    </linearGradient>
    <radialGradient
       cx="605.71429"
       cy="486.64789"
       r="117.14286"
       fx="605.71429"
       fy="486.64789"
       id="radialGradient5826"
       xlink:href="#linearGradient5060-8"
       gradientUnits="userSpaceOnUse"
       gradientTransform="matrix(0.01566316,0,0,0.01235294,17.61043,23.471032)" />
    <linearGradient
       id="linearGradient5060-8">
      <stop
         id="stop5062-8"
         style="stop-color:#000000;stop-opacity:1"
         offset="0" />
      <stop
         id="stop5064-8"
         style="stop-color:#000000;stop-opacity:0"
         offset="1" />
    </linearGradient>
    <radialGradient
       cx="605.71429"
       cy="486.64789"
       r="117.14286"
       fx="605.71429"
       fy="486.64789"
       id="radialGradient5829"
       xlink:href="#linearGradient5060-8"
       gradientUnits="userSpaceOnUse"
       gradientTransform="matrix(-0.01566316,0,0,0.01235294,14.389568,23.471032)" />
    <linearGradient
       id="linearGradient5048-2">
      <stop
         id="stop5050-8"
         style="stop-color:#000000;stop-opacity:0"
         offset="0" />
      <stop
         id="stop5056-8"
         style="stop-color:#000000;stop-opacity:1"
         offset="0.5" />
      <stop
         id="stop5052-9"
         style="stop-color:#000000;stop-opacity:0"
         offset="1" />
    </linearGradient>
    <linearGradient
       x1="302.85715"
       y1="366.64789"
       x2="302.85715"
       y2="609.50507"
       id="linearGradient2971"
       xlink:href="#linearGradient5048-2"
       gradientUnits="userSpaceOnUse"
       gradientTransform="matrix(0.04576923,0,0,0.01235294,-0.5423081,23.471006)" />
  </defs>
  <path
     style="display:inline;fill:url(#linearGradient5811);fill-opacity:1;stroke:#000000;stroke-width:0.2;stroke-linecap:round;stroke-linejoin:round;stroke-miterlimit:4;stroke-dasharray:none;stroke-opacity:0.39215687"
     id="path2855"
     inkscape:connector-curvature="0"
     d="m 4.6365228,2.1410525 c 5.7854482,0.0035 16.9415072,-0.0035 22.7269542,0 C 27.414415,3.2266814 27.829045,27.965903 27.88,29.86 19.96,29.855277 12.040002,29.850451 4.1200012,29.845717 4.1823281,27.718056 4.5741957,3.0957735 4.6365228,2.1410525 Z" />
  <path
     style="display:inline;opacity:0.59069764;fill:#80b3ff;fill-rule:evenodd;stroke:#f6abab;stroke-width:0.49999994;stroke-linecap:round;stroke-linejoin:round;stroke-miterlimit:4;stroke-dasharray:none;stroke-opacity:1"
     id="path5685"
     inkscape:connector-curvature="0"
     d="M 8.7500001,3.2500001 8.25,28.75" />
  <path
     style="display:inline;opacity:0.7;fill:url(#linearGradient5807);fill-opacity:1;stroke:none"
     id="path3406"
     inkscape:connector-curvature="0"
     d="m 11.861243,25 h 1.214349 v 1 h -1.214349 z m 1.455995,0 H 15 v 1 h -1.682762 z m -4.3172381,0 h 2.6195971 v 1 H 8.9999999 Z m 7.4085151,-4 h 1.463354 v 1 h -1.463354 z m 5.33801,0 H 25 v 1 h -3.253475 z m -7.117345,0 h 1.571183 v 1 H 14.62918 Z m -3.461622,0 h 3.253469 v 1 h -3.253469 z m -2.1675581,0 h 1.9594061 v 1 H 8.9999999 Z M 22.644893,23 H 23 v 1 h -0.355107 z m -1.702811,0 h 1.520188 v 1 h -1.520188 z m -2.576618,0 h 2.259559 v 1 h -2.259559 z m -1.926866,0 h 1.721831 v 1 h -1.721831 z m -1.411545,0 h 1.072077 v 1 h -1.072077 z m -1.254697,0 h 1.072075 v 1 h -1.072075 z m -0.694569,0 h 0.556751 v 1 h -0.556751 z m -1.433946,0 h 1.184102 v 1 h -1.184102 z m -2.6438411,0 h 2.4612121 v 1 H 8.9999999 Z M 10.285035,13 H 14 v 1 h -3.714965 z m -1.2850351,0 h 1.0208471 v 1 H 8.9999999 Z M 16.681271,11 H 18.1985 v 1 h -1.517229 z m 3.24246,0 H 22 v 1 h -2.076269 z m -1.509424,0 h 1.293608 v 1 h -1.293608 z m -3.57788,0 h 1.629029 v 1 h -1.629029 z m -3.589067,0 h 3.373251 v 1 H 11.24736 Z m -2.2473601,0 h 2.0315451 v 1 H 8.9999999 Z M 17.871151,9.0000002 H 20 V 10 h -2.128849 z m -1.83386,0 h 1.622223 V 10 h -1.622223 z m -1.221698,0 h 1.010055 V 10 h -1.010055 z m -1.221693,0 h 1.010055 V 10 H 13.5939 Z m -0.736183,0 h 0.524541 V 10 h -0.524541 z m -1.327244,0 h 1.1156 V 10 h -1.1156 z m -2.5304731,0 H 11.318828 V 10 H 8.9999999 Z m 13.2451711,-2 H 23 v 1 h -0.754829 z m -2.675029,0 h 2.465985 v 1 h -2.465985 z m -3.454788,0 h 3.24575 v 1 h -3.24575 z m -1.462058,0 h 1.253014 v 1 h -1.253014 z m -0.768939,0 h 0.559895 v 1 h -0.559895 z m -1.483717,0 h 1.27468 v 1 h -1.27468 z m -1.657002,0 h 1.447966 v 1 h -1.447966 z m -1.7436381,0 H 10.5346 v 1 H 8.9999999 Z M 16.88059,17 h 2.904735 v 1 H 16.88059 Z m -1.459009,0 h 1.233101 v 1 h -1.233101 z m -3.313834,0 h 3.087926 v 1 H 12.107747 Z M 8.9999999,17 H 11.88184 v 1 H 8.9999999 Z m 7.0386601,2 h 1.629256 v 1 H 16.03866 Z m -1.335653,0 h 1.014437 v 1 h -1.014437 z m -1.187238,0 h 1.014435 v 1 h -1.014435 z m -0.657225,0 h 0.526817 v 1 h -0.526817 z m -1.35685,0 h 1.120439 v 1 h -1.120439 z m -2.5016941,0 h 2.3288841 v 1 H 8.9999999 Z M 19.540849,15 H 22 v 1 h -2.459151 z m -3.445214,0 h 3.236755 v 1 h -3.236755 z m -1.458006,0 h 1.249541 v 1 h -1.249541 z m -0.766808,0 h 0.558343 v 1 h -0.558343 z m -1.479606,0 h 1.271148 v 1 h -1.271148 z m -1.652409,0 h 1.443953 v 1 h -1.443953 z m -1.7388061,0 h 1.5303471 v 1 H 8.9999999 Z" />
  <path
     style="fill:url(#linearGradient5803);fill-opacity:1;stroke:#000000;stroke-width:0.2;stroke-linecap:butt;stroke-linejoin:round;stroke-miterlimit:4;stroke-dasharray:none;stroke-dashoffset:0;stroke-opacity:0.39215687"
     id="rect2383"
     inkscape:connector-curvature="0"
     d="m 16.179805,20.683071 c 0.32345,-0.240323 1.230994,0.210484 2.06499,1.032158 0.832,0.819708 1.270391,1.696837 1.033173,2.020235 -8.99e-4,0.0012 0.02041,0.01798 0.01949,0.01919 L 30.910332,12.199771 c 0.294841,-0.29337 -0.163264,-1.220453 -1.023737,-2.068214 -0.860469,-0.8477571 -1.79907,-1.2967469 -2.093913,-1.0033759 z" />
  <path
     style="opacity:1;fill:#e28ccd;fill-opacity:1;stroke:none;stroke-width:0.520302;stroke-linecap:butt;stroke-linejoin:round;stroke-miterlimit:4;stroke-dasharray:none;stroke-dashoffset:0;stroke-opacity:1"
     id="rect3175"
     inkscape:connector-curvature="0"
     d="m 26.373402,10.536832 c 0.325238,-0.242776 1.237803,0.212633 2.076409,1.042688 0.836603,0.828072 1.277418,1.714151 1.038888,2.040848 -8.76e-4,0.0012 0.02053,0.01818 0.01959,0.01939 l 1.425102,-1.424574 0.0291,-0.02907 c 9.49e-4,-0.0012 -0.0205,-0.01816 -0.01959,-0.01939 0.238523,-0.326697 -0.202298,-1.212776 -1.038898,-2.040849 C 29.065389,9.2958171 28.152825,8.8404097 27.827586,9.0831859 l -0.0291,0.029073 -1.4251,1.4245741 z" />
  <path
     style="opacity:0.6;fill:#0c0c0c;fill-opacity:1;stroke:none;stroke-width:1.0615201"
     id="path3208"
     inkscape:connector-curvature="0"
     d="m 16.30451,20.719418 c 0.312523,-0.234954 1.189406,0.205783 1.995226,1.009107 0.803894,0.801407 1.227474,1.658945 0.998268,1.975123 -8.68e-4,0.0011 0.01971,0.01758 0.01882,0.01875 l 7.727226,-7.779775 0.02796,-0.02815 c 9.11e-4,-0.0011 -0.01968,-0.01756 -0.01881,-0.01876 0.229199,-0.316178 -0.19438,-1.173718 -0.998273,-1.975122 C 25.24911,13.117267 24.37222,12.676528 24.0597,12.911485 l -0.02796,0.02814 -7.727224,7.779776 z" />
  <path
     style="fill:url(#linearGradient5778);fill-opacity:1;fill-rule:evenodd;stroke:#000000;stroke-width:0.1921192;stroke-linecap:butt;stroke-linejoin:miter;stroke-miterlimit:4;stroke-dasharray:none;stroke-opacity:0.39215686"
     id="path3270"
     inkscape:connector-curvature="0"
     d="m 13.989649,25.913988 5.238395,-2.140657 0.04464,-0.0447 c 0.235197,-0.324459 -0.205141,-1.204529 -1.030076,-2.02692 -0.826914,-0.824363 -1.725689,-1.274146 -2.046394,-1.033037 L 13.989654,25.914 Z" />
  <path
     style="fill:#0c0c0c;fill-opacity:1;fill-rule:evenodd;stroke:none;stroke-width:0.76899523;stroke-linecap:butt;stroke-linejoin:miter;stroke-miterlimit:4;stroke-dasharray:none;stroke-opacity:1"
     id="path3281"
     inkscape:connector-curvature="0"
     d="m 14.788362,23.955831 -0.845065,1.996159 2.01901,-0.82785 c -0.161822,-0.193866 -0.311208,-0.390776 -0.505496,-0.584129 -0.22368,-0.222603 -0.443683,-0.403222 -0.668449,-0.58418 z" />
</svg>
