<?xml version="1.0" encoding="UTF-8" standalone="no"?>
<!-- Created with Inkscape (http://www.inkscape.org/) -->

<svg
   xmlns:dc="http://purl.org/dc/elements/1.1/"
   xmlns:cc="http://creativecommons.org/ns#"
   xmlns:rdf="http://www.w3.org/1999/02/22-rdf-syntax-ns#"
   xmlns:svg="http://www.w3.org/2000/svg"
   xmlns="http://www.w3.org/2000/svg"
   xmlns:xlink="http://www.w3.org/1999/xlink"
   xmlns:sodipodi="http://sodipodi.sourceforge.net/DTD/sodipodi-0.dtd"
   xmlns:inkscape="http://www.inkscape.org/namespaces/inkscape"
   version="1.1"
   width="32"
   height="32"
   id="svg4769"
   sodipodi:docname="application-default-icon.svg"
   inkscape:version="0.92.4 5da689c313, 2019-01-14">
  <sodipodi:namedview
     pagecolor="#ffffff"
     bordercolor="#666666"
     borderopacity="1"
     objecttolerance="10"
     gridtolerance="10"
     guidetolerance="10"
     inkscape:pageopacity="0"
     inkscape:pageshadow="2"
     inkscape:window-width="1680"
     inkscape:window-height="990"
     id="namedview4063"
     showgrid="false"
     inkscape:zoom="24.6875"
     inkscape:cx="16"
     inkscape:cy="18.43038"
     inkscape:window-x="0"
     inkscape:window-y="31"
     inkscape:window-maximized="1"
     inkscape:current-layer="layer1" />
  <defs
     id="defs4771">
    <linearGradient
       x1="16"
       y1="9"
       x2="16"
       y2="25"
       id="linearGradient4702"
       xlink:href="#linearGradient4687"
       gradientUnits="userSpaceOnUse"
       gradientTransform="matrix(1,0,0,-1,0,34.00359)" />
    <linearGradient
       id="linearGradient4687">
      <stop
         id="stop4689"
         style="stop-color:#000000;stop-opacity:1"
         offset="0" />
      <stop
         id="stop4691"
         style="stop-color:#000000;stop-opacity:0"
         offset="1" />
    </linearGradient>
    <linearGradient
       x1="16"
       y1="9"
       x2="16"
       y2="25"
       id="linearGradient4696"
       xlink:href="#linearGradient4687"
       gradientUnits="userSpaceOnUse" />
    <linearGradient
       x1="19.927404"
       y1="44.949184"
       x2="19.927404"
       y2="4.9969058"
       id="linearGradient4614"
       xlink:href="#linearGradient3707-319-631-407-324-616-4-2"
       gradientUnits="userSpaceOnUse"
       gradientTransform="matrix(0.66666666,0,0,0.66666666,1.1000006e-6,0.3333326)" />
    <linearGradient
       id="linearGradient3707-319-631-407-324-616-4-2">
      <stop
         id="stop3246-4-3-3"
         style="stop-color:#505050;stop-opacity:1"
         offset="0" />
      <stop
         id="stop3248-4-9-1"
         style="stop-color:#8e8e8e;stop-opacity:1"
         offset="1" />
    </linearGradient>
    <linearGradient
       x1="23.99999"
       y1="4.999989"
       x2="23.99999"
       y2="43"
       id="linearGradient3141-18"
       xlink:href="#linearGradient3924-118"
       gradientUnits="userSpaceOnUse"
       gradientTransform="matrix(0.62162164,0,0,0.62162164,1.0810837,2.0810873)" />
    <linearGradient
       id="linearGradient3924-118">
      <stop
         id="stop3216"
         style="stop-color:#ffffff;stop-opacity:1"
         offset="0" />
      <stop
         id="stop3218"
         style="stop-color:#ffffff;stop-opacity:0.23529412"
         offset="0.06316455" />
      <stop
         id="stop3220"
         style="stop-color:#ffffff;stop-opacity:0.15686275"
         offset="0.95056331" />
      <stop
         id="stop3222"
         style="stop-color:#ffffff;stop-opacity:0.39215687"
         offset="1" />
    </linearGradient>
    <radialGradient
       cx="7.4956832"
       cy="8.4497671"
       r="19.99999"
       fx="7.4956832"
       fy="8.4497671"
       id="radialGradient3166-9-861"
       xlink:href="#linearGradient2867-449-88-871-390-598-476-591-434-148-57-177-8-802"
       gradientUnits="userSpaceOnUse"
       gradientTransform="matrix(1.2952312e-8,1.5579933,-1.6481712,-2.8704185e-8,29.926737,-7.2898666)" />
    <linearGradient
       id="linearGradient2867-449-88-871-390-598-476-591-434-148-57-177-8-802">
      <stop
         id="stop3200"
         style="stop-color:#c7c7c7;stop-opacity:1"
         offset="0" />
      <stop
         id="stop3202"
         style="stop-color:#a6a6a6;stop-opacity:1"
         offset="0.26238" />
      <stop
         id="stop3204"
         style="stop-color:#7b7b7b;stop-opacity:1"
         offset="0.704952" />
      <stop
         id="stop3206"
         style="stop-color:#595959;stop-opacity:1"
         offset="1" />
    </linearGradient>
    <linearGradient
       x1="24"
       y1="44"
       x2="24"
       y2="3.8990016"
       id="linearGradient3168-3-846"
       xlink:href="#linearGradient3707-319-631-407-324-0-168"
       gradientUnits="userSpaceOnUse"
       gradientTransform="matrix(0.64102567,0,0,0.64102567,0.6153854,1.6153843)" />
    <linearGradient
       id="linearGradient3707-319-631-407-324-0-168">
      <stop
         id="stop3210"
         style="stop-color:#505050;stop-opacity:1"
         offset="0" />
      <stop
         id="stop3212"
         style="stop-color:#8e8e8e;stop-opacity:1"
         offset="1" />
    </linearGradient>
    <radialGradient
       cx="4.9929786"
       cy="43.5"
       r="2.5"
       fx="4.9929786"
       fy="43.5"
       id="radialGradient2976-573"
       xlink:href="#linearGradient3688-166-749-57"
       gradientUnits="userSpaceOnUse"
       gradientTransform="matrix(2.003784,0,0,1.4,27.98813,-17.4)" />
    <linearGradient
       id="linearGradient3688-166-749-57">
      <stop
         id="stop3180"
         style="stop-color:#181818;stop-opacity:1"
         offset="0" />
      <stop
         id="stop3182"
         style="stop-color:#181818;stop-opacity:0"
         offset="1" />
    </linearGradient>
    <radialGradient
       cx="4.9929786"
       cy="43.5"
       r="2.5"
       fx="4.9929786"
       fy="43.5"
       id="radialGradient2978-786"
       xlink:href="#linearGradient3688-464-309-665"
       gradientUnits="userSpaceOnUse"
       gradientTransform="matrix(2.003784,0,0,1.4,-20.01187,-104.4)" />
    <linearGradient
       id="linearGradient3688-464-309-665">
      <stop
         id="stop3186"
         style="stop-color:#181818;stop-opacity:1"
         offset="0" />
      <stop
         id="stop3188"
         style="stop-color:#181818;stop-opacity:0"
         offset="1" />
    </linearGradient>
    <linearGradient
       x1="25.058096"
       y1="47.027729"
       x2="25.058096"
       y2="39.999443"
       id="linearGradient2980-983"
       xlink:href="#linearGradient3702-501-757-17"
       gradientUnits="userSpaceOnUse" />
    <linearGradient
       id="linearGradient3702-501-757-17">
      <stop
         id="stop3192"
         style="stop-color:#181818;stop-opacity:0"
         offset="0" />
      <stop
         id="stop3194"
         style="stop-color:#181818;stop-opacity:1"
         offset="0.5" />
      <stop
         id="stop3196"
         style="stop-color:#181818;stop-opacity:0"
         offset="1" />
    </linearGradient>
  </defs>
  <metadata
     id="metadata4774">
    <rdf:RDF>
      <cc:Work
         rdf:about="">
        <dc:format>image/svg+xml</dc:format>
        <dc:type
           rdf:resource="http://purl.org/dc/dcmitype/StillImage" />
        <dc:title />
      </cc:Work>
    </rdf:RDF>
  </metadata>
  <g
     id="g4077">
    <g
       id="layer1">
      <rect
         style="color:#000000;display:inline;overflow:visible;visibility:visible;fill:url(#radialGradient3166-9-861);fill-opacity:1;fill-rule:nonzero;stroke:#000000;stroke-width:0.2;stroke-linecap:square;stroke-linejoin:round;stroke-miterlimit:4;stroke-dasharray:none;stroke-dashoffset:0;stroke-opacity:0.39215687;marker:none;enable-background:accumulate;paint-order:markers stroke fill"
         id="rect5505"
         y="4"
         x="3"
         ry="2.0799999"
         rx="2.0799999"
         height="26"
         width="26" />
      <path
         style="color:#000000;fill:#505050;fill-opacity:1;fill-rule:nonzero;stroke:none;stroke-width:1.70000005;marker:none;visibility:visible;display:inline;overflow:visible;enable-background:accumulate;opacity:0.8"
         id="path3575-5"
         inkscape:connector-curvature="0"
         d="m 15,9 c -0.277,0 -0.5,0.223 -0.5,0.5 l 0,1.6875 c -0.548639,0.140741 -1.055018,0.37601 -1.53125,0.65625 L 11.75,10.625 c -0.195869,-0.195869 -0.491631,-0.195869 -0.6875,0 L 9.625,12.0625 c -0.1958686,0.195869 -0.1958686,0.491631 0,0.6875 l 1.21875,1.21875 C 10.56351,14.444982 10.328241,14.951361 10.1875,15.5 L 8.5,15.5 C 8.223,15.5 8,15.723 8,16 l 0,2 c 0,0.277 0.223,0.5 0.5,0.5 l 1.6875,0 c 0.140741,0.548639 0.37601,1.055018 0.65625,1.53125 L 9.625,21.25 c -0.1958686,0.195869 -0.1958686,0.491631 0,0.6875 l 1.4375,1.4375 c 0.195869,0.195869 0.491631,0.195869 0.6875,0 l 1.21875,-1.21875 c 0.476232,0.28024 0.982611,0.515509 1.53125,0.65625 l 0,1.6875 c 0,0.277 0.223,0.5 0.5,0.5 l 2,0 c 0.277,0 0.5,-0.223 0.5,-0.5 l 0,-1.6875 c 0.548639,-0.140741 1.055018,-0.37601 1.53125,-0.65625 L 20.25,23.375 c 0.195869,0.195869 0.491631,0.195869 0.6875,0 l 1.4375,-1.4375 c 0.195869,-0.195869 0.195869,-0.491631 0,-0.6875 L 21.15625,20.03125 C 21.43649,19.555018 21.671759,19.048639 21.8125,18.5 l 1.6875,0 c 0.277,0 0.5,-0.223 0.5,-0.5 l 0,-2 c 0,-0.277 -0.223,-0.5 -0.5,-0.5 l -1.6875,0 C 21.671759,14.951361 21.43649,14.444982 21.15625,13.96875 L 22.375,12.75 c 0.195869,-0.195869 0.195869,-0.491631 0,-0.6875 L 20.9375,10.625 c -0.195869,-0.195869 -0.491631,-0.195869 -0.6875,0 l -1.21875,1.21875 C 18.555018,11.56351 18.048639,11.328241 17.5,11.1875 L 17.5,9.5 C 17.5,9.223 17.277,9 17,9 l -2,0 z m 1,5 c 1.656854,0 3,1.343146 3,3 0,1.656854 -1.343146,3 -3,3 -1.656854,0 -3,-1.343146 -3,-3 0,-1.656854 1.343146,-3 3,-3 z" />
    </g>
  </g>
</svg>
