<?xml version="1.0" encoding="UTF-8" standalone="no"?>
<!-- Created with Inkscape (http://www.inkscape.org/) -->

<svg
   xmlns:dc="http://purl.org/dc/elements/1.1/"
   xmlns:cc="http://creativecommons.org/ns#"
   xmlns:rdf="http://www.w3.org/1999/02/22-rdf-syntax-ns#"
   xmlns:svg="http://www.w3.org/2000/svg"
   xmlns="http://www.w3.org/2000/svg"
   xmlns:xlink="http://www.w3.org/1999/xlink"
   xmlns:sodipodi="http://sodipodi.sourceforge.net/DTD/sodipodi-0.dtd"
   xmlns:inkscape="http://www.inkscape.org/namespaces/inkscape"
   version="1.0"
   width="32"
   height="32"
   id="svg2457"
   inkscape:version="0.92.4 5da689c313, 2019-01-14"
   sodipodi:docname="system-run.svg">
  <metadata
     id="metadata40218">
    <rdf:RDF>
      <cc:Work
         rdf:about="">
        <dc:format>image/svg+xml</dc:format>
        <dc:type
           rdf:resource="http://purl.org/dc/dcmitype/StillImage" />
        <dc:title />
      </cc:Work>
    </rdf:RDF>
  </metadata>
  <sodipodi:namedview
     pagecolor="#ffffff"
     bordercolor="#666666"
     borderopacity="1"
     objecttolerance="10"
     gridtolerance="10"
     guidetolerance="10"
     inkscape:pageopacity="0"
     inkscape:pageshadow="2"
     inkscape:window-width="1680"
     inkscape:window-height="990"
     id="namedview40216"
     showgrid="false"
     inkscape:zoom="19.666667"
     inkscape:cx="12"
     inkscape:cy="12"
     inkscape:window-x="0"
     inkscape:window-y="31"
     inkscape:window-maximized="1"
     inkscape:current-layer="svg2457" />
  <defs
     id="defs2459">
    <linearGradient
       id="linearGradient5128">
      <stop
         id="stop5130"
         style="stop-color:#e5e5e5;stop-opacity:1"
         offset="0" />
      <stop
         id="stop5132"
         style="stop-color:#ababab;stop-opacity:1"
         offset="1" />
    </linearGradient>
    <linearGradient
       x1="86.132919"
       y1="105.105"
       x2="84.63858"
       y2="20.895"
       id="linearGradient3260"
       xlink:href="#linearGradient5128"
       gradientUnits="userSpaceOnUse"
       gradientTransform="matrix(0.09614231,0,0,0.09614231,1.8468935,1.9430362)" />
    <linearGradient
       id="linearGradient3397">
      <stop
         id="stop3399"
         style="stop-color:#aaaaaa;stop-opacity:1"
         offset="0" />
      <stop
         id="stop3401"
         style="stop-color:#8c8c8c;stop-opacity:1"
         offset="1" />
    </linearGradient>
    <linearGradient
       x1="21"
       y1="0"
       x2="21"
       y2="16.004715"
       id="linearGradient3264"
       xlink:href="#linearGradient3397"
       gradientUnits="userSpaceOnUse"
       gradientTransform="translate(-17.058189,0)" />
    <linearGradient
       x1="63.9995"
       y1="3.1001"
       x2="63.9995"
       y2="122.8994"
       id="linearGradient3309"
       gradientUnits="userSpaceOnUse">
      <stop
         id="stop3311"
         style="stop-color:#f6f6f6;stop-opacity:1"
         offset="0" />
      <stop
         id="stop3313"
         style="stop-color:#cccccc;stop-opacity:1"
         offset="1" />
    </linearGradient>
    <linearGradient
       x1="25"
       y1="0"
       x2="25"
       y2="16.000105"
       id="linearGradient3262"
       xlink:href="#linearGradient3309"
       gradientUnits="userSpaceOnUse"
       gradientTransform="translate(-17.058189)" />
    <linearGradient
       x1="25"
       y1="0"
       x2="25"
       y2="16.000105"
       id="linearGradient2967"
       xlink:href="#linearGradient3309"
       gradientUnits="userSpaceOnUse"
       gradientTransform="translate(-17.058189,0)" />
    <linearGradient
       x1="21"
       y1="0"
       x2="21"
       y2="16.004715"
       id="linearGradient2969"
       xlink:href="#linearGradient3397"
       gradientUnits="userSpaceOnUse"
       gradientTransform="translate(-17.058189,0)" />
    <linearGradient
       x1="86.132919"
       y1="105.105"
       x2="84.63858"
       y2="20.895"
       id="linearGradient2971"
       xlink:href="#linearGradient5128"
       gradientUnits="userSpaceOnUse"
       gradientTransform="matrix(0.09614231,0,0,0.09614231,1.8468935,1.9430362)" />
    <linearGradient
       x1="25.030451"
       y1="0.28819904"
       x2="24.795872"
       y2="15.37132"
       id="linearGradient3791"
       xlink:href="#linearGradient3309"
       gradientUnits="userSpaceOnUse"
       gradientTransform="matrix(-0.69602538,0.71801718,-0.71801718,-0.69602538,28.302469,-1.7860371)" />
    <linearGradient
       x1="21"
       y1="0"
       x2="21"
       y2="16.004715"
       id="linearGradient3793"
       xlink:href="#linearGradient3397"
       gradientUnits="userSpaceOnUse"
       gradientTransform="matrix(-0.69602538,0.71801718,-0.71801718,-0.69602538,28.302469,-1.7860371)" />
    <linearGradient
       inkscape:collect="always"
       xlink:href="#linearGradient3309-1"
       id="linearGradient3614-2"
       gradientUnits="userSpaceOnUse"
       gradientTransform="matrix(0.77777782,0,0,0.77777782,-3.111112,-4.666669)"
       x1="32.036148"
       y1="19"
       x2="32.036148"
       y2="47.012184" />
    <linearGradient
       x1="63.9995"
       y1="3.1001"
       x2="63.9995"
       y2="122.8994"
       id="linearGradient3309-1"
       gradientUnits="userSpaceOnUse">
      <stop
         id="stop3311-5"
         style="stop-color:#f6f6f6;stop-opacity:1"
         offset="0" />
      <stop
         id="stop3313-0"
         style="stop-color:#d2d2d2;stop-opacity:1"
         offset="1" />
    </linearGradient>
    <linearGradient
       id="linearGradient3397-0">
      <stop
         id="stop3399-4"
         style="stop-color:#aaaaaa;stop-opacity:1"
         offset="0" />
      <stop
         id="stop3401-0"
         style="stop-color:#8c8c8c;stop-opacity:1"
         offset="1" />
    </linearGradient>
    <linearGradient
       id="linearGradient5128-1">
      <stop
         id="stop5130-8"
         style="stop-color:#ffffff;stop-opacity:1"
         offset="0" />
      <stop
         id="stop5132-3"
         style="stop-color:#959595;stop-opacity:1"
         offset="1" />
    </linearGradient>
    <linearGradient
       inkscape:collect="always"
       id="linearGradient3805">
      <stop
         style="stop-color:#ffffff;stop-opacity:1;"
         offset="0"
         id="stop3807" />
      <stop
         style="stop-color:#ffffff;stop-opacity:0;"
         offset="1"
         id="stop3809" />
    </linearGradient>
    <linearGradient
       inkscape:collect="always"
       xlink:href="#linearGradient3805"
       id="linearGradient3830"
       x1="12"
       y1="16"
       x2="12"
       y2="8"
       gradientUnits="userSpaceOnUse" />
    <linearGradient
       y2="8"
       x2="12"
       y1="16"
       x1="12"
       gradientUnits="userSpaceOnUse"
       id="linearGradient3050"
       xlink:href="#linearGradient3805"
       inkscape:collect="always" />
    <linearGradient
       x1="25"
       y1="0"
       x2="25"
       y2="16.000105"
       id="linearGradient2967-7"
       xlink:href="#linearGradient3309-17"
       gradientUnits="userSpaceOnUse"
       gradientTransform="matrix(0.75,0,0,0.75,-12.795277,19.959426)" />
    <linearGradient
       x1="63.9995"
       y1="3.1001"
       x2="63.9995"
       y2="122.8994"
       id="linearGradient3309-17"
       gradientUnits="userSpaceOnUse">
      <stop
         id="stop3311-4"
         style="stop-color:#f6f6f6;stop-opacity:1"
         offset="0" />
      <stop
         id="stop3313-5"
         style="stop-color:#cccccc;stop-opacity:1"
         offset="1" />
    </linearGradient>
    <linearGradient
       x1="21"
       y1="0"
       x2="21"
       y2="16.004715"
       id="linearGradient2969-8"
       xlink:href="#linearGradient3397-2"
       gradientUnits="userSpaceOnUse"
       gradientTransform="translate(-17.058189,0)" />
    <linearGradient
       id="linearGradient3397-2">
      <stop
         id="stop3399-3"
         style="stop-color:#aaaaaa;stop-opacity:1"
         offset="0" />
      <stop
         id="stop3401-7"
         style="stop-color:#8c8c8c;stop-opacity:1"
         offset="1" />
    </linearGradient>
    <linearGradient
       x1="86.132919"
       y1="105.105"
       x2="84.63858"
       y2="20.895"
       id="linearGradient2971-2"
       xlink:href="#linearGradient5128-0"
       gradientUnits="userSpaceOnUse"
       gradientTransform="matrix(0.09614231,0,0,0.09614231,1.8468935,1.9430362)" />
    <linearGradient
       id="linearGradient5128-0">
      <stop
         id="stop5130-9"
         style="stop-color:#e5e5e5;stop-opacity:1"
         offset="0" />
      <stop
         id="stop5132-9"
         style="stop-color:#ababab;stop-opacity:1"
         offset="1" />
    </linearGradient>
    <linearGradient
       inkscape:collect="always"
       xlink:href="#linearGradient3805"
       id="linearGradient15016"
       gradientUnits="userSpaceOnUse"
       x1="12"
       y1="16"
       x2="12"
       y2="8"
       gradientTransform="matrix(1.0116033,0,0,1.0116033,8.8607602,8.8607606)" />
  </defs>
  <path
     d="M 6.9375,0.5 C 6.6890831,0.5 6.5,0.68908218 6.5,0.9375 v 1.25 C 5.9460971,2.3297005 5.448836,2.5593783 4.96875,2.84375 L 4.0625,1.9375 c -0.1756569,-0.1756579 -0.449342,-0.1756579 -0.625,0 l -1.5,1.5 c -0.175657,0.1756579 -0.175657,0.4493421 0,0.625 L 2.84375,4.96875 C 2.5593789,5.4488356 2.329701,5.9460968 2.1875,6.5 h -1.25 C 0.68908301,6.5 0.5,6.6890821 0.5,6.9375 v 2.125 c 1e-8,0.2484178 0.189083,0.4375 0.4375,0.4375 h 1.25 c 0.1422009,0.553903 0.371879,1.051164 0.65625,1.53125 L 1.9375,11.9375 c -0.175657,0.175658 -0.175657,0.449342 0,0.625 l 1.5,1.5 c 0.1756579,0.175658 0.449342,0.175658 0.625,0 L 4.96875,13.15625 C 5.4488361,13.440622 5.946097,13.6703 6.5,13.8125 v 1.25 c 1e-7,0.248418 0.189083,0.4375 0.4375,0.4375 h 2.125 C 9.3109176,15.5 9.5,15.310918 9.5,15.0625 v -1.25 c 0.553903,-0.1422 1.051164,-0.371878 1.53125,-0.65625 l 0.90625,0.90625 c 0.175658,0.175658 0.449342,0.175658 0.625,0 l 1.5,-1.5 c 0.175658,-0.175658 0.175658,-0.449342 0,-0.625 L 13.15625,11.03125 C 13.440622,10.551164 13.6703,10.053903 13.8125,9.5 h 1.25 C 15.310918,9.5 15.5,9.3109174 15.5,9.0625 V 6.9375 C 15.5,6.6890822 15.310917,6.5 15.0625,6.5 h -1.25 C 13.6703,5.9460968 13.440622,5.4488356 13.15625,4.96875 L 14.0625,4.0625 c 0.175658,-0.1756579 0.175658,-0.449342 0,-0.625 l -1.5,-1.5 c -0.175658,-0.1756579 -0.449342,-0.1756579 -0.625,0 L 11.03125,2.84375 C 10.551164,2.5593783 10.053903,2.3297005 9.5,2.1875 v -1.25 C 9.4999996,0.68908218 9.310918,0.5 9.0625,0.5 Z M 8,6 c 1.104,0 2,0.896 2,2 0,1.104 -0.896,2 -2,2 C 6.896,10 6,9.104 6,8 6,6.896 6.896,6 8,6 Z"
     id="path2426"
     style="display:block;overflow:visible;visibility:visible;fill:url(#linearGradient3262);fill-opacity:1;fill-rule:nonzero;stroke:#000000;stroke-width:0.2;stroke-linecap:butt;stroke-linejoin:round;stroke-miterlimit:4;stroke-dasharray:none;stroke-dashoffset:0;stroke-opacity:0.39215687;marker:none;enable-background:accumulate"
     inkscape:connector-curvature="0" />
  <path
     d="M 8,3.465116 C 5.4994229,3.465116 3.4651163,5.499423 3.4651163,8 3.4651163,10.500577 5.4994229,12.534884 8,12.534884 10.500576,12.534883 12.534884,10.500577 12.534884,8 12.534884,5.499423 10.500576,3.465116 8,3.465116 Z M 8,5.55814 c 1.347907,0 2.44186,1.093953 2.44186,2.44186 0,1.347907 -1.093953,2.44186 -2.44186,2.44186 C 6.652093,10.44186 5.5581395,9.347907 5.5581395,8 5.5581395,6.652093 6.652093,5.55814 8,5.55814 Z"
     id="path3315"
     style="opacity:0.05;fill:#000000;fill-opacity:1;stroke:none"
     inkscape:connector-curvature="0" />
  <path
     d="M 8.0000001,4 C 5.7943997,4 3.9999999,5.7944001 3.9999999,8.0000008 3.9999999,10.2056 5.7943997,12 8.0000001,12 10.2056,12 12,10.2056 12,8.0000008 12,5.7944001 10.2056,4 8.0000001,4 Z"
     id="path28"
     style="fill:none;stroke:none;stroke-width:1;stroke-miterlimit:4;stroke-dasharray:none"
     inkscape:connector-curvature="0" />
  <path
     style="color:#000000;display:block;overflow:visible;visibility:visible;fill:url(#linearGradient3614-2);fill-opacity:1;fill-rule:nonzero;stroke:#000000;stroke-width:0.2;stroke-linecap:butt;stroke-linejoin:round;stroke-miterlimit:4;stroke-dasharray:none;stroke-dashoffset:0;stroke-opacity:0.39215687;marker:none;enable-background:accumulate"
     d="m 19.5,10.5 c -0.554,0 -1,0.446 -1,1 v 1.375 c -0.50733,0.155783 -1.006769,0.350474 -1.46875,0.59375 L 16.0625,12.5 c -0.391737,-0.391737 -1.045763,-0.391737 -1.4375,0 L 12.5,14.625 c -0.391737,0.391737 -0.391737,1.045763 0,1.4375 l 0.96875,0.96875 C 13.225474,17.493231 13.030783,17.99267 12.875,18.5 H 11.5 c -0.554,0 -1,0.446 -1,1 v 3 c 0,0.554 0.446,1 1,1 h 1.375 c 0.155783,0.507329 0.350474,1.006769 0.59375,1.46875 L 12.5,25.9375 c -0.391737,0.391737 -0.391737,1.045763 0,1.4375 l 2.125,2.125 c 0.391737,0.391737 1.045763,0.391737 1.4375,0 l 0.96875,-0.96875 C 17.493231,28.774526 17.99267,28.969217 18.5,29.125 V 30.5 c 0,0.554 0.446,1 1,1 h 3 c 0.554,0 1,-0.446 1,-1 v -1.375 c 0.507329,-0.155783 1.006769,-0.350474 1.46875,-0.59375 L 25.9375,29.5 c 0.391737,0.391737 1.045763,0.391737 1.4375,0 L 29.5,27.375 c 0.391737,-0.391737 0.391737,-1.045763 0,-1.4375 L 28.53125,24.96875 C 28.774526,24.506769 28.969217,24.007329 29.125,23.5 H 30.5 c 0.554,0 1,-0.446 1,-1 v -3 c 0,-0.554 -0.446,-1 -1,-1 H 29.125 C 28.969217,17.99267 28.774526,17.493231 28.53125,17.03125 L 29.5,16.0625 c 0.391737,-0.391737 0.391737,-1.045763 0,-1.4375 L 27.375,12.5 c -0.391737,-0.391737 -1.045763,-0.391737 -1.4375,0 l -0.96875,0.96875 C 24.506769,13.225474 24.007329,13.030783 23.5,12.875 V 11.5 c 0,-0.554 -0.446,-1 -1,-1 z m 1.5,8 c 1.380712,0 2.5,1.119288 2.5,2.5 0,1.380712 -1.119288,2.5 -2.5,2.5 -1.380712,0 -2.5,-1.119288 -2.5,-2.5 0,-1.380712 1.119288,-2.5 2.5,-2.5 z"
     id="rect3623"
     inkscape:connector-curvature="0" />
  <path
     style="opacity:0.05;fill:#000000;fill-opacity:1;stroke:none"
     d="m 21,15 c -3.310303,0 -6,2.689698 -6,6 0,3.310302 2.689697,6 6,6 3.310301,0 6,-2.689698 6,-6 0,-3.310302 -2.689699,-6 -6,-6 z m 0,3 c 1.656854,0 3,1.343146 3,3 0,1.656854 -1.343146,3 -3,3 -1.656854,0 -3,-1.343146 -3,-3 0,-1.656854 1.343146,-3 3,-3 z"
     id="path3315-9"
     inkscape:connector-curvature="0" />
  <circle
     r="3.4999998"
     cy="21"
     cx="21"
     style="color:#000000;display:block;overflow:visible;visibility:visible;opacity:0.4;fill:none;stroke:url(#linearGradient15016);stroke-width:0.99999994;stroke-opacity:1;marker:none;enable-background:accumulate"
     id="path3822" />
  <path
     inkscape:connector-curvature="0"
     d="m 4.8215822,20.461062 c -0.1863127,0 -0.328125,0.141811 -0.328125,0.328125 v 0.9375 c -0.4154272,0.10665 -0.788373,0.278908 -1.1484375,0.492187 l -1.0872072,1.129419 c -0.2132783,0.360064 -0.3855368,0.73301 -0.4921875,1.148438 h -0.9375 c -0.18631273,0 -0.32812499,0.141811 -0.32812499,0.328125 v 2.311352 c 10e-9,0.186313 0.14181225,0.328125 0.32812499,0.328125 h 0.9375 c 0.1066507,0.415428 0.2789093,0.788373 0.4921875,1.148438 l 1.4671143,1.213842 c 0.3600646,0.213279 0.3531032,0.258902 0.7685304,0.365552 v 0.9375 c 1e-7,0.186313 0.1418123,0.328125 0.328125,0.328125 L 7.2173583,31.5 c 0.1863133,0 0.3281248,-0.141812 0.3281248,-0.328125 v -0.9375 c 0.4154272,-0.10665 0.3662542,-0.194485 0.7263187,-0.407764 l 1.5093263,-1.213842 c 0.213279,-0.360063 0.3855379,-0.733009 0.4921879,-1.148436 h 0.9375 c 0.186313,0 0.328125,-0.141812 0.328125,-0.328125 v -2.311352 c 0,-0.186314 -0.141813,-0.328125 -0.328125,-0.328125 h -0.9375 C 10.166666,24.081303 9.9944071,23.708357 9.7811281,23.348293 L 8.6939206,22.218874 C 8.3338561,22.005595 7.9609103,21.833337 7.5454831,21.726687 v -0.9375 c 0,-0.186314 -0.1418113,-0.328125 -0.3281248,-0.328125 z m 1.1767821,3.998364 c 0.828,0 1.5,0.672 1.5,1.5 0,0.828 -0.672,1.5 -1.5,1.5 -0.828,0 -1.5,-0.672 -1.5,-1.5 0,-0.828 0.672,-1.5 1.5,-1.5 z"
     id="path2961"
     style="display:block;overflow:visible;visibility:visible;fill:url(#linearGradient2967-7);fill-opacity:1;fill-rule:nonzero;stroke:#000000;stroke-width:0.2;stroke-linecap:butt;stroke-linejoin:round;stroke-miterlimit:4;stroke-dasharray:none;stroke-dashoffset:0;stroke-opacity:0.39215687;marker:none;enable-background:accumulate" />
  <path
     inkscape:connector-curvature="0"
     d="m 5.9983643,22.558263 c -1.8754328,0 -3.4011628,1.52573 -3.4011628,3.401163 0,1.875433 1.52573,3.401163 3.4011628,3.401163 1.875432,-1e-6 3.401163,-1.52573 3.401163,-3.401163 0,-1.875433 -1.525731,-3.401163 -3.401163,-3.401163 z m 0,1.569768 c 1.0109302,0 1.831395,0.820465 1.831395,1.831395 0,1.01093 -0.8204648,1.831395 -1.831395,1.831395 -1.0109303,0 -1.8313954,-0.820465 -1.8313954,-1.831395 0,-1.01093 0.8204651,-1.831395 1.8313954,-1.831395 z"
     id="path2963"
     style="opacity:0.05;fill:#000000;fill-opacity:1;stroke:none;stroke-width:0.75" />
  <path
     inkscape:connector-curvature="0"
     d="m 5.9983644,22.959426 c -1.6542003,0 -3.0000002,1.3458 -3.0000002,3.000001 0,1.654199 1.3457999,2.999999 3.0000002,2.999999 1.6541999,0 2.9999999,-1.3458 2.9999999,-2.999999 0,-1.654201 -1.3458,-3.000001 -2.9999999,-3.000001 z"
     id="path2965"
     style="fill:none;stroke:none;stroke-width:0.75;stroke-miterlimit:4;stroke-dasharray:none" />
</svg>
