<?xml version="1.0" encoding="UTF-8" standalone="no"?>
<!-- Created with Inkscape (http://www.inkscape.org/) -->

<svg
   xmlns:dc="http://purl.org/dc/elements/1.1/"
   xmlns:cc="http://creativecommons.org/ns#"
   xmlns:rdf="http://www.w3.org/1999/02/22-rdf-syntax-ns#"
   xmlns:svg="http://www.w3.org/2000/svg"
   xmlns="http://www.w3.org/2000/svg"
   xmlns:xlink="http://www.w3.org/1999/xlink"
   xmlns:sodipodi="http://sodipodi.sourceforge.net/DTD/sodipodi-0.dtd"
   xmlns:inkscape="http://www.inkscape.org/namespaces/inkscape"
   width="64px"
   height="64px"
   id="svg25228"
   version="1.1"
   inkscape:version="0.92.4 5da689c313, 2019-01-14"
   sodipodi:docname="folder-saved-search.svg">
  <defs
     id="defs25230">
    <linearGradient
       id="linearGradient8272-8-8">
      <stop
         offset="0"
         style="stop-color:#ffffff;stop-opacity:1"
         id="stop8274-4" />
      <stop
         offset="0.0221225"
         style="stop-color:#ffffff;stop-opacity:0.23529412"
         id="stop8276-5" />
      <stop
         offset="0.97909725"
         style="stop-color:#ffffff;stop-opacity:0.15686275"
         id="stop8278-0" />
      <stop
         offset="1"
         style="stop-color:#ffffff;stop-opacity:0.39215687"
         id="stop8280-5-9" />
    </linearGradient>
    <linearGradient
       id="linearGradient6129-963-697-142-998-580-273-9">
      <stop
         id="stop2661-3"
         style="stop-color:#0a0a0a;stop-opacity:0.498"
         offset="0" />
      <stop
         id="stop2663-33"
         style="stop-color:#0a0a0a;stop-opacity:0"
         offset="1" />
    </linearGradient>
    <linearGradient
       inkscape:collect="always"
       xlink:href="#linearGradient4632-92-3-0-8-1"
       id="linearGradient6654"
       gradientUnits="userSpaceOnUse"
       gradientTransform="matrix(0.50413225,0,0,0.49333391,73.843637,-1.4532899)"
       x1="-91"
       y1="43.999817"
       x2="-91"
       y2="119.05979" />
    <linearGradient
       id="linearGradient4632-92-3-0-8-1">
      <stop
         style="stop-color:#cdc9e3;stop-opacity:1"
         offset="0"
         id="stop4634-68-8-0-2-9" />
      <stop
         style="stop-color:#9389cb;stop-opacity:1"
         offset="1"
         id="stop4636-8-21-7-1-4" />
    </linearGradient>
    <linearGradient
       id="linearGradient5060-820-8">
      <stop
         id="stop2681-37"
         style="stop-color:#000000;stop-opacity:1"
         offset="0" />
      <stop
         id="stop2683-05"
         style="stop-color:#000000;stop-opacity:0"
         offset="1" />
    </linearGradient>
    <linearGradient
       id="linearGradient5048-585-1">
      <stop
         id="stop2667-0"
         style="stop-color:#000000;stop-opacity:0"
         offset="0" />
      <stop
         id="stop2669-91"
         style="stop-color:#000000;stop-opacity:1"
         offset="0.5" />
      <stop
         id="stop2671-6"
         style="stop-color:#000000;stop-opacity:0"
         offset="1" />
    </linearGradient>
    <linearGradient
       id="linearGradient9235-9">
      <stop
         id="stop9237-7"
         style="stop-color:#ffffff;stop-opacity:1"
         offset="0" />
      <stop
         id="stop9239-2-3"
         style="stop-color:#ffffff;stop-opacity:0.23529412"
         offset="0.1088333" />
      <stop
         id="stop9241-1"
         style="stop-color:#ffffff;stop-opacity:0.15686275"
         offset="0.97909725" />
      <stop
         id="stop9243-5"
         style="stop-color:#ffffff;stop-opacity:0.39215687"
         offset="1" />
    </linearGradient>
    <linearGradient
       id="linearGradient3104-8-8-97-4-6-11-5-5-1-0-5">
      <stop
         offset="0"
         style="stop-color:#000000;stop-opacity:0.32173914"
         id="stop3106-5-4-3-5-0-2-1-0-1-2-7" />
      <stop
         offset="1"
         style="stop-color:#000000;stop-opacity:0.27826086"
         id="stop3108-4-3-7-8-2-0-7-9-4-9-4-5" />
    </linearGradient>
    <linearGradient
       id="linearGradient6404-7-5-7">
      <stop
         id="stop6406-1-8-2"
         style="stop-color:#f9f9f9;stop-opacity:1"
         offset="0" />
      <stop
         id="stop6408-9-6-4"
         style="stop-color:#c9c9c9;stop-opacity:1"
         offset="1" />
    </linearGradient>
    <radialGradient
       id="_Radial9-4"
       cx="0"
       cy="0"
       r="1"
       gradientUnits="userSpaceOnUse"
       gradientTransform="matrix(87.4019,0,0,77.8688,292.70029,144.961)">
      <stop
         offset="0"
         style="stop-color:rgb(11,222,255);stop-opacity:1"
         id="stop34329-5" />
      <stop
         offset="1"
         style="stop-color:rgb(0,168,221);stop-opacity:1"
         id="stop34331-0" />
    </radialGradient>
  </defs>
  <sodipodi:namedview
     id="base"
     pagecolor="#ffffff"
     bordercolor="#666666"
     borderopacity="1.0"
     inkscape:pageopacity="0.0"
     inkscape:pageshadow="2"
     inkscape:zoom="11"
     inkscape:cx="32"
     inkscape:cy="32"
     inkscape:current-layer="layer1"
     showgrid="true"
     inkscape:document-units="px"
     inkscape:grid-bbox="true"
     inkscape:window-width="1680"
     inkscape:window-height="991"
     inkscape:window-x="0"
     inkscape:window-y="30"
     inkscape:window-maximized="1" />
  <metadata
     id="metadata25233">
    <rdf:RDF>
      <cc:Work
         rdf:about="">
        <dc:format>image/svg+xml</dc:format>
        <dc:type
           rdf:resource="http://purl.org/dc/dcmitype/StillImage" />
        <dc:title />
      </cc:Work>
    </rdf:RDF>
  </metadata>
  <g
     id="layer1"
     inkscape:label="Layer 1"
     inkscape:groupmode="layer">
    <path
       inkscape:connector-curvature="0"
       style="color:#000000;display:inline;overflow:visible;visibility:visible;opacity:0.8;fill:#c8c8c8;fill-opacity:1;stroke:none;stroke-width:1;stroke-linecap:butt;stroke-linejoin:miter;stroke-miterlimit:4;stroke-dasharray:none;stroke-dashoffset:0;stroke-opacity:1;marker:none;enable-background:accumulate"
       d="m 8.0000011,9.5000002 c -0.91501,0.0102 -1.5,0.4568744 -1.5,1.3339838 V 13.5 H 4.9941417 c -0.99492,0 -1.4941406,0.473207 -1.4941406,1.341797 0.0456,13.71958 0,14.493383 0,15.658203 1.632667,0 42.3376719,-3.627557 53.8886719,-6 h 2.111328 v -0.505859 c 0.626596,-0.197548 1,-0.384111 1,-0.550782 V 15 c 0,-1.00007 -0.49995,-1.5 -1.5,-1.5 h -30.5 v -2.666016 c 0,-0.8771094 -0.223662,-1.3442038 -1.138672,-1.3339838 z"
       id="use6502" />
    <path
       sodipodi:nodetypes="ccccccccc"
       d="m 2.5042057,20.53211 c -1.44043,0.16346 -0.87122,1.85289 -0.98607,2.8029 0.5271,11.19318 1.25951,21.80885 1.78336,33.0021 0,1.18996 1.19486,1.13653 1.86516,1.13653 0,0 36.7742113,0 54.4905113,0 1.46281,-0.14093 0.85463,-1.86024 1.0604,-2.8442 0.52711,-11.19317 1.25992,-21.56889 1.78376,-32.76214 0.0178,-0.7521 -0.50074,-1.33519 -1.21534,-1.33519 0,0 -39.86255,0 -58.7817813,0 z"
       inkscape:connector-curvature="0"
       id="use6642"
       style="color:#000000;fill:url(#linearGradient6654);fill-opacity:1;fill-rule:nonzero;stroke:none;stroke-width:0.99999982;marker:none;visibility:visible;display:inline;overflow:visible;enable-background:accumulate" />
    <path
       d="m 30.500667,27 c -0.4155,0 -0.75,0.3345 -0.75,0.75 l 0,2.53125 c -0.82305,0.21111 -1.5825,0.56402 -2.29695,0.98438 l -1.82805,-1.82813 c -0.29385,-0.2938 -0.7374,-0.2938 -1.03125,0 l -2.15625,2.15625 c -0.29385,0.29381 -0.29385,0.73745 0,1.03125 l 1.82805,1.82813 c -0.4203,0.71434 -0.77325,1.47391 -0.9843,2.29687 l -2.53125,0 c -0.4155,0 -0.75,0.3345 -0.75,0.75 l 0,3 c 0,0.4155 0.3345,0.75 0.75,0.75 l 2.53125,0 c 0.21105,0.82296 0.564,1.58253 0.9843,2.29688 l -1.82805,1.82812 c -0.29385,0.29381 -0.29385,0.73745 0,1.03125 l 2.15625,2.15625 c 0.29385,0.29381 0.7374,0.29381 1.03125,0 l 1.82805,-1.82812 c 0.71445,0.42036 1.4739,0.77326 2.29695,0.98437 l 0,2.53125 c 0,0.4155 0.3345,0.75 0.75,0.75 l 3,0 c 0.4155,0 0.75,-0.3345 0.75,-0.75 l 0,-2.53125 c 0.8229,-0.21111 1.5825,-0.56401 2.2968,-0.98437 l 1.8282,1.82812 c 0.29385,0.29381 0.7374,0.29381 1.03125,0 l 2.15625,-2.15625 c 0.29385,-0.2938 0.29385,-0.73744 0,-1.03125 l -1.8282,-1.82812 c 0.42045,-0.71435 0.77325,-1.47392 0.98445,-2.29688 l 2.53125,0 c 0.4155,0 0.75,-0.3345 0.75,-0.75 l 0,-3 c 0,-0.4155 -0.3345,-0.75 -0.75,-0.75 l -2.53125,0 c -0.2112,-0.82296 -0.564,-1.58253 -0.98445,-2.29687 l 1.8282,-1.82813 c 0.29385,-0.2938 0.29385,-0.73744 0,-1.03125 l -2.15625,-2.15625 c -0.29385,-0.2938 -0.7374,-0.2938 -1.03125,0 l -1.8282,1.82813 c -0.7143,-0.42036 -1.4739,-0.77327 -2.2968,-0.98438 l 0,-2.53125 c 0,-0.4155 -0.3345,-0.75 -0.75,-0.75 l -3,0 z m 1.5,7.5 c 2.4852,0 4.5,2.01472 4.5,4.5 0,2.48528 -2.0148,4.5 -4.5,4.5 -2.48535,0 -4.5,-2.01472 -4.5,-4.5 0,-2.48528 2.01465,-4.5 4.5,-4.5 z"
       id="path3575-5-8-4-7-63"
       style="color:#000000;fill:#382a72;fill-opacity:0.5521628;fill-rule:nonzero;stroke:none;stroke-width:1.70000005;marker:none;visibility:visible;display:inline;overflow:visible;enable-background:accumulate"
       inkscape:connector-curvature="0" />
    <path
       sodipodi:nodetypes="ccccccccc"
       d="m 2.5042057,20.53211 c -1.44043,0.16346 -0.87122,1.85289 -0.98607,2.8029 0.5271,11.19318 1.25951,21.80885 1.78336,33.0021 0,1.18996 1.19486,1.13653 1.86516,1.13653 0,0 36.7742113,0 54.4905113,0 1.46281,-0.14093 0.85463,-1.86024 1.0604,-2.8442 0.52711,-11.19317 1.25992,-21.56889 1.78376,-32.76214 0.0178,-0.7521 -0.50074,-1.33519 -1.21534,-1.33519 0,0 -39.86255,0 -58.7817813,0 z"
       inkscape:connector-curvature="0"
       id="use6642-8"
       style="opacity:0.3;color:#000000;fill:none;stroke:#000000;stroke-width:0.1;stroke-linecap:round;stroke-linejoin:round;stroke-miterlimit:4;stroke-opacity:0.39215687;stroke-dasharray:none;stroke-dashoffset:0;marker:none;visibility:visible;display:inline;overflow:visible;enable-background:accumulate" />
  </g>
</svg>
