<?xml version="1.0" encoding="UTF-8" standalone="no"?>
<!-- Created with Inkscape (http://www.inkscape.org/) -->

<svg
   xmlns:dc="http://purl.org/dc/elements/1.1/"
   xmlns:cc="http://creativecommons.org/ns#"
   xmlns:rdf="http://www.w3.org/1999/02/22-rdf-syntax-ns#"
   xmlns:svg="http://www.w3.org/2000/svg"
   xmlns="http://www.w3.org/2000/svg"
   xmlns:xlink="http://www.w3.org/1999/xlink"
   xmlns:sodipodi="http://sodipodi.sourceforge.net/DTD/sodipodi-0.dtd"
   xmlns:inkscape="http://www.inkscape.org/namespaces/inkscape"
   version="1.0"
   width="48"
   height="48"
   id="svg3478"
   sodipodi:docname="accessories-calculator.svg"
   inkscape:version="0.92.4 5da689c313, 2019-01-14">
  <sodipodi:namedview
     pagecolor="#ffffff"
     bordercolor="#666666"
     borderopacity="1"
     objecttolerance="10"
     gridtolerance="10"
     guidetolerance="10"
     inkscape:pageopacity="0"
     inkscape:pageshadow="2"
     inkscape:window-width="1680"
     inkscape:window-height="990"
     id="namedview63056"
     showgrid="false"
     inkscape:zoom="16.458333"
     inkscape:cx="24"
     inkscape:cy="24"
     inkscape:window-x="0"
     inkscape:window-y="31"
     inkscape:window-maximized="1"
     inkscape:current-layer="svg3478" />
  <metadata
     id="metadata94">
    <rdf:RDF>
      <cc:Work
         rdf:about="">
        <dc:format>image/svg+xml</dc:format>
        <dc:type
           rdf:resource="http://purl.org/dc/dcmitype/StillImage" />
      </cc:Work>
    </rdf:RDF>
  </metadata>
  <defs
     id="defs3480">
    <linearGradient
       id="linearGradient3428">
      <stop
         id="stop3430"
         style="stop-color:#000000;stop-opacity:0"
         offset="0" />
      <stop
         id="stop3436"
         style="stop-color:#000000;stop-opacity:1"
         offset="0.5" />
      <stop
         id="stop3432"
         style="stop-color:#000000;stop-opacity:0"
         offset="1" />
    </linearGradient>
    <linearGradient
       x1="11.507806"
       y1="39"
       x2="11.507806"
       y2="47.015659"
       id="linearGradient6620"
       xlink:href="#linearGradient3428"
       gradientUnits="userSpaceOnUse" />
    <radialGradient
       cx="3"
       cy="43"
       r="2"
       fx="3"
       fy="43"
       id="radialGradient6618"
       xlink:href="#linearGradient3414"
       gradientUnits="userSpaceOnUse"
       gradientTransform="matrix(2,0,0,2,35,-43)" />
    <linearGradient
       id="linearGradient3414">
      <stop
         id="stop3416"
         style="stop-color:#000000;stop-opacity:1"
         offset="0" />
      <stop
         id="stop3418"
         style="stop-color:#000000;stop-opacity:0"
         offset="1" />
    </linearGradient>
    <radialGradient
       cx="3"
       cy="43"
       r="2"
       fx="3"
       fy="43"
       id="radialGradient6616"
       xlink:href="#linearGradient3414"
       gradientUnits="userSpaceOnUse"
       gradientTransform="matrix(2,0,0,2,-13,-129)" />
    <linearGradient
       id="linearGradient2490-654-721">
      <stop
         id="stop2913"
         style="stop-color:#6e6e6e;stop-opacity:1"
         offset="0" />
      <stop
         id="stop2915"
         style="stop-color:#aaaaaa;stop-opacity:1"
         offset="1" />
    </linearGradient>
    <linearGradient
       id="linearGradient2556">
      <stop
         id="stop2558"
         style="stop-color:#dcdcdc;stop-opacity:1"
         offset="0" />
      <stop
         id="stop2564"
         style="stop-color:#b4b4b4;stop-opacity:1"
         offset="1" />
    </linearGradient>
    <linearGradient
       id="linearGradient5638">
      <stop
         id="stop5640"
         style="stop-color:#ffffff;stop-opacity:1"
         offset="0" />
      <stop
         id="stop5642"
         style="stop-color:#ffffff;stop-opacity:0"
         offset="1" />
    </linearGradient>
    <linearGradient
       id="linearGradient3341">
      <stop
         id="stop3343"
         style="stop-color:#ffffff;stop-opacity:1"
         offset="0" />
      <stop
         id="stop3345"
         style="stop-color:#ffffff;stop-opacity:0"
         offset="1" />
    </linearGradient>
    <linearGradient
       id="linearGradient3221-497-378-235-23-910">
      <stop
         id="stop5184"
         style="stop-color:#ffffff;stop-opacity:1"
         offset="0" />
      <stop
         id="stop5186"
         style="stop-color:#ffffff;stop-opacity:0"
         offset="1" />
    </linearGradient>
    <linearGradient
       id="linearGradient3221-84-434-51-992-114">
      <stop
         id="stop5190"
         style="stop-color:#ffffff;stop-opacity:1"
         offset="0" />
      <stop
         id="stop5192"
         style="stop-color:#ffffff;stop-opacity:0"
         offset="1" />
    </linearGradient>
    <linearGradient
       id="linearGradient3221-125">
      <stop
         id="stop3819"
         style="stop-color:#ffffff;stop-opacity:1"
         offset="0" />
      <stop
         id="stop3821"
         style="stop-color:#ffffff;stop-opacity:0"
         offset="1" />
    </linearGradient>
    <linearGradient
       id="linearGradient3251">
      <stop
         id="stop3253"
         style="stop-color:#888986;stop-opacity:1"
         offset="0" />
      <stop
         id="stop3255"
         style="stop-color:#888986;stop-opacity:0"
         offset="1" />
    </linearGradient>
    <linearGradient
       id="linearGradient3426">
      <stop
         id="stop3428"
         style="stop-color:#ffffff;stop-opacity:1"
         offset="0" />
      <stop
         id="stop3431"
         style="stop-color:#ffffff;stop-opacity:0"
         offset="1" />
    </linearGradient>
    <linearGradient
       x1="24"
       y1="17"
       x2="24"
       y2="4.9924679"
       id="linearGradient2475"
       xlink:href="#linearGradient3426"
       gradientUnits="userSpaceOnUse"
       gradientTransform="matrix(0.2413793,0,0,0.5454546,21.206896,15.5)" />
    <linearGradient
       x1="24"
       y1="17"
       x2="24"
       y2="4.9924679"
       id="linearGradient2478"
       xlink:href="#linearGradient3426"
       gradientUnits="userSpaceOnUse"
       gradientTransform="matrix(0.2413793,0,0,0.5454546,21.206896,21.5)" />
    <linearGradient
       x1="24"
       y1="17"
       x2="24"
       y2="4.9924679"
       id="linearGradient2481"
       xlink:href="#linearGradient3426"
       gradientUnits="userSpaceOnUse"
       gradientTransform="matrix(0.2413793,0,0,0.5454546,21.206896,27.5)" />
    <linearGradient
       x1="24"
       y1="17"
       x2="24"
       y2="4.9924679"
       id="linearGradient2484"
       xlink:href="#linearGradient3426"
       gradientUnits="userSpaceOnUse"
       gradientTransform="matrix(0.4827586,0,0,0.5454546,4.9137929,33.499999)" />
    <linearGradient
       x1="24"
       y1="17"
       x2="24"
       y2="4.9924679"
       id="linearGradient2487"
       xlink:href="#linearGradient3426"
       gradientUnits="userSpaceOnUse" />
    <linearGradient
       x1="29.999994"
       y1="37.999977"
       x2="29.999994"
       y2="39.499985"
       id="linearGradient2490"
       xlink:href="#linearGradient3251"
       gradientUnits="userSpaceOnUse"
       gradientTransform="translate(-3,-18.007521)" />
    <linearGradient
       x1="30.405294"
       y1="37.999973"
       x2="30.405294"
       y2="39.507034"
       id="linearGradient2493"
       xlink:href="#linearGradient3251"
       gradientUnits="userSpaceOnUse"
       gradientTransform="translate(-3,-12.00752)" />
    <linearGradient
       x1="29.999994"
       y1="37.999977"
       x2="29.999994"
       y2="39.499985"
       id="linearGradient2496"
       xlink:href="#linearGradient3251"
       gradientUnits="userSpaceOnUse"
       gradientTransform="translate(-3,-6.0075174)" />
    <linearGradient
       x1="31.260078"
       y1="38.000156"
       x2="31.260078"
       y2="39.502048"
       id="linearGradient2499"
       xlink:href="#linearGradient3251"
       gradientUnits="userSpaceOnUse"
       gradientTransform="matrix(0.9993019,0,0,1.0000259,-9.9790506,-18.006833)" />
    <linearGradient
       x1="29.999994"
       y1="38.000156"
       x2="29.999994"
       y2="39.499985"
       id="linearGradient2502"
       xlink:href="#linearGradient3251"
       gradientUnits="userSpaceOnUse"
       gradientTransform="matrix(0.9993019,0,0,1.0000259,-9.9790506,-12.006677)" />
    <linearGradient
       x1="29.999994"
       y1="38.000156"
       x2="29.999994"
       y2="39.499985"
       id="linearGradient2505"
       xlink:href="#linearGradient3251"
       gradientUnits="userSpaceOnUse"
       gradientTransform="matrix(0.9993019,0,0,1.0000259,-9.9790506,-6.0065191)" />
    <linearGradient
       x1="31.10257"
       y1="38.000156"
       x2="31.10257"
       y2="39.508217"
       id="linearGradient2508"
       xlink:href="#linearGradient3251"
       gradientUnits="userSpaceOnUse"
       gradientTransform="matrix(0.9993019,0,0,1.0000259,-16.979051,-18.008742)" />
    <linearGradient
       x1="29.999994"
       y1="38.000156"
       x2="29.999994"
       y2="39.499985"
       id="linearGradient2511"
       xlink:href="#linearGradient3251"
       gradientUnits="userSpaceOnUse"
       gradientTransform="matrix(0.9993019,0,0,1.0000259,-16.979051,-12.008586)" />
    <linearGradient
       x1="29.999994"
       y1="38.000156"
       x2="29.999994"
       y2="39.499985"
       id="linearGradient2514"
       xlink:href="#linearGradient3251"
       gradientUnits="userSpaceOnUse"
       gradientTransform="matrix(0.9993019,0,0,1.0000259,-16.979051,-6.008428)" />
    <linearGradient
       x1="22.344988"
       y1="37.998562"
       x2="22.344988"
       y2="39.508205"
       id="linearGradient2517"
       xlink:href="#linearGradient3251"
       gradientUnits="userSpaceOnUse"
       gradientTransform="matrix(0.9918431,0,0,1.0001816,-9.5900511,-0.01304884)" />
    <linearGradient
       x1="29.999994"
       y1="37.999969"
       x2="29.999994"
       y2="39.499985"
       id="linearGradient2520"
       xlink:href="#linearGradient3251"
       gradientUnits="userSpaceOnUse"
       gradientTransform="translate(-3.0000074,-0.00750884)" />
    <linearGradient
       x1="16.95768"
       y1="20.002064"
       x2="16.95768"
       y2="21.446861"
       id="linearGradient2523"
       xlink:href="#linearGradient3221-125"
       gradientUnits="userSpaceOnUse"
       gradientTransform="matrix(0.9918431,0,0,1.0001816,18.161067,11.989122)" />
    <linearGradient
       x1="17.830502"
       y1="20.002068"
       x2="17.830502"
       y2="21.500099"
       id="linearGradient2526"
       xlink:href="#linearGradient3221-84-434-51-992-114"
       gradientUnits="userSpaceOnUse"
       gradientTransform="matrix(0.9918431,0,0,1.0001816,18.161067,5.988032)" />
    <linearGradient
       x1="17.116375"
       y1="20.002066"
       x2="17.116375"
       y2="21.501268"
       id="linearGradient2529"
       xlink:href="#linearGradient3221-497-378-235-23-910"
       gradientUnits="userSpaceOnUse"
       gradientTransform="matrix(0.9918431,0,0,1.0001816,18.161067,-0.01305774)" />
    <linearGradient
       x1="22.162495"
       y1="13.755174"
       x2="21.643173"
       y2="3.6441264"
       id="linearGradient2533"
       xlink:href="#linearGradient3341"
       gradientUnits="userSpaceOnUse" />
    <linearGradient
       x1="24.052597"
       y1="5.0074263"
       x2="24.052597"
       y2="45.054726"
       id="linearGradient2537"
       xlink:href="#linearGradient5638"
       gradientUnits="userSpaceOnUse"
       gradientTransform="matrix(1.0058794,0,0,1,-0.1940099,-1.0075254)" />
    <linearGradient
       x1="22.505953"
       y1="7.5892501"
       x2="22.505953"
       y2="44.996727"
       id="linearGradient2540"
       xlink:href="#linearGradient2556"
       gradientUnits="userSpaceOnUse"
       gradientTransform="matrix(1.0625424,0,0,1.1519675,-4.1580447,-6.2626704)" />
    <linearGradient
       x1="31.278551"
       y1="56.744396"
       x2="31.278551"
       y2="4.0075235"
       id="linearGradient2542"
       xlink:href="#linearGradient2490-654-721"
       gradientUnits="userSpaceOnUse"
       gradientTransform="matrix(1.0004631,0,0,1,-0.01112208,-1.0075254)" />
  </defs>
  <rect
     width="33.999996"
     height="42.000004"
     rx="2.0729313"
     ry="2.0608516"
     x="7"
     y="2.9999981"
     id="rect2157"
     style="display:inline;overflow:visible;visibility:visible;fill:url(#linearGradient2540);fill-opacity:1;fill-rule:nonzero;stroke:#000000;stroke-width:0.1;stroke-linecap:round;stroke-linejoin:miter;stroke-miterlimit:6;stroke-dasharray:none;stroke-dashoffset:1.39999998;stroke-opacity:0.39215687;marker:none" />
  <rect
     width="28"
     height="10"
     rx="1.2198596"
     ry="1.3069309"
     x="10"
     y="6"
     id="rect3045"
     style="display:inline;overflow:visible;visibility:visible;fill:#4d4d4d;fill-opacity:1;fill-rule:nonzero;stroke:none;stroke-width:1.07343531;stroke-opacity:1;marker:none" />
  <path
     d="m 32.907349,18.990475 h 4.017854 c 0.59654,0 1.076787,0.488214 1.076787,1.09465 v 1.99324 c 0,0.606436 -0.480247,1.09465 -1.076787,1.09465 h -4.017854 c -0.59654,0 -1.076786,-0.488214 -1.076786,-1.09465 v -1.99324 c 0,-0.606436 0.480246,-1.09465 1.076786,-1.09465 z m 0,6.273822 h 4.017854 c 0.59654,0 1.076787,0.488213 1.076787,1.094649 v 1.993241 c 0,0.606436 -0.480247,1.09465 -1.076787,1.09465 h -4.017854 c -0.59654,0 -1.076786,-0.488214 -1.076786,-1.09465 v -1.993241 c 0,-0.606436 0.480246,-1.094649 1.076786,-1.094649 z m 0,6.273814 h 4.017862 c 0.59654,0 1.076787,0.488214 1.076787,1.09465 v 8.267061 c 0,0.606436 -0.480247,1.09465 -1.076787,1.09465 h -4.017862 c -0.59654,0 -1.076786,-0.488214 -1.076786,-1.09465 v -8.267061 c 0,-0.606436 0.480246,-1.09465 1.076786,-1.09465 z m -7.30319,6.272486 h 3.01387 c 0.601446,0 1.085644,0.488125 1.085644,1.094451 v 1.992878 c 0,0.606326 -0.484198,1.094451 -1.085644,1.094451 h -3.01387 c -0.601446,0 -1.085643,-0.488125 -1.085643,-1.094451 v -1.992878 c 0,-0.606326 0.484197,-1.094451 1.085643,-1.094451 z m -14.529371,0.0014 h 10.332633 c 0.59654,0 1.037032,0.488214 1.037032,1.09465 v 1.99324 c 0,0.606436 -0.440492,1.09465 -1.037032,1.09465 H 11.074788 c -0.59654,0 -1.076787,-0.488214 -1.076787,-1.09465 v -1.99324 c 0,-0.606436 0.480247,-1.09465 1.076787,-1.09465 z m 0.01198,-6.273934 h 3.011766 c 0.601026,0 1.084884,0.488139 1.084884,1.09448 v 1.992929 c 0,0.606342 -0.483858,1.09448 -1.084884,1.09448 h -3.011766 c -0.601026,0 -1.084884,-0.488138 -1.084884,-1.09448 v -1.992929 c 0,-0.606341 0.483858,-1.09448 1.084884,-1.09448 z m 0,-6.272845 h 3.011766 c 0.601026,0 1.084884,0.488138 1.084884,1.09448 v 1.992929 c 0,0.606342 -0.483858,1.09448 -1.084884,1.09448 h -3.011766 c -0.601026,0 -1.084884,-0.488138 -1.084884,-1.09448 v -1.992929 c 0,-0.606342 0.483858,-1.09448 1.084884,-1.09448 z m 0,-6.272837 h 3.011766 c 0.601026,0 1.084884,0.488139 1.084884,1.094481 v 1.992929 c 0,0.606341 -0.483858,1.09448 -1.084884,1.09448 h -3.011766 c -0.601026,0 -1.084884,-0.488139 -1.084884,-1.09448 v -1.992929 c 0,-0.606342 0.483858,-1.094481 1.084884,-1.094481 z m 7.259221,12.547677 h 3.011765 c 0.601027,0 1.084885,0.488138 1.084885,1.09448 v 1.992929 c 0,0.606341 -0.483858,1.094479 -1.084885,1.094479 h -3.011765 c -0.601026,0 -1.084885,-0.488138 -1.084885,-1.094479 v -1.992929 c 0,-0.606342 0.483859,-1.09448 1.084885,-1.09448 z m 0,-6.272842 h 3.011765 c 0.601027,0 1.084885,0.488139 1.084885,1.09448 v 1.992929 c 0,0.606342 -0.483858,1.09448 -1.084885,1.09448 h -3.011765 c -0.601026,0 -1.084885,-0.488138 -1.084885,-1.09448 v -1.992929 c 0,-0.606341 0.483859,-1.09448 1.084885,-1.09448 z m 0,-6.27284 h 3.011765 c 0.601027,0 1.084885,0.488137 1.084885,1.09448 v 1.992928 c 0,0.606343 -0.483858,1.09448 -1.084885,1.09448 h -3.011765 c -0.601026,0 -1.084885,-0.488137 -1.084885,-1.09448 v -1.992928 c 0,-0.606343 0.483859,-1.09448 1.084885,-1.09448 z m 7.258163,12.543623 h 3.01387 c 0.601446,0 1.085642,0.488126 1.085642,1.094452 v 1.992878 c 0,0.606326 -0.484196,1.094451 -1.085642,1.094451 h -3.01387 c -0.601446,0 -1.085642,-0.488125 -1.085642,-1.094451 V 32.63241 c 0,-0.606326 0.484196,-1.094452 1.085642,-1.094452 z m 0,-12.545357 h 3.01387 c 0.601446,0 1.085642,0.488127 1.085642,1.094452 v 1.992878 c 0,0.606326 -0.484196,1.094451 -1.085642,1.094451 h -3.01387 c -0.601446,0 -1.085642,-0.488125 -1.085642,-1.094451 v -1.992878 c 0,-0.606325 0.484196,-1.094452 1.085642,-1.094452 z m 0,6.272676 h 3.01387 c 0.601446,0 1.085642,0.488126 1.085642,1.094451 v 1.992878 c 0,0.606326 -0.484196,1.094452 -1.085642,1.094452 h -3.01387 c -0.601446,0 -1.085642,-0.488126 -1.085642,-1.094452 v -1.992878 c 0,-0.606325 0.484196,-1.094451 1.085642,-1.094451 z"
     inkscape:connector-curvature="0"
     id="rect3351"
     style="display:inline;overflow:visible;visibility:visible;fill:#4d4d4d;fill-opacity:1;fill-rule:nonzero;stroke:none;stroke-width:1.04123068;stroke-linecap:square;stroke-linejoin:miter;stroke-miterlimit:6;stroke-dashoffset:1.39999998;stroke-opacity:1;marker:none;enable-background:accumulate;opacity:0.8" />
  <path
     d="m 25.597158,11.082883 c 0.431707,-0.04952 0.968509,0.170579 0.99803,0.661487 0.0861,0.491324 -0.413592,0.958739 -0.896442,0.792827 -0.447877,-0.0026 -0.349157,-0.68238 -0.68504,-0.662314 -0.211516,0 -0.423032,0 -0.634548,0 0.0085,0.796066 0.740439,1.460898 1.53,1.422 0.775832,0.03628 1.485256,-0.629134 1.486166,-1.408243 0.119981,-0.529168 -0.36316,-1.059234 -0.641471,-1.261209 0.64259,-0.532025 0.272533,-1.6831456 -0.504512,-1.8689741 -0.681354,-0.2300732 -1.529233,0.2623522 -1.534048,1.0168506 0.03652,0.1410746 0.349329,0.030495 0.50222,0.065575 0.411787,0.1528665 0.282126,-0.4272879 0.673645,-0.4019998 0.610721,0.016216 0.431634,0.9943723 -0.150656,0.8700003 -0.260339,-0.04161 -0.09869,0.320931 -0.143344,0.486113 0,0.09596 0,0.191925 0,0.287887 z m 2.48728,2.136 c 0.266,0 0.532001,0 0.798001,0 0,-0.256 0,-0.512 0,-0.768 -0.266,0 -0.532001,0 -0.798001,0 0,0.256 0,0.512 0,0.768 z m 2.719782,0 c 0.266,0 0.532,0 0.798001,0 0,-1.478 0,-2.956 0,-4.4340003 -0.452001,0 -0.904001,0 -1.356001,0 0,0.25 0,0.5 0,0.75 0.186,0 0.372,0 0.558,0 0,1.2280003 0,2.4560003 0,3.6840003 z m 1.887282,-1.314 c 0,0.215999 0,0.431999 0,0.647999 0.638,0 1.276001,0 1.914001,0 0,0.222 0,0.444001 0,0.666001 0.266,0 0.532,0 0.798,0 0,-0.222 0,-0.444001 0,-0.666001 0.139984,-0.03484 0.4213,0.07165 0.467999,-0.05648 0,-0.219172 0,-0.438343 0,-0.657515 -0.139983,-0.03484 -0.421299,0.07164 -0.467999,-0.05648 0,-0.999172 0,-1.9983443 0,-2.9975163 -0.224,0 -0.448,0 -0.672,0 -0.680001,1.0399999 -1.360001,2.0800003 -2.040001,3.1200003 z m 1.914001,-0.066 c -0.368,0 -0.736,0 -1.104,0 0.368,-0.57 0.736,-1.14 1.104,-1.71 0,0.57 0,1.14 0,1.71 z"
     inkscape:connector-curvature="0"
     id="text2469"
     style="font-size:6px;font-style:normal;font-variant:normal;font-weight:bold;font-stretch:normal;fill:#ffffff;fill-opacity:1;stroke:none;font-family:URW Gothic L;-inkscape-font-specification:URW Gothic L Book" />
</svg>
