<?xml version="1.0" encoding="UTF-8" standalone="no"?>
<!-- Created with Inkscape (http://www.inkscape.org/) -->

<svg
   xmlns:dc="http://purl.org/dc/elements/1.1/"
   xmlns:cc="http://creativecommons.org/ns#"
   xmlns:rdf="http://www.w3.org/1999/02/22-rdf-syntax-ns#"
   xmlns:svg="http://www.w3.org/2000/svg"
   xmlns="http://www.w3.org/2000/svg"
   xmlns:xlink="http://www.w3.org/1999/xlink"
   xmlns:sodipodi="http://sodipodi.sourceforge.net/DTD/sodipodi-0.dtd"
   xmlns:inkscape="http://www.inkscape.org/namespaces/inkscape"
   version="1.1"
   width="48"
   height="48"
   id="svg4375"
   sodipodi:docname="accessories-text-editor.svg"
   inkscape:version="0.92.4 5da689c313, 2019-01-14">
  <sodipodi:namedview
     pagecolor="#ffffff"
     bordercolor="#666666"
     borderopacity="1"
     objecttolerance="10"
     gridtolerance="10"
     guidetolerance="10"
     inkscape:pageopacity="0"
     inkscape:pageshadow="2"
     inkscape:window-width="1680"
     inkscape:window-height="990"
     id="namedview2808"
     showgrid="false"
     inkscape:zoom="16.458333"
     inkscape:cx="24"
     inkscape:cy="24"
     inkscape:window-x="0"
     inkscape:window-y="31"
     inkscape:window-maximized="1"
     inkscape:current-layer="svg4375" />
  <defs
     id="defs4377">
    <linearGradient
       x1="9"
       y1="29.056757"
       x2="9"
       y2="26.02973"
       id="linearGradient3407"
       xlink:href="#linearGradient3290-678"
       gradientUnits="userSpaceOnUse"
       gradientTransform="matrix(0.65181983,-0.65508096,0.87823428,0.87395255,-4.353237,16.415216)" />
    <linearGradient
       id="linearGradient3290-678">
      <stop
         id="stop2607"
         style="stop-color:#ece5a5;stop-opacity:1"
         offset="0" />
      <stop
         id="stop2609"
         style="stop-color:#fcfbf2;stop-opacity:1"
         offset="1" />
    </linearGradient>
    <linearGradient
       x1="5.5178981"
       y1="37.371799"
       x2="9.5220556"
       y2="41.391716"
       id="linearGradient3409"
       xlink:href="#linearGradient3191-577"
       gradientUnits="userSpaceOnUse"
       gradientTransform="matrix(0.5603647,0.02418622,0.02415646,0.5596736,19.546549,13.104104)" />
    <linearGradient
       id="linearGradient3191-577">
      <stop
         id="stop2613"
         style="stop-color:#dbce48;stop-opacity:1"
         offset="0" />
      <stop
         id="stop2615"
         style="stop-color:#c5b625;stop-opacity:1"
         offset="1" />
    </linearGradient>
    <linearGradient
       x1="30.037716"
       y1="24.989594"
       x2="30.037716"
       y2="30.000141"
       id="linearGradient3412"
       xlink:href="#linearGradient3223-699"
       gradientUnits="userSpaceOnUse"
       gradientTransform="matrix(0.6380091,-0.6411367,0.8596262,0.8553492,-2.328784,15.391523)" />
    <linearGradient
       id="linearGradient3223-699">
      <stop
         id="stop2599"
         style="stop-color:#b1b1b1;stop-opacity:1"
         offset="0" />
      <stop
         id="stop2601"
         style="stop-color:#ffffff;stop-opacity:1"
         offset="0.5" />
      <stop
         id="stop2603"
         style="stop-color:#8f8f8f;stop-opacity:1"
         offset="1" />
    </linearGradient>
    <linearGradient
       x1="30.037716"
       y1="24.989594"
       x2="30.037716"
       y2="30.000141"
       id="linearGradient3415"
       xlink:href="#linearGradient3240-907"
       gradientUnits="userSpaceOnUse"
       gradientTransform="matrix(0.6380091,-0.6411367,0.8596262,0.8553492,-2.146067,15.207909)" />
    <linearGradient
       id="linearGradient3240-907">
      <stop
         id="stop2591"
         style="stop-color:#565656;stop-opacity:1"
         offset="0" />
      <stop
         id="stop2593"
         style="stop-color:#9a9a9a;stop-opacity:1"
         offset="0.5" />
      <stop
         id="stop2595"
         style="stop-color:#545454;stop-opacity:1"
         offset="1" />
    </linearGradient>
    <linearGradient
       x1="30.037716"
       y1="24.989594"
       x2="30.037716"
       y2="30.000141"
       id="linearGradient3418"
       xlink:href="#linearGradient3223-768"
       gradientUnits="userSpaceOnUse"
       gradientTransform="matrix(0.6380091,-0.6411367,0.8596262,0.8553492,-2.966794,16.032658)" />
    <linearGradient
       id="linearGradient3223-768">
      <stop
         id="stop2583"
         style="stop-color:#b1b1b1;stop-opacity:1"
         offset="0" />
      <stop
         id="stop2585"
         style="stop-color:#ffffff;stop-opacity:1"
         offset="0.5" />
      <stop
         id="stop2587"
         style="stop-color:#8f8f8f;stop-opacity:1"
         offset="1" />
    </linearGradient>
    <linearGradient
       x1="30.037716"
       y1="24.989594"
       x2="30.037716"
       y2="30.000141"
       id="linearGradient3421"
       xlink:href="#linearGradient3240-686"
       gradientUnits="userSpaceOnUse"
       gradientTransform="matrix(0.6380091,-0.6411367,0.8596262,0.8553492,-2.784076,15.849046)" />
    <linearGradient
       id="linearGradient3240-686">
      <stop
         id="stop2575"
         style="stop-color:#565656;stop-opacity:1"
         offset="0" />
      <stop
         id="stop2577"
         style="stop-color:#9a9a9a;stop-opacity:1"
         offset="0.5" />
      <stop
         id="stop2579"
         style="stop-color:#545454;stop-opacity:1"
         offset="1" />
    </linearGradient>
    <linearGradient
       x1="30.037716"
       y1="24.989594"
       x2="30.037716"
       y2="30.000141"
       id="linearGradient3424"
       xlink:href="#linearGradient3223-789"
       gradientUnits="userSpaceOnUse"
       gradientTransform="matrix(0.6380091,-0.6411367,0.8596262,0.8553492,-3.601733,16.670712)" />
    <linearGradient
       id="linearGradient3223-789">
      <stop
         id="stop2567"
         style="stop-color:#b1b1b1;stop-opacity:1"
         offset="0" />
      <stop
         id="stop2569"
         style="stop-color:#ffffff;stop-opacity:1"
         offset="0.5" />
      <stop
         id="stop2571"
         style="stop-color:#8f8f8f;stop-opacity:1"
         offset="1" />
    </linearGradient>
    <linearGradient
       x1="30.037716"
       y1="24.989594"
       x2="30.037716"
       y2="30.000141"
       id="linearGradient3427"
       xlink:href="#linearGradient3240-279"
       gradientUnits="userSpaceOnUse"
       gradientTransform="matrix(0.6380091,-0.6411367,0.8596262,0.8553492,-3.419016,16.487099)" />
    <linearGradient
       id="linearGradient3240-279">
      <stop
         id="stop2559"
         style="stop-color:#565656;stop-opacity:1"
         offset="0" />
      <stop
         id="stop2561"
         style="stop-color:#9a9a9a;stop-opacity:1"
         offset="0.5" />
      <stop
         id="stop2563"
         style="stop-color:#545454;stop-opacity:1"
         offset="1" />
    </linearGradient>
    <linearGradient
       x1="23.575972"
       y1="25.356892"
       x2="23.575972"
       y2="31.210939"
       id="linearGradient3432"
       xlink:href="#linearGradient3155-40"
       gradientUnits="userSpaceOnUse"
       gradientTransform="matrix(0.6631352,-0.66638588,0.74186894,0.73817779,-1.3745868,19.811216)"
       spreadMethod="pad" />
    <linearGradient
       id="linearGradient3155-40">
      <stop
         id="stop2541"
         style="stop-color:#181818;stop-opacity:1"
         offset="0" />
      <stop
         id="stop2543"
         style="stop-color:#dbdbdb;stop-opacity:1"
         offset="0.13482948" />
      <stop
         id="stop2545"
         style="stop-color:#a4a4a4;stop-opacity:1"
         offset="0.20224422" />
      <stop
         id="stop2547"
         style="stop-color:#ffffff;stop-opacity:1"
         offset="0.26965895" />
      <stop
         id="stop2549"
         style="stop-color:#8d8d8d;stop-opacity:1"
         offset="0.44650277" />
      <stop
         id="stop2551"
         style="stop-color:#959595;stop-opacity:1"
         offset="0.57114136" />
      <stop
         id="stop2553"
         style="stop-color:#cecece;stop-opacity:1"
         offset="0.72038066" />
      <stop
         id="stop2555"
         style="stop-color:#181818;stop-opacity:1"
         offset="1" />
    </linearGradient>
    <linearGradient
       x1="22.004084"
       y1="44.854229"
       x2="22.004084"
       y2="3.0718794"
       id="linearGradient3436"
       xlink:href="#linearGradient3104"
       gradientUnits="userSpaceOnUse" />
    <linearGradient
       id="linearGradient3104">
      <stop
         id="stop3106"
         style="stop-color:#a0a0a0;stop-opacity:1"
         offset="0" />
      <stop
         id="stop3108"
         style="stop-color:#c8c8c8;stop-opacity:1"
         offset="1" />
    </linearGradient>
    <linearGradient
       x1="68.437271"
       y1="4.410717"
       x2="68.437271"
       y2="40.927929"
       id="linearGradient3388"
       xlink:href="#linearGradient3454"
       gradientUnits="userSpaceOnUse"
       gradientTransform="matrix(0.89189031,0,0,1.0580283,-42.797372,0.0041396)" />
    <linearGradient
       id="linearGradient3454">
      <stop
         id="stop3456"
         style="stop-color:#ffffff;stop-opacity:1"
         offset="0" />
      <stop
         id="stop3458"
         style="stop-color:#ffffff;stop-opacity:0.23529412"
         offset="0.0097359" />
      <stop
         id="stop3460"
         style="stop-color:#ffffff;stop-opacity:0.15686275"
         offset="0.99001008" />
      <stop
         id="stop3462"
         style="stop-color:#ffffff;stop-opacity:0.39215687"
         offset="1" />
    </linearGradient>
    <linearGradient
       x1="-60.969666"
       y1="13.668072"
       x2="-60.908253"
       y2="114.5354"
       id="linearGradient3458"
       xlink:href="#linearGradient3600"
       gradientUnits="userSpaceOnUse"
       gradientTransform="matrix(0.45861392,2.7556002e-4,-2.7922522e-4,0.45259409,47.225732,-7.4274223)" />
    <linearGradient
       id="linearGradient3600">
      <stop
         id="stop3828"
         style="stop-color:#f4f4f4;stop-opacity:1"
         offset="0" />
      <stop
         id="stop3604"
         style="stop-color:#dbdbdb;stop-opacity:1"
         offset="1" />
    </linearGradient>
    <linearGradient
       x1="-51.786404"
       y1="53.514328"
       x2="-51.786404"
       y2="3.6336823"
       id="linearGradient3394"
       xlink:href="#linearGradient3104-8-8-97"
       gradientUnits="userSpaceOnUse"
       gradientTransform="matrix(0.80749834,0,0,0.83374395,59.410297,0.2581128)" />
    <linearGradient
       id="linearGradient3104-8-8-97">
      <stop
         id="stop3106-5-4-3"
         style="stop-color:#000000;stop-opacity:0.32173914"
         offset="0" />
      <stop
         id="stop3108-4-3-7"
         style="stop-color:#000000;stop-opacity:0.27826086"
         offset="1" />
    </linearGradient>
    <radialGradient
       cx="605.71429"
       cy="486.64789"
       r="117.14286"
       fx="605.71429"
       fy="486.64789"
       id="radialGradient3463"
       xlink:href="#linearGradient5060"
       gradientUnits="userSpaceOnUse"
       gradientTransform="matrix(0.02289231,0,0,0.01235294,26.353705,38.470849)" />
    <linearGradient
       id="linearGradient5060">
      <stop
         id="stop5062"
         style="stop-color:#000000;stop-opacity:1"
         offset="0" />
      <stop
         id="stop5064"
         style="stop-color:#000000;stop-opacity:0"
         offset="1" />
    </linearGradient>
    <radialGradient
       cx="605.71429"
       cy="486.64789"
       r="117.14286"
       fx="605.71429"
       fy="486.64789"
       id="radialGradient3466"
       xlink:href="#linearGradient5060"
       gradientUnits="userSpaceOnUse"
       gradientTransform="matrix(-0.02289231,0,0,0.01235294,21.646291,38.470849)" />
    <linearGradient
       id="linearGradient5048">
      <stop
         id="stop5050"
         style="stop-color:#000000;stop-opacity:0"
         offset="0" />
      <stop
         id="stop5056"
         style="stop-color:#000000;stop-opacity:1"
         offset="0.5" />
      <stop
         id="stop5052"
         style="stop-color:#000000;stop-opacity:0"
         offset="1" />
    </linearGradient>
    <linearGradient
       x1="302.85715"
       y1="366.64789"
       x2="302.85715"
       y2="609.50507"
       id="linearGradient4369"
       xlink:href="#linearGradient5048"
       gradientUnits="userSpaceOnUse"
       gradientTransform="matrix(0.06689349,0,0,0.01235294,-0.1772195,38.470823)" />
  </defs>
  <metadata
     id="metadata4380">
    <rdf:RDF>
      <cc:Work
         rdf:about="">
        <dc:format>image/svg+xml</dc:format>
        <dc:type
           rdf:resource="http://purl.org/dc/dcmitype/StillImage" />
        <dc:title />
      </cc:Work>
    </rdf:RDF>
  </metadata>
  <path
     style="color:#000000;display:inline;overflow:visible;visibility:visible;fill:none;stroke:none;stroke-width:0.99992168;stroke-linecap:butt;stroke-linejoin:round;stroke-miterlimit:4;stroke-dasharray:none;stroke-dashoffset:0;stroke-opacity:1;marker:none;enable-background:accumulate"
     id="path2855-8"
     inkscape:connector-curvature="0"
     d="M 7.4999853,3.4999608 H 40.500779 l 0.99926,41.0000782 -35.0000782,-0.02112 z" />
  <path
     style="display:inline;fill:url(#linearGradient3458);fill-opacity:1;stroke:#000000;stroke-width:0.1;stroke-opacity:0.39215687;stroke-miterlimit:4;stroke-dasharray:none"
     id="path2855"
     inkscape:connector-curvature="0"
     d="m 7.198309,3.2115041 c 8.678172,0.00521 24.925991,-0.00521 33.604159,0 0.07641,1.6284479 0.941101,38.7373449 1.017531,41.5784969 C 29.940001,44.782866 18.060002,44.77572 6.1800011,44.768581 6.2734919,41.577078 7.1048179,4.6435898 7.198309,3.2115041 Z" />
  <path
     style="display:inline;opacity:0.59069764;fill:#80b3ff;fill-rule:evenodd;stroke:#f6abab;stroke-width:0.49999991;stroke-linecap:round;stroke-linejoin:round;stroke-miterlimit:4;stroke-dasharray:none;stroke-opacity:1"
     id="path5685"
     inkscape:connector-curvature="0"
     d="M 12.687579,4.2498875 12.25,43.749999" />
  <path
     style="display:inline;opacity:0.43720931;fill:#80b3ff;fill-rule:evenodd;stroke:#80b3ff;stroke-width:0.24999996;stroke-linecap:round;stroke-linejoin:round;stroke-miterlimit:4;stroke-dasharray:none;stroke-opacity:1"
     id="path6656"
     inkscape:connector-curvature="0"
     d="M 40.057439,9.8749988 7.8771512,9.6904668" />
  <path
     style="display:inline;opacity:0.43720931;fill:#80b3ff;fill-rule:evenodd;stroke:#80b3ff;stroke-width:0.24999994;stroke-linecap:round;stroke-linejoin:round;stroke-miterlimit:4;stroke-dasharray:none;stroke-opacity:1"
     id="path6658"
     inkscape:connector-curvature="0"
     d="M 40.131449,11.874999 7.8685462,11.690464" />
  <path
     style="display:inline;opacity:0.43720931;fill:#80b3ff;fill-rule:evenodd;stroke:#80b3ff;stroke-width:0.24999996;stroke-linecap:round;stroke-linejoin:round;stroke-miterlimit:4;stroke-dasharray:none;stroke-opacity:1"
     id="path6660"
     inkscape:connector-curvature="0"
     d="M 40.214067,13.874999 7.7859295,13.690468" />
  <path
     style="display:inline;opacity:0.43720931;fill:#80b3ff;fill-rule:evenodd;stroke:#80b3ff;stroke-width:0.24999994;stroke-linecap:round;stroke-linejoin:round;stroke-miterlimit:4;stroke-dasharray:none;stroke-opacity:1"
     id="path6662"
     inkscape:connector-curvature="0"
     d="M 40.296684,15.874999 7.7033144,15.690466" />
  <path
     style="display:inline;opacity:0.43720931;fill:#80b3ff;fill-rule:evenodd;stroke:#80b3ff;stroke-width:0.24999994;stroke-linecap:round;stroke-linejoin:round;stroke-miterlimit:4;stroke-dasharray:none;stroke-opacity:1"
     id="path6664"
     inkscape:connector-curvature="0"
     d="M 40.296685,17.874999 7.7033138,17.690466" />
  <path
     style="display:inline;opacity:0.43720931;fill:#80b3ff;fill-rule:evenodd;stroke:#80b3ff;stroke-width:0.24999996;stroke-linecap:round;stroke-linejoin:round;stroke-miterlimit:4;stroke-dasharray:none;stroke-opacity:1"
     id="path6666"
     inkscape:connector-curvature="0"
     d="M 40.379302,19.874999 7.6206973,19.690465" />
  <path
     style="display:inline;overflow:visible;visibility:visible;opacity:0.43720931;fill:#80b3ff;fill-opacity:1;fill-rule:evenodd;stroke:#80b3ff;stroke-width:0.24999996;stroke-linecap:round;stroke-linejoin:round;stroke-miterlimit:4;stroke-dasharray:none;stroke-dashoffset:0;stroke-opacity:1;marker:none;enable-background:accumulate"
     id="path7637"
     inkscape:connector-curvature="0"
     d="M 40.379302,21.874999 7.6206974,21.690467" />
  <path
     style="display:inline;overflow:visible;visibility:visible;opacity:0.43720931;fill:#80b3ff;fill-opacity:1;fill-rule:evenodd;stroke:#80b3ff;stroke-width:0.24999997;stroke-linecap:round;stroke-linejoin:round;stroke-miterlimit:4;stroke-dasharray:none;stroke-dashoffset:0;stroke-opacity:1;marker:none;enable-background:accumulate"
     id="path7639"
     inkscape:connector-curvature="0"
     d="M 40.461915,23.874999 7.538081,23.690466" />
  <path
     style="display:inline;overflow:visible;visibility:visible;opacity:0.43720931;fill:#80b3ff;fill-opacity:1;fill-rule:evenodd;stroke:#80b3ff;stroke-width:0.24999997;stroke-linecap:round;stroke-linejoin:round;stroke-miterlimit:4;stroke-dasharray:none;stroke-dashoffset:0;stroke-opacity:1;marker:none;enable-background:accumulate"
     id="path7641"
     inkscape:connector-curvature="0"
     d="M 40.461913,25.874999 7.5380821,25.690466" />
  <path
     style="display:inline;overflow:visible;visibility:visible;opacity:0.43720931;fill:#80b3ff;fill-opacity:1;fill-rule:evenodd;stroke:#80b3ff;stroke-width:0.24999997;stroke-linecap:round;stroke-linejoin:round;stroke-miterlimit:4;stroke-dasharray:none;stroke-dashoffset:0;stroke-opacity:1;marker:none;enable-background:accumulate"
     id="path7645"
     inkscape:connector-curvature="0"
     d="M 40.627148,27.874999 7.3728501,27.690469" />
  <path
     style="display:inline;overflow:visible;visibility:visible;opacity:0.43720931;fill:#80b3ff;fill-opacity:1;fill-rule:evenodd;stroke:#80b3ff;stroke-width:0.24999997;stroke-linecap:round;stroke-linejoin:round;stroke-miterlimit:4;stroke-dasharray:none;stroke-dashoffset:0;stroke-opacity:1;marker:none;enable-background:accumulate"
     id="path7647"
     inkscape:connector-curvature="0"
     d="M 40.627148,29.864131 7.3728497,29.679597" />
  <path
     style="display:inline;overflow:visible;visibility:visible;opacity:0.43720931;fill:#80b3ff;fill-opacity:1;fill-rule:evenodd;stroke:#80b3ff;stroke-width:0.24999996;stroke-linecap:round;stroke-linejoin:round;stroke-miterlimit:4;stroke-dasharray:none;stroke-dashoffset:0;stroke-opacity:1;marker:none;enable-background:accumulate"
     id="path7649"
     inkscape:connector-curvature="0"
     d="M 40.874996,31.874999 7.125001,31.690466" />
  <path
     style="display:inline;overflow:visible;visibility:visible;opacity:0.43720931;fill:#80b3ff;fill-opacity:1;fill-rule:evenodd;stroke:#80b3ff;stroke-width:0.24999996;stroke-linecap:round;stroke-linejoin:round;stroke-miterlimit:4;stroke-dasharray:none;stroke-dashoffset:0;stroke-opacity:1;marker:none;enable-background:accumulate"
     id="path7651"
     inkscape:connector-curvature="0"
     d="M 40.874996,33.830428 7.125001,33.645894" />
  <path
     style="display:inline;overflow:visible;visibility:visible;opacity:0.43720931;fill:#80b3ff;fill-opacity:1;fill-rule:evenodd;stroke:#80b3ff;stroke-width:0.24999996;stroke-linecap:round;stroke-linejoin:round;stroke-miterlimit:4;stroke-dasharray:none;stroke-dashoffset:0;stroke-opacity:1;marker:none;enable-background:accumulate"
     id="path7653"
     inkscape:connector-curvature="0"
     d="M 40.874995,35.813576 7.1250017,35.629044" />
  <path
     style="display:inline;overflow:visible;visibility:visible;opacity:0.43720931;fill:#80b3ff;fill-opacity:1;fill-rule:evenodd;stroke:#80b3ff;stroke-width:0.24999996;stroke-linecap:round;stroke-linejoin:round;stroke-miterlimit:4;stroke-dasharray:none;stroke-dashoffset:0;stroke-opacity:1;marker:none;enable-background:accumulate"
     id="path7655"
     inkscape:connector-curvature="0"
     d="M 40.874996,37.796724 7.1250009,37.612188" />
  <path
     style="display:inline;overflow:visible;visibility:visible;opacity:0.43720931;fill:#80b3ff;fill-opacity:1;fill-rule:evenodd;stroke:#80b3ff;stroke-width:0.24999996;stroke-linecap:round;stroke-linejoin:round;stroke-miterlimit:4;stroke-dasharray:none;stroke-dashoffset:0;stroke-opacity:1;marker:none;enable-background:accumulate"
     id="path7657"
     inkscape:connector-curvature="0"
     d="M 40.874995,39.779873 7.1250018,39.595339" />
  <path
     style="display:inline;overflow:visible;visibility:visible;opacity:0.43720931;fill:#80b3ff;fill-opacity:1;fill-rule:evenodd;stroke:#80b3ff;stroke-width:0.24999996;stroke-linecap:round;stroke-linejoin:round;stroke-miterlimit:4;stroke-dasharray:none;stroke-dashoffset:0;stroke-opacity:1;marker:none;enable-background:accumulate"
     id="path7659"
     inkscape:connector-curvature="0"
     d="M 40.874995,41.874999 7.1250016,41.690466" />
  <path
     style="display:inline;opacity:0.59069764;fill:none;stroke:#b9d5ff;stroke-width:0.49999991;stroke-linecap:round;stroke-linejoin:round;stroke-miterlimit:4;stroke-dasharray:none;stroke-opacity:1"
     id="path7671"
     inkscape:connector-curvature="0"
     d="M 35.25,4.1672721 36.299508,43.667383" />
  <path
     style="fill:none;stroke:url(#linearGradient3436);stroke-width:1px;stroke-linecap:butt;stroke-linejoin:miter;stroke-opacity:1"
     id="path3715"
     inkscape:connector-curvature="0"
     d="m 12.998934,11.546347 h 2.34797 m 0.335425,0 h 2.180258 m 0.350956,0 h 1.945461 m 0.319893,0 h 0.83856 m 0.335425,0 h 1.878376 m 0.368967,0 h 4.930737 m 0.335426,0 h 3.756752 m 0.335425,0 h 1.140442 M 12.998934,13.5 h 3.640632 m 0.423562,0 h 1.739577 m 0.321577,0 h 0.85845 m 0.349272,0 h 1.602406 m 0.335425,0 h 1.643346 m 0.31021,0 h 2.580441 m 0.335426,0 h 3.404208 m -17.544532,1.980028 h 3.081427 m 0.323704,0 h 5.074837 m 0.31103,0 h 2.461186 m 0.315453,0 h 2.30241 m 0.330181,0 h 1.961321 m 0.315454,0 L 32.5606,15.5 m -19.561666,2 h 4.284352 m 0.336433,0 h 4.630578 m 0.319893,0 h 1.81966 m 0.335425,0 h 4.331127 m 0.291512,0 h 2.968536 m 0.335426,0 h 1.174909 m 0.335425,0 h 0.649892 m -21.813168,2 h 1.599235 m 0.491344,0 h 5.921499 m -8.012078,10 h 3.640632 m 0.423562,0 h 1.739577 m 0.321577,0 h 0.85845 m 0.349272,0 h 1.602406 m 0.335425,0 h 1.643346 m 0.31021,0 h 2.580441 m -13.804898,3.980028 h 3.081427 m 0.323704,0 h 5.074837 m 0.31103,0 h 2.461186 m 8.697299,0.06136 h 5.026898 M 12.998934,27.5 h 4.284352 m 0.336433,0 h 4.630578 m 0.319893,0 h 1.81966 m 0.335425,0 h 4.331127 m -16.057468,-4 h 2.34797 m 0.335425,0 h 2.180258 m 0.350956,0 h 1.945461 m 0.319893,0 h 0.83856 m 0.335425,0 h 1.878376 m 0.368967,0 h 4.930737 m 0.335426,0 h 3.756752 m -19.924206,2 h 3.954284 m 0.311043,0 h 4.198951 m 0.319893,0 h 1.641931 m 0.310036,0 h 3.950279 m 0.316902,0 h 4.314197 m -19.317516,10 h 3.695207 m 0.396663,0 h 1.629116 m 0.381575,0 h 0.812557 m 0.258655,0 h 1.604035 m 0.212949,0 h 8.492084 m 0.399586,0 h 2.266883 m 0.304807,0 h 0.572374 m -16.81675,2 h 1.20539 m -5.415131,0 h 3.856881 m 1.866532,0 h 2.804548 m 0.29667,0 h 4.116902 m 0.319893,0 h 2.792858 m 0.281139,0 h 0.575511 m 0.314681,0 h 3.546443 m 0.362569,0 h 1.85674 m -18.781626,2 h 1.701949 m -5.91169,0 h 3.856881 m 2.423647,0 h 2.392767" />
  <path
     style="fill:url(#linearGradient3432);fill-opacity:1;stroke:#000000;stroke-width:0.1;stroke-linecap:butt;stroke-linejoin:round;stroke-miterlimit:4;stroke-dasharray:none;stroke-dashoffset:0;stroke-opacity:0.39215687"
     id="rect2383"
     inkscape:connector-curvature="0"
     d="m 24.831938,31.088145 c 0.45038,-0.337962 1.714075,0.295998 2.875357,1.451501 1.158504,1.15274 1.768934,2.386228 1.438623,2.841017 -0.0012,0.0017 0.02842,0.02529 0.02713,0.027 L 45.343192,19.158249 C 45.753739,18.74569 45.115859,17.44195 43.91771,16.249764 42.719565,15.057579 41.412628,14.426173 41.002078,14.838735 Z" />
  <path
     style="opacity:1;fill:#e28ccd;fill-opacity:1;stroke:#e28ccd;stroke-width:0.45671201;stroke-linecap:butt;stroke-linejoin:round;stroke-miterlimit:4;stroke-dasharray:none;stroke-dashoffset:0;stroke-opacity:1"
     id="rect3175"
     inkscape:connector-curvature="0"
     d="m 41.931599,18.244669 c 1.697405,2.351641 1.129999,2.837814 3.110652,0.800372 l 0.03643,-0.0366 c 0.0013,-0.0017 -0.02568,-0.02286 -0.02453,-0.02441 0.298753,-0.411343 -0.253365,-1.527001 -1.301199,-2.569621 -1.050347,-1.045121 -2.193324,-1.618521 -2.600682,-1.312841 l -0.03643,0.0366 c -2.516921,2.15464 -0.798326,1.53263 0.815762,3.106504 z"
     sodipodi:nodetypes="ccccsccc" />
  <path
     style="fill:url(#linearGradient3427);fill-opacity:1;stroke:none"
     id="path3233"
     inkscape:connector-curvature="0"
     d="m 36.800145,19.10424 c 0.44592,-0.334617 1.697106,0.293068 2.846888,1.43713 1.147033,1.141325 1.751421,2.362601 1.424379,2.812888 -0.0012,0.0017 0.02814,0.02504 0.02686,0.02673 L 41.29765,23.18063 c 0.0013,-0.0017 -0.02811,-0.02502 -0.02686,-0.02673 0.327042,-0.450286 -0.277346,-1.671563 -1.42438,-2.812886 -1.149782,-1.144063 -2.400967,-1.771747 -2.846887,-1.437131 l -0.199378,0.200356 z" />
  <path
     style="fill:url(#linearGradient3424);fill-opacity:1;stroke:none"
     id="path3216"
     inkscape:connector-curvature="0"
     d="m 36.617427,19.287853 c 0.445922,-0.334617 1.697107,0.293067 2.846888,1.437129 1.147035,1.141326 1.751422,2.362601 1.42438,2.812887 -0.0012,0.0017 0.02813,0.02504 0.02686,0.02673 l 0.199377,-0.200357 c 0.0013,-0.0017 -0.02811,-0.02502 -0.02686,-0.02673 0.327044,-0.450285 -0.277344,-1.671561 -1.424379,-2.812886 -1.149782,-1.144062 -2.400966,-1.771747 -2.846889,-1.43713 l -0.199377,0.200356 z" />
  <path
     style="fill:url(#linearGradient3421);fill-opacity:1;stroke:none"
     id="path3248"
     inkscape:connector-curvature="0"
     d="m 37.435085,18.466187 c 0.445921,-0.334617 1.697105,0.293067 2.846888,1.43713 1.147033,1.141325 1.751421,2.3626 1.42438,2.812887 -0.0012,0.0017 0.02813,0.02504 0.02686,0.02673 l 0.199378,-0.200355 c 0.0013,-0.0017 -0.02811,-0.02502 -0.02686,-0.02673 0.327041,-0.450286 -0.277346,-1.671563 -1.424381,-2.812887 -1.149782,-1.144063 -2.400964,-1.771747 -2.846888,-1.43713 z" />
  <path
     style="fill:url(#linearGradient3418);fill-opacity:1;stroke:none"
     id="path3250"
     inkscape:connector-curvature="0"
     d="m 37.252367,18.6498 c 0.445923,-0.334617 1.697107,0.293067 2.846888,1.437129 1.147035,1.141326 1.751422,2.362601 1.424381,2.812887 -0.0012,0.0017 0.02814,0.02504 0.02686,0.02673 l 0.199377,-0.200356 c 0.0013,-0.0017 -0.02811,-0.02502 -0.02686,-0.02673 0.327042,-0.450286 -0.277345,-1.671563 -1.424379,-2.812886 -1.149781,-1.144063 -2.400966,-1.771748 -2.846889,-1.43713 z" />
  <path
     style="fill:url(#linearGradient3415);fill-opacity:1;stroke:none"
     id="path3256"
     inkscape:connector-curvature="0"
     d="m 38.073095,17.82505 c 0.44592,-0.334616 1.697104,0.293068 2.846887,1.43713 1.147033,1.141325 1.751421,2.362601 1.42438,2.812887 -0.0012,0.0017 0.02813,0.02504 0.02686,0.02673 l 0.199376,-0.200356 c 0.0013,-0.0017 -0.02811,-0.02502 -0.02686,-0.02673 0.327042,-0.450285 -0.277346,-1.671562 -1.42438,-2.812887 -1.14978,-1.144062 -2.400965,-1.771747 -2.846887,-1.437129 z" />
  <path
     style="fill:url(#linearGradient3412);fill-opacity:1;stroke:none"
     id="path3258"
     inkscape:connector-curvature="0"
     d="m 37.890378,18.008663 c 0.445919,-0.334617 1.697105,0.293067 2.846887,1.437131 1.147033,1.141324 1.751422,2.3626 1.424379,2.812885 -0.0012,0.0017 0.02814,0.02504 0.02686,0.02673 l 0.199378,-0.200354 c 0.0013,-0.0017 -0.02811,-0.02502 -0.02686,-0.02673 0.327042,-0.450287 -0.277346,-1.671563 -1.424379,-2.812887 -1.149782,-1.144063 -2.400967,-1.771748 -2.846888,-1.43713 z" />
  <path
     style="fill:url(#linearGradient3407);fill-opacity:1;fill-rule:evenodd;stroke:#000000;stroke-width:0.09319722;stroke-linecap:butt;stroke-linejoin:miter;stroke-miterlimit:4;stroke-dasharray:none;stroke-opacity:0.39215686"
     id="path3270"
     inkscape:connector-curvature="0"
     d="m 21.726677,38.464317 7.441404,-3.035452 0.06341,-0.06341 c 0.334116,-0.460078 -0.291409,-1.708012 -1.46327,-2.874164 -1.174672,-1.168944 -2.451428,-1.806736 -2.907003,-1.464842 z" />
  <path
     style="fill:#0c0c0c;fill-opacity:1;fill-rule:evenodd;stroke:none;stroke-width:0.61960846;stroke-linecap:butt;stroke-linejoin:miter;stroke-miterlimit:4;stroke-dasharray:none;stroke-opacity:1"
     id="path3281"
     inkscape:connector-curvature="0"
     d="m 22.65823,36.104648 -1.031085,2.432046 2.463443,-1.008621 C 23.893144,37.291874 23.710875,37.051965 23.473818,36.81639 23.200905,36.545177 22.932469,36.325121 22.65823,36.104648 Z" />
  <path
     style="opacity:0.6;fill:#0c0c0c;fill-opacity:1;stroke:none"
     id="path3208"
     inkscape:connector-curvature="0"
     d="m 24.934095,31.028459 c 0.445921,-0.334616 1.697105,0.293068 2.846887,1.43713 1.147034,1.141326 1.751421,2.362602 1.42438,2.812888 -0.0012,0.0017 0.02814,0.02504 0.02687,0.02673 l 11.025592,-11.079643 0.03988,-0.04007 c 0.0013,-0.0017 -0.02811,-0.02502 -0.02686,-0.02673 0.327034,-0.450289 -0.277353,-1.671564 -1.424386,-2.81289 -1.149783,-1.144062 -2.400968,-1.771746 -2.846889,-1.437129 l -0.03988,0.04007 L 24.9341,31.028459 Z" />
</svg>
