<?xml version="1.0" encoding="UTF-8" standalone="no"?>
<!-- Created with Inkscape (http://www.inkscape.org/) -->

<svg
   xmlns:dc="http://purl.org/dc/elements/1.1/"
   xmlns:cc="http://creativecommons.org/ns#"
   xmlns:rdf="http://www.w3.org/1999/02/22-rdf-syntax-ns#"
   xmlns:svg="http://www.w3.org/2000/svg"
   xmlns="http://www.w3.org/2000/svg"
   xmlns:xlink="http://www.w3.org/1999/xlink"
   xmlns:sodipodi="http://sodipodi.sourceforge.net/DTD/sodipodi-0.dtd"
   xmlns:inkscape="http://www.inkscape.org/namespaces/inkscape"
   version="1.1"
   width="48"
   height="48"
   id="svg4405"
   sodipodi:docname="application-default-icon.svg"
   inkscape:version="0.92.4 5da689c313, 2019-01-14">
  <sodipodi:namedview
     pagecolor="#ffffff"
     bordercolor="#666666"
     borderopacity="1"
     objecttolerance="10"
     gridtolerance="10"
     guidetolerance="10"
     inkscape:pageopacity="0"
     inkscape:pageshadow="2"
     inkscape:window-width="1680"
     inkscape:window-height="990"
     id="namedview5583"
     showgrid="false"
     inkscape:zoom="16.458333"
     inkscape:cx="24"
     inkscape:cy="24"
     inkscape:window-x="0"
     inkscape:window-y="31"
     inkscape:window-maximized="1"
     inkscape:current-layer="svg4405" />
  <defs
     id="defs4407">
    <linearGradient
       id="linearGradient3851">
      <stop
         id="stop3853"
         style="stop-color:#000000;stop-opacity:0.43200001"
         offset="0" />
      <stop
         id="stop3855"
         style="stop-color:#000000;stop-opacity:0.627451"
         offset="1" />
    </linearGradient>
    <linearGradient
       x1="23.06352"
       y1="12.978221"
       x2="23.06352"
       y2="36.949589"
       id="linearGradient4326"
       xlink:href="#linearGradient4311"
       gradientUnits="userSpaceOnUse"
       gradientTransform="matrix(1,0,0,-1,0,50.012147)" />
    <linearGradient
       id="linearGradient4311">
      <stop
         id="stop4313"
         style="stop-color:#000000;stop-opacity:1"
         offset="0" />
      <stop
         id="stop4315"
         style="stop-color:#000000;stop-opacity:0"
         offset="1" />
    </linearGradient>
    <linearGradient
       x1="23.06352"
       y1="12.978221"
       x2="23.06352"
       y2="36.949589"
       id="linearGradient4320"
       xlink:href="#linearGradient4311"
       gradientUnits="userSpaceOnUse" />
    <linearGradient
       x1="19.927404"
       y1="44.949184"
       x2="19.927404"
       y2="4.9969058"
       id="linearGradient4273"
       xlink:href="#linearGradient3707-319-631-407-324-616"
       gradientUnits="userSpaceOnUse" />
    <linearGradient
       id="linearGradient3707-319-631-407-324-616">
      <stop
         id="stop3246"
         style="stop-color:#505050;stop-opacity:1"
         offset="0" />
      <stop
         id="stop3248"
         style="stop-color:#8e8e8e;stop-opacity:1"
         offset="1" />
    </linearGradient>
    <linearGradient
       x1="23.99999"
       y1="4.999989"
       x2="23.99999"
       y2="43"
       id="linearGradient3473"
       xlink:href="#linearGradient3924-803"
       gradientUnits="userSpaceOnUse"
       gradientTransform="translate(1.17e-5,1.00001)" />
    <linearGradient
       id="linearGradient3924-803">
      <stop
         id="stop3252"
         style="stop-color:#ffffff;stop-opacity:1"
         offset="0" />
      <stop
         id="stop3254"
         style="stop-color:#ffffff;stop-opacity:0.23529412"
         offset="0.06316455" />
      <stop
         id="stop3256"
         style="stop-color:#ffffff;stop-opacity:0.15686275"
         offset="0.95056331" />
      <stop
         id="stop3258"
         style="stop-color:#ffffff;stop-opacity:0.39215687"
         offset="1" />
    </linearGradient>
    <radialGradient
       cx="7.4956832"
       cy="8.4497671"
       r="19.99999"
       fx="7.4956832"
       fy="8.4497671"
       id="radialGradient3476"
       xlink:href="#linearGradient2867-449-88-871-390-598-476-591-434-148-57-177-641"
       gradientUnits="userSpaceOnUse"
       gradientTransform="matrix(1.9926633e-8,2.3969129,-2.5356479,-4.4160283e-8,45.425748,-12.369024)" />
    <linearGradient
       id="linearGradient2867-449-88-871-390-598-476-591-434-148-57-177-641">
      <stop
         id="stop3236"
         style="stop-color:#c7c7c7;stop-opacity:1"
         offset="0" />
      <stop
         id="stop3238"
         style="stop-color:#a6a6a6;stop-opacity:1"
         offset="0.26238" />
      <stop
         id="stop3240"
         style="stop-color:#7b7b7b;stop-opacity:1"
         offset="0.704952" />
      <stop
         id="stop3242"
         style="stop-color:#595959;stop-opacity:1"
         offset="1" />
    </linearGradient>
    <radialGradient
       cx="4.9929786"
       cy="43.5"
       r="2.5"
       fx="4.9929786"
       fy="43.5"
       id="radialGradient3013-896"
       xlink:href="#linearGradient3688-166-749-2-324"
       gradientUnits="userSpaceOnUse"
       gradientTransform="matrix(2.003784,0,0,1.4,27.98813,-17.4)" />
    <linearGradient
       id="linearGradient3688-166-749-2-324">
      <stop
         id="stop3216"
         style="stop-color:#181818;stop-opacity:1"
         offset="0" />
      <stop
         id="stop3218"
         style="stop-color:#181818;stop-opacity:0"
         offset="1" />
    </linearGradient>
    <radialGradient
       cx="4.9929786"
       cy="43.5"
       r="2.5"
       fx="4.9929786"
       fy="43.5"
       id="radialGradient3015-826"
       xlink:href="#linearGradient3688-464-309-8-331"
       gradientUnits="userSpaceOnUse"
       gradientTransform="matrix(2.003784,0,0,1.4,-20.01187,-104.4)" />
    <linearGradient
       id="linearGradient3688-464-309-8-331">
      <stop
         id="stop3222"
         style="stop-color:#181818;stop-opacity:1"
         offset="0" />
      <stop
         id="stop3224"
         style="stop-color:#181818;stop-opacity:0"
         offset="1" />
    </linearGradient>
    <linearGradient
       id="linearGradient3702-501-757-6-946">
      <stop
         id="stop3228"
         style="stop-color:#181818;stop-opacity:0"
         offset="0" />
      <stop
         id="stop3230"
         style="stop-color:#181818;stop-opacity:1"
         offset="0.5" />
      <stop
         id="stop3232"
         style="stop-color:#181818;stop-opacity:0"
         offset="1" />
    </linearGradient>
    <linearGradient
       x1="25.058096"
       y1="47.027729"
       x2="25.058096"
       y2="39.999443"
       id="linearGradient4395"
       xlink:href="#linearGradient3702-501-757-6-946"
       gradientUnits="userSpaceOnUse" />
    <linearGradient
       x1="0.85715157"
       y1="5.7142859"
       x2="0.85715157"
       y2="44.858185"
       id="linearGradient3857"
       xlink:href="#linearGradient3851"
       gradientUnits="userSpaceOnUse"
       gradientTransform="translate(41.285715)" />
  </defs>
  <metadata
     id="metadata4410">
    <rdf:RDF>
      <cc:Work
         rdf:about="">
        <dc:format>image/svg+xml</dc:format>
        <dc:type
           rdf:resource="http://purl.org/dc/dcmitype/StillImage" />
        <dc:title />
      </cc:Work>
    </rdf:RDF>
  </metadata>
  <rect
     style="color:#000000;display:inline;overflow:visible;visibility:visible;fill:url(#radialGradient3476);fill-opacity:1;fill-rule:nonzero;stroke:#000000;stroke-width:0.1;marker:none;enable-background:accumulate;stroke-opacity:0.39215687;stroke-miterlimit:4;stroke-dasharray:none"
     id="rect5505-21"
     y="5"
     x="4"
     ry="1.5822434"
     rx="1.5822434"
     height="40"
     width="40" />
  <path
     style="display:inline;overflow:visible;visibility:visible;fill:#505050;fill-opacity:1;fill-rule:nonzero;stroke:none;stroke-width:1.70000005;marker:none;enable-background:accumulate;opacity:0.8"
     id="rect3557"
     inkscape:connector-curvature="0"
     d="m 23,13 c -0.554,0 -1,0.446 -1,1 v 2.25 c -1.005406,0.228939 -1.934872,0.621619 -2.78125,1.15625 L 17.625,15.8125 c -0.391737,-0.391737 -1.014512,-0.391737 -1.40625,0 l -1.40625,1.40625 c -0.391737,0.391737 -0.391737,1.014512 0,1.40625 l 1.59375,1.59375 C 15.871619,21.065128 15.478939,21.994594 15.25,23 H 13 c -0.554,0 -1,0.446 -1,1 v 2 c 0,0.554 0.446,1 1,1 h 2.25 c 0.228939,1.005406 0.621619,1.934872 1.15625,2.78125 L 14.8125,31.375 c -0.391737,0.391737 -0.391737,1.014512 0,1.40625 l 1.40625,1.40625 c 0.391737,0.391737 1.014512,0.391739 1.40625,0 l 1.59375,-1.59375 C 20.065128,33.128381 20.994594,33.521061 22,33.75 V 36 c 0,0.554 0.446,1 1,1 h 2 c 0.554,0 1,-0.446 1,-1 v -2.25 c 1.005406,-0.228939 1.934872,-0.621619 2.78125,-1.15625 L 30.375,34.1875 c 0.391737,0.391737 1.014512,0.391735 1.40625,0 l 1.40625,-1.40625 c 0.391737,-0.391737 0.391739,-1.014514 0,-1.40625 L 31.59375,29.78125 C 32.128381,28.934872 32.521061,28.005406 32.75,27 H 35 c 0.554,0 1,-0.446 1,-1 v -2 c 0,-0.554 -0.446,-1 -1,-1 H 32.75 C 32.521061,21.994594 32.128381,21.065128 31.59375,20.21875 L 33.1875,18.625 c 0.391737,-0.391737 0.391735,-1.014512 0,-1.40625 L 31.78125,15.8125 c -0.391737,-0.391737 -1.014514,-0.391737 -1.40625,0 l -1.59375,1.59375 C 27.934872,16.871619 27.005406,16.478939 26,16.25 V 14 c 0,-0.554 -0.446,-1 -1,-1 z m 1,8 c 2.208,-1e-6 4,1.792 4,4 0,2.208001 -1.792,4 -4,4 -2.207999,1e-6 -4,-1.792 -4,-4 1e-6,-2.207999 1.792,-4 4,-4 z" />
</svg>
