<?xml version="1.0" encoding="UTF-8" standalone="no"?>
<!-- Created with Inkscape (http://www.inkscape.org/) -->

<svg
   xmlns:dc="http://purl.org/dc/elements/1.1/"
   xmlns:cc="http://creativecommons.org/ns#"
   xmlns:rdf="http://www.w3.org/1999/02/22-rdf-syntax-ns#"
   xmlns:svg="http://www.w3.org/2000/svg"
   xmlns="http://www.w3.org/2000/svg"
   xmlns:xlink="http://www.w3.org/1999/xlink"
   xmlns:sodipodi="http://sodipodi.sourceforge.net/DTD/sodipodi-0.dtd"
   xmlns:inkscape="http://www.inkscape.org/namespaces/inkscape"
   version="1.0"
   width="48"
   height="48"
   id="svg4908"
   sodipodi:version="0.32"
   inkscape:version="0.92.4 5da689c313, 2019-01-14"
   sodipodi:docname="ibus.svg"
   inkscape:output_extension="org.inkscape.output.svg.inkscape">
  <metadata
     id="metadata47">
    <rdf:RDF>
      <cc:Work
         rdf:about="">
        <dc:format>image/svg+xml</dc:format>
        <dc:type
           rdf:resource="http://purl.org/dc/dcmitype/StillImage" />
      </cc:Work>
    </rdf:RDF>
  </metadata>
  <sodipodi:namedview
     inkscape:window-height="990"
     inkscape:window-width="1680"
     inkscape:pageshadow="2"
     inkscape:pageopacity="0.0"
     guidetolerance="10.0"
     gridtolerance="10.0"
     objecttolerance="10.0"
     borderopacity="1.0"
     bordercolor="#666666"
     pagecolor="#ffffff"
     id="base"
     showgrid="false"
     inkscape:zoom="11.895833"
     inkscape:cx="10.886165"
     inkscape:cy="24"
     inkscape:window-x="0"
     inkscape:window-y="31"
     inkscape:current-layer="svg4908"
     inkscape:window-maximized="1" />
  <defs
     id="defs4910">
    <linearGradient
       id="linearGradient5554">
      <stop
         id="stop5556"
         style="stop-color:#7d7f79;stop-opacity:1"
         offset="0" />
      <stop
         id="stop5558"
         style="stop-color:#a5a7a2;stop-opacity:1"
         offset="1" />
    </linearGradient>
    <linearGradient
       id="linearGradient5954">
      <stop
         id="stop5956"
         style="stop-color:white;stop-opacity:1"
         offset="0" />
      <stop
         id="stop5958"
         style="stop-color:white;stop-opacity:0"
         offset="1" />
    </linearGradient>
    <linearGradient
       id="linearGradient5946">
      <stop
         id="stop5948"
         style="stop-color:white;stop-opacity:1"
         offset="0" />
      <stop
         id="stop5950"
         style="stop-color:white;stop-opacity:0"
         offset="1" />
    </linearGradient>
    <linearGradient
       id="linearGradient5566">
      <stop
         id="stop5568"
         style="stop-color:#eeeeec;stop-opacity:1"
         offset="0" />
      <stop
         id="stop5570"
         style="stop-color:#eeeeec;stop-opacity:0"
         offset="1" />
    </linearGradient>
    <linearGradient
       id="linearGradient5684">
      <stop
         id="stop5686"
         style="stop-color:white;stop-opacity:1"
         offset="0" />
      <stop
         id="stop5688"
         style="stop-color:#fbfbfa;stop-opacity:0"
         offset="1" />
    </linearGradient>
    <linearGradient
       id="linearGradient5582">
      <stop
         id="stop5584"
         style="stop-color:#f1f1ef;stop-opacity:1"
         offset="0" />
      <stop
         id="stop5586"
         style="stop-color:#dcdfd8;stop-opacity:1"
         offset="1" />
    </linearGradient>
    <radialGradient
       inkscape:collect="always"
       xlink:href="#linearGradient5582"
       id="radialGradient2440"
       gradientUnits="userSpaceOnUse"
       gradientTransform="matrix(1.701121,0,-2.5149135e-6,2.0543533,6.1379187,1.3748977)"
       cx="4.0799417"
       cy="5.0786786"
       fx="4.0799417"
       fy="5.0786786"
       r="9.9909229" />
    <linearGradient
       inkscape:collect="always"
       xlink:href="#linearGradient5554"
       id="linearGradient2442"
       gradientUnits="userSpaceOnUse"
       gradientTransform="matrix(0.9508559,0,0,0.9497204,1.102306,1.1876898)"
       x1="16.066387"
       y1="26.936842"
       x2="16.362761"
       y2="2.9876688" />
  </defs>
  <path
     style="fill:#6f97c9;fill-opacity:1;stroke:none;opacity:0.2"
     d="M 6.0151663,2.0034294 C 18.140679,2.017035 30.267556,1.9761964 42.392215,2.0238866 C 44.770729,2.1860895 46.274098,4.6115613 45.958227,6.8505488 C 45.944636,18.696551 45.985435,30.543919 45.937788,42.389068 C 45.775727,44.769657 43.352368,46.274337 41.115333,45.958192 C 29.279654,45.944587 17.442612,45.985422 5.6077866,45.937735 C 3.2292715,45.775532 1.7259019,43.35006 2.0417724,41.111072 C 2.0553648,29.265069 2.0145655,17.417702 2.0622118,5.5725541 C 2.2274227,3.5870956 4.0243958,1.9649638 6.0151663,2.0034294 z"
     id="path3190" />
  <path
     style="fill:#6f97c9;fill-opacity:1;stroke:none;opacity:0.6"
     d="M 6.8326587,3.0032727 C 18.407012,3.0162599 29.982667,2.9772776 41.556205,3.0228 C 43.826605,3.1776301 45.261639,5.4928532 44.960126,7.6300685 C 44.947152,18.937616 44.986097,30.246467 44.940616,41.5532 C 44.785921,43.825581 42.472715,45.261866 40.337363,44.960091 C 29.03967,44.947105 17.740675,44.986084 6.4437963,44.940564 C 4.1733955,44.785734 2.7383609,42.470511 3.0398737,40.333295 C 3.0528482,29.025747 3.0139034,17.716896 3.059384,6.4101645 C 3.2170853,4.5149541 4.9323778,2.9665555 6.8326587,3.0032727 z"
     id="rect3915" />
  <rect
     style="fill:url(#radialGradient2440);fill-opacity:1;stroke:url(#linearGradient2442);stroke-width:0.99999994;stroke-linecap:round;stroke-linejoin:miter;stroke-miterlimit:4;stroke-dasharray:none;stroke-dashoffset:0;stroke-opacity:1"
     id="rect4965"
     y="4.5"
     x="4.5"
     ry="2.5"
     rx="2.5"
     height="39"
     width="39" />
  <path
     style="font-size:28px;font-style:normal;font-weight:normal;fill:#333333;fill-opacity:1;stroke:none;font-family:Bitstream Vera Sans"
     id="text1891"
     d="M 26.857422,30.955078 L 29,31 L 29,33 L 20,33 L 20,31 L 22,31 L 22,22.999999 L 20,22.999999 L 20,20.999999 L 27,20.999999 L 27,31" />
  <path
     style="fill:#333333;fill-opacity:1;stroke:none"
     id="path2782"
     d="M 26.999997,16.499997 C 26.999997,17.880709 25.880708,18.999998 24.499996,18.999998 C 23.119285,18.999998 21.999996,17.880709 21.999996,16.499997 C 21.999996,15.119286 23.119285,13.999997 24.499996,13.999997 C 25.880708,13.999997 26.999997,15.119286 26.999997,16.499997 z" />
</svg>
