<?xml version="1.0" encoding="UTF-8" standalone="no"?>
<!-- Created with Inkscape (http://www.inkscape.org/) -->

<svg
   xmlns:dc="http://purl.org/dc/elements/1.1/"
   xmlns:cc="http://creativecommons.org/ns#"
   xmlns:rdf="http://www.w3.org/1999/02/22-rdf-syntax-ns#"
   xmlns:svg="http://www.w3.org/2000/svg"
   xmlns="http://www.w3.org/2000/svg"
   xmlns:xlink="http://www.w3.org/1999/xlink"
   xmlns:sodipodi="http://sodipodi.sourceforge.net/DTD/sodipodi-0.dtd"
   xmlns:inkscape="http://www.inkscape.org/namespaces/inkscape"
   version="1.1"
   width="48"
   height="48"
   id="svg6955"
   sodipodi:docname="internet-chat.svg"
   inkscape:version="0.92.4 5da689c313, 2019-01-14">
  <sodipodi:namedview
     pagecolor="#ffffff"
     bordercolor="#666666"
     borderopacity="1"
     objecttolerance="10"
     gridtolerance="10"
     guidetolerance="10"
     inkscape:pageopacity="0"
     inkscape:pageshadow="2"
     inkscape:window-width="1680"
     inkscape:window-height="990"
     id="namedview10091"
     showgrid="false"
     inkscape:zoom="16.458333"
     inkscape:cx="24"
     inkscape:cy="24"
     inkscape:window-x="0"
     inkscape:window-y="31"
     inkscape:window-maximized="1"
     inkscape:current-layer="svg6955" />
  <defs
     id="defs6957">
    <linearGradient
       x1="22.642942"
       y1="26.966721"
       x2="22.642942"
       y2="30.98424"
       id="linearGradient6883"
       xlink:href="#linearGradient3922"
       gradientUnits="userSpaceOnUse"
       gradientTransform="translate(-0.2938755,2.5949995)" />
    <linearGradient
       id="linearGradient3922">
      <stop
         id="stop3924"
         style="stop-color:#000000;stop-opacity:1"
         offset="0" />
      <stop
         id="stop3926-9"
         style="stop-color:#000000;stop-opacity:0"
         offset="1" />
    </linearGradient>
    <linearGradient
       x1="22.642942"
       y1="26.966721"
       x2="22.642942"
       y2="30.98424"
       id="linearGradient6886"
       xlink:href="#linearGradient3922"
       gradientUnits="userSpaceOnUse"
       gradientTransform="translate(-0.2938755,2.5949995)" />
    <linearGradient
       x1="132.3414"
       y1="2.2922528"
       x2="132.3414"
       y2="33.33271"
       id="linearGradient6784"
       xlink:href="#linearGradient6786"
       gradientUnits="userSpaceOnUse"
       gradientTransform="matrix(0.89189031,0,0,1.0580283,-94.605571,3.1181196)" />
    <linearGradient
       id="linearGradient6786">
      <stop
         id="stop6788"
         style="stop-color:#ffffff;stop-opacity:1"
         offset="0" />
      <stop
         id="stop6790"
         style="stop-color:#ffffff;stop-opacity:0.23529412"
         offset="0.46352294" />
      <stop
         id="stop6792"
         style="stop-color:#ffffff;stop-opacity:0.15686275"
         offset="0.76175833" />
      <stop
         id="stop6794"
         style="stop-color:#ffffff;stop-opacity:0.39215687"
         offset="1" />
    </linearGradient>
    <linearGradient
       x1="-51.786404"
       y1="53.514328"
       x2="-51.786404"
       y2="3.6336823"
       id="linearGradient3394-3"
       xlink:href="#linearGradient3104-8-8-97-9"
       gradientUnits="userSpaceOnUse"
       gradientTransform="matrix(0.80749834,0,0,0.83374395,59.410297,-0.3364531)" />
    <linearGradient
       id="linearGradient3104-8-8-97-9">
      <stop
         id="stop3106-5-4-3-6"
         style="stop-color:#000000;stop-opacity:0.32173914"
         offset="0" />
      <stop
         id="stop3108-4-3-7-0"
         style="stop-color:#000000;stop-opacity:0.27826086"
         offset="1" />
    </linearGradient>
    <linearGradient
       id="linearGradient3600-8-3">
      <stop
         id="stop3828-7-6"
         style="stop-color:#f4f4f4;stop-opacity:1"
         offset="0" />
      <stop
         id="stop3794"
         style="stop-color:#e9e9e9;stop-opacity:1"
         offset="0.6956892" />
      <stop
         id="stop3604-2-5"
         style="stop-color:#dbdbdb;stop-opacity:1"
         offset="1" />
    </linearGradient>
    <linearGradient
       id="linearGradient8838-561-565">
      <stop
         id="stop4621"
         style="stop-color:#0a0a0a;stop-opacity:1"
         offset="0" />
      <stop
         id="stop4623"
         style="stop-color:#0a0a0a;stop-opacity:0"
         offset="1" />
    </linearGradient>
    <radialGradient
       cx="62.625"
       cy="4.625"
       r="10.625"
       fx="62.625"
       fy="4.625"
       id="radialGradient6953"
       xlink:href="#linearGradient8838-561-565"
       gradientUnits="userSpaceOnUse"
       gradientTransform="matrix(2.1647059,0,0,0.7529402,-111.56471,34.517647)" />
    <radialGradient
       cx="24.003401"
       cy="3.0403864"
       r="20.984106"
       fx="24.003401"
       fy="3.0403864"
       id="radialGradient3792"
       xlink:href="#linearGradient3600-8-3"
       gradientUnits="userSpaceOnUse"
       gradientTransform="matrix(0,1.8136329,-1.573528,0,28.787535,-38.914318)" />
  </defs>
  <metadata
     id="metadata6960">
    <rdf:RDF>
      <cc:Work
         rdf:about="">
        <dc:format>image/svg+xml</dc:format>
        <dc:type
           rdf:resource="http://purl.org/dc/dcmitype/StillImage" />
        <dc:title />
      </cc:Work>
    </rdf:RDF>
  </metadata>
  <path
     style="color:#000000;display:inline;overflow:visible;visibility:visible;fill:url(#radialGradient3792);fill-opacity:1;fill-rule:nonzero;stroke:#000000;stroke-width:0.1;marker:none;enable-background:accumulate;stroke-opacity:0.39215687;stroke-miterlimit:4;stroke-dasharray:none"
     id="path6603"
     inkscape:connector-curvature="0"
     d="M 23.967212,3.9909178 C 16.230828,4.2815047 8.1729259,7.8318172 4.0806595,14.718224 c -3.0558074,4.923913 -2.7411358,11.666612 0.872363,16.213883 1.305476,1.822547 3.0977599,3.210722 4.8704663,4.514668 0.8350772,2.633953 -0.9882321,5.153591 -2.5199113,7.137086 0.9793051,0.403203 3.7093915,-0.557721 5.2869185,-1.166039 1.892028,-0.721886 3.617759,-1.832507 5.348742,-2.842036 8.730413,1.675815 18.59718,-0.96165 24.417391,-7.977975 C 46.104654,26.251634 47.23027,19.645858 44.503385,14.480432 41.055305,7.7498343 33.415182,4.3049312 26.164061,4.0088977 25.432327,3.978545 24.699295,3.9648786 23.967212,3.9909178 Z" />
  <path
     style="font-style:normal;font-variant:normal;font-weight:normal;font-stretch:normal;font-size:62.4582634px;line-height:125%;font-family:Georgia;text-align:start;writing-mode:lr-tb;text-anchor:start;fill:#878787;fill-opacity:1;stroke:none"
     id="path3393"
     inkscape:connector-curvature="0"
     d="m 22.862374,10.525329 c -1.080196,-0.15475 -2.188854,0.663144 -2.21875,1.531249 3.77e-4,0.01041 3.77e-4,0.02084 0,0.03125 -0.0057,0.07077 0.01443,0.167938 0.03125,0.3125 0.0017,0.01433 -0.0017,0.01593 0,0.03125 0.975774,4.60556 1.308276,9.227519 2.28125,13.750001 0.589907,-0.06306 1.506475,-0.183989 2.125,-0.25 -0.134035,-4.462899 -0.540078,-8.896519 -0.59375,-13.406251 -3.77e-4,-0.01041 -3.77e-4,-0.02084 0,-0.03125 0.08822,-0.87813 -0.502805,-1.869802 -1.59375,-1.968749 -0.01041,3.77e-4 -0.02084,3.77e-4 -0.03125,0 z m 2.03125,18.96875 c -0.615904,-0.06343 -1.224953,0.100268 -1.625,0.5625 3.77e-4,0.01041 3.77e-4,0.02084 0,0.03125 -0.429279,0.446165 -0.675933,1.087768 -0.59375,1.6875 3.77e-4,0.01041 3.77e-4,0.02084 0,0.03125 0.09952,1.303162 1.692621,2.164395 2.84375,1.625 0.01041,-3.77e-4 0.02084,-3.77e-4 0.03125,0 1.12122,-0.423893 1.592908,-2.036611 0.875,-3.03125 -0.01094,-0.0099 -0.02137,-0.02031 -0.03125,-0.03125 -0.329188,-0.517953 -0.889274,-0.8121 -1.5,-0.875 z" />
</svg>
