<?xml version="1.0" encoding="UTF-8" standalone="no"?>
<!-- Created with Inkscape (http://www.inkscape.org/) -->

<svg
   xmlns:dc="http://purl.org/dc/elements/1.1/"
   xmlns:cc="http://creativecommons.org/ns#"
   xmlns:rdf="http://www.w3.org/1999/02/22-rdf-syntax-ns#"
   xmlns:svg="http://www.w3.org/2000/svg"
   xmlns="http://www.w3.org/2000/svg"
   xmlns:xlink="http://www.w3.org/1999/xlink"
   xmlns:sodipodi="http://sodipodi.sourceforge.net/DTD/sodipodi-0.dtd"
   xmlns:inkscape="http://www.inkscape.org/namespaces/inkscape"
   version="1.1"
   width="48"
   height="48"
   id="svg11300"
   sodipodi:docname="jockey.svg"
   inkscape:version="0.92.4 5da689c313, 2019-01-14">
  <sodipodi:namedview
     pagecolor="#ffffff"
     bordercolor="#666666"
     borderopacity="1"
     objecttolerance="10"
     gridtolerance="10"
     guidetolerance="10"
     inkscape:pageopacity="0"
     inkscape:pageshadow="2"
     inkscape:window-width="1680"
     inkscape:window-height="990"
     id="namedview16031"
     showgrid="false"
     inkscape:zoom="16.458333"
     inkscape:cx="24"
     inkscape:cy="24"
     inkscape:window-x="0"
     inkscape:window-y="31"
     inkscape:window-maximized="1"
     inkscape:current-layer="svg11300" />
  <metadata
     id="metadata134">
    <rdf:RDF>
      <cc:Work
         rdf:about="">
        <dc:format>image/svg+xml</dc:format>
        <dc:type
           rdf:resource="http://purl.org/dc/dcmitype/StillImage" />
      </cc:Work>
    </rdf:RDF>
  </metadata>
  <defs
     id="defs3">
    <linearGradient
       id="linearGradient4909">
      <stop
         id="stop4911"
         style="stop-color:#747474;stop-opacity:1"
         offset="0" />
      <stop
         id="stop4913"
         style="stop-color:#b0b0b0;stop-opacity:1"
         offset="0.47842374" />
      <stop
         id="stop4915"
         style="stop-color:#3f3f3f;stop-opacity:1"
         offset="1" />
    </linearGradient>
    <linearGradient
       id="linearGradient4877">
      <stop
         id="stop4879"
         style="stop-color:#747474;stop-opacity:1"
         offset="0" />
      <stop
         id="stop4881"
         style="stop-color:#ffffff;stop-opacity:1"
         offset="0.45348784" />
      <stop
         id="stop4883"
         style="stop-color:#3f3f3f;stop-opacity:1"
         offset="1" />
    </linearGradient>
    <linearGradient
       id="linearGradient7622">
      <stop
         id="stop7624"
         style="stop-color:#ffffff;stop-opacity:1"
         offset="0" />
      <stop
         id="stop7626"
         style="stop-color:#ffffff;stop-opacity:0"
         offset="1" />
    </linearGradient>
    <linearGradient
       id="linearGradient14973">
      <stop
         id="stop14975"
         style="stop-color:#747474;stop-opacity:1"
         offset="0" />
      <stop
         id="stop14977"
         style="stop-color:#b0b0b0;stop-opacity:1"
         offset="0.62068963" />
      <stop
         id="stop14979"
         style="stop-color:#3f3f3f;stop-opacity:1"
         offset="1" />
    </linearGradient>
    <linearGradient
       id="linearGradient14861">
      <stop
         id="stop14863"
         style="stop-color:#ffffff;stop-opacity:1"
         offset="0" />
      <stop
         id="stop14865"
         style="stop-color:#ffffff;stop-opacity:0"
         offset="1" />
    </linearGradient>
    <linearGradient
       id="linearGradient6215">
      <stop
         id="stop6217"
         style="stop-color:#cfb900;stop-opacity:1"
         offset="0" />
      <stop
         id="stop6219"
         style="stop-color:#e2d44d;stop-opacity:1"
         offset="0.20999999" />
      <stop
         id="stop6221"
         style="stop-color:#9a8b00;stop-opacity:1"
         offset="0.83999997" />
      <stop
         id="stop6223"
         style="stop-color:#cfb900;stop-opacity:1"
         offset="1" />
    </linearGradient>
    <filter
       color-interpolation-filters="sRGB"
       id="filter5745">
      <feGaussianBlur
         id="feGaussianBlur5747"
         stdDeviation="0.8362597" />
    </filter>
    <linearGradient
       id="linearGradient6227">
      <stop
         id="stop6229"
         style="stop-color:#000000;stop-opacity:1"
         offset="0" />
      <stop
         id="stop6231"
         style="stop-color:#000000;stop-opacity:0"
         offset="1" />
    </linearGradient>
    <filter
       x="-0.24242526"
       y="-0.047579072"
       width="1.4848505"
       height="1.0951581"
       color-interpolation-filters="sRGB"
       id="filter6251">
      <feGaussianBlur
         id="feGaussianBlur6253"
         stdDeviation="0.24444548" />
    </filter>
    <linearGradient
       id="linearGradient10591">
      <stop
         id="stop10593"
         style="stop-color:#cad0c6;stop-opacity:1"
         offset="0" />
      <stop
         id="stop10599"
         style="stop-color:#eaece9;stop-opacity:1"
         offset="0.5" />
      <stop
         id="stop10595"
         style="stop-color:#c5cbc0;stop-opacity:1"
         offset="1" />
    </linearGradient>
    <linearGradient
       id="linearGradient6075-2">
      <stop
         id="stop6077-9"
         style="stop-color:#000000;stop-opacity:1"
         offset="0" />
      <stop
         id="stop6079-0"
         style="stop-color:#000000;stop-opacity:0"
         offset="1" />
    </linearGradient>
    <filter
       x="-0.49411765"
       y="-0.082352944"
       width="1.9882354"
       height="1.1647059"
       color-interpolation-filters="sRGB"
       id="filter5957-5">
      <feGaussianBlur
         id="feGaussianBlur5959-5"
         stdDeviation="0.69878785" />
    </filter>
    <linearGradient
       id="linearGradient12071-2">
      <stop
         id="stop12073-2"
         style="stop-color:#ffffff;stop-opacity:1"
         offset="0" />
      <stop
         id="stop12075-0"
         style="stop-color:#ffffff;stop-opacity:0"
         offset="1" />
    </linearGradient>
    <linearGradient
       id="linearGradient5881-0">
      <stop
         id="stop5883-4"
         style="stop-color:#d6c8a7;stop-opacity:1"
         offset="0" />
      <stop
         id="stop5885-2"
         style="stop-color:#d0bd99;stop-opacity:1"
         offset="1" />
    </linearGradient>
    <linearGradient
       id="linearGradient9845-9">
      <stop
         id="stop9847-6"
         style="stop-color:#ffffff;stop-opacity:1"
         offset="0" />
      <stop
         id="stop9849-1"
         style="stop-color:#ffffff;stop-opacity:0.49484536"
         offset="1" />
    </linearGradient>
    <linearGradient
       id="linearGradient2411">
      <stop
         id="stop2413"
         style="stop-color:#fee7b1;stop-opacity:1"
         offset="0" />
      <stop
         id="stop2419"
         style="stop-color:#ebd4b4;stop-opacity:1"
         offset="0.25796592" />
      <stop
         id="stop2421"
         style="stop-color:#c8a775;stop-opacity:1"
         offset="0.50796592" />
      <stop
         id="stop2423"
         style="stop-color:#b0935b;stop-opacity:1"
         offset="0.74009573" />
      <stop
         id="stop2415"
         style="stop-color:#fcebbf;stop-opacity:1"
         offset="1" />
    </linearGradient>
    <linearGradient
       id="linearGradient3437">
      <stop
         id="stop3439"
         style="stop-color:#000000;stop-opacity:1"
         offset="0" />
      <stop
         id="stop3441"
         style="stop-color:#000000;stop-opacity:0"
         offset="1" />
    </linearGradient>
    <linearGradient
       id="linearGradient14780-7">
      <stop
         id="stop14782-0"
         style="stop-color:#d3ba00;stop-opacity:1"
         offset="0" />
      <stop
         id="stop14784-4"
         style="stop-color:#d3ba00;stop-opacity:0"
         offset="1" />
    </linearGradient>
    <linearGradient
       id="linearGradient14981-4">
      <stop
         id="stop14983-1"
         style="stop-color:#628430;stop-opacity:1"
         offset="0" />
      <stop
         id="stop14985-7"
         style="stop-color:#364d17;stop-opacity:1"
         offset="1" />
    </linearGradient>
    <linearGradient
       x1="12.647367"
       y1="11.5"
       x2="4.712738"
       y2="11.5"
       id="linearGradient3956"
       xlink:href="#linearGradient6215"
       gradientUnits="userSpaceOnUse"
       gradientTransform="matrix(0,0.66666668,-1,0,29,16.666664)" />
    <linearGradient
       x1="8"
       y1="19.5"
       x2="4.3283887"
       y2="19.5"
       id="linearGradient3982"
       xlink:href="#linearGradient6215"
       gradientUnits="userSpaceOnUse"
       gradientTransform="matrix(0,0.66666668,-1,0,29,7.6666672)" />
    <linearGradient
       x1="8"
       y1="19.5"
       x2="4.3283887"
       y2="19.5"
       id="linearGradient4002"
       xlink:href="#linearGradient6215"
       gradientUnits="userSpaceOnUse"
       gradientTransform="matrix(0.66666668,0,0,1,2.6666666,-5)" />
    <linearGradient
       x1="16.964844"
       y1="20.165941"
       x2="18.968426"
       y2="31.347067"
       id="linearGradient4005"
       xlink:href="#linearGradient14861"
       gradientUnits="userSpaceOnUse"
       gradientTransform="matrix(0.934742,0,0,1.14936,0.518753,-8.859611)" />
    <linearGradient
       x1="6.2209711"
       y1="42.890816"
       x2="6.2376504"
       y2="39.266895"
       id="linearGradient4022"
       xlink:href="#linearGradient14780-7"
       gradientUnits="userSpaceOnUse"
       gradientTransform="matrix(1.984375,0,0,1,3.09375,-3.9806836)" />
    <radialGradient
       cx="9"
       cy="15.407109"
       r="19.999861"
       fx="9"
       fy="15.407109"
       id="radialGradient4820"
       xlink:href="#linearGradient14981-4"
       gradientUnits="userSpaceOnUse"
       gradientTransform="matrix(2.3754172,0.01475124,-0.01043014,1.698091,-12.525532,-9.5298548)" />
    <radialGradient
       cx="4"
       cy="9.1704912"
       r="19.000311"
       fx="4"
       fy="9.1704912"
       id="radialGradient4830"
       xlink:href="#linearGradient7622"
       gradientUnits="userSpaceOnUse"
       gradientTransform="matrix(1.9989253,0.08328855,-0.05263072,1.2631372,-3.5130513,0.08325704)" />
    <linearGradient
       x1="24"
       y1="19.5"
       x2="27"
       y2="19.5"
       id="linearGradient4859"
       xlink:href="#linearGradient6215"
       gradientUnits="userSpaceOnUse"
       gradientTransform="matrix(-0.66666668,0,0,1,41,-5)" />
    <linearGradient
       x1="35.933823"
       y1="22.75"
       x2="51.449436"
       y2="22.75"
       id="linearGradient4867"
       xlink:href="#linearGradient4877"
       gradientUnits="userSpaceOnUse"
       gradientTransform="matrix(1.1333333,0,0,1.0246914,-5.7666252,-0.5617284)" />
    <linearGradient
       x1="38.999687"
       y1="22.75"
       x2="47.499687"
       y2="22.75"
       id="linearGradient4891"
       xlink:href="#linearGradient14973"
       gradientUnits="userSpaceOnUse" />
    <linearGradient
       x1="42.365673"
       y1="15.04982"
       x2="42.4007"
       y2="20.018223"
       id="linearGradient4899"
       xlink:href="#linearGradient4877"
       gradientUnits="userSpaceOnUse"
       gradientTransform="matrix(1.1612985,0,0,1.1339575,-5.8594808,-2.3828346)" />
    <linearGradient
       x1="43.161167"
       y1="13.900771"
       x2="43.063614"
       y2="20.990494"
       id="linearGradient4907"
       xlink:href="#linearGradient4909"
       gradientUnits="userSpaceOnUse"
       gradientTransform="matrix(1.1612985,0,0,1.1339575,-5.8594808,-2.3828346)" />
    <linearGradient
       x1="42.365673"
       y1="15.04982"
       x2="42.4007"
       y2="20.018223"
       id="linearGradient4925"
       xlink:href="#linearGradient4877"
       gradientUnits="userSpaceOnUse"
       gradientTransform="matrix(1.1612985,0,0,1.1339575,-5.8594808,4.6171654)" />
    <linearGradient
       x1="43.161167"
       y1="13.900771"
       x2="43.063614"
       y2="20.990494"
       id="linearGradient4927"
       xlink:href="#linearGradient4909"
       gradientUnits="userSpaceOnUse"
       gradientTransform="matrix(1.1612985,0,0,1.1339575,-5.8594808,4.6171654)" />
    <radialGradient
       cx="24.45439"
       cy="46.869949"
       r="19.61445"
       fx="24.45439"
       fy="46.869949"
       id="radialGradient3015"
       xlink:href="#linearGradient3437"
       gradientUnits="userSpaceOnUse"
       gradientTransform="matrix(0.5098238,0,0,0.1027415,24.532483,41.169295)" />
    <radialGradient
       cx="24.45439"
       cy="46.869949"
       r="19.61445"
       fx="24.45439"
       fy="46.869949"
       id="radialGradient3018"
       xlink:href="#linearGradient3437"
       gradientUnits="userSpaceOnUse"
       gradientTransform="matrix(0.81572503,0,0,0.12745709,3.051938,34.526095)" />
    <linearGradient
       x1="35.004684"
       y1="14.849737"
       x2="33.004314"
       y2="14.849737"
       id="linearGradient3074"
       xlink:href="#linearGradient6227"
       gradientUnits="userSpaceOnUse"
       gradientTransform="translate(1.6824037,1.125)" />
    <linearGradient
       x1="32.128025"
       y1="13.789077"
       x2="35.020981"
       y2="13.789077"
       id="linearGradient3076"
       xlink:href="#linearGradient6227"
       gradientUnits="userSpaceOnUse"
       gradientTransform="translate(-19.532826,1.7437184)" />
    <linearGradient
       x1="10.650842"
       y1="2.9136841"
       x2="27.192274"
       y2="17.470011"
       id="linearGradient3082"
       xlink:href="#linearGradient10591"
       gradientUnits="userSpaceOnUse"
       gradientTransform="matrix(0.44659805,0,0,0.52450845,26.250255,21.462101)" />
    <radialGradient
       cx="15.9375"
       cy="20.3125"
       r="3.3125"
       fx="15.9375"
       fy="20.3125"
       id="radialGradient3085"
       xlink:href="#linearGradient6075-2"
       gradientUnits="userSpaceOnUse"
       gradientTransform="matrix(0.7547175,0,0,0.3773584,29.471608,25.622258)" />
    <radialGradient
       cx="15.9375"
       cy="20.3125"
       r="3.3125"
       fx="15.9375"
       fy="20.3125"
       id="radialGradient3088"
       xlink:href="#linearGradient6075-2"
       gradientUnits="userSpaceOnUse"
       gradientTransform="matrix(0.7547171,0,0,0.3773584,20.471614,25.622258)" />
    <linearGradient
       x1="21.941509"
       y1="21.550869"
       x2="21.941509"
       y2="18.037588"
       id="linearGradient3092"
       xlink:href="#linearGradient12071-2"
       gradientUnits="userSpaceOnUse"
       gradientTransform="matrix(0.4545455,0,0,0.2515938,26.090824,30.134459)" />
    <linearGradient
       x1="24.875"
       y1="21"
       x2="24.75"
       y2="17"
       id="linearGradient3095"
       xlink:href="#linearGradient5881-0"
       gradientUnits="userSpaceOnUse"
       gradientTransform="matrix(0.52598657,0,0,1.0159988,24.345857,14.41004)" />
    <linearGradient
       x1="10.907269"
       y1="25.002281"
       x2="30.875446"
       y2="36.127281"
       id="linearGradient3098"
       xlink:href="#linearGradient9845-9"
       gradientUnits="userSpaceOnUse"
       gradientTransform="matrix(0.4541292,0,0,0.5078849,26.107473,23.044235)" />
    <linearGradient
       x1="6.72682"
       y1="32.161697"
       x2="40.938126"
       y2="32.161697"
       id="linearGradient3101"
       xlink:href="#linearGradient2411"
       gradientUnits="userSpaceOnUse"
       gradientTransform="matrix(0.51437523,0,0,0.60452244,24.656476,19.031821)" />
  </defs>
  <rect
     width="5.5"
     height="4.5"
     rx="1"
     ry="1"
     x="39.25"
     y="22.25"
     id="rect4923"
     style="color:#000000;fill:url(#linearGradient4925);fill-opacity:1;fill-rule:nonzero;stroke:#000000;stroke-width:0.1;stroke-linecap:round;stroke-linejoin:round;stroke-miterlimit:4;stroke-opacity:0.39215687;stroke-dasharray:none;stroke-dashoffset:0;marker:none;visibility:visible;display:block;overflow:visible" />
  <rect
     width="5.5"
     height="4.5"
     rx="1"
     ry="1"
     x="39.25"
     y="15.25"
     id="rect15011"
     style="color:#000000;fill:url(#linearGradient4899);fill-opacity:1;fill-rule:nonzero;stroke:#000000;stroke-width:0.1;stroke-linecap:round;stroke-linejoin:round;stroke-miterlimit:4;stroke-opacity:0.39215687;stroke-dasharray:none;stroke-dashoffset:0;marker:none;visibility:visible;display:block;overflow:visible" />
  <path
     d="m 1.0014165,8.1342062 0.00401,27.5548268 c 0,0.08134 0.091077,0.154902 0.1915673,0.154902 l 11.0886202,0.01612 -0.004,5.004974 c 0,0.0735 0.02297,0.130284 0.127467,0.130732 l 19.236244,-0.008 c 0.09479,-0.0038 0.127466,-0.06573 0.127466,-0.130732 l 0.004,-5.021087 9.222846,0.008 V 8.0034747 H 1.1288824 c -0.080457,0.00443 -0.13547854,0.054193 -0.1274659,0.1307315 z"
     inkscape:connector-curvature="0"
     id="rect14772"
     style="color:#000000;display:block;overflow:visible;visibility:visible;fill:url(#radialGradient4820);fill-opacity:1;fill-rule:nonzero;stroke:#000000;stroke-width:0.1;stroke-linecap:butt;stroke-linejoin:miter;stroke-miterlimit:4;stroke-dasharray:none;stroke-dashoffset:0;stroke-opacity:0.39215687;marker:none" />
  <path
     d="m 25,18.472233 0.06435,0.530944 2.424421,1.892154 0,4.603776 -17.058951,0 0,3.933282"
     inkscape:connector-curvature="0"
     id="path14957"
     style="color:#000000;fill:none;stroke:#305526;stroke-width:0.5;stroke-linecap:butt;stroke-linejoin:miter;stroke-miterlimit:4;stroke-opacity:1;stroke-dasharray:none;stroke-dashoffset:0;marker:none;visibility:visible;display:block;overflow:visible" />
  <path
     d="m 15.504442,37.961011 0.05485,-5.644978 1.90096,-2.791366 14.009422,0 2.044194,-2.024489 0.04419,-3.033634 -8.043116,-5.961334 8.110058,0.04703 -0.1875,-3.989742 -8.9375,0"
     inkscape:connector-curvature="0"
     id="path14826"
     style="color:#000000;fill:none;stroke:#305526;stroke-width:0.5;stroke-linecap:butt;stroke-linejoin:miter;stroke-miterlimit:4;stroke-opacity:1;stroke-dasharray:none;stroke-dashoffset:0;marker:none;visibility:visible;display:block;overflow:visible" />
  <path
     d="m 19.5,37.96101 0.05485,-5.780683 1.900958,-2.666463"
     inkscape:connector-curvature="0"
     id="path14842"
     style="color:#000000;fill:none;stroke:#305526;stroke-width:0.5;stroke-linecap:butt;stroke-linejoin:miter;stroke-miterlimit:4;stroke-opacity:1;stroke-dasharray:none;stroke-dashoffset:0;marker:none;visibility:visible;display:block;overflow:visible" />
  <path
     d="m 22.5,37.96101 0.05485,-5.780683 1.900958,-2.666463"
     inkscape:connector-curvature="0"
     id="path14844"
     style="color:#000000;fill:none;stroke:#305526;stroke-width:0.5;stroke-linecap:butt;stroke-linejoin:miter;stroke-miterlimit:4;stroke-opacity:1;stroke-dasharray:none;stroke-dashoffset:0;marker:none;visibility:visible;display:block;overflow:visible" />
  <path
     d="M 25.544196,37.96101 25.599042,32.180327 27.5,29.513864"
     inkscape:connector-curvature="0"
     id="path14846"
     style="color:#000000;fill:none;stroke:#305526;stroke-width:0.5;stroke-linecap:butt;stroke-linejoin:miter;stroke-miterlimit:4;stroke-opacity:1;stroke-dasharray:none;stroke-dashoffset:0;marker:none;visibility:visible;display:block;overflow:visible" />
  <path
     d="M 15.71875,35.626661 C 15.153661,35.75089 15,36.290536 15,36.532911 v 4.40625 h 2 v -4.40625 c 0,-0.277 -0.200328,-0.90625 -1,-0.90625 -0.09801,0 -0.200523,-0.01775 -0.28125,0 z m 3,0 C 18.153661,35.75089 18,36.290536 18,36.532911 v 4.40625 h 2 v -4.40625 c 0,-0.277 -0.200328,-0.90625 -1,-0.90625 -0.09801,0 -0.200523,-0.01775 -0.28125,0 z m 3.03125,0 C 21.184911,35.75089 21,36.290536 21,36.532911 v 4.40625 h 2 v -4.40625 c 0,-0.277 -0.200328,-0.90625 -1,-0.90625 -0.09801,0 -0.169273,-0.01775 -0.25,0 z m 3,0 C 24.184911,35.75089 24,36.290536 24,36.532911 v 4.40625 h 2 v -4.40625 c 0,-0.277 -0.200328,-0.90625 -1,-0.90625 -0.09801,0 -0.169273,-0.01775 -0.25,0 z m 3,0 C 27.184911,35.75089 27,36.290536 27,36.532911 v 4.40625 h 2 v -4.40625 c 0,-0.277 -0.200328,-0.90625 -1,-0.90625 -0.09801,0 -0.169273,-0.01775 -0.25,0 z"
     inkscape:connector-curvature="0"
     id="path14796"
     style="color:#000000;display:block;overflow:visible;visibility:visible;fill:url(#linearGradient4022);fill-opacity:1;fill-rule:nonzero;stroke:none;stroke-width:1;marker:none" />
  <path
     d="m 6.5,14.5 -2.96875,1.0625 0,1.875 0,10.0625 7,0.0625"
     inkscape:connector-curvature="0"
     id="path15029"
     style="color:#000000;fill:none;stroke:#305526;stroke-width:0.5;stroke-linecap:butt;stroke-linejoin:miter;stroke-miterlimit:4;stroke-opacity:1;stroke-dasharray:none;stroke-dashoffset:0;marker:none;visibility:visible;display:block;overflow:visible" />
  <rect
     width="16.055548"
     height="7.9304557"
     rx="0.94194132"
     ry="0.9419415"
     x="7.4722195"
     y="12.503517"
     id="rect14857"
     style="color:#000000;fill:#555753;fill-opacity:1;fill-rule:nonzero;stroke:none;stroke-width:0.99999958;stroke-linecap:butt;stroke-linejoin:miter;stroke-miterlimit:4;stroke-opacity:1;stroke-dasharray:none;stroke-dashoffset:0;marker:none;visibility:visible;display:block;overflow:visible" />
  <path
     d="M 6.5,16.5 3.515625,17.5625"
     inkscape:connector-curvature="0"
     id="path15031"
     style="color:#000000;fill:none;stroke:#305526;stroke-width:0.5;stroke-linecap:butt;stroke-linejoin:miter;stroke-miterlimit:4;stroke-opacity:1;stroke-dasharray:none;stroke-dashoffset:0;marker:none;visibility:visible;display:block;overflow:visible" />
  <path
     d="M 6.5,18.5 3.5,20"
     inkscape:connector-curvature="0"
     id="path15033"
     style="color:#000000;fill:#98a332;fill-opacity:1;stroke:#305526;stroke-width:0.5;stroke-linecap:butt;stroke-linejoin:miter;stroke-miterlimit:4;stroke-opacity:1;stroke-dasharray:none;stroke-dashoffset:0;marker:none;visibility:visible;display:block;overflow:visible" />
  <path
     d="m 23,14 0,1 2,0 0,-1 -2,0 z m 0,2 0,1 2,0 0,-1 -2,0 z m 0,2 0,1 2,0 0,-1 -2,0 z"
     inkscape:connector-curvature="0"
     id="rect14875"
     style="color:#000000;fill:url(#linearGradient4859);fill-opacity:1;fill-rule:nonzero;stroke:none;stroke-width:1;marker:none;visibility:visible;display:block;overflow:visible" />
  <path
     d="m 9,11 0,2 1,0 0,-2 -1,0 z m 2,0 0,2 1,0 0,-2 -1,0 z m 2,0 0,2 1,0 0,-2 -1,0 z m 2,0 0,2 1,0 0,-2 -1,0 z m 2,0 0,2 1,0 0,-2 -1,0 z m 2,0 0,2 1,0 0,-2 -1,0 z m 2,0 0,2 1,0 0,-2 -1,0 z"
     inkscape:connector-curvature="0"
     id="rect14901"
     style="color:#000000;fill:url(#linearGradient3982);fill-opacity:1;fill-rule:nonzero;stroke:none;stroke-width:1;marker:none;visibility:visible;display:block;overflow:visible" />
  <path
     d="m 9.4575532,21.86 1.0606598,3.639107 1.944544,0 L 11.402097,21.86"
     inkscape:connector-curvature="0"
     id="path14959"
     style="color:#000000;fill:none;stroke:#305526;stroke-width:0.5;stroke-linecap:butt;stroke-linejoin:miter;stroke-miterlimit:4;stroke-opacity:1;stroke-dasharray:none;stroke-dashoffset:0;marker:none;visibility:visible;display:block;overflow:visible" />
  <path
     d="m 13.457553,21.76 1.06066,3.739107 1.944544,0 L 15.402097,21.76"
     inkscape:connector-curvature="0"
     id="path14961"
     style="color:#000000;fill:none;stroke:#305526;stroke-width:0.5;stroke-linecap:butt;stroke-linejoin:miter;stroke-miterlimit:4;stroke-opacity:1;stroke-dasharray:none;stroke-dashoffset:0;marker:none;visibility:visible;display:block;overflow:visible" />
  <path
     d="m 17.457553,21.76 1.06066,3.739107 1.944544,0 L 19.402097,21.76"
     inkscape:connector-curvature="0"
     id="path14963"
     style="color:#000000;fill:none;stroke:#305526;stroke-width:0.5;stroke-linecap:butt;stroke-linejoin:miter;stroke-miterlimit:4;stroke-opacity:1;stroke-dasharray:none;stroke-dashoffset:0;marker:none;visibility:visible;display:block;overflow:visible" />
  <path
     d="m 21.457553,21.782 1.06066,3.717107"
     inkscape:connector-curvature="0"
     id="path14965"
     style="color:#000000;fill:none;stroke:#305526;stroke-width:0.5;stroke-linecap:butt;stroke-linejoin:miter;stroke-miterlimit:4;stroke-opacity:1;stroke-dasharray:none;stroke-dashoffset:0;marker:none;visibility:visible;display:block;overflow:visible" />
  <path
     d="m 9,20 0,2 1,0 0,-2 -1,0 z m 2,0 0,2 1,0 0,-2 -1,0 z m 2,0 0,2 1,0 0,-2 -1,0 z m 2,0 0,2 1,0 0,-2 -1,0 z m 2,0 0,2 1,0 0,-2 -1,0 z m 2,0 0,2 1,0 0,-2 -1,0 z m 2,0 0,2 1,0 0,-2 -1,0 z"
     inkscape:connector-curvature="0"
     id="rect14929"
     style="color:#000000;fill:url(#linearGradient3956);fill-opacity:1;fill-rule:nonzero;stroke:none;stroke-width:1;marker:none;visibility:visible;display:block;overflow:visible" />
  <path
     style="color:#000000;font-style:normal;font-variant:normal;font-weight:normal;font-stretch:normal;font-size:medium;line-height:normal;font-family:sans-serif;font-variant-ligatures:normal;font-variant-position:normal;font-variant-caps:normal;font-variant-numeric:normal;font-variant-alternates:normal;font-feature-settings:normal;text-indent:0;text-align:start;text-decoration:none;text-decoration-line:none;text-decoration-style:solid;text-decoration-color:#000000;letter-spacing:normal;word-spacing:normal;text-transform:none;writing-mode:lr-tb;direction:ltr;text-orientation:mixed;dominant-baseline:auto;baseline-shift:baseline;text-anchor:start;white-space:normal;shape-padding:0;clip-rule:nonzero;display:block;overflow:visible;visibility:visible;opacity:1;isolation:auto;mix-blend-mode:normal;color-interpolation:sRGB;color-interpolation-filters:linearRGB;solid-color:#000000;solid-opacity:1;vector-effect:none;fill:url(#linearGradient4867);fill-opacity:1;fill-rule:nonzero;stroke:#000000;stroke-width:0.1;stroke-linecap:square;stroke-linejoin:round;stroke-miterlimit:4;stroke-dasharray:none;stroke-dashoffset:0;stroke-opacity:0.39215687;marker:none;color-rendering:auto;image-rendering:auto;shape-rendering:auto;text-rendering:auto;enable-background:accumulate"
     d="m 40.132812,1.9472656 a 1.0777519,1.0777519 0 0 0 -1.078124,1.078125 v 39.4492184 1.078125 h 2.15625 V 42.474609 4.1015625 h 5.15625 1.076171 V 1.9472656 h -1.076171 z"
     id="path15003"
     inkscape:connector-curvature="0" />
  <path
     d="m 28.5,37.96101 0.05485,-5.780683 1.900958,-2.666463"
     inkscape:connector-curvature="0"
     id="path14848"
     style="color:#000000;fill:none;stroke:#305526;stroke-width:0.5;stroke-linecap:butt;stroke-linejoin:miter;stroke-miterlimit:4;stroke-opacity:1;stroke-dasharray:none;stroke-dashoffset:0;marker:none;visibility:visible;display:block;overflow:visible" />
  <path
     d="m 29.149531,31.572792 c 5.185801,-0.772282 10.426782,-0.652388 15.700696,0 0.636889,0 1.149616,0.558356 1.149616,1.25192 v 12.477393 c 0,0.693564 -0.545818,1.151599 -1.149616,1.251919 -5.467811,0.646658 -10.156092,0.641553 -15.700696,0 -0.736161,-0.23408 -1.149616,-0.558355 -1.149616,-1.251919 V 32.824712 c 0,-0.693564 0.512728,-1.25192 1.149616,-1.25192 z"
     inkscape:connector-curvature="0"
     id="rect1314"
     style="fill:url(#linearGradient3101);fill-opacity:1;fill-rule:evenodd;stroke:#000000;stroke-width:0.1;stroke-linecap:round;stroke-linejoin:round;stroke-miterlimit:4;stroke-dashoffset:0;stroke-opacity:0.39215687;stroke-dasharray:none" />
  <path
     d="m 28.898947,31.682021 c 5.38039,-0.989411 10.760783,-0.813183 16.141174,0 0.482636,0 0.871187,0.48568 0.871187,1.088965 v 1.886068 c 0,0.603285 -0.388551,1.088965 -0.871187,1.088965 -5.614755,0.467427 -10.780824,0.300606 -16.141174,0 -0.482635,0 -0.871183,-0.48568 -0.871183,-1.088965 v -1.886068 c 0,-0.603285 0.388548,-1.088965 0.871183,-1.088965 z"
     inkscape:connector-curvature="0"
     id="rect1460"
     style="display:inline;overflow:visible;visibility:visible;fill:url(#linearGradient3095);fill-opacity:1;fill-rule:evenodd;stroke:none;stroke-width:2.37179136;marker:none" />
  <path
     d="m 31.002148,33.085799 v -3.007976 c 0,-4.127951 2.347949,-6.089015 5.975405,-6.037464 3.647193,0.05155 6.020129,1.860949 6.020129,6.037464 v 3.139104 c 0,1.025008 -2.452136,1.155465 -2.452136,0 V 31.12684 c 0,-1.049017 0.253869,-4.443558 -3.542441,-4.443558 -3.765006,0 -3.490678,3.415462 -3.476079,4.439377 v 1.980805 c 0,1.235018 -2.524878,1.229766 -2.524878,-0.01767 z"
     inkscape:connector-curvature="0"
     id="path2086"
     style="fill:url(#linearGradient3082);fill-opacity:1;fill-rule:evenodd;stroke:#000000;stroke-width:0.1;stroke-linecap:butt;stroke-linejoin:miter;stroke-miterlimit:4;stroke-dasharray:none;stroke-opacity:0.39215687" />
  <path
     d="m 6,14 0,1 2,0 0,-1 -2,0 z m 0,2 0,1 2,0 0,-1 -2,0 z m 0,2 0,1 2,0 0,-1 -2,0 z"
     inkscape:connector-curvature="0"
     id="rect14869"
     style="color:#000000;fill:url(#linearGradient4002);fill-opacity:1;fill-rule:nonzero;stroke:none;stroke-width:1;marker:none;visibility:visible;display:block;overflow:visible" />
</svg>
