<?xml version="1.0" encoding="UTF-8" standalone="no"?>
<!-- Created with Inkscape (http://www.inkscape.org/) -->

<svg
   xmlns:dc="http://purl.org/dc/elements/1.1/"
   xmlns:cc="http://creativecommons.org/ns#"
   xmlns:rdf="http://www.w3.org/1999/02/22-rdf-syntax-ns#"
   xmlns:svg="http://www.w3.org/2000/svg"
   xmlns="http://www.w3.org/2000/svg"
   xmlns:xlink="http://www.w3.org/1999/xlink"
   xmlns:sodipodi="http://sodipodi.sourceforge.net/DTD/sodipodi-0.dtd"
   xmlns:inkscape="http://www.inkscape.org/namespaces/inkscape"
   version="1.0"
   width="48"
   height="48"
   id="svg2817"
   sodipodi:docname="software-properties.svg"
   inkscape:version="0.92.4 5da689c313, 2019-01-14">
  <sodipodi:namedview
     pagecolor="#ffffff"
     bordercolor="#666666"
     borderopacity="1"
     objecttolerance="10"
     gridtolerance="10"
     guidetolerance="10"
     inkscape:pageopacity="0"
     inkscape:pageshadow="2"
     inkscape:window-width="1680"
     inkscape:window-height="990"
     id="namedview27585"
     showgrid="false"
     inkscape:zoom="16.458333"
     inkscape:cx="24"
     inkscape:cy="24"
     inkscape:window-x="0"
     inkscape:window-y="31"
     inkscape:window-maximized="1"
     inkscape:current-layer="svg2817" />
  <metadata
     id="metadata70">
    <rdf:RDF>
      <cc:Work
         rdf:about="">
        <dc:format>image/svg+xml</dc:format>
        <dc:type
           rdf:resource="http://purl.org/dc/dcmitype/StillImage" />
      </cc:Work>
    </rdf:RDF>
  </metadata>
  <defs
     id="defs2819">
    <linearGradient
       id="linearGradient3275">
      <stop
         id="stop3277"
         style="stop-color:#ffffff;stop-opacity:0"
         offset="0" />
      <stop
         id="stop3283"
         style="stop-color:#ffffff;stop-opacity:1"
         offset="0.245" />
      <stop
         id="stop3285"
         style="stop-color:#ffffff;stop-opacity:1"
         offset="0.77350003" />
      <stop
         id="stop3279"
         style="stop-color:#ffffff;stop-opacity:0"
         offset="1" />
    </linearGradient>
    <linearGradient
       x1="44.994774"
       y1="17.5"
       x2="3.0052247"
       y2="17.5"
       id="linearGradient2815"
       xlink:href="#linearGradient3275"
       gradientUnits="userSpaceOnUse"
       spreadMethod="reflect"
       gradientTransform="translate(6.1178597e-7,-0.9999989)" />
    <linearGradient
       id="linearGradient3827">
      <stop
         id="stop3829"
         style="stop-color:#ffffff;stop-opacity:1"
         offset="0" />
      <stop
         id="stop4295"
         style="stop-color:#ffffff;stop-opacity:1"
         offset="0.3021296" />
      <stop
         id="stop4293"
         style="stop-color:#ffffff;stop-opacity:0.6901961"
         offset="0.34361121" />
      <stop
         id="stop3832"
         style="stop-color:#ffffff;stop-opacity:0"
         offset="1" />
    </linearGradient>
    <linearGradient
       x1="26"
       y1="22"
       x2="26"
       y2="8"
       id="linearGradient2813"
       xlink:href="#linearGradient3827"
       gradientUnits="userSpaceOnUse"
       gradientTransform="translate(6.1178597e-7,-0.9999989)" />
    <linearGradient
       id="linearGradient4559">
      <stop
         id="stop4561"
         style="stop-color:#ffffff;stop-opacity:0"
         offset="0" />
      <stop
         id="stop4563"
         style="stop-color:#ffffff;stop-opacity:0"
         offset="1" />
    </linearGradient>
    <linearGradient
       x1="23.451576"
       y1="30.554907"
       x2="43.00663"
       y2="45.934479"
       id="linearGradient2811"
       xlink:href="#linearGradient4559"
       gradientUnits="userSpaceOnUse"
       gradientTransform="matrix(1.2822251,0,0,1.1746872,-6.0701912,-6.3031666)" />
    <linearGradient
       id="linearGradient3295">
      <stop
         id="stop3297"
         style="stop-color:#c9af8b;stop-opacity:1"
         offset="0" />
      <stop
         id="stop3299"
         style="stop-color:#ad8757;stop-opacity:1"
         offset="0.23942046" />
      <stop
         id="stop3301"
         style="stop-color:#c2a57f;stop-opacity:1"
         offset="0.27582464" />
      <stop
         id="stop3303"
         style="stop-color:#9d7d53;stop-opacity:1"
         offset="1" />
    </linearGradient>
    <linearGradient
       x1="15.464298"
       y1="7.9756851"
       x2="15.464298"
       y2="45.04248"
       id="linearGradient2809"
       xlink:href="#linearGradient3295"
       gradientUnits="userSpaceOnUse"
       gradientTransform="translate(6.1178597e-7,-0.9999989)" />
    <linearGradient
       id="linearGradient3199">
      <stop
         id="stop3201"
         style="stop-color:#dac197;stop-opacity:1"
         offset="0" />
      <stop
         id="stop3203"
         style="stop-color:#c1a581;stop-opacity:1"
         offset="0.25999999" />
      <stop
         id="stop3205"
         style="stop-color:#dbc298;stop-opacity:1"
         offset="0.27000001" />
      <stop
         id="stop3207"
         style="stop-color:#a68b60;stop-opacity:1"
         offset="1" />
    </linearGradient>
    <linearGradient
       x1="24.974386"
       y1="15.27649"
       x2="24.996943"
       y2="37.27668"
       id="linearGradient2807"
       xlink:href="#linearGradient3199"
       gradientUnits="userSpaceOnUse"
       gradientTransform="matrix(1.313356,0,0,1.6004362,-6.8002596,-17.449047)" />
    <radialGradient
       cx="5"
       cy="41.5"
       r="5"
       fx="5"
       fy="41.5"
       id="radialGradient2805"
       xlink:href="#linearGradient3681"
       gradientUnits="userSpaceOnUse"
       gradientTransform="matrix(0.5938225,0,0,1.5366531,41.140892,-103.93618)" />
    <linearGradient
       id="linearGradient3703">
      <stop
         id="stop3705"
         style="stop-color:#000000;stop-opacity:0"
         offset="0" />
      <stop
         id="stop3711"
         style="stop-color:#000000;stop-opacity:1"
         offset="0.5" />
      <stop
         id="stop3707"
         style="stop-color:#000000;stop-opacity:0"
         offset="1" />
    </linearGradient>
    <linearGradient
       x1="17.554192"
       y1="46.000275"
       x2="17.554192"
       y2="34.999718"
       id="linearGradient2803"
       xlink:href="#linearGradient3703"
       gradientUnits="userSpaceOnUse"
       gradientTransform="matrix(1.7570316,0,0,1.3969574,-17.394014,-16.411698)" />
    <linearGradient
       id="linearGradient3681">
      <stop
         id="stop3683"
         style="stop-color:#000000;stop-opacity:1"
         offset="0" />
      <stop
         id="stop3685"
         style="stop-color:#000000;stop-opacity:0"
         offset="1" />
    </linearGradient>
    <radialGradient
       cx="5"
       cy="41.5"
       r="5"
       fx="5"
       fy="41.5"
       id="radialGradient2801"
       xlink:href="#linearGradient3681"
       gradientUnits="userSpaceOnUse"
       gradientTransform="matrix(0.5938225,0,0,1.5366531,-6.6594735,-103.93618)" />
    <linearGradient
       id="linearGradient4873">
      <stop
         id="stop4875"
         style="stop-color:#ffffff;stop-opacity:1"
         offset="0" />
      <stop
         id="stop4877"
         style="stop-color:#ffffff;stop-opacity:0"
         offset="1" />
    </linearGradient>
    <linearGradient
       id="linearGradient8647">
      <stop
         id="stop8649"
         style="stop-color:#8fb1dc;stop-opacity:1"
         offset="0" />
      <stop
         id="stop8651"
         style="stop-color:#3465a4;stop-opacity:1"
         offset="1" />
    </linearGradient>
    <linearGradient
       x1="63.397362"
       y1="-12.742159"
       x2="59.919094"
       y2="-1.9899801"
       id="linearGradient5559"
       xlink:href="#linearGradient4873"
       gradientUnits="userSpaceOnUse"
       gradientTransform="matrix(1.4292867,0,0,1.429254,-54.902217,39.017879)" />
    <radialGradient
       cx="24.652573"
       cy="18.94449"
       r="8.6174498"
       fx="24.652485"
       fy="18.944481"
       id="radialGradient5562"
       xlink:href="#linearGradient8924"
       gradientUnits="userSpaceOnUse"
       gradientTransform="matrix(0.05079629,1.8806334,-1.3065264,0.03722342,56.991846,-19.739002)" />
    <radialGradient
       cx="12.465816"
       cy="5.3052077"
       r="10.499999"
       fx="12.465816"
       fy="5.3052077"
       id="radialGradient5565"
       xlink:href="#linearGradient8647"
       gradientUnits="userSpaceOnUse"
       gradientTransform="matrix(1.6396161,0,0,1.349992,13.560846,18.4751)" />
    <linearGradient
       id="linearGradient8924">
      <stop
         id="stop8926"
         style="stop-color:#cee14b;stop-opacity:1"
         offset="0" />
      <stop
         id="stop8928"
         style="stop-color:#9db029;stop-opacity:1"
         offset="1" />
    </linearGradient>
  </defs>
  <path
     d="M 8.6468038,7.0012964 H 38.860697 c 1.763793,0 2.557544,-0.294495 3.064183,1.0277246 l 3.074613,8.221796 v 26.38571 c 0,1.596369 0.105429,1.352461 -1.658372,1.352461 H 4.6588806 c -1.7638003,0 -1.6583724,0.243908 -1.6583724,-1.352461 V 16.250817 L 6.0751214,8.029021 C 6.567627,6.7335103 6.8830034,7.0012964 8.6468038,7.0012964 Z"
     inkscape:connector-curvature="0"
     id="path2488"
     style="display:block;overflow:visible;visibility:visible;fill:url(#linearGradient2807);fill-opacity:1;fill-rule:nonzero;stroke:#000000;stroke-width:0.1;stroke-linecap:round;stroke-linejoin:miter;stroke-miterlimit:4;stroke-dasharray:none;stroke-dashoffset:0;stroke-opacity:0.39215687;marker:none" />
  <path
     d="M 9.9481946,8.512947 H 37.601067 c 1.614293,0 2.61338,0.5565361 3.289521,2.086028 l 2.32894,6.419721 v 23.144557 c 0,1.460676 -0.818759,2.196085 -2.433056,2.196085 H 7.0532685 c -1.6142934,0 -2.2727761,-0.808827 -2.2727761,-2.269504 V 17.018696 l 2.2538109,-6.55736 C 7.4850655,9.2759441 8.3338974,8.512947 9.9481946,8.512947 Z"
     inkscape:connector-curvature="0"
     id="path2490"
     style="display:block;overflow:visible;visibility:visible;opacity:0.50549454;fill:none;stroke:url(#linearGradient2811);stroke-width:0.74211526;stroke-linecap:butt;stroke-linejoin:miter;stroke-miterlimit:4;stroke-dasharray:none;stroke-dashoffset:0;stroke-opacity:1;marker:none" />
  <path
     d="m 22.000001,7.0000011 c 1.333333,0 2.666667,0 4,0 0,4.6666669 0,9.3333329 0,13.9999999 -0.393729,0 -0.787458,0 -1.181187,0 -0.403125,0 -0.80625,0 -1.209375,0 -0.324529,0 -0.649057,0 -0.973585,0 -0.211951,0 -0.423902,0 -0.635853,0 0,-4.666667 0,-9.333333 0,-13.9999999 z"
     inkscape:connector-curvature="0"
     id="rect3326"
     style="display:inline;overflow:visible;visibility:visible;opacity:0.4;fill:url(#linearGradient2813);fill-opacity:1;fill-rule:nonzero;stroke:none;stroke-width:1;marker:none;enable-background:accumulate" />
  <path
     d="m 33.989397,20.50005 c -7.450694,0 -13.489348,6.038648 -13.489348,13.489346 0,7.450698 6.038654,13.510556 13.489348,13.510555 7.450695,0 13.510565,-6.059857 13.510552,-13.510555 0,-7.450698 -6.059857,-13.489346 -13.510552,-13.489346 z"
     inkscape:connector-curvature="0"
     id="path2555"
     style="fill:url(#radialGradient5565);fill-opacity:1;stroke:#000000;stroke-width:0.1;stroke-linecap:round;stroke-linejoin:round;stroke-miterlimit:4;stroke-dasharray:none;stroke-dashoffset:0;stroke-opacity:0.39215687" />
  <path
     d="m 29.307194,37.292135 -0.386077,-0.785014 -0.723266,-0.167999 -0.385743,-1.064472 -0.964265,0.111792 -0.819519,-0.616061 -0.868407,0.784404 v 0.123717 c -0.262694,-0.07787 -0.585616,-0.0885 -0.819517,-0.236193 l -0.19304,-0.560204 v -0.616746 l -0.578519,0.05586 c 0.04829,-0.392542 0.09619,-0.784404 0.144812,-1.176879 h -0.33785 l -0.337189,0.448409 -0.337849,0.167656 -0.482332,-0.279453 -0.04829,-0.616744 0.09652,-0.672613 0.7236,-0.5602 h 0.578515 l 0.09619,-0.33661 0.723263,0.167655 0.530558,0.673293 0.09652,-1.121698 0.9163,-0.784402 0.337519,-0.840951 0.675039,-0.280068 0.385745,-0.560201 0.867746,-0.168957 0.43437,-0.671925 c -0.434039,0 -0.868077,0 -1.302116,0 l 0.819784,-0.392541 h 0.578187 l 0.820117,-0.280747 0.09652,-0.335318 -0.289558,-0.280749 -0.337518,-0.112409 0.09652,-0.335998 -0.241,-0.50427 -0.578848,0.223524 0.09652,-0.448067 -0.675039,-0.392541 -0.530225,0.952335 0.04796,0.336609 -0.530227,0.224885 -0.337851,0.728473 -0.144478,-0.672608 -0.916304,-0.392542 -0.144816,-0.504272 1.205598,-0.729152 0.530561,-0.504272 0.04829,-0.616406 -0.289228,-0.168338 -0.385745,-0.05621 -0.240995,0.616747 c 0,0 -0.40326,0.08114 -0.506945,0.107435 -1.324137,1.253111 -3.999613,3.958199 -4.621183,9.065006 0.02461,0.118402 0.450555,0.804979 0.450555,0.804979 l 1.012559,0.616064 1.012554,0.280746 0.434372,0.560816 0.674706,0.504267 0.385743,-0.05586 0.289228,0.13373 v 0.09047 l -0.38548,1.064815 -0.289561,0.448403 0.09652,0.224886 -0.241002,0.83959 0.868079,1.625966 0.867741,0.785018 0.386081,0.560197 -0.04856,1.177564 0.28956,0.671929 -0.28956,1.289352 c 0,0 -0.02268,-0.008 0.01427,0.121063 0.03728,0.129098 1.545037,0.988649 1.640891,0.915482 0.09552,-0.07453 0.177184,-0.139728 0.177184,-0.139728 l -0.09619,-0.279455 0.38548,-0.392543 0.144814,-0.392544 0.627076,-0.224885 0.482001,-1.233422 -0.144481,-0.335316 0.336854,-0.504273 0.723596,-0.16895 0.386076,-0.896816 -0.09652,-1.120335 0.578523,-0.840946 0.09651,-0.840951 C 30.877968,38.122254 30.092813,37.707092 29.307061,37.292 M 35.602388,21.466328 34.194838,20.9 l -1.622789,0.188545 -2.003001,0.565948 -0.3788,0.377781 1.244727,0.880346 v 0.503253 l -0.487125,0.503252 0.649946,1.321974 0.431886,-0.252393 0.542367,-0.880345 c 0.836073,-0.265465 1.585709,-0.566331 2.38039,-0.943809 l 0.649949,-1.698303 M 46.9,32.125914 c 0,0.184413 0,0 0,0 l -0.372466,0.43327 C 46.299228,32.28288 46.042896,32.05052 45.782602,31.807843 l -0.57138,0.08635 -0.52203,-0.606032 v 0.750008 l 0.447248,0.347558 0.297686,0.346223 0.397829,-0.462054 c 0.100136,0.192629 0.198911,0.385255 0.298368,0.577885 v 0.577247 l -0.447932,0.519618 -0.819711,0.577879 -0.620805,0.636218 -0.397827,-0.463457 0.198913,-0.519611 -0.397208,-0.462057 -0.670836,-1.472573 -0.571381,-0.663594 -0.149561,0.172762 0.224273,0.837761 0.421888,0.490833 c 0.240953,0.714348 0.479306,1.397109 0.795723,2.079936 0.490651,0 0.953211,-0.05349 1.440514,-0.116531 v 0.404493 l -0.596125,1.501704 -0.546705,0.634813 -0.447249,0.983072 c 0,0.538851 0,1.077702 0,1.616483 l 0.149565,0.636218 -0.248334,0.287957 -0.547389,0.346855 -0.571379,0.490834 0.472607,0.548468 -0.646161,0.578584 0.124132,0.374304 -0.969273,1.127052 h -0.645475 l -0.546708,0.346856 h -0.348473 v -0.462054 l -0.148192,-0.925508 c -0.192286,-0.579988 -0.392497,-1.155837 -0.596126,-1.73168 0,-0.425059 0.02468,-0.845973 0.04942,-1.270963 l 0.249019,-0.577248 -0.348474,-0.69378 0.02536,-0.952886 -0.472607,-0.548471 0.236301,-0.793884 -0.384497,-0.448013 h -0.67152 l -0.223588,-0.259808 -0.670837,0.433622 -0.273008,-0.318427 -0.621485,0.548752 C 35.497283,36.428367 35.074714,35.937532 34.652211,35.4467 l -0.496668,-1.213398 0.447247,-0.692379 -0.248335,-0.28859 0.546022,-1.329295 c 0.448613,-0.573106 0.917186,-1.12291 1.391164,-1.674749 l 0.845071,-0.231028 0.943913,-0.115195 0.646164,0.173465 0.919168,0.952182 0.323115,-0.375003 0.446563,-0.05756 0.845076,0.288588 h 0.64616 L 42.354117,30.479251 42.55303,30.190659 42.105095,29.90207 41.359483,29.8445 c -0.206915,-0.294768 -0.399195,-0.604629 -0.644862,-0.866539 l -0.249018,0.115195 -0.09946,0.751344 -0.447246,-0.519616 -0.09877,-0.578583 -0.496669,-0.403082 H 39.12386 l 0.497283,0.577247 -0.198912,0.519618 -0.397212,0.115198 0.248336,-0.51962 -0.447932,-0.230322 -0.396528,-0.462054 -0.746299,0.17276 -0.09878,0.230324 -0.447242,0.289292 -0.248338,0.635518 -0.6208,0.31737 -0.273693,-0.31737 h -0.297685 v -1.039936 l 0.646157,-0.346855 h 0.496669 l -0.100137,-0.403787 -0.396532,-0.404487 0.670223,-0.144683 0.372468,-0.432567 0.297686,-0.520321 h 0.547384 l -0.149559,-0.403786 0.348474,-0.231027 v 0.462056 l 0.744934,0.172757 0.744933,-0.634813 0.05003,-0.289291 0.645477,-0.4617 c -0.233636,0.02983 -0.467272,0.05174 -0.695578,0.115549 v -0.52025 l 0.248333,-0.577601 h -0.248333 l -0.545746,0.519615 -0.149563,0.288941 0.149563,0.404841 -0.249021,0.692375 -0.397207,-0.231025 -0.347111,-0.403784 -0.547388,0.403784 -0.19891,-0.923754 0.943914,-0.635164 v -0.346855 l 0.596741,-0.404138 0.943912,-0.231378 0.646163,0.231378 1.19218,0.231027 -0.297687,0.346226 h -0.64616 l 0.64616,0.693078 0.496668,-0.577255 0.15086,-0.25398 c 0,0 1.905122,1.753584 2.993882,3.671779 1.08877,1.918835 1.600063,4.18045 1.600063,4.639765 z"
     inkscape:connector-curvature="0"
     id="path6566"
     style="fill:url(#radialGradient5562);fill-opacity:1;fill-rule:nonzero;stroke:none" />
</svg>
