<?xml version="1.0" encoding="UTF-8" standalone="no"?>
<!-- Created with Inkscape (http://www.inkscape.org/) -->

<svg
   xmlns:dc="http://purl.org/dc/elements/1.1/"
   xmlns:cc="http://creativecommons.org/ns#"
   xmlns:rdf="http://www.w3.org/1999/02/22-rdf-syntax-ns#"
   xmlns:svg="http://www.w3.org/2000/svg"
   xmlns="http://www.w3.org/2000/svg"
   xmlns:xlink="http://www.w3.org/1999/xlink"
   xmlns:sodipodi="http://sodipodi.sourceforge.net/DTD/sodipodi-0.dtd"
   xmlns:inkscape="http://www.inkscape.org/namespaces/inkscape"
   version="1.1"
   width="64"
   height="64"
   id="svg3598"
   sodipodi:docname="accessories-text-editor.svg"
   inkscape:version="0.92.4 5da689c313, 2019-01-14">
  <sodipodi:namedview
     pagecolor="#ffffff"
     bordercolor="#666666"
     borderopacity="1"
     objecttolerance="10"
     gridtolerance="10"
     guidetolerance="10"
     inkscape:pageopacity="0"
     inkscape:pageshadow="2"
     inkscape:window-width="1680"
     inkscape:window-height="990"
     id="namedview5410"
     showgrid="false"
     inkscape:zoom="12.34375"
     inkscape:cx="31.837975"
     inkscape:cy="32"
     inkscape:window-x="0"
     inkscape:window-y="31"
     inkscape:window-maximized="1"
     inkscape:current-layer="svg3598" />
  <defs
     id="defs3600">
    <linearGradient
       x1="9"
       y1="29.056757"
       x2="9"
       y2="26.02973"
       id="linearGradient3151"
       xlink:href="#linearGradient3290-678"
       gradientUnits="userSpaceOnUse"
       gradientTransform="matrix(0.85454265,-0.85878389,1.1513743,1.1457154,-6.7265693,22.86483)" />
    <linearGradient
       id="linearGradient3290-678">
      <stop
         id="stop2607"
         style="stop-color:#ece5a5;stop-opacity:1"
         offset="0" />
      <stop
         id="stop2609"
         style="stop-color:#fcfbf2;stop-opacity:1"
         offset="1" />
    </linearGradient>
    <linearGradient
       x1="5.5178981"
       y1="37.371799"
       x2="9.5220556"
       y2="41.391716"
       id="linearGradient3153"
       xlink:href="#linearGradient3191-577"
       gradientUnits="userSpaceOnUse"
       gradientTransform="matrix(0.74712277,0.03224699,0.03220731,0.74620134,24.394615,18.140574)" />
    <linearGradient
       id="linearGradient3191-577">
      <stop
         id="stop2613"
         style="stop-color:#dbce48;stop-opacity:1"
         offset="0" />
      <stop
         id="stop2615"
         style="stop-color:#c5b625;stop-opacity:1"
         offset="1" />
    </linearGradient>
    <linearGradient
       x1="30.037716"
       y1="24.989594"
       x2="30.037716"
       y2="30.000141"
       id="linearGradient3156"
       xlink:href="#linearGradient3223-699"
       gradientUnits="userSpaceOnUse"
       gradientTransform="matrix(0.85064445,-0.85481442,1.146122,1.1404196,-4.7713176,21.190343)" />
    <linearGradient
       id="linearGradient3223-699">
      <stop
         id="stop2599"
         style="stop-color:#b1b1b1;stop-opacity:1"
         offset="0" />
      <stop
         id="stop2601"
         style="stop-color:#ffffff;stop-opacity:1"
         offset="0.5" />
      <stop
         id="stop2603"
         style="stop-color:#8f8f8f;stop-opacity:1"
         offset="1" />
    </linearGradient>
    <linearGradient
       x1="30.037716"
       y1="24.989594"
       x2="30.037716"
       y2="30.000141"
       id="linearGradient3159"
       xlink:href="#linearGradient3240-907"
       gradientUnits="userSpaceOnUse"
       gradientTransform="matrix(0.85064445,-0.85481442,1.146122,1.1404196,-4.5277046,20.945534)" />
    <linearGradient
       id="linearGradient3240-907">
      <stop
         id="stop2591"
         style="stop-color:#565656;stop-opacity:1"
         offset="0" />
      <stop
         id="stop2593"
         style="stop-color:#9a9a9a;stop-opacity:1"
         offset="0.5" />
      <stop
         id="stop2595"
         style="stop-color:#545454;stop-opacity:1"
         offset="1" />
    </linearGradient>
    <linearGradient
       x1="30.037716"
       y1="24.989594"
       x2="30.037716"
       y2="30.000141"
       id="linearGradient3162"
       xlink:href="#linearGradient3223-768"
       gradientUnits="userSpaceOnUse"
       gradientTransform="matrix(0.85064445,-0.85481442,1.146122,1.1404196,-5.6219636,22.045155)" />
    <linearGradient
       id="linearGradient3223-768">
      <stop
         id="stop2583"
         style="stop-color:#b1b1b1;stop-opacity:1"
         offset="0" />
      <stop
         id="stop2585"
         style="stop-color:#ffffff;stop-opacity:1"
         offset="0.5" />
      <stop
         id="stop2587"
         style="stop-color:#8f8f8f;stop-opacity:1"
         offset="1" />
    </linearGradient>
    <linearGradient
       x1="30.037716"
       y1="24.989594"
       x2="30.037716"
       y2="30.000141"
       id="linearGradient3165"
       xlink:href="#linearGradient3240-686"
       gradientUnits="userSpaceOnUse"
       gradientTransform="matrix(0.85064445,-0.85481442,1.146122,1.1404196,-5.3783496,21.800349)" />
    <linearGradient
       id="linearGradient3240-686">
      <stop
         id="stop2575"
         style="stop-color:#565656;stop-opacity:1"
         offset="0" />
      <stop
         id="stop2577"
         style="stop-color:#9a9a9a;stop-opacity:1"
         offset="0.5" />
      <stop
         id="stop2579"
         style="stop-color:#545454;stop-opacity:1"
         offset="1" />
    </linearGradient>
    <linearGradient
       x1="30.037716"
       y1="24.989594"
       x2="30.037716"
       y2="30.000141"
       id="linearGradient3168"
       xlink:href="#linearGradient3223-789"
       gradientUnits="userSpaceOnUse"
       gradientTransform="matrix(0.85064445,-0.85481442,1.146122,1.1404196,-6.4685146,22.89586)" />
    <linearGradient
       id="linearGradient3223-789">
      <stop
         id="stop2567"
         style="stop-color:#b1b1b1;stop-opacity:1"
         offset="0" />
      <stop
         id="stop2569"
         style="stop-color:#ffffff;stop-opacity:1"
         offset="0.5" />
      <stop
         id="stop2571"
         style="stop-color:#8f8f8f;stop-opacity:1"
         offset="1" />
    </linearGradient>
    <linearGradient
       x1="30.037716"
       y1="24.989594"
       x2="30.037716"
       y2="30.000141"
       id="linearGradient3171"
       xlink:href="#linearGradient3240-279"
       gradientUnits="userSpaceOnUse"
       gradientTransform="matrix(0.85064445,-0.85481442,1.146122,1.1404196,-6.2249016,22.651052)" />
    <linearGradient
       id="linearGradient3240-279">
      <stop
         id="stop2559"
         style="stop-color:#565656;stop-opacity:1"
         offset="0" />
      <stop
         id="stop2561"
         style="stop-color:#9a9a9a;stop-opacity:1"
         offset="0.5" />
      <stop
         id="stop2563"
         style="stop-color:#545454;stop-opacity:1"
         offset="1" />
    </linearGradient>
    <linearGradient
       x1="23.575972"
       y1="25.356892"
       x2="23.575972"
       y2="31.210939"
       id="linearGradient3176"
       xlink:href="#linearGradient3155-40"
       gradientUnits="userSpaceOnUse"
       gradientTransform="matrix(0.87539065,-0.87968181,0.97932539,0.97445279,-3.0169552,27.152318)"
       spreadMethod="pad" />
    <linearGradient
       id="linearGradient3155-40">
      <stop
         id="stop2541"
         style="stop-color:#181818;stop-opacity:1"
         offset="0" />
      <stop
         id="stop2543"
         style="stop-color:#dbdbdb;stop-opacity:1"
         offset="0.13482948" />
      <stop
         id="stop2545"
         style="stop-color:#a4a4a4;stop-opacity:1"
         offset="0.20224422" />
      <stop
         id="stop2547"
         style="stop-color:#ffffff;stop-opacity:1"
         offset="0.26965895" />
      <stop
         id="stop2549"
         style="stop-color:#8d8d8d;stop-opacity:1"
         offset="0.44650277" />
      <stop
         id="stop2551"
         style="stop-color:#959595;stop-opacity:1"
         offset="0.57114136" />
      <stop
         id="stop2553"
         style="stop-color:#cecece;stop-opacity:1"
         offset="0.72038066" />
      <stop
         id="stop2555"
         style="stop-color:#181818;stop-opacity:1"
         offset="1" />
    </linearGradient>
    <linearGradient
       x1="22.004084"
       y1="44.854229"
       x2="22.004084"
       y2="3.0718794"
       id="linearGradient3302"
       xlink:href="#linearGradient3104"
       gradientUnits="userSpaceOnUse"
       gradientTransform="matrix(1.3332795,0,0,1.3332795,-0.1663167,1.1690644)" />
    <linearGradient
       id="linearGradient3104">
      <stop
         id="stop3106"
         style="stop-color:#a0a0a0;stop-opacity:1"
         offset="0" />
      <stop
         id="stop3108"
         style="stop-color:#c8c8c8;stop-opacity:1"
         offset="1" />
    </linearGradient>
    <linearGradient
       x1="68.437271"
       y1="4.410717"
       x2="68.437271"
       y2="40.927929"
       id="linearGradient3245-0"
       xlink:href="#linearGradient3454"
       gradientUnits="userSpaceOnUse"
       gradientTransform="matrix(1.2162162,0,0,1.4378355,-59.087486,0.390193)" />
    <linearGradient
       id="linearGradient3454">
      <stop
         id="stop3456"
         style="stop-color:#ffffff;stop-opacity:1"
         offset="0" />
      <stop
         id="stop3458"
         style="stop-color:#ffffff;stop-opacity:0.23529412"
         offset="0.0097359" />
      <stop
         id="stop3460"
         style="stop-color:#ffffff;stop-opacity:0.15686275"
         offset="0.99001008" />
      <stop
         id="stop3462"
         style="stop-color:#ffffff;stop-opacity:0.39215687"
         offset="1" />
    </linearGradient>
    <linearGradient
       x1="-51.786404"
       y1="53.514328"
       x2="-51.786404"
       y2="3.6336823"
       id="linearGradient3250-3"
       xlink:href="#linearGradient3104-8-8"
       gradientUnits="userSpaceOnUse"
       gradientTransform="matrix(1.0843525,0,0,1.1183944,79.550865,1.1533356)" />
    <linearGradient
       id="linearGradient3104-8-8">
      <stop
         id="stop3106-5-4"
         style="stop-color:#a0a0a0;stop-opacity:1"
         offset="0" />
      <stop
         id="stop3108-4-3"
         style="stop-color:#bebebe;stop-opacity:1"
         offset="1" />
    </linearGradient>
    <linearGradient
       x1="302.85715"
       y1="366.64789"
       x2="302.85715"
       y2="609.50507"
       id="linearGradient3359"
       xlink:href="#linearGradient5048"
       gradientUnits="userSpaceOnUse"
       gradientTransform="matrix(0.08918772,0,0,0.01646992,-1.9026808,51.961501)" />
    <linearGradient
       id="linearGradient5048">
      <stop
         id="stop5050"
         style="stop-color:#000000;stop-opacity:0"
         offset="0" />
      <stop
         id="stop5056"
         style="stop-color:#000000;stop-opacity:1"
         offset="0.5" />
      <stop
         id="stop5052"
         style="stop-color:#000000;stop-opacity:0"
         offset="1" />
    </linearGradient>
    <radialGradient
       cx="605.71429"
       cy="486.64789"
       r="117.14286"
       fx="605.71429"
       fy="486.64789"
       id="radialGradient3361"
       xlink:href="#linearGradient5060"
       gradientUnits="userSpaceOnUse"
       gradientTransform="matrix(-0.03052185,0,0,0.01646992,27.194158,51.961535)" />
    <linearGradient
       id="linearGradient5060">
      <stop
         id="stop5062"
         style="stop-color:#000000;stop-opacity:1"
         offset="0" />
      <stop
         id="stop5064"
         style="stop-color:#000000;stop-opacity:0"
         offset="1" />
    </linearGradient>
    <radialGradient
       cx="605.71429"
       cy="486.64789"
       r="117.14286"
       fx="605.71429"
       fy="486.64789"
       id="radialGradient3596"
       xlink:href="#linearGradient5060"
       gradientUnits="userSpaceOnUse"
       gradientTransform="matrix(0.03052185,0,0,0.01646992,33.470457,51.961535)" />
    <linearGradient
       id="linearGradient3600-9-2-6">
      <stop
         id="stop3602-3-2-9"
         style="stop-color:#f4f4f4;stop-opacity:1"
         offset="0" />
      <stop
         id="stop3604-7-9-5"
         style="stop-color:#dbdbdb;stop-opacity:1"
         offset="1" />
    </linearGradient>
    <linearGradient
       x1="25.132275"
       y1="2.3464241"
       x2="25.132275"
       y2="48.545383"
       id="linearGradient3115"
       xlink:href="#linearGradient3600-9-2-6"
       gradientUnits="userSpaceOnUse"
       gradientTransform="matrix(1.3428567,0,0,1.1914356,-0.42856251,2.5766524)" />
    <linearGradient
       id="linearGradient3104-8-8-97">
      <stop
         id="stop3106-5-4-3"
         style="stop-color:#000000;stop-opacity:0.32173914"
         offset="0" />
      <stop
         id="stop3108-4-3-7"
         style="stop-color:#000000;stop-opacity:0.27826086"
         offset="1" />
    </linearGradient>
    <linearGradient
       x1="-51.786404"
       y1="53.514328"
       x2="-51.786404"
       y2="3.6336823"
       id="linearGradient3929"
       xlink:href="#linearGradient3104-8-8-97"
       gradientUnits="userSpaceOnUse"
       gradientTransform="matrix(1.107422,0,0,1.1387279,80.562467,0.57431218)" />
    <radialGradient
       cx="605.71429"
       cy="486.64789"
       r="117.14286"
       fx="605.71429"
       fy="486.64789"
       id="radialGradient3949"
       xlink:href="#linearGradient5060"
       gradientUnits="userSpaceOnUse"
       gradientTransform="matrix(0.03052185,0,0,0.01646992,35.138147,51.961535)" />
    <radialGradient
       cx="605.71429"
       cy="486.64789"
       r="117.14286"
       fx="605.71429"
       fy="486.64789"
       id="radialGradient3952"
       xlink:href="#linearGradient5060"
       gradientUnits="userSpaceOnUse"
       gradientTransform="matrix(-0.03052185,0,0,0.01646992,28.861848,51.961535)" />
    <linearGradient
       x1="302.85715"
       y1="366.64789"
       x2="302.85715"
       y2="609.50507"
       id="linearGradient3955"
       xlink:href="#linearGradient5048"
       gradientUnits="userSpaceOnUse"
       gradientTransform="matrix(0.08918772,0,0,0.01646992,-0.2349912,51.961501)" />
  </defs>
  <metadata
     id="metadata3603">
    <rdf:RDF>
      <cc:Work
         rdf:about="">
        <dc:format>image/svg+xml</dc:format>
        <dc:type
           rdf:resource="http://purl.org/dc/dcmitype/StillImage" />
        <dc:title />
      </cc:Work>
    </rdf:RDF>
  </metadata>
  <path
     style="color:#000000;display:inline;overflow:visible;visibility:visible;fill:none;stroke:url(#linearGradient3929);stroke-width:0;stroke-linecap:butt;stroke-linejoin:round;stroke-miterlimit:4;stroke-dasharray:none;stroke-dashoffset:0;stroke-opacity:1;marker:none;enable-background:accumulate"
     id="path2855-8"
     inkscape:connector-curvature="0"
     d="M 9.3714583,5.0020296 H 54.629511 L 55.99992,60.99996 8.0000016,60.971115 Z" />
  <path
     style="color:#000000;display:inline;overflow:visible;visibility:visible;fill:url(#linearGradient3115);fill-opacity:1;fill-rule:nonzero;stroke:#000000;stroke-width:0.1;marker:none;enable-background:accumulate;stroke-miterlimit:4;stroke-dasharray:none;stroke-opacity:0.39215687"
     id="path2855-7"
     inkscape:connector-curvature="0"
     d="M 9.6428861,5.5843001 H 53.95814 L 55.3,60.4157 8.3,60.387456 Z" />
  <path
     style="display:inline;opacity:0.59069764;fill:#80b3ff;fill-rule:evenodd;stroke:#f6abab;stroke-width:0.49999988;stroke-linecap:round;stroke-linejoin:round;stroke-miterlimit:4;stroke-dasharray:none;stroke-opacity:1"
     id="path5685"
     inkscape:connector-curvature="0"
     d="M 16.749772,6.8353523 16.166357,59.500041" />
  <path
     style="display:inline;opacity:0.43720931;fill:#80b3ff;fill-rule:evenodd;stroke:#80b3ff;stroke-width:0.24999994;stroke-linecap:round;stroke-linejoin:round;stroke-miterlimit:4;stroke-dasharray:none;stroke-opacity:1"
     id="path6656"
     inkscape:connector-curvature="0"
     d="M 53.241446,14.335197 10.336128,14.089165" />
  <path
     style="display:inline;opacity:0.43720931;fill:#80b3ff;fill-rule:evenodd;stroke:#80b3ff;stroke-width:0.24999994;stroke-linecap:round;stroke-linejoin:round;stroke-miterlimit:4;stroke-dasharray:none;stroke-opacity:1"
     id="path6658"
     inkscape:connector-curvature="0"
     d="M 53.340122,17.001757 10.324655,16.75572" />
  <path
     style="display:inline;opacity:0.43720931;fill:#80b3ff;fill-rule:evenodd;stroke:#80b3ff;stroke-width:0.24999994;stroke-linecap:round;stroke-linejoin:round;stroke-miterlimit:4;stroke-dasharray:none;stroke-opacity:1"
     id="path6660"
     inkscape:connector-curvature="0"
     d="M 53.450274,19.668316 10.214503,19.422284" />
  <path
     style="display:inline;opacity:0.43720931;fill:#80b3ff;fill-rule:evenodd;stroke:#80b3ff;stroke-width:0.24999994;stroke-linecap:round;stroke-linejoin:round;stroke-miterlimit:4;stroke-dasharray:none;stroke-opacity:1"
     id="path6662"
     inkscape:connector-curvature="0"
     d="M 53.560426,22.334875 10.104354,22.088841" />
  <path
     style="display:inline;opacity:0.43720931;fill:#80b3ff;fill-rule:evenodd;stroke:#80b3ff;stroke-width:0.24999994;stroke-linecap:round;stroke-linejoin:round;stroke-miterlimit:4;stroke-dasharray:none;stroke-opacity:1"
     id="path6664"
     inkscape:connector-curvature="0"
     d="M 53.560427,25.001434 10.104354,24.7554" />
  <path
     style="display:inline;opacity:0.43720931;fill:#80b3ff;fill-rule:evenodd;stroke:#80b3ff;stroke-width:0.24999994;stroke-linecap:round;stroke-linejoin:round;stroke-miterlimit:4;stroke-dasharray:none;stroke-opacity:1"
     id="path6666"
     inkscape:connector-curvature="0"
     d="M 53.670579,27.667993 9.9942028,27.421957" />
  <path
     style="display:inline;overflow:visible;visibility:visible;opacity:0.43720931;fill:#80b3ff;fill-opacity:1;fill-rule:evenodd;stroke:#80b3ff;stroke-width:0.24999994;stroke-linecap:round;stroke-linejoin:round;stroke-miterlimit:4;stroke-dasharray:none;stroke-dashoffset:0;stroke-opacity:1;marker:none;enable-background:accumulate"
     id="path7637"
     inkscape:connector-curvature="0"
     d="M 53.670579,30.334552 9.9942029,30.088519" />
  <path
     style="display:inline;overflow:visible;visibility:visible;opacity:0.43720931;fill:#80b3ff;fill-opacity:1;fill-rule:evenodd;stroke:#80b3ff;stroke-width:0.24999996;stroke-linecap:round;stroke-linejoin:round;stroke-miterlimit:4;stroke-dasharray:none;stroke-dashoffset:0;stroke-opacity:1;marker:none;enable-background:accumulate"
     id="path7639"
     inkscape:connector-curvature="0"
     d="M 53.780725,33.001111 9.8840522,32.755077" />
  <path
     style="display:inline;overflow:visible;visibility:visible;opacity:0.43720931;fill:#80b3ff;fill-opacity:1;fill-rule:evenodd;stroke:#80b3ff;stroke-width:0.24999996;stroke-linecap:round;stroke-linejoin:round;stroke-miterlimit:4;stroke-dasharray:none;stroke-dashoffset:0;stroke-opacity:1;marker:none;enable-background:accumulate"
     id="path7641"
     inkscape:connector-curvature="0"
     d="M 53.780722,35.66767 9.8840536,35.421636" />
  <path
     style="display:inline;overflow:visible;visibility:visible;opacity:0.43720931;fill:#80b3ff;fill-opacity:1;fill-rule:evenodd;stroke:#80b3ff;stroke-width:0.24999996;stroke-linecap:round;stroke-linejoin:round;stroke-miterlimit:4;stroke-dasharray:none;stroke-dashoffset:0;stroke-opacity:1;marker:none;enable-background:accumulate"
     id="path7645"
     inkscape:connector-curvature="0"
     d="M 54.001027,38.334229 9.6637532,38.088199" />
  <path
     style="display:inline;overflow:visible;visibility:visible;opacity:0.43720931;fill:#80b3ff;fill-opacity:1;fill-rule:evenodd;stroke:#80b3ff;stroke-width:0.24999996;stroke-linecap:round;stroke-linejoin:round;stroke-miterlimit:4;stroke-dasharray:none;stroke-dashoffset:0;stroke-opacity:1;marker:none;enable-background:accumulate"
     id="path7647"
     inkscape:connector-curvature="0"
     d="M 54.001027,40.986298 9.6637527,40.740262" />
  <path
     style="display:inline;overflow:visible;visibility:visible;opacity:0.43720931;fill:#80b3ff;fill-opacity:1;fill-rule:evenodd;stroke:#80b3ff;stroke-width:0.24999994;stroke-linecap:round;stroke-linejoin:round;stroke-miterlimit:4;stroke-dasharray:none;stroke-dashoffset:0;stroke-opacity:1;marker:none;enable-background:accumulate"
     id="path7649"
     inkscape:connector-curvature="0"
     d="M 54.331478,43.667347 9.3333011,43.421313" />
  <path
     style="display:inline;overflow:visible;visibility:visible;opacity:0.43720931;fill:#80b3ff;fill-opacity:1;fill-rule:evenodd;stroke:#80b3ff;stroke-width:0.24999994;stroke-linecap:round;stroke-linejoin:round;stroke-miterlimit:4;stroke-dasharray:none;stroke-dashoffset:0;stroke-opacity:1;marker:none;enable-background:accumulate"
     id="path7651"
     inkscape:connector-curvature="0"
     d="M 54.331478,46.27448 9.3333011,46.028445" />
  <path
     style="display:inline;overflow:visible;visibility:visible;opacity:0.43720931;fill:#80b3ff;fill-opacity:1;fill-rule:evenodd;stroke:#80b3ff;stroke-width:0.24999994;stroke-linecap:round;stroke-linejoin:round;stroke-miterlimit:4;stroke-dasharray:none;stroke-dashoffset:0;stroke-opacity:1;marker:none;enable-background:accumulate"
     id="path7653"
     inkscape:connector-curvature="0"
     d="M 54.331476,48.918571 9.333302,48.672538" />
  <path
     style="display:inline;overflow:visible;visibility:visible;opacity:0.43720931;fill:#80b3ff;fill-opacity:1;fill-rule:evenodd;stroke:#80b3ff;stroke-width:0.24999994;stroke-linecap:round;stroke-linejoin:round;stroke-miterlimit:4;stroke-dasharray:none;stroke-dashoffset:0;stroke-opacity:1;marker:none;enable-background:accumulate"
     id="path7655"
     inkscape:connector-curvature="0"
     d="M 54.331478,51.562661 9.3333009,51.316623" />
  <path
     style="display:inline;overflow:visible;visibility:visible;opacity:0.43720931;fill:#80b3ff;fill-opacity:1;fill-rule:evenodd;stroke:#80b3ff;stroke-width:0.24999994;stroke-linecap:round;stroke-linejoin:round;stroke-miterlimit:4;stroke-dasharray:none;stroke-dashoffset:0;stroke-opacity:1;marker:none;enable-background:accumulate"
     id="path7657"
     inkscape:connector-curvature="0"
     d="M 54.331476,54.206753 9.3333021,53.960718" />
  <path
     style="display:inline;overflow:visible;visibility:visible;opacity:0.43720931;fill:#80b3ff;fill-opacity:1;fill-rule:evenodd;stroke:#80b3ff;stroke-width:0.24999994;stroke-linecap:round;stroke-linejoin:round;stroke-miterlimit:4;stroke-dasharray:none;stroke-dashoffset:0;stroke-opacity:1;marker:none;enable-background:accumulate"
     id="path7659"
     inkscape:connector-curvature="0"
     d="M 54.331476,57.000142 9.3333019,56.754108" />
  <path
     style="display:inline;opacity:0.59069764;fill:none;stroke:#b9d5ff;stroke-width:0.49999988;stroke-linecap:round;stroke-linejoin:round;stroke-miterlimit:4;stroke-dasharray:none;stroke-opacity:1"
     id="path7671"
     inkscape:connector-curvature="0"
     d="M 46.831786,6.7252029 48.231073,59.389891" />
  <path
     style="fill:none;stroke:url(#linearGradient3302);stroke-width:1px;stroke-linecap:butt;stroke-linejoin:miter;stroke-opacity:1"
     id="path3715"
     inkscape:connector-curvature="0"
     d="m 17.164896,16.5 h 3.1305 m 0.447215,0 h 2.906893 m 0.467923,0 h 2.593843 m 0.426507,0 h 1.118035 m 0.447215,0 h 2.5044 m 0.491936,0 h 6.574051 m 0.447217,0 h 5.0088 m 0.447215,0 h 1.520528 m -28.532278,3 h 4.85398 m 0.564726,0 h 2.319342 m 0.428752,0 h 1.144554 m 0.465677,0 h 2.136455 m 0.447216,0 h 2.191039 m 0.413597,0 h 3.440449 m 0.447217,0 h 4.53876 m -23.391764,2.986685 h 4.108403 m 0.431588,0 h 6.766176 m 0.41469,0 h 3.281449 m 0.420587,0 h 3.069756 m 0.440223,0 h 2.614989 m 0.420589,0 4.112718,0.02663 M 17.164896,25.5 h 5.712238 m 0.448559,0 h 6.173855 m 0.426507,0 h 2.426115 m 0.447216,0 h 5.774602 m 0.388667,0 h 3.957889 m 0.447216,0 h 1.566482 m 0.447216,0 h 0.866487 m -29.083049,3 h 2.132227 m 0.655099,0 h 7.895013 m -10.682339,13 h 4.85398 m 0.564726,0 h 2.319342 m 0.428752,0 h 1.144554 m 0.465677,0 h 2.136455 m 0.447216,0 h 2.191039 m 0.413597,0 h 3.440449 m -18.405787,3.959095 h 4.108403 m 0.431588,0 h 6.766176 m 0.41469,0 h 3.281449 m 11.59593,0.08181 h 6.70226 M 17.164896,38.5 h 5.712238 m 0.448559,0 h 6.173855 m 0.426507,0 h 2.426115 m 0.447216,0 h 5.774602 m -21.409092,-6 h 3.1305 m 0.447215,0 h 2.906893 m 0.467923,0 h 2.593843 m 0.426507,0 h 1.118035 m 0.447215,0 h 2.5044 m 0.491936,0 h 6.574051 m 0.447217,0 h 5.0088 m -26.564535,3 h 5.272165 m 0.414708,0 h 5.598375 m 0.426507,0 h 2.189153 m 0.413364,0 h 5.266826 m 0.422519,0 h 5.752031 M 17.164896,48.500488 h 4.926743 m 0.528863,0 h 2.172067 m 0.508746,0 h 1.083366 m 0.344859,0 h 2.138627 m 0.283921,0 h 11.322321 m 0.53276,0 h 3.022388 m 0.406393,0 h 0.763135 M 22.777657,51.5 h 1.607122 m -7.219883,0 h 5.1423 m 2.488609,0 h 3.739246 m 0.395544,0 h 5.488981 m 0.426507,0 h 3.72366 m 0.374837,0 h 0.767317 m 0.419558,0 h 4.7284 m 0.483405,0 h 2.475554 m -25.041157,3 h 2.269174 m -7.881935,0 h 5.1423 m 3.231399,0 h 3.190227" />
  <path
     style="fill:url(#linearGradient3176);fill-opacity:1;stroke:#000000;stroke-width:0.2;stroke-linecap:butt;stroke-linejoin:round;stroke-miterlimit:4;stroke-dasharray:none;stroke-dashoffset:0;stroke-opacity:0.39215687"
     id="rect2383"
     inkscape:connector-curvature="0"
     d="m 31.57772,42.038752 c 0.594537,-0.446137 2.262714,0.39074 3.795697,1.916096 1.529317,1.521706 2.335133,3.150009 1.899097,3.750366 -0.0016,0.0023 0.03752,0.03339 0.03581,0.03564 L 58.654191,26.29035 c 0.541954,-0.544611 -0.300099,-2.265649 -1.88175,-3.839428 -1.581645,-1.57378 -3.306905,-2.407285 -3.848863,-1.862671 z" />
  <path
     style="opacity:1;fill:#e28ccd;fill-opacity:1;stroke:none;stroke-width:0.5;stroke-linecap:butt;stroke-linejoin:round;stroke-miterlimit:4;stroke-dasharray:none;stroke-dashoffset:0;stroke-opacity:1"
     id="rect3175"
     inkscape:connector-curvature="0"
     d="m 50.318482,23.20612 c 0.594537,-0.446136 2.262715,0.390742 3.795697,1.916096 1.529316,1.521706 2.335133,3.150009 1.899096,3.750365 -0.0016,0.0023 0.03752,0.03338 0.03581,0.03564 l 2.605098,-2.61787 0.05317,-0.05342 c 0.0017,-0.0023 -0.03748,-0.03336 -0.03581,-0.03564 0.43603,-0.600356 -0.369788,-2.228658 -1.899104,-3.750363 -1.53298,-1.525355 -3.201157,-2.362234 -3.795696,-1.916096 l -0.05317,0.05342 -2.605096,2.617869 h 4e-6 z" />
  <path
     style="opacity:0.354;fill:#0c0c0c;fill-opacity:1;stroke:none"
     id="path3208"
     inkscape:connector-curvature="0"
     d="m 31.57772,42.038749 c 0.594537,-0.446136 2.262715,0.390742 3.795696,1.916096 1.529317,1.521707 2.335134,3.150009 1.899097,3.750366 -0.0016,0.0023 0.03752,0.03339 0.03583,0.03564 l 14.700196,-14.772261 0.05317,-0.05343 c 0.0017,-0.0023 -0.03748,-0.03336 -0.03581,-0.03564 0.436028,-0.600361 -0.369789,-2.228662 -1.899105,-3.750369 -1.532982,-1.525354 -3.201161,-2.362232 -3.795698,-1.916094 l -0.05317,0.05342 -14.700191,14.772262 h -7e-6 z" />
  <path
     style="fill:url(#linearGradient3171);fill-opacity:1;stroke:none"
     id="path3233"
     inkscape:connector-curvature="0"
     d="m 47.398481,26.140433 c 0.594536,-0.446138 2.262717,0.390741 3.795698,1.916096 1.529315,1.521705 2.335133,3.150007 1.899095,3.750365 -0.0016,0.0023 0.03752,0.03339 0.03581,0.03564 L 53.394912,31.5754 c 0.0017,-0.0023 -0.03748,-0.03336 -0.03581,-0.03564 0.436038,-0.600357 -0.36978,-2.22866 -1.899097,-3.750363 -1.532981,-1.525356 -3.20116,-2.362234 -3.795696,-1.916097 l -0.265827,0.26713 v 2e-6 z" />
  <path
     style="fill:url(#linearGradient3168);fill-opacity:1;stroke:none"
     id="path3216"
     inkscape:connector-curvature="0"
     d="m 47.154867,26.38524 c 0.594539,-0.446138 2.262718,0.39074 3.795697,1.916095 1.529319,1.521706 2.335136,3.150007 1.899097,3.750364 -0.0016,0.0023 0.03751,0.03339 0.03581,0.03564 l 0.265825,-0.267132 c 0.0017,-0.0023 -0.03748,-0.03336 -0.03581,-0.03564 0.436041,-0.600355 -0.369777,-2.228658 -1.899095,-3.750363 C 49.68341,26.50885 48.015232,25.67197 47.420692,26.118108 l -0.265825,0.267131 z" />
  <path
     style="fill:url(#linearGradient3165);fill-opacity:1;stroke:none"
     id="path3248"
     inkscape:connector-curvature="0"
     d="m 48.245034,25.28973 c 0.594537,-0.446138 2.262715,0.39074 3.795697,1.916096 1.529316,1.521705 2.335134,3.150006 1.899097,3.750364 -0.0016,0.0023 0.03751,0.03338 0.03581,0.03564 l 0.265826,-0.26713 c 0.0017,-0.0023 -0.03748,-0.03336 -0.03581,-0.03564 C 54.641691,30.088704 53.835875,28.4604 52.306556,26.938696 50.773576,25.413341 49.1054,24.576462 48.510859,25.0226 Z" />
  <path
     style="fill:url(#linearGradient3162);fill-opacity:1;stroke:none"
     id="path3250"
     inkscape:connector-curvature="0"
     d="m 48.00142,25.534537 c 0.59454,-0.446138 2.262718,0.39074 3.795697,1.916095 1.529318,1.521706 2.335135,3.150007 1.899098,3.750364 -0.0016,0.0023 0.03752,0.03339 0.03581,0.03564 l 0.265825,-0.267131 c 0.0017,-0.0023 -0.03748,-0.03336 -0.03581,-0.03564 0.436039,-0.600357 -0.369778,-2.228661 -1.899095,-3.750364 -1.53298,-1.525355 -3.201159,-2.362235 -3.795699,-1.916096 l -0.265826,0.267131 z" />
  <path
     style="fill:url(#linearGradient3159);fill-opacity:1;stroke:none"
     id="path3256"
     inkscape:connector-curvature="0"
     d="m 49.095679,24.434915 c 0.594536,-0.446137 2.262714,0.390741 3.795696,1.916096 1.529316,1.521705 2.335134,3.150007 1.899097,3.750364 -0.0016,0.0023 0.0375,0.03339 0.03581,0.03564 l 0.265824,-0.267131 c 0.0017,-0.0023 -0.03748,-0.03336 -0.03581,-0.03564 0.436038,-0.600356 -0.36978,-2.22866 -1.899097,-3.750365 -1.532978,-1.525354 -3.201157,-2.362234 -3.795696,-1.916094 l -0.265825,0.267129 z" />
  <path
     style="fill:url(#linearGradient3156);fill-opacity:1;stroke:none"
     id="path3258"
     inkscape:connector-curvature="0"
     d="m 48.852067,24.679722 c 0.594534,-0.446138 2.262715,0.39074 3.795696,1.916097 1.529315,1.521704 2.335135,3.150007 1.899095,3.750362 -0.0016,0.0023 0.03752,0.03339 0.03581,0.03564 l 0.265826,-0.267128 c 0.0017,-0.0023 -0.03748,-0.03336 -0.03581,-0.03564 0.436038,-0.600359 -0.36978,-2.228661 -1.899096,-3.750365 -1.532981,-1.525356 -3.20116,-2.362235 -3.795697,-1.916096 l -0.265825,0.267129 v 0 z" />
  <path
     style="fill:url(#linearGradient3151);fill-opacity:1;fill-rule:evenodd;stroke:#000000;stroke-width:0.1004613;stroke-linecap:butt;stroke-linejoin:miter;stroke-miterlimit:4;stroke-dasharray:none;stroke-opacity:0.39215686"
     id="path3270"
     inkscape:connector-curvature="0"
     d="m 27.464474,51.770284 9.755755,-3.97935 0.08312,-0.08311 c 0.438034,-0.603149 -0.382031,-2.239139 -1.918356,-3.767915 -1.540008,-1.532438 -3.213849,-2.368556 -3.811111,-1.920346 l -4.109406,9.750727 h -6e-6 z" />
  <path
     style="fill:#0c0c0c;fill-opacity:1;fill-rule:evenodd;stroke:#0c0c0c;stroke-width:0.40639871;stroke-linecap:butt;stroke-linejoin:miter;stroke-miterlimit:4;stroke-dasharray:none;stroke-opacity:1"
     id="path3281"
     inkscape:connector-curvature="0"
     d="m 28.630406,49.370625 -0.900171,2.125953 2.150666,-0.881677 C 29.70853,50.40843 29.549401,50.198715 29.342444,49.992789 29.10418,49.75571 28.869828,49.563349 28.630406,49.370625 Z" />
</svg>
