<?xml version="1.0" encoding="UTF-8" standalone="no"?>
<!-- Created with Inkscape (http://www.inkscape.org/) -->

<svg
   xmlns:dc="http://purl.org/dc/elements/1.1/"
   xmlns:cc="http://creativecommons.org/ns#"
   xmlns:rdf="http://www.w3.org/1999/02/22-rdf-syntax-ns#"
   xmlns:svg="http://www.w3.org/2000/svg"
   xmlns="http://www.w3.org/2000/svg"
   xmlns:xlink="http://www.w3.org/1999/xlink"
   xmlns:sodipodi="http://sodipodi.sourceforge.net/DTD/sodipodi-0.dtd"
   xmlns:inkscape="http://www.inkscape.org/namespaces/inkscape"
   version="1.0"
   width="64"
   height="64"
   id="svg4175"
   sodipodi:docname="accessories-dictionary.svg"
   inkscape:version="0.92.4 5da689c313, 2019-01-14">
  <sodipodi:namedview
     pagecolor="#ffffff"
     bordercolor="#666666"
     borderopacity="1"
     objecttolerance="10"
     gridtolerance="10"
     guidetolerance="10"
     inkscape:pageopacity="0"
     inkscape:pageshadow="2"
     inkscape:window-width="1444"
     inkscape:window-height="874"
     id="namedview3685"
     showgrid="false"
     inkscape:zoom="20"
     inkscape:cx="57.227184"
     inkscape:cy="8.0012712"
     inkscape:window-x="64"
     inkscape:window-y="47"
     inkscape:window-maximized="0"
     inkscape:current-layer="svg4175" />
  <metadata
     id="metadata46">
    <rdf:RDF>
      <cc:Work
         rdf:about="">
        <dc:format>image/svg+xml</dc:format>
        <dc:type
           rdf:resource="http://purl.org/dc/dcmitype/StillImage" />
        <dc:title />
      </cc:Work>
    </rdf:RDF>
  </metadata>
  <defs
     id="defs4177">
    <linearGradient
       id="linearGradient2346">
      <stop
         id="stop2348"
         style="stop-color:#eeeeee;stop-opacity:1"
         offset="0" />
      <stop
         id="stop2350"
         style="stop-color:#d9d9da;stop-opacity:1"
         offset="1" />
    </linearGradient>
    <linearGradient
       id="linearGradient3211">
      <stop
         id="stop3213"
         style="stop-color:#ffffff;stop-opacity:1"
         offset="0" />
      <stop
         id="stop3215"
         style="stop-color:#ffffff;stop-opacity:0"
         offset="1" />
    </linearGradient>
    <linearGradient
       id="linearGradient2490">
      <stop
         id="stop2492"
         style="stop-color:#791235;stop-opacity:1"
         offset="0" />
      <stop
         id="stop2494"
         style="stop-color:#dd3b27;stop-opacity:1"
         offset="1" />
    </linearGradient>
    <linearGradient
       id="linearGradient5048">
      <stop
         id="stop5050"
         style="stop-color:#000000;stop-opacity:0"
         offset="0" />
      <stop
         id="stop5056"
         style="stop-color:#000000;stop-opacity:1"
         offset="0.5" />
      <stop
         id="stop5052"
         style="stop-color:#000000;stop-opacity:0"
         offset="1" />
    </linearGradient>
    <linearGradient
       id="linearGradient5060">
      <stop
         id="stop5062"
         style="stop-color:#000000;stop-opacity:1"
         offset="0" />
      <stop
         id="stop5064"
         style="stop-color:#000000;stop-opacity:0"
         offset="1" />
    </linearGradient>
    <linearGradient
       id="linearGradient3242-2">
      <stop
         id="stop3244"
         style="stop-color:#f8b17e;stop-opacity:1"
         offset="0" />
      <stop
         id="stop3246-9"
         style="stop-color:#e35d4f;stop-opacity:1"
         offset="0.31209752" />
      <stop
         id="stop3248-3"
         style="stop-color:#c6262e;stop-opacity:1"
         offset="0.57054454" />
      <stop
         id="stop3250-9"
         style="stop-color:#690b54;stop-opacity:1"
         offset="1" />
    </linearGradient>
    <linearGradient
       x1="302.85715"
       y1="366.64789"
       x2="302.85715"
       y2="609.50507"
       id="linearGradient3231"
       xlink:href="#linearGradient5048"
       gradientUnits="userSpaceOnUse"
       gradientTransform="matrix(2.774389,0,0,1.969706,-1892.179,-872.8854)" />
    <radialGradient
       cx="605.71429"
       cy="486.64789"
       r="117.14286"
       fx="605.71429"
       fy="486.64789"
       id="radialGradient3233"
       xlink:href="#linearGradient5060"
       gradientUnits="userSpaceOnUse"
       gradientTransform="matrix(2.774389,0,0,1.969706,-1891.633,-872.8854)" />
    <radialGradient
       cx="605.71429"
       cy="486.64789"
       r="117.14286"
       fx="605.71429"
       fy="486.64789"
       id="radialGradient3235"
       xlink:href="#linearGradient5060"
       gradientUnits="userSpaceOnUse"
       gradientTransform="matrix(-2.774389,0,0,1.969706,112.7623,-872.8854)" />
    <radialGradient
       cx="17.949392"
       cy="25.435272"
       r="13.427935"
       fx="17.949392"
       fy="25.435272"
       id="radialGradient3249"
       xlink:href="#linearGradient2346"
       gradientUnits="userSpaceOnUse"
       gradientTransform="matrix(-0.00991642,-2.2574638,3.564406,-0.01385783,-45.604439,71.757724)" />
    <linearGradient
       x1="25.579119"
       y1="-25.736307"
       x2="25.579119"
       y2="41.953453"
       id="linearGradient3253"
       xlink:href="#linearGradient3211"
       gradientUnits="userSpaceOnUse"
       gradientTransform="matrix(1.327168,0,0,1.3331554,-1.9477854,1.8495702)" />
    <radialGradient
       cx="39.651478"
       cy="18.618757"
       r="20.714195"
       fx="39.651478"
       fy="18.618757"
       id="radialGradient3257"
       xlink:href="#linearGradient3242-2"
       gradientUnits="userSpaceOnUse"
       gradientTransform="matrix(0.06356154,4.023585,-5.9568543,4.5769409e-7,103.08427,-165.40304)" />
    <linearGradient
       x1="24.008854"
       y1="38.246284"
       x2="24.008854"
       y2="0.99999988"
       id="linearGradient3259"
       xlink:href="#linearGradient2490"
       gradientUnits="userSpaceOnUse"
       gradientTransform="matrix(1.3852352,0,0,1.3794419,-1.2579124,-1.0689873)" />
    <linearGradient
       x1="21.13592"
       y1="40.884956"
       x2="21.13592"
       y2="35.298134"
       id="linearGradient3263"
       xlink:href="#linearGradient2346"
       gradientUnits="userSpaceOnUse"
       gradientTransform="matrix(1.2283272,0,0,0.98048515,3.2437013,14.455385)" />
  </defs>
  <path
     d="M 58.501723,59.322474 H 7.1038521 c -0.4767954,0 -0.8606411,-0.434643 -0.8606411,-0.974539 L 5.2505725,50.82327 c 0,-0.539897 0.383846,-0.974539 0.8606413,-0.974539 H 58.445529"
     inkscape:connector-curvature="0"
     id="rect8840"
     style="display:inline;overflow:visible;visibility:visible;fill:url(#linearGradient3263);fill-opacity:1;fill-rule:nonzero;stroke:#7a1235;stroke-width:0.99967796;stroke-linecap:round;stroke-linejoin:round;stroke-miterlimit:4;stroke-dasharray:none;stroke-dashoffset:0.06;stroke-opacity:1;marker:none;enable-background:accumulate" />
  <path
     d="m 58.392701,58.544751 c 0,0 -0.130956,-7.710587 -0.130956,-7.710587"
     inkscape:connector-curvature="0"
     id="path9017"
     style="fill:none;stroke:#c8c8c8;stroke-width:0.51482183;stroke-linecap:square;stroke-linejoin:miter;stroke-miterlimit:4;stroke-dasharray:none;stroke-opacity:1" />
  <path
     d="m 8.5634185,1.0000003 c -0.4921607,0 -0.8752648,0.5601108 -0.8752643,1.2697023 L 5.0000004,49.730296 c 0,0.709593 0.4211592,1.269705 0.9133191,1.269703 H 58.08668 c 0.492158,2e-6 0.913319,-0.56011 0.913319,-1.269703 L 55.993762,2.2697026 c 1e-6,-0.7095915 -0.383104,-1.2697023 -0.875266,-1.2697023 z"
     inkscape:connector-curvature="0"
     id="rect8064"
     style="display:inline;overflow:visible;visibility:visible;fill:url(#radialGradient3257);fill-opacity:1;fill-rule:nonzero;stroke:#000000;stroke-width:0.1;stroke-linecap:round;stroke-linejoin:round;stroke-miterlimit:4;stroke-dasharray:none;stroke-dashoffset:0.06;stroke-opacity:0.39215687;marker:none;enable-background:accumulate" />
  <path
     d="m 19.051474,26.123178 c 2.612107,0 5.224217,0 7.836325,0 -1.306054,-3.262414 -2.612108,-6.524828 -3.918163,-9.787245 -1.306055,3.262417 -2.612108,6.524831 -3.918162,9.787245 l 0,0 z m -6.034543,7.457604 c 0.06525,-0.452594 -0.126726,-1.15316 0.08849,-1.461194 0.594934,0 1.189863,0 1.784795,0 2.535843,-6.373196 5.071685,-12.746392 7.607527,-19.119587 0.800793,0 1.601586,0 2.402378,0 2.540609,6.373195 5.081218,12.746391 7.621829,19.119587 0.700691,0 1.401385,0 2.102079,0 -0.06525,0.452593 0.126719,1.153158 -0.08849,1.461194 -2.558779,0 -5.117558,0 -7.676338,0 0.06525,-0.452594 -0.126719,-1.15316 0.08849,-1.461194 0.761762,0 1.523526,0 2.28529,0 -0.595828,-1.507144 -1.191656,-3.014287 -1.787486,-4.521432 -2.993436,0 -5.986875,0 -8.980312,0 -0.59583,1.507145 -1.191656,3.014288 -1.787483,4.521432 0.781724,0 1.563452,0 2.345176,0 -0.06525,0.452593 0.126733,1.153158 -0.08849,1.461194 -1.972484,0 -3.94497,0 -5.917454,0 l 0,0 z m 32.989789,-4.60414 c 0,-1.033863 0,-2.067727 0,-3.10159 -1.758055,0.06926 -3.559416,-0.188742 -5.276321,0.257338 -2.320853,0.68272 -2.587948,3.98141 -1.01562,5.47716 1.854455,1.656336 5.527992,0.994204 6.149157,-1.537657 0.100629,-0.356336 0.142842,-0.726458 0.142784,-1.095251 l 0,0 z m 2.631175,-4.549 c 0,2.563982 0,5.127962 0,7.691946 0.781724,0 1.563451,0 2.345177,0 -0.06525,0.452593 0.126719,1.153158 -0.08849,1.461194 -1.62929,0 -3.258576,0 -4.887864,0 0,-0.52842 0,-1.056838 0,-1.585259 -1.882241,2.289721 -5.60568,2.54832 -8.114228,1.129604 -2.873974,-1.685211 -2.803515,-6.477417 0.307504,-7.896937 2.422379,-1.19235 5.192926,-0.735144 7.806724,-0.828119 0.07229,-1.421323 -0.04419,-3.09581 -1.479819,-3.89793 -1.647784,-0.896712 -4.079254,-0.916176 -5.447576,0.46551 -0.620097,0.845899 -0.544808,2.028779 -1.887682,1.654176 -0.464576,-0.07397 -0.0851,-0.961614 -0.208139,-1.364824 0,-0.532973 0,-1.065947 0,-1.598919 2.897832,-1.188806 6.486389,-1.76159 9.32563,-0.129331 1.703996,1.037509 2.366678,3.040853 2.328759,4.898892 l 7e-6,-3e-6 z"
     inkscape:connector-curvature="0"
     id="path3271"
     style="font-size:21.12489128px;font-style:normal;font-variant:normal;font-weight:normal;font-stretch:normal;fill:#7b1234;fill-opacity:1;stroke:none;font-family:Serif;-inkscape-font-specification:Serif;opacity:0.3" />
  <path
     d="m 19.051474,27.123177 c 2.612107,0 5.224217,0 7.836325,0 -1.306054,-3.262414 -2.612108,-6.524828 -3.918163,-9.787245 -1.306055,3.262417 -2.612108,6.524831 -3.918162,9.787245 l 0,0 z m -6.034543,7.457604 c 0.06525,-0.452594 -0.126726,-1.15316 0.08849,-1.461194 0.594934,0 1.189863,0 1.784795,0 C 17.426062,26.746391 19.961904,20.373195 22.497746,14 c 0.800793,0 1.601586,0 2.402378,0 2.540609,6.373195 5.081218,12.746391 7.621829,19.119587 0.700691,0 1.401385,0 2.102079,0 -0.06525,0.452593 0.126719,1.153158 -0.08849,1.461194 -2.558779,0 -5.117558,0 -7.676338,0 0.06525,-0.452594 -0.126719,-1.15316 0.08849,-1.461194 0.761762,0 1.523526,0 2.28529,0 -0.595828,-1.507144 -1.191656,-3.014287 -1.787486,-4.521432 -2.993436,0 -5.986875,0 -8.980312,0 -0.59583,1.507145 -1.191656,3.014288 -1.787483,4.521432 0.781724,0 1.563452,0 2.345176,0 -0.06525,0.452593 0.126733,1.153158 -0.08849,1.461194 -1.972484,0 -3.94497,0 -5.917454,0 l 0,0 z m 32.989789,-4.60414 c 0,-1.033863 0,-2.067727 0,-3.10159 -1.758055,0.06926 -3.559416,-0.188742 -5.276321,0.257338 -2.320853,0.68272 -2.587948,3.98141 -1.01562,5.47716 1.854455,1.656336 5.527992,0.994204 6.149157,-1.537657 0.100629,-0.356336 0.142842,-0.726458 0.142784,-1.095251 l 0,0 z m 2.631175,-4.549 c 0,2.563982 0,5.127962 0,7.691946 0.781724,0 1.563451,0 2.345177,0 -0.06525,0.452593 0.126719,1.153158 -0.08849,1.461194 -1.62929,0 -3.258576,0 -4.887864,0 0,-0.52842 0,-1.056838 0,-1.585259 -1.882241,2.289721 -5.60568,2.54832 -8.114228,1.129604 -2.873974,-1.685211 -2.803515,-6.477417 0.307504,-7.896937 2.422379,-1.19235 5.192926,-0.735144 7.806724,-0.828119 0.07229,-1.421323 -0.04419,-3.09581 -1.479819,-3.89793 -1.647784,-0.896712 -4.079254,-0.916176 -5.447576,0.46551 -0.620097,0.845899 -0.544808,2.028779 -1.887682,1.654176 -0.464576,-0.07397 -0.0851,-0.961614 -0.208139,-1.364824 0,-0.532973 0,-1.065947 0,-1.598919 2.897832,-1.188806 6.486389,-1.76159 9.32563,-0.129331 1.703996,1.037509 2.366678,3.040853 2.328759,4.898892 l 7e-6,-3e-6 z"
     inkscape:connector-curvature="0"
     id="text2537-9"
     style="font-size:21.12489128px;font-style:normal;font-variant:normal;font-weight:normal;font-stretch:normal;fill:url(#radialGradient3249);fill-opacity:1;stroke:none;font-family:Serif;-inkscape-font-specification:Serif" />
</svg>
