<?xml version="1.0" encoding="UTF-8" standalone="no"?>
<!-- Created with Inkscape (http://www.inkscape.org/) -->

<svg
   xmlns:dc="http://purl.org/dc/elements/1.1/"
   xmlns:cc="http://creativecommons.org/ns#"
   xmlns:rdf="http://www.w3.org/1999/02/22-rdf-syntax-ns#"
   xmlns:svg="http://www.w3.org/2000/svg"
   xmlns="http://www.w3.org/2000/svg"
   xmlns:xlink="http://www.w3.org/1999/xlink"
   xmlns:sodipodi="http://sodipodi.sourceforge.net/DTD/sodipodi-0.dtd"
   xmlns:inkscape="http://www.inkscape.org/namespaces/inkscape"
   version="1.1"
   width="64"
   height="64"
   id="svg4295"
   sodipodi:docname="application-default-icon.svg"
   inkscape:version="0.92.4 5da689c313, 2019-01-14">
  <sodipodi:namedview
     pagecolor="#ffffff"
     bordercolor="#666666"
     borderopacity="1"
     objecttolerance="10"
     gridtolerance="10"
     guidetolerance="10"
     inkscape:pageopacity="0"
     inkscape:pageshadow="2"
     inkscape:window-width="1680"
     inkscape:window-height="990"
     id="namedview7162"
     showgrid="false"
     inkscape:zoom="12.34375"
     inkscape:cx="32"
     inkscape:cy="32"
     inkscape:window-x="0"
     inkscape:window-y="31"
     inkscape:window-maximized="1"
     inkscape:current-layer="svg4295" />
  <defs
     id="defs4297">
    <linearGradient
       x1="38.856056"
       y1="14.906816"
       x2="38.856056"
       y2="49.200115"
       id="linearGradient4225"
       xlink:href="#linearGradient4213"
       gradientUnits="userSpaceOnUse"
       gradientTransform="matrix(1,0,0,-1,0,64.018405)" />
    <linearGradient
       id="linearGradient4213">
      <stop
         id="stop4215"
         style="stop-color:#000000;stop-opacity:1"
         offset="0" />
      <stop
         id="stop4217"
         style="stop-color:#000000;stop-opacity:0"
         offset="1" />
    </linearGradient>
    <linearGradient
       x1="38.856056"
       y1="14.906816"
       x2="38.856056"
       y2="49.200115"
       id="linearGradient4219"
       xlink:href="#linearGradient4213"
       gradientUnits="userSpaceOnUse" />
    <linearGradient
       x1="32"
       y1="3.9635763"
       x2="32"
       y2="59.570023"
       id="linearGradient3365"
       xlink:href="#linearGradient3707-319-631-407-324-82"
       gradientUnits="userSpaceOnUse"
       gradientTransform="rotate(180,32,31.999998)" />
    <linearGradient
       id="linearGradient3707-319-631-407-324-82">
      <stop
         id="stop3118"
         style="stop-color:#505050;stop-opacity:1"
         offset="0" />
      <stop
         id="stop3120"
         style="stop-color:#8e8e8e;stop-opacity:1"
         offset="1" />
    </linearGradient>
    <linearGradient
       x1="23.99999"
       y1="4.999989"
       x2="23.99999"
       y2="43"
       id="linearGradient3107-996"
       xlink:href="#linearGradient3924-45"
       gradientUnits="userSpaceOnUse"
       gradientTransform="matrix(1.4324324,0,0,1.4362832,-2.3783747,-2.4707827)" />
    <linearGradient
       id="linearGradient3924-45">
      <stop
         id="stop3124"
         style="stop-color:#ffffff;stop-opacity:1"
         offset="0" />
      <stop
         id="stop3126"
         style="stop-color:#ffffff;stop-opacity:0.23529412"
         offset="0.06316455" />
      <stop
         id="stop3128"
         style="stop-color:#ffffff;stop-opacity:0.15686275"
         offset="0.95056331" />
      <stop
         id="stop3130"
         style="stop-color:#ffffff;stop-opacity:0.39215687"
         offset="1" />
    </linearGradient>
    <radialGradient
       cx="7.4956832"
       cy="8.4497671"
       r="19.99999"
       fx="7.4956832"
       fy="8.4497671"
       id="radialGradient3164-608"
       xlink:href="#linearGradient2867-449-88-871-390-598-476-591-434-148-57-177-450"
       gradientUnits="userSpaceOnUse"
       gradientTransform="matrix(2.7897287e-8,3.3556781,-3.5499072,-6.1824397e-8,61.996047,-20.316635)" />
    <linearGradient
       id="linearGradient2867-449-88-871-390-598-476-591-434-148-57-177-450">
      <stop
         id="stop3108"
         style="stop-color:#c7c7c7;stop-opacity:1"
         offset="0" />
      <stop
         id="stop3110"
         style="stop-color:#a6a6a6;stop-opacity:1"
         offset="0.26238" />
      <stop
         id="stop3112"
         style="stop-color:#7b7b7b;stop-opacity:1"
         offset="0.704952" />
      <stop
         id="stop3114"
         style="stop-color:#595959;stop-opacity:1"
         offset="1" />
    </linearGradient>
    <linearGradient
       x1="24"
       y1="44"
       x2="24"
       y2="3.8990016"
       id="linearGradient3166-272"
       xlink:href="#linearGradient3707-319-631-407-324-82"
       gradientUnits="userSpaceOnUse"
       gradientTransform="matrix(1.4358975,0,0,1.4358975,-2.4615384,-2.4615382)" />
    <radialGradient
       cx="4.9929786"
       cy="43.5"
       r="2.5"
       fx="4.9929786"
       fy="43.5"
       id="radialGradient2873-966-168-714"
       xlink:href="#linearGradient3688-166-749-654"
       gradientUnits="userSpaceOnUse"
       gradientTransform="matrix(2.003784,0,0,1.4,27.98813,-17.4)" />
    <linearGradient
       id="linearGradient3688-166-749-654">
      <stop
         id="stop3088"
         style="stop-color:#181818;stop-opacity:1"
         offset="0" />
      <stop
         id="stop3090"
         style="stop-color:#181818;stop-opacity:0"
         offset="1" />
    </linearGradient>
    <radialGradient
       cx="4.9929786"
       cy="43.5"
       r="2.5"
       fx="4.9929786"
       fy="43.5"
       id="radialGradient2875-742-326-419"
       xlink:href="#linearGradient3688-464-309-604"
       gradientUnits="userSpaceOnUse"
       gradientTransform="matrix(2.003784,0,0,1.4,-20.01187,-104.4)" />
    <linearGradient
       id="linearGradient3688-464-309-604">
      <stop
         id="stop3094"
         style="stop-color:#181818;stop-opacity:1"
         offset="0" />
      <stop
         id="stop3096"
         style="stop-color:#181818;stop-opacity:0"
         offset="1" />
    </linearGradient>
    <linearGradient
       x1="25.058096"
       y1="47.027729"
       x2="25.058096"
       y2="39.999443"
       id="linearGradient2877-634-617-908"
       xlink:href="#linearGradient3702-501-757-795"
       gradientUnits="userSpaceOnUse" />
    <linearGradient
       id="linearGradient3702-501-757-795">
      <stop
         id="stop3100"
         style="stop-color:#181818;stop-opacity:0"
         offset="0" />
      <stop
         id="stop3102"
         style="stop-color:#181818;stop-opacity:1"
         offset="0.5" />
      <stop
         id="stop3104"
         style="stop-color:#181818;stop-opacity:0"
         offset="1" />
    </linearGradient>
  </defs>
  <metadata
     id="metadata4300">
    <rdf:RDF>
      <cc:Work
         rdf:about="">
        <dc:format>image/svg+xml</dc:format>
        <dc:type
           rdf:resource="http://purl.org/dc/dcmitype/StillImage" />
        <dc:title />
      </cc:Work>
    </rdf:RDF>
  </metadata>
  <rect
     style="color:#000000;display:inline;overflow:visible;visibility:visible;fill:url(#radialGradient3164-608);fill-opacity:1;fill-rule:nonzero;stroke:#000000;stroke-width:0.1;stroke-linecap:round;stroke-linejoin:round;stroke-miterlimit:4;stroke-dasharray:none;stroke-dashoffset:0;stroke-opacity:0.39215687;marker:none;enable-background:accumulate"
     id="rect5505-21"
     y="4.0000005"
     x="4.0000005"
     ry="3.0545454"
     rx="3.0545454"
     height="56"
     width="56" />
  <path
     style="display:inline;overflow:visible;visibility:visible;fill:#505050;fill-opacity:1;fill-rule:nonzero;stroke:none;stroke-width:1.70000005;marker:none;enable-background:accumulate;opacity:0.8"
     id="rect2588"
     inkscape:connector-curvature="0"
     d="m 34,48.999996 c 0.554,0 1,-0.446 1,-1 v -3.34375 c 1.369766,-0.323396 2.647969,-0.874891 3.8125,-1.59375 l 2.375,2.375 c 0.391737,0.391737 1.014513,0.391738 1.40625,0 l 2.84375,-2.84375 c 0.391737,-0.391737 0.391738,-1.014513 0,-1.40625 l -2.375,-2.375 c 0.718859,-1.164531 1.270354,-2.442734 1.59375,-3.8125 H 48 c 0.554,0 1,-0.446 1,-1 v -4 c 0,-0.554 -0.446,-1 -1,-1 h -3.34375 c -0.323071,-1.368391 -0.876137,-2.64906 -1.59375,-3.8125 l 2.375,-2.375 c 0.391737,-0.391737 0.391738,-1.014513 0,-1.40625 l -2.84375,-2.84375 c -0.391737,-0.391737 -1.014513,-0.391739 -1.40625,0 l -2.375,2.375 C 37.64906,20.219883 36.368391,19.666817 35,19.343746 v -3.34375 c 0,-0.554 -0.446,-1 -1,-1 h -4 c -0.554,0 -1,0.446 -1,1 v 3.34375 c -1.369766,0.323396 -2.647969,0.874891 -3.8125,1.59375 l -2.375,-2.375 c -0.391737,-0.391737 -1.014513,-0.391739 -1.40625,0 l -2.84375,2.84375 c -0.391737,0.391737 -0.391739,1.014515 0,1.40625 l 2.375,2.375 c -0.718859,1.164531 -1.270354,2.442734 -1.59375,3.8125 H 16 c -0.554,0 -1,0.446 -1,1 v 4 c 0,0.554 0.446,1 1,1 h 3.34375 c 0.323071,1.368391 0.876137,2.64906 1.59375,3.8125 l -2.375,2.375 c -0.391737,0.391737 -0.391739,1.014513 0,1.40625 l 2.84375,2.84375 c 0.391737,0.391737 1.014515,0.391738 1.40625,0 l 2.375,-2.375 c 1.16344,0.717613 2.444109,1.270679 3.8125,1.59375 v 3.34375 c 0,0.554 0.446,1 1,1 z m -2,-11 c -3.312001,0 -6,-2.688 -6,-6 -1e-6,-3.312001 2.688,-6 6,-6 3.311999,-1e-6 6,2.688 6,6 0,3.311999 -2.688,6 -6,6 z" />
</svg>
