<?xml version="1.0" encoding="UTF-8" standalone="no"?>
<!-- Created with Inkscape (http://www.inkscape.org/) -->

<svg
   xmlns:dc="http://purl.org/dc/elements/1.1/"
   xmlns:cc="http://creativecommons.org/ns#"
   xmlns:rdf="http://www.w3.org/1999/02/22-rdf-syntax-ns#"
   xmlns:svg="http://www.w3.org/2000/svg"
   xmlns="http://www.w3.org/2000/svg"
   xmlns:xlink="http://www.w3.org/1999/xlink"
   xmlns:sodipodi="http://sodipodi.sourceforge.net/DTD/sodipodi-0.dtd"
   xmlns:inkscape="http://www.inkscape.org/namespaces/inkscape"
   version="1.1"
   width="64"
   height="64"
   id="svg3996"
   sodipodi:docname="internet-chat.svg"
   inkscape:version="0.92.4 5da689c313, 2019-01-14">
  <sodipodi:namedview
     pagecolor="#ffffff"
     bordercolor="#666666"
     borderopacity="1"
     objecttolerance="10"
     gridtolerance="10"
     guidetolerance="10"
     inkscape:pageopacity="0"
     inkscape:pageshadow="2"
     inkscape:window-width="1680"
     inkscape:window-height="990"
     id="namedview14925"
     showgrid="false"
     inkscape:zoom="12.34375"
     inkscape:cx="32"
     inkscape:cy="32"
     inkscape:window-x="0"
     inkscape:window-y="31"
     inkscape:window-maximized="1"
     inkscape:current-layer="svg3996" />
  <defs
     id="defs3998">
    <linearGradient
       x1="132.3414"
       y1="2.2922528"
       x2="132.3414"
       y2="33.33271"
       id="linearGradient6784-9"
       xlink:href="#linearGradient6786-4"
       gradientUnits="userSpaceOnUse"
       gradientTransform="matrix(1.1891887,0,0,1.4107063,-126.14094,4.157415)" />
    <linearGradient
       id="linearGradient6786-4">
      <stop
         id="stop6788-2"
         style="stop-color:#ffffff;stop-opacity:1"
         offset="0" />
      <stop
         id="stop6790-0"
         style="stop-color:#ffffff;stop-opacity:0.23529412"
         offset="0.46352294" />
      <stop
         id="stop6792-0"
         style="stop-color:#ffffff;stop-opacity:0.15686275"
         offset="0.76175833" />
      <stop
         id="stop6794-4"
         style="stop-color:#ffffff;stop-opacity:0.39215687"
         offset="1" />
    </linearGradient>
    <linearGradient
       x1="22.642942"
       y1="26.966721"
       x2="22.642942"
       y2="30.98424"
       id="linearGradient6883"
       xlink:href="#linearGradient3922"
       gradientUnits="userSpaceOnUse"
       gradientTransform="matrix(1.23944,0,0,1.2401758,2.5038689,6.6210943)" />
    <linearGradient
       id="linearGradient3922">
      <stop
         id="stop3924"
         style="stop-color:#000000;stop-opacity:1"
         offset="0" />
      <stop
         id="stop3926-9"
         style="stop-color:#000000;stop-opacity:0"
         offset="1" />
    </linearGradient>
    <linearGradient
       x1="22.642942"
       y1="26.966721"
       x2="22.642942"
       y2="30.98424"
       id="linearGradient6886"
       xlink:href="#linearGradient3922"
       gradientUnits="userSpaceOnUse"
       gradientTransform="matrix(1.3333351,0,0,1.3333351,0.0846107,3.459921)" />
    <linearGradient
       x1="-51.786404"
       y1="53.514328"
       x2="-51.786404"
       y2="3.6336823"
       id="linearGradient3394-3"
       xlink:href="#linearGradient3104-8-8-97-9"
       gradientUnits="userSpaceOnUse"
       gradientTransform="matrix(1.0700435,0,0,1.1244505,78.923391,-1.102116)" />
    <linearGradient
       id="linearGradient3104-8-8-97-9">
      <stop
         id="stop3106-5-4-3-6"
         style="stop-color:#000000;stop-opacity:0.32173914"
         offset="0" />
      <stop
         id="stop3108-4-3-7-0"
         style="stop-color:#000000;stop-opacity:0.27826086"
         offset="1" />
    </linearGradient>
    <linearGradient
       x1="-60.960796"
       y1="28.233982"
       x2="-60.914154"
       y2="104.84189"
       id="linearGradient6654-1"
       xlink:href="#linearGradient3600-8-3"
       gradientUnits="userSpaceOnUse"
       gradientTransform="matrix(0.60464542,3.7495339e-4,-3.681359e-4,0.61584291,62.621251,-11.888163)" />
    <linearGradient
       id="linearGradient3600-8-3">
      <stop
         id="stop3828-7-6"
         style="stop-color:#f4f4f4;stop-opacity:1"
         offset="0" />
      <stop
         id="stop3604-2-5"
         style="stop-color:#dbdbdb;stop-opacity:1"
         offset="1" />
    </linearGradient>
    <linearGradient
       id="linearGradient8838-561-565">
      <stop
         id="stop4621"
         style="stop-color:#0a0a0a;stop-opacity:1"
         offset="0" />
      <stop
         id="stop4623"
         style="stop-color:#0a0a0a;stop-opacity:0"
         offset="1" />
    </linearGradient>
    <radialGradient
       cx="62.625"
       cy="4.625"
       r="10.625"
       fx="62.625"
       fy="4.625"
       id="radialGradient3994"
       xlink:href="#linearGradient8838-561-565"
       gradientUnits="userSpaceOnUse"
       gradientTransform="matrix(2.8862785,0,0,1.0039217,-148.75315,46.023509)" />
  </defs>
  <metadata
     id="metadata4001">
    <rdf:RDF>
      <cc:Work
         rdf:about="">
        <dc:format>image/svg+xml</dc:format>
        <dc:type
           rdf:resource="http://purl.org/dc/dcmitype/StillImage" />
        <dc:title />
      </cc:Work>
    </rdf:RDF>
  </metadata>
  <path
     style="color:#000000;display:inline;overflow:visible;visibility:visible;fill:url(#linearGradient6654-1);fill-opacity:1;fill-rule:nonzero;stroke:#000000;stroke-width:0.1;marker:none;enable-background:accumulate;stroke-miterlimit:4;stroke-dasharray:none;stroke-opacity:0.39215687"
     id="path6603"
     inkscape:connector-curvature="0"
     d="M 31.952314,4.9689775 C 21.757647,5.3582698 11.139297,10.114537 5.7466871,19.340091 1.7198783,25.936538 2.1345386,34.969568 6.8962487,41.061436 c 1.7202991,2.441624 4.0820933,4.301328 6.4180863,6.048194 1.100429,3.528644 -1.302247,6.904138 -3.3206285,9.561381 1.2904865,0.54016 4.8880755,-0.747166 6.9668705,-1.562115 2.49323,-0.967092 4.767323,-2.454966 7.048336,-3.807407 C 35.513468,53.546535 48.515461,50.013191 56.18508,40.61359 61.124062,34.791119 62.60735,25.941521 59.013981,19.021527 54.470252,10.004707 44.402434,5.3896537 34.847224,4.9930647 c -0.964247,-0.040663 -1.930205,-0.05897 -2.89491,-0.024087 z" />
  <path
     style="font-style:normal;font-variant:normal;font-weight:normal;font-stretch:normal;font-size:62.4582634px;line-height:125%;font-family:Georgia;text-align:start;writing-mode:lr-tb;text-anchor:start;fill:#808080;fill-opacity:1;stroke:none"
     id="path3134"
     inkscape:connector-curvature="0"
     d="M 30.40625,14 C 29.157902,14.08633 28.034879,15.049709 28,16.0625 c 5.04e-4,0.01388 5.04e-4,0.04862 0,0.0625 -0.0076,0.09436 0.0088,0.2135 0.03125,0.40625 0.0023,0.01911 -0.0023,0.01082 0,0.03125 1.301034,6.140755 1.765199,12.313765 3.0625,18.34375 0.786543,-0.08409 1.987798,-0.255736 2.8125,-0.34375 -0.178719,-5.95054 -0.709687,-11.862016 -0.78125,-17.875 -5.02e-4,-0.01388 -5.02e-4,-0.01737 0,-0.03125 0.117627,-1.170842 -0.670405,-2.49307 -2.125,-2.625 -0.01388,5.03e-4 -0.01736,5.03e-4 -0.03125,0 C 30.788717,14.005458 30.584585,13.987667 30.40625,14 Z M 33.5,40 C 32.119288,40 31,41.119288 31,42.5 31,43.880712 32.119288,45 33.5,45 34.880712,45 36,43.880712 36,42.5 36,41.119288 34.880712,40 33.5,40 Z" />
</svg>
