<?xml version="1.0" encoding="UTF-8" standalone="no"?>
<!-- Created with Inkscape (http://www.inkscape.org/) -->

<svg
   xmlns:dc="http://purl.org/dc/elements/1.1/"
   xmlns:cc="http://creativecommons.org/ns#"
   xmlns:rdf="http://www.w3.org/1999/02/22-rdf-syntax-ns#"
   xmlns:svg="http://www.w3.org/2000/svg"
   xmlns="http://www.w3.org/2000/svg"
   xmlns:xlink="http://www.w3.org/1999/xlink"
   xmlns:sodipodi="http://sodipodi.sourceforge.net/DTD/sodipodi-0.dtd"
   xmlns:inkscape="http://www.inkscape.org/namespaces/inkscape"
   version="1.1"
   width="64"
   height="64"
   id="svg5029"
   sodipodi:docname="multimedia-video-player.svg"
   inkscape:version="0.92.4 5da689c313, 2019-01-14">
  <sodipodi:namedview
     pagecolor="#ffffff"
     bordercolor="#666666"
     borderopacity="1"
     objecttolerance="10"
     gridtolerance="10"
     guidetolerance="10"
     inkscape:pageopacity="0"
     inkscape:pageshadow="2"
     inkscape:window-width="1680"
     inkscape:window-height="990"
     id="namedview21235"
     showgrid="false"
     inkscape:zoom="10"
     inkscape:cx="29.853165"
     inkscape:cy="31.475424"
     inkscape:window-x="0"
     inkscape:window-y="31"
     inkscape:window-maximized="1"
     inkscape:current-layer="svg5029" />
  <defs
     id="defs5031">
    <radialGradient
       cx="4.993"
       cy="43.5"
       r="2.5"
       id="radialGradient4298"
       xlink:href="#linearGradient5747"
       gradientUnits="userSpaceOnUse"
       gradientTransform="matrix(3.1638751,0,0,0.99999998,38.29706,16.00001)" />
    <linearGradient
       id="linearGradient5747">
      <stop
         id="stop5749"
         style="stop-color:#000000;stop-opacity:1"
         offset="0" />
      <stop
         id="stop5751"
         style="stop-color:#000000;stop-opacity:0"
         offset="1" />
    </linearGradient>
    <radialGradient
       cx="4.993"
       cy="43.5"
       r="2.5"
       id="radialGradient4300"
       xlink:href="#linearGradient5747"
       gradientUnits="userSpaceOnUse"
       gradientTransform="matrix(3.1638751,0,0,0.99999998,-25.70295,-103.00001)" />
    <linearGradient
       x1="24.633329"
       y1="43.499947"
       x2="24.633329"
       y2="39.999947"
       id="linearGradient4302"
       xlink:href="#linearGradient5747"
       gradientUnits="userSpaceOnUse"
       gradientTransform="matrix(1.5789502,0,0,0.7142857,-5.8948,28.42861)"
       spreadMethod="reflect" />
    <radialGradient
       cx="7.4956999"
       cy="8.4497995"
       r="20"
       id="radialGradient4304"
       xlink:href="#radialGradient3164"
       gradientUnits="userSpaceOnUse"
       gradientTransform="matrix(6.6731416e-8,3.2309771,-2.8193966,0,55.823321,-17.372456)" />
    <radialGradient
       cx="7.4956999"
       cy="8.4497995"
       r="20"
       id="radialGradient3164"
       gradientUnits="userSpaceOnUse"
       gradientTransform="matrix(1.273594e-7,3.2957553,-5.3809239,0,77.467708,-19.382411)">
      <stop
         id="stop3244"
         style="stop-color:#f8b17e;stop-opacity:1"
         offset="0" />
      <stop
         id="stop3246"
         style="stop-color:#e35d4f;stop-opacity:1"
         offset="0.26238" />
      <stop
         id="stop3248"
         style="stop-color:#c6262e;stop-opacity:1"
         offset="0.66093999" />
      <stop
         id="stop3250"
         style="stop-color:#690b54;stop-opacity:1"
         offset="1" />
    </radialGradient>
    <linearGradient
       x1="567"
       y1="781.36218"
       x2="567"
       y2="727.36218"
       id="linearGradient4306"
       xlink:href="#linearGradient3173"
       gradientUnits="userSpaceOnUse"
       gradientTransform="matrix(0.99371992,0,0,1.0173391,-516.53342,-734.44213)" />
    <linearGradient
       x1="24"
       y1="44"
       x2="24"
       y2="3.8989999"
       id="linearGradient3173"
       gradientUnits="userSpaceOnUse"
       gradientTransform="matrix(2.641026,0,0,2.641026,0.6153903,-60.384616)">
      <stop
         id="stop2492"
         style="stop-color:#791235;stop-opacity:1"
         offset="0" />
      <stop
         id="stop2494"
         style="stop-color:#bf1d09;stop-opacity:1"
         offset="1" />
    </linearGradient>
    <linearGradient
       x1="598.96619"
       y1="475.45972"
       x2="598.96619"
       y2="448.54031"
       id="linearGradient4308"
       xlink:href="#linearGradient3173"
       gradientUnits="userSpaceOnUse"
       gradientTransform="matrix(1.0385044,0,0,0.7429588,-602.2055,-307.24698)" />
    <linearGradient
       x1="598.96619"
       y1="475.45972"
       x2="598.96619"
       y2="448.54031"
       id="linearGradient4310"
       xlink:href="#linearGradient3173"
       gradientUnits="userSpaceOnUse"
       gradientTransform="matrix(1.0385044,0,0,0.7429588,-602.2055,-307.24698)" />
    <linearGradient
       x1="24"
       y1="5.4200001"
       x2="24"
       y2="43"
       id="linearGradient4312"
       xlink:href="#linearGradient3128"
       gradientUnits="userSpaceOnUse"
       gradientTransform="matrix(0.72972971,0,0,1.378391,14.4865,-0.08114)" />
    <linearGradient
       x1="24"
       y1="5.3301001"
       x2="24"
       y2="43"
       id="linearGradient3128"
       gradientUnits="userSpaceOnUse"
       gradientTransform="matrix(2.7297298,0,0,2.7297298,-1.5135111,-62.513486)">
      <stop
         id="stop3926"
         style="stop-color:#ffffff;stop-opacity:1"
         offset="0" />
      <stop
         id="stop3952"
         style="stop-color:#ffffff;stop-opacity:0.23529412"
         offset="0.02982479" />
      <stop
         id="stop3954"
         style="stop-color:#ffffff;stop-opacity:0.15686275"
         offset="0.9614116" />
      <stop
         id="stop3956"
         style="stop-color:#ffffff;stop-opacity:0.39215687"
         offset="1" />
    </linearGradient>
    <linearGradient
       x1="24"
       y1="5.4200001"
       x2="24"
       y2="43"
       id="linearGradient4314"
       xlink:href="#linearGradient3128"
       gradientUnits="userSpaceOnUse"
       gradientTransform="matrix(0.4054054,0,0,1.378391,3.27021,-0.08114)" />
    <linearGradient
       x1="1004.3622"
       y1="-592"
       x2="1012.3622"
       y2="-592"
       id="linearGradient4316"
       xlink:href="#linearGradient5761"
       gradientUnits="userSpaceOnUse"
       gradientTransform="translate(-1059.3622,581)" />
    <linearGradient
       id="linearGradient5761">
      <stop
         id="stop5763"
         style="stop-color:#ffffff;stop-opacity:1"
         offset="0" />
      <stop
         id="stop5765"
         style="stop-color:#ffffff;stop-opacity:0"
         offset="1" />
    </linearGradient>
    <linearGradient
       x1="1004.3622"
       y1="-592"
       x2="1012.3622"
       y2="-592"
       id="linearGradient4318"
       xlink:href="#linearGradient5761"
       gradientUnits="userSpaceOnUse"
       gradientTransform="translate(-1047.3622,581)" />
    <linearGradient
       x1="1004.3622"
       y1="-592"
       x2="1012.3622"
       y2="-592"
       id="linearGradient4320"
       xlink:href="#linearGradient5761"
       gradientUnits="userSpaceOnUse"
       gradientTransform="translate(-1035.3622,581)" />
    <linearGradient
       x1="1004.3622"
       y1="-592"
       x2="1012.3622"
       y2="-592"
       id="linearGradient4322"
       xlink:href="#linearGradient5761"
       gradientUnits="userSpaceOnUse"
       gradientTransform="translate(-1023.3622,581)" />
    <linearGradient
       x1="24"
       y1="5.4200001"
       x2="24"
       y2="43"
       id="linearGradient4324"
       xlink:href="#linearGradient3128"
       gradientUnits="userSpaceOnUse"
       gradientTransform="matrix(-0.4054054,0,0,1.378391,60.72979,-0.08114)" />
    <linearGradient
       x1="1004.3622"
       y1="-592"
       x2="1012.3622"
       y2="-592"
       id="linearGradient4326"
       xlink:href="#linearGradient5761"
       gradientUnits="userSpaceOnUse"
       gradientTransform="translate(-1059.3622,645)" />
    <linearGradient
       x1="1004.3622"
       y1="-592"
       x2="1012.3622"
       y2="-592"
       id="linearGradient4328"
       xlink:href="#linearGradient5761"
       gradientUnits="userSpaceOnUse"
       gradientTransform="translate(-1047.3622,645)" />
    <linearGradient
       x1="1004.3622"
       y1="-592"
       x2="1012.3622"
       y2="-592"
       id="linearGradient4330"
       xlink:href="#linearGradient5761"
       gradientUnits="userSpaceOnUse"
       gradientTransform="translate(-1035.3622,645)" />
    <linearGradient
       x1="1004.3622"
       y1="-592"
       x2="1012.3622"
       y2="-592"
       id="linearGradient4332"
       xlink:href="#linearGradient5761"
       gradientUnits="userSpaceOnUse"
       gradientTransform="translate(-1023.3622,645)" />
    <linearGradient
       x1="598.96619"
       y1="475.45972"
       x2="598.96619"
       y2="448.54031"
       id="linearGradient4334"
       xlink:href="#linearGradient3173"
       gradientUnits="userSpaceOnUse"
       gradientTransform="matrix(0.94819965,0,0,0.7429588,-547.05719,-308.24698)" />
    <linearGradient
       x1="598.96619"
       y1="475.45972"
       x2="598.96619"
       y2="448.54031"
       id="linearGradient4336"
       xlink:href="#linearGradient3173"
       gradientUnits="userSpaceOnUse"
       gradientTransform="matrix(0.94819965,0,0,0.7429588,-547.05719,-308.24698)" />
    <linearGradient
       x1="598.96619"
       y1="475.45972"
       x2="598.96619"
       y2="448.54031"
       id="linearGradient4338"
       xlink:href="#linearGradient3173"
       gradientUnits="userSpaceOnUse"
       gradientTransform="matrix(0.85789492,0,0,0.7429588,-491.90888,-309.24698)" />
    <linearGradient
       x1="598.96619"
       y1="475.45972"
       x2="598.96619"
       y2="448.54031"
       id="linearGradient4340"
       xlink:href="#linearGradient3173"
       gradientUnits="userSpaceOnUse"
       gradientTransform="matrix(0.85789492,0,0,0.7429588,-491.90888,-309.24698)" />
    <radialGradient
       cx="6.7304144"
       cy="9.9571075"
       r="12.671875"
       fx="6.2001843"
       fy="9.9571075"
       id="radialGradient3402-7-1-6"
       xlink:href="#linearGradient2867-449-88-871-390-598-476-591-434-148-57-177-8-3-3-6-4-8-8-8"
       gradientUnits="userSpaceOnUse"
       gradientTransform="matrix(0,13.128229,-16.711432,0,199.5877,-110.98049)" />
    <linearGradient
       id="linearGradient2867-449-88-871-390-598-476-591-434-148-57-177-8-3-3-6-4-8-8-8">
      <stop
         id="stop3750-1-0-7-6-6-1-3-9"
         style="stop-color:#ffcd7d;stop-opacity:1"
         offset="0" />
      <stop
         id="stop3752-3-7-4-0-32-8-923-0"
         style="stop-color:#fc8f36;stop-opacity:1"
         offset="0.26238" />
      <stop
         id="stop3754-1-8-5-2-7-6-7-1"
         style="stop-color:#e23a0e;stop-opacity:1"
         offset="0.704952" />
      <stop
         id="stop3756-1-6-2-6-6-1-96-6"
         style="stop-color:#ac441f;stop-opacity:1"
         offset="1" />
    </linearGradient>
  </defs>
  <metadata
     id="metadata5034">
    <rdf:RDF>
      <cc:Work
         rdf:about="">
        <dc:format>image/svg+xml</dc:format>
        <dc:type
           rdf:resource="http://purl.org/dc/dcmitype/StillImage" />
        <dc:title />
      </cc:Work>
    </rdf:RDF>
  </metadata>
  <rect
     style="color:#000000;display:inline;overflow:visible;visibility:visible;fill:#000000;fill-opacity:0.19607843;fill-rule:nonzero;stroke:#000000;stroke-width:0.09999253;stroke-miterlimit:4;stroke-dasharray:none;stroke-opacity:0.39215686;marker:none;enable-background:accumulate"
     id="rect5505-21-3-8-5-2"
     y="6.046277"
     x="4.0531011"
     ry="2.9402564"
     rx="3.0486481"
     height="53.904694"
     width="55.891884" />
  <rect
     width="28.817879"
     height="53.918968"
     x="17.591059"
     y="6.0405159"
     id="rect5505-21"
     style="color:#000000;fill:url(#radialGradient4304);fill-opacity:1;fill-rule:nonzero;stroke:url(#linearGradient4306);stroke-width:0;stroke-linecap:round;stroke-linejoin:round;stroke-miterlimit:4;stroke-dasharray:none;stroke-dashoffset:0;stroke-opacity:1;enable-background:accumulate" />
  <path
     d="m 6.2272727,6.1014938 c -1.1751515,0 -2.1212121,0.9054135 -2.1212121,2.0300751 V 57.868411 c 0,1.124662 0.9460606,2.030075 2.1212121,2.030075 H 17.893939 V 6.1014938 Z m 3.1818182,6.0902252 h 3.1818181 c 0.587576,0 1.060606,0.452707 1.060606,1.015038 v 3.045113 c 0,0.562331 -0.47303,1.015037 -1.060606,1.015037 H 9.4090909 c -0.5875757,0 -1.0606061,-0.452706 -1.0606061,-1.015037 v -3.045113 c 0,-0.562331 0.4730304,-1.015038 1.0606061,-1.015038 z M 8.8787879,24.37217 h 4.2424241 c 0.293788,0 0.530303,0.226354 0.530303,0.507519 v 4.060151 c 0,0.281165 -0.236515,0.507518 -0.530303,0.507518 H 8.8787879 c -0.2937879,0 -0.5303031,-0.226353 -0.5303031,-0.507518 v -4.060151 c 0,-0.281165 0.2365152,-0.507519 0.5303031,-0.507519 z m 0,12.180452 h 4.2424241 c 0.293788,0 0.530303,0.226353 0.530303,0.507518 v 4.060151 c 0,0.281165 -0.236515,0.507519 -0.530303,0.507519 H 8.8787879 C 8.585,41.62781 8.3484848,41.401456 8.3484848,41.120291 V 37.06014 c 0,-0.281165 0.2365152,-0.507518 0.5303031,-0.507518 z m 0,12.180451 h 4.2424241 c 0.293788,0 0.530303,0.226353 0.530303,0.507519 v 4.06015 c 0,0.281165 -0.236515,0.507519 -0.530303,0.507519 H 8.8787879 c -0.2937879,0 -0.5303031,-0.226354 -0.5303031,-0.507519 v -4.06015 c 0,-0.281166 0.2365152,-0.507519 0.5303031,-0.507519 z"
     inkscape:connector-curvature="0"
     id="rect6021"
     style="fill:#3c3c3c;fill-opacity:1;stroke:#323232;stroke-width:0.208;stroke-linecap:butt;stroke-linejoin:round;stroke-miterlimit:4;stroke-dasharray:none;stroke-dashoffset:0;stroke-opacity:0.80841124" />
  <path
     d="M 46.106061,6.1014938 V 59.898486 h 11.666666 c 1.175152,0 2.121212,-0.905413 2.121212,-2.030075 V 8.1315689 c 0,-1.1246616 -0.94606,-2.0300751 -2.121212,-2.0300751 z m 4.772727,6.0902252 h 4.242424 c 0.293788,0 0.530303,0.226354 0.530303,0.507519 v 4.06015 c 0,0.281166 -0.236515,0.507519 -0.530303,0.507519 h -4.242424 c -0.293788,0 -0.530303,-0.226353 -0.530303,-0.507519 v -4.06015 c 0,-0.281165 0.236515,-0.507519 0.530303,-0.507519 z m 0,12.180451 h 4.242424 c 0.293788,0 0.530303,0.226354 0.530303,0.507519 v 4.060151 c 0,0.281165 -0.236515,0.507518 -0.530303,0.507518 h -4.242424 c -0.293788,0 -0.530303,-0.226353 -0.530303,-0.507518 v -4.060151 c 0,-0.281165 0.236515,-0.507519 0.530303,-0.507519 z m 0,12.180452 h 4.242424 c 0.293788,0 0.530303,0.226353 0.530303,0.507518 v 4.060151 c 0,0.281165 -0.236515,0.507519 -0.530303,0.507519 h -4.242424 c -0.293788,0 -0.530303,-0.226354 -0.530303,-0.507519 V 37.06014 c 0,-0.281165 0.236515,-0.507518 0.530303,-0.507518 z m 0,12.180451 h 4.242424 c 0.293788,0 0.530303,0.226353 0.530303,0.507519 v 4.06015 c 0,0.281165 -0.236515,0.507519 -0.530303,0.507519 h -4.242424 c -0.293788,0 -0.530303,-0.226354 -0.530303,-0.507519 v -4.06015 c 0,-0.281166 0.236515,-0.507519 0.530303,-0.507519 z"
     inkscape:connector-curvature="0"
     id="path6113"
     style="fill:#3c3c3c;fill-opacity:1;stroke:#323232;stroke-width:0.208;stroke-linecap:butt;stroke-linejoin:round;stroke-miterlimit:4;stroke-dasharray:none;stroke-dashoffset:0;stroke-opacity:1" />
  <path
     d="M 23.000026,42.999949 V 23.000022 l 17.999944,9.999964 z"
     id="path6159"
     style="fill:#fafafa;fill-opacity:1;fill-rule:evenodd;stroke:#ffffff;stroke-width:0;stroke-linejoin:round;stroke-miterlimit:4;stroke-dasharray:none;stroke-opacity:1"
     inkscape:connector-curvature="0" />
</svg>
