<?xml version="1.0" encoding="UTF-8" standalone="no"?>
<!-- Created with Inkscape (http://www.inkscape.org/) -->

<svg
   xmlns:dc="http://purl.org/dc/elements/1.1/"
   xmlns:cc="http://creativecommons.org/ns#"
   xmlns:rdf="http://www.w3.org/1999/02/22-rdf-syntax-ns#"
   xmlns:svg="http://www.w3.org/2000/svg"
   xmlns="http://www.w3.org/2000/svg"
   xmlns:xlink="http://www.w3.org/1999/xlink"
   xmlns:sodipodi="http://sodipodi.sourceforge.net/DTD/sodipodi-0.dtd"
   xmlns:inkscape="http://www.inkscape.org/namespaces/inkscape"
   version="1.0"
   width="64"
   height="64"
   id="svg2527"
   inkscape:version="0.92.4 5da689c313, 2019-01-14"
   sodipodi:docname="system-run.svg">
  <metadata
     id="metadata4961">
    <rdf:RDF>
      <cc:Work
         rdf:about="">
        <dc:format>image/svg+xml</dc:format>
        <dc:type
           rdf:resource="http://purl.org/dc/dcmitype/StillImage" />
        <dc:title />
      </cc:Work>
    </rdf:RDF>
  </metadata>
  <sodipodi:namedview
     pagecolor="#ffffff"
     bordercolor="#666666"
     borderopacity="1"
     objecttolerance="10"
     gridtolerance="10"
     guidetolerance="10"
     inkscape:pageopacity="0"
     inkscape:pageshadow="2"
     inkscape:window-width="1680"
     inkscape:window-height="990"
     id="namedview4959"
     showgrid="false"
     inkscape:zoom="9.8333334"
     inkscape:cx="24.40678"
     inkscape:cy="24"
     inkscape:window-x="0"
     inkscape:window-y="31"
     inkscape:window-maximized="1"
     inkscape:current-layer="svg2527" />
  <defs
     id="defs2529">
    <linearGradient
       x1="32.036148"
       y1="19"
       x2="32.036148"
       y2="47.012184"
       id="linearGradient3326"
       xlink:href="#linearGradient3309-8"
       gradientUnits="userSpaceOnUse"
       gradientTransform="rotate(20.068981,73.873253,-21.212268)" />
    <linearGradient
       x1="63.9995"
       y1="3.1001"
       x2="63.9995"
       y2="122.8994"
       id="linearGradient3309-8"
       gradientUnits="userSpaceOnUse">
      <stop
         id="stop3311-4"
         style="stop-color:#f6f6f6;stop-opacity:1"
         offset="0" />
      <stop
         id="stop3313-8"
         style="stop-color:#d2d2d2;stop-opacity:1"
         offset="1" />
    </linearGradient>
    <linearGradient
       x1="25.922546"
       y1="19"
       x2="25.922546"
       y2="47.044857"
       id="linearGradient3328"
       xlink:href="#linearGradient3397-1"
       gradientUnits="userSpaceOnUse"
       gradientTransform="rotate(20.068981,73.873253,-21.212268)" />
    <linearGradient
       id="linearGradient3397-1">
      <stop
         id="stop3399-0"
         style="stop-color:#aaaaaa;stop-opacity:1"
         offset="0" />
      <stop
         id="stop3401-3"
         style="stop-color:#8c8c8c;stop-opacity:1"
         offset="1" />
    </linearGradient>
    <linearGradient
       id="linearGradient5128-0">
      <stop
         id="stop5130-4"
         style="stop-color:#ffffff;stop-opacity:1"
         offset="0" />
      <stop
         id="stop5132-4"
         style="stop-color:#959595;stop-opacity:1"
         offset="1" />
    </linearGradient>
    <linearGradient
       x1="86.132919"
       y1="105.105"
       x2="84.63858"
       y2="20.895"
       id="linearGradient2868"
       xlink:href="#linearGradient5128-0"
       gradientUnits="userSpaceOnUse"
       gradientTransform="matrix(0.2014014,0,0,0.2014015,2.1105546,2.3079361)" />
    <linearGradient
       x1="34"
       y1="1"
       x2="34"
       y2="23.00024"
       id="linearGradient3218"
       xlink:href="#linearGradient3309-4"
       gradientUnits="userSpaceOnUse"
       gradientTransform="translate(-24.5,40)" />
    <linearGradient
       x1="63.9995"
       y1="3.1001"
       x2="63.9995"
       y2="122.8994"
       id="linearGradient3309-4"
       gradientUnits="userSpaceOnUse">
      <stop
         id="stop3311-8"
         style="stop-color:#f6f6f6;stop-opacity:1"
         offset="0" />
      <stop
         id="stop3313-88"
         style="stop-color:#d2d2d2;stop-opacity:1"
         offset="1" />
    </linearGradient>
    <linearGradient
       x1="40"
       y1="1"
       x2="40"
       y2="23.019524"
       id="linearGradient3228"
       xlink:href="#linearGradient3397-9"
       gradientUnits="userSpaceOnUse"
       gradientTransform="translate(-24.5,40)" />
    <linearGradient
       id="linearGradient3397-9">
      <stop
         id="stop3399-7"
         style="stop-color:#aaaaaa;stop-opacity:1"
         offset="0" />
      <stop
         id="stop3401-7"
         style="stop-color:#8c8c8c;stop-opacity:1"
         offset="1" />
    </linearGradient>
    <linearGradient
       x1="86.132919"
       y1="105.105"
       x2="84.63858"
       y2="20.895"
       id="linearGradient3241"
       xlink:href="#linearGradient5128-6"
       gradientUnits="userSpaceOnUse"
       gradientTransform="matrix(0.1562313,0,0,0.1562313,2.0012016,42.157432)" />
    <linearGradient
       id="linearGradient5128-6">
      <stop
         id="stop5130-43"
         style="stop-color:#eeeeee;stop-opacity:1"
         offset="0" />
      <stop
         id="stop5132-0"
         style="stop-color:#a2a2a2;stop-opacity:1"
         offset="1" />
    </linearGradient>
    <linearGradient
       x1="25"
       y1="0"
       x2="25"
       y2="16.000105"
       id="linearGradient3262"
       xlink:href="#linearGradient3309-6"
       gradientUnits="userSpaceOnUse"
       gradientTransform="translate(-17.058189,0)" />
    <linearGradient
       x1="63.9995"
       y1="3.1001"
       x2="63.9995"
       y2="122.8994"
       id="linearGradient3309-6"
       gradientUnits="userSpaceOnUse">
      <stop
         id="stop3311-2"
         style="stop-color:#f6f6f6;stop-opacity:1"
         offset="0" />
      <stop
         id="stop3313-9"
         style="stop-color:#cccccc;stop-opacity:1"
         offset="1" />
    </linearGradient>
    <linearGradient
       x1="21"
       y1="0"
       x2="21"
       y2="16.004715"
       id="linearGradient3264"
       xlink:href="#linearGradient3397-90"
       gradientUnits="userSpaceOnUse"
       gradientTransform="translate(-17.058189,0)" />
    <linearGradient
       id="linearGradient3397-90">
      <stop
         id="stop3399-8"
         style="stop-color:#aaaaaa;stop-opacity:1"
         offset="0" />
      <stop
         id="stop3401-1"
         style="stop-color:#8c8c8c;stop-opacity:1"
         offset="1" />
    </linearGradient>
    <linearGradient
       x1="86.132919"
       y1="105.105"
       x2="84.63858"
       y2="20.895"
       id="linearGradient3260"
       xlink:href="#linearGradient5128-3"
       gradientUnits="userSpaceOnUse"
       gradientTransform="matrix(0.09614231,0,0,0.09614231,1.8468935,1.9430362)" />
    <linearGradient
       id="linearGradient5128-3">
      <stop
         id="stop5130-1"
         style="stop-color:#e5e5e5;stop-opacity:1"
         offset="0" />
      <stop
         id="stop5132-1"
         style="stop-color:#ababab;stop-opacity:1"
         offset="1" />
    </linearGradient>
    <linearGradient
       gradientTransform="matrix(0.3244803,0,0,0.3244803,3.2332655,2.5577454)"
       gradientUnits="userSpaceOnUse"
       xlink:href="#linearGradient5128"
       id="linearGradient2512"
       y2="20.895"
       x2="84.63858"
       y1="105.105"
       x1="86.132919" />
    <linearGradient
       id="linearGradient5128">
      <stop
         offset="0"
         style="stop-color:#e5e5e5;stop-opacity:1"
         id="stop5130" />
      <stop
         offset="1"
         style="stop-color:#ababab;stop-opacity:1"
         id="stop5132" />
    </linearGradient>
    <linearGradient
       gradientUnits="userSpaceOnUse"
       xlink:href="#linearGradient3309"
       id="linearGradient2515"
       y2="45.017357"
       x2="20.758585"
       y1="1"
       x1="20.758585" />
    <linearGradient
       gradientUnits="userSpaceOnUse"
       id="linearGradient3309"
       y2="122.8994"
       x2="63.9995"
       y1="3.1001"
       x1="63.9995">
      <stop
         offset="0"
         style="stop-color:#f6f6f6;stop-opacity:1"
         id="stop3311" />
      <stop
         offset="1"
         style="stop-color:#d2d2d2;stop-opacity:1"
         id="stop3313" />
    </linearGradient>
    <linearGradient
       gradientUnits="userSpaceOnUse"
       xlink:href="#linearGradient3397"
       id="linearGradient2517"
       y2="45"
       x2="37.201294"
       y1="1"
       x1="37.201294" />
    <linearGradient
       id="linearGradient3397">
      <stop
         offset="0"
         style="stop-color:#aaaaaa;stop-opacity:1"
         id="stop3399" />
      <stop
         offset="1"
         style="stop-color:#8c8c8c;stop-opacity:1"
         id="stop3401" />
    </linearGradient>
    <radialGradient
       gradientTransform="matrix(2.1647059,0,0,0.7529402,-111.56471,36.517647)"
       gradientUnits="userSpaceOnUse"
       xlink:href="#linearGradient8838"
       id="radialGradient2436"
       fy="4.625"
       fx="62.625"
       r="10.625"
       cy="4.625"
       cx="62.625" />
    <linearGradient
       id="linearGradient8838">
      <stop
         offset="0"
         style="stop-color:#000000;stop-opacity:1"
         id="stop8840" />
      <stop
         offset="1"
         style="stop-color:#000000;stop-opacity:0"
         id="stop8842" />
    </linearGradient>
    <linearGradient
       inkscape:collect="always"
       xlink:href="#linearGradient5128"
       id="linearGradient3079"
       gradientUnits="userSpaceOnUse"
       gradientTransform="matrix(0.3244803,0,0,0.3244803,41.673946,3.6170674)"
       x1="86.132919"
       y1="105.105"
       x2="84.63858"
       y2="20.895" />
    <linearGradient
       inkscape:collect="always"
       xlink:href="#linearGradient3309"
       id="linearGradient3082"
       gradientUnits="userSpaceOnUse"
       x1="20.758585"
       y1="1"
       x2="20.758585"
       y2="45.017357"
       gradientTransform="translate(38.440681,1.059322)" />
    <linearGradient
       inkscape:collect="always"
       xlink:href="#linearGradient3397"
       id="linearGradient3084"
       gradientUnits="userSpaceOnUse"
       x1="37.201294"
       y1="1"
       x2="37.201294"
       y2="45"
       gradientTransform="translate(38.440681,1.059322)" />
    <radialGradient
       inkscape:collect="always"
       xlink:href="#linearGradient8838"
       id="radialGradient3087"
       gradientUnits="userSpaceOnUse"
       gradientTransform="matrix(2.1647059,0,0,0.7529402,-73.124029,37.576969)"
       cx="62.625"
       cy="4.625"
       fx="62.625"
       fy="4.625"
       r="10.625" />
    <linearGradient
       inkscape:collect="always"
       xlink:href="#linearGradient3309"
       id="linearGradient3094"
       gradientUnits="userSpaceOnUse"
       gradientTransform="translate(17,17)"
       x1="20.758585"
       y1="1"
       x2="20.758585"
       y2="45.017357" />
  </defs>
  <path
     inkscape:connector-curvature="0"
     style="display:block;overflow:visible;visibility:visible;fill:url(#linearGradient3326);fill-opacity:1;fill-rule:nonzero;stroke:#000000;stroke-width:0.1;stroke-linecap:butt;stroke-linejoin:round;stroke-miterlimit:4;stroke-dasharray:none;stroke-dashoffset:0;stroke-opacity:0.39215687;marker:none;enable-background:accumulate"
     id="rect2576"
     d="m 17.636822,1.5867527 c -0.703275,-0.2569307 -1.495689,0.08705 -1.752619,0.7903248 l -0.600515,1.6437399 c -0.499176,-0.013219 -0.993955,0.00248 -1.484533,0.056512 L 13.072623,2.5143662 C 12.757008,1.8353979 11.961088,1.5446208 11.28212,1.8602341 L 7.3653972,3.6565265 C 6.6864283,3.9721394 6.3956534,4.768063 6.7112652,5.4470293 l 0.726532,1.5629636 C 7.0726965,7.3556271 6.7444431,7.7403466 6.4268957,8.1378331 L 4.8125079,7.5480419 C 4.1092322,7.2911112 3.3168167,7.6350913 3.0598882,8.3383667 L 1.5800485,12.389012 c -0.2569313,0.703275 0.1271272,1.477063 0.8304007,1.733991 l 1.6143878,0.589791 c -0.013469,0.508577 -0.010523,1.014295 0.045789,1.513885 l -1.5629633,0.726533 c -0.6789688,0.315613 -0.9697472,1.111534 -0.654132,1.790502 l 1.8363684,3.898094 c 0.3156123,0.678968 1.1115366,0.969744 1.7905029,0.654132 l 1.5629636,-0.726532 c 0.3402133,0.357549 0.7083491,0.688501 1.0984877,1.000178 l -0.6005147,1.64374 c -0.2569313,0.703275 0.1271291,1.477064 0.8304008,1.733991 l 4.0212926,1.469116 c 0.703276,0.256931 1.466338,-0.09777 1.723267,-0.801048 l 0.600515,-1.64374 c 0.508577,0.01347 1.014295,0.01052 1.513885,-0.04579 l 0.726532,1.562963 c 0.315614,0.678968 1.111534,0.969745 1.790502,0.654132 l 3.916723,-1.796292 c 0.678969,-0.315613 0.969742,-1.111538 0.654132,-1.790503 l -0.745161,-1.603039 c 0.357549,-0.340214 0.6885,-0.708349 1.000178,-1.098488 l 1.64374,0.600515 c 0.703276,0.25693 1.466338,-0.09778 1.723267,-0.801049 l 1.47984,-4.050645 c 0.256931,-0.703275 -0.09778,-1.466339 -0.801048,-1.723268 l -1.64374,-0.600514 c 0.01322,-0.499176 -0.0025,-0.993955 -0.05651,-1.484533 l 1.60304,-0.745162 c 0.678966,-0.315611 0.969742,-1.111533 0.654129,-1.790501 L 26.339954,7.3613771 C 26.024342,6.6824095 25.228418,6.3916311 24.549452,6.7072451 L 22.986489,7.4337776 C 22.640855,7.0686769 22.256136,6.7404235 21.858649,6.422876 L 22.459164,4.7791361 C 22.716095,4.0758617 22.361386,3.3127979 21.658115,3.0558689 Z M 16.20128,11.708751 c 1.81469,0.662968 2.74942,2.67382 2.086452,4.48851 -0.662969,1.814689 -2.673821,2.749419 -4.48851,2.086451 -1.814691,-0.662969 -2.74942,-2.673821 -2.086452,-4.48851 0.662968,-1.81469 2.673821,-2.74942 4.48851,-2.086451 z" />
  <path
     inkscape:connector-curvature="0"
     style="opacity:0.05;fill:#000000;fill-opacity:1;stroke:none"
     id="path3315"
     d="m 15.000251,6.9962307 c -4.411273,0 -7.9999984,3.5887273 -7.9999984,8.0000003 0,4.411274 3.5887254,8 7.9999984,8 4.411273,0 7.999999,-3.588726 7.999999,-8 0,-4.411273 -3.588726,-8.0000003 -7.999999,-8.0000003 z m 0,3.6923093 c 2.377844,0 4.307693,1.929846 4.307693,4.307691 0,2.377847 -1.929849,4.307693 -4.307693,4.307693 -2.377846,0 -4.307691,-1.929846 -4.307691,-4.307693 0,-2.377845 1.929845,-4.307691 4.307691,-4.307691 z" />
  <path
     d="M 10.1875,41.5 C 9.799134,41.5 9.5,41.799134 9.5,42.1875 V 43.875 C 8.988333,44.032225 8.496816,44.253768 8.03125,44.5 l -1.1875,-1.1875 c -0.274616,-0.274616 -0.725384,-0.274616 -1,0 L 3.3125,45.84375 c -0.274616,0.274616 -0.274616,0.725384 0,1 L 4.5,48.03125 C 4.253769,48.496815 4.032225,48.988333 3.875,49.5 H 2.1875 C 1.799134,49.5 1.5,49.799134 1.5,50.1875 v 3.625 C 1.5,54.200866 1.799134,54.5 2.1875,54.5 H 3.875 c 0.157225,0.511667 0.378769,1.003185 0.625,1.46875 l -1.1875,1.1875 c -0.274616,0.274616 -0.274616,0.725384 0,1 l 2.53125,2.53125 c 0.274616,0.274616 0.725384,0.274616 1,0 L 8.03125,59.5 C 8.496816,59.746232 8.988333,59.967775 9.5,60.125 v 1.6875 c 0,0.388366 0.299135,0.6875 0.6875,0.6875 h 3.625 C 14.200866,62.5 14.5,62.200866 14.5,61.8125 V 60.125 c 0.511667,-0.157225 1.003185,-0.378768 1.46875,-0.625 l 1.1875,1.1875 c 0.274616,0.274616 0.725384,0.274616 1,0 l 2.53125,-2.53125 c 0.274616,-0.274616 0.274616,-0.725384 0,-1 L 19.5,55.96875 C 19.746232,55.503185 19.967775,55.011667 20.125,54.5 h 1.6875 c 0.388366,0 0.6875,-0.299134 0.6875,-0.6875 v -3.625 C 22.5,49.799134 22.200866,49.5 21.8125,49.5 H 20.125 C 19.967775,48.988333 19.746232,48.496815 19.5,48.03125 l 1.1875,-1.1875 c 0.274616,-0.274616 0.274616,-0.725384 0,-1 L 18.15625,43.3125 c -0.274616,-0.274616 -0.725384,-0.274616 -1,0 L 15.96875,44.5 C 15.503185,44.253768 15.011667,44.032225 14.5,43.875 V 42.1875 C 14.5,41.799134 14.200866,41.5 13.8125,41.5 Z M 12,49 c 1.656,0 3,1.344 3,3 0,1.656 -1.344,3 -3,3 -1.656,0 -3,-1.344 -3,-3 0,-1.656 1.344,-3 3,-3 z"
     id="rect2426"
     style="display:block;overflow:visible;visibility:visible;fill:url(#linearGradient3218);fill-opacity:1;fill-rule:nonzero;stroke:#000000;stroke-width:0.1;stroke-linecap:butt;stroke-linejoin:round;stroke-miterlimit:4;stroke-dasharray:none;stroke-dashoffset:0;stroke-opacity:0.39215687;marker:none;enable-background:accumulate"
     inkscape:connector-curvature="0" />
  <path
     d="m 12,46 c -3.3084557,0 -5.9999999,2.691545 -5.9999999,6 0,3.308455 2.6915442,6 5.9999999,6 3.308455,-10e-7 6,-2.691545 6,-6 0,-3.308455 -2.691545,-6 -6,-6 z m 0,2.769231 c 1.783385,0 3.230769,1.447384 3.230769,3.230769 0,1.783385 -1.447384,3.230769 -3.230769,3.230769 -1.783385,0 -3.2307692,-1.447384 -3.2307692,-3.230769 0,-1.783385 1.4473842,-3.230769 3.2307692,-3.230769 z"
     id="path3315-9"
     style="opacity:0.05;fill:#000000;fill-opacity:1;stroke:none"
     inkscape:connector-curvature="0" />
  <path
     inkscape:connector-curvature="0"
     d="M 38.03125,18.5 C 37.18512,18.5 36.5,19.201907 36.5,20.0625 v 3.03125 c -1.512942,0.403105 -2.958563,1.011986 -4.28125,1.78125 L 30.0625,22.71875 C 29.758234,22.414484 29.393747,22.253337 29,22.25 c -0.393747,-0.0033 -0.794598,0.138348 -1.09375,0.4375 l -4.21875,4.21875 c -0.598304,0.598304 -0.577281,1.547718 0.03125,2.15625 L 25.875,31.21875 C 25.105736,32.541437 24.496855,33.987058 24.09375,35.5 H 21.0625 C 20.201907,35.5 19.5,36.185119 19.5,37.03125 v 5.9375 c 0,0.84613 0.701907,1.53125 1.5625,1.53125 h 3.03125 c 0.403105,1.512942 1.011986,2.958563 1.78125,4.28125 l -2.15625,2.15625 c -0.608531,0.608531 -0.629554,1.557945 -0.03125,2.15625 l 4.21875,4.21875 c 0.598304,0.598304 1.547718,0.577279 2.15625,-0.03125 L 32.21875,55.125 c 1.322687,0.769264 2.768308,1.378144 4.28125,1.78125 v 3.03125 c 0,0.860593 0.685119,1.5625 1.53125,1.5625 h 5.9375 C 44.81488,61.5 45.5,60.798093 45.5,59.9375 v -3.03125 c 1.512942,-0.403106 2.958563,-1.011986 4.28125,-1.78125 l 2.15625,2.15625 c 0.608531,0.608531 1.557946,0.629555 2.15625,0.03125 l 4.21875,-4.21875 c 0.598304,-0.598304 0.577281,-1.547719 -0.03125,-2.15625 L 56.125,48.78125 C 56.894264,47.458563 57.503144,46.012942 57.90625,44.5 h 3.03125 c 0.860593,0 1.5625,-0.685119 1.5625,-1.53125 v -5.9375 C 62.5,36.18512 61.798093,35.5 60.9375,35.5 H 57.90625 C 57.503144,33.987058 56.894264,32.541437 56.125,31.21875 l 2.15625,-2.15625 c 0.608531,-0.608531 0.629555,-1.557946 0.03125,-2.15625 L 54.09375,22.6875 C 53.495446,22.089196 52.54603,22.110219 51.9375,22.71875 L 49.78125,24.875 C 48.458563,24.105736 47.012942,23.496856 45.5,23.09375 V 20.0625 C 45.5,19.201907 44.814881,18.5 43.96875,18.5 Z M 41,33.5 c 3.588,0 6.5,2.912 6.5,6.5 0,3.588 -2.912,6.5 -6.5,6.5 -3.588,0 -6.5,-2.912 -6.5,-6.5 0,-3.588 2.912,-6.5 6.5,-6.5 z"
     id="rect3267"
     style="display:block;overflow:visible;visibility:visible;fill:url(#linearGradient3094);fill-opacity:1;fill-rule:nonzero;stroke:#000000;stroke-width:0.1;stroke-linecap:butt;stroke-linejoin:round;stroke-miterlimit:4;stroke-dasharray:none;stroke-dashoffset:0;stroke-opacity:0.39215687;marker:none;enable-background:accumulate" />
  <path
     inkscape:connector-curvature="0"
     d="m 41,27 c -7.168321,-1e-6 -13,5.83168 -13,13 0,7.16832 5.831679,13 13,13 7.168319,-10e-7 13,-5.83168 13,-13 0,-7.16832 -5.831681,-13 -13,-13 z m 0,6 c 3.864,0 7,3.136 7,7 0,3.864 -3.136,7 -7,7 -3.864,0 -7,-3.136 -7,-7 0,-3.864 3.136,-7 7,-7 z"
     id="path3315-7"
     style="opacity:0.05;fill:#000000;fill-opacity:1;stroke:none" />
</svg>
