<?xml version="1.0" encoding="UTF-8" standalone="no"?>
<!-- Created with Inkscape (http://www.inkscape.org/) -->

<svg
   xmlns:dc="http://purl.org/dc/elements/1.1/"
   xmlns:cc="http://creativecommons.org/ns#"
   xmlns:rdf="http://www.w3.org/1999/02/22-rdf-syntax-ns#"
   xmlns:svg="http://www.w3.org/2000/svg"
   xmlns="http://www.w3.org/2000/svg"
   xmlns:xlink="http://www.w3.org/1999/xlink"
   xmlns:sodipodi="http://sodipodi.sourceforge.net/DTD/sodipodi-0.dtd"
   xmlns:inkscape="http://www.inkscape.org/namespaces/inkscape"
   version="1.0"
   width="24"
   height="24"
   id="svg3721"
   sodipodi:docname="accessories-calculator.svg"
   inkscape:version="0.92.4 5da689c313, 2019-01-14">
  <sodipodi:namedview
     pagecolor="#ffffff"
     bordercolor="#666666"
     borderopacity="1"
     objecttolerance="10"
     gridtolerance="10"
     guidetolerance="10"
     inkscape:pageopacity="0"
     inkscape:pageshadow="2"
     inkscape:window-width="1680"
     inkscape:window-height="990"
     id="namedview7789"
     showgrid="false"
     inkscape:zoom="20"
     inkscape:cx="2.425"
     inkscape:cy="12"
     inkscape:window-x="0"
     inkscape:window-y="31"
     inkscape:window-maximized="1"
     inkscape:current-layer="svg3721" />
  <metadata
     id="metadata57">
    <rdf:RDF>
      <cc:Work
         rdf:about="">
        <dc:format>image/svg+xml</dc:format>
        <dc:type
           rdf:resource="http://purl.org/dc/dcmitype/StillImage" />
      </cc:Work>
    </rdf:RDF>
  </metadata>
  <defs
     id="defs3723">
    <linearGradient
       id="linearGradient3428">
      <stop
         id="stop3430"
         style="stop-color:#000000;stop-opacity:0"
         offset="0" />
      <stop
         id="stop3436"
         style="stop-color:#000000;stop-opacity:1"
         offset="0.5" />
      <stop
         id="stop3432"
         style="stop-color:#000000;stop-opacity:0"
         offset="1" />
    </linearGradient>
    <linearGradient
       x1="11.507806"
       y1="39"
       x2="11.507806"
       y2="47.015659"
       id="linearGradient3916"
       xlink:href="#linearGradient3428"
       gradientUnits="userSpaceOnUse"
       gradientTransform="matrix(0.452381,0,0,0.5,1.1428558,-0.501951)" />
    <radialGradient
       cx="3"
       cy="43"
       r="2"
       fx="3"
       fy="43"
       id="radialGradient3914"
       xlink:href="#linearGradient3414"
       gradientUnits="userSpaceOnUse"
       gradientTransform="matrix(0.904762,0,0,1,16.976191,-22.001951)" />
    <linearGradient
       id="linearGradient3414">
      <stop
         id="stop3416"
         style="stop-color:#000000;stop-opacity:1"
         offset="0" />
      <stop
         id="stop3418"
         style="stop-color:#000000;stop-opacity:0"
         offset="1" />
    </linearGradient>
    <radialGradient
       cx="3"
       cy="43"
       r="2"
       fx="3"
       fy="43"
       id="radialGradient3912"
       xlink:href="#linearGradient3414"
       gradientUnits="userSpaceOnUse"
       gradientTransform="matrix(0.904762,0,0,1,-7.0238088,-63.998049)" />
    <linearGradient
       id="linearGradient2490-654-721">
      <stop
         id="stop2913"
         style="stop-color:#545454;stop-opacity:1"
         offset="0" />
      <stop
         id="stop2915"
         style="stop-color:#a4a4a4;stop-opacity:1"
         offset="1" />
    </linearGradient>
    <linearGradient
       x1="31.278551"
       y1="56.744396"
       x2="31.278551"
       y2="4.0075235"
       id="linearGradient3529"
       xlink:href="#linearGradient2490-654-721"
       gradientUnits="userSpaceOnUse"
       gradientTransform="matrix(0.5151686,0,0,0.5120159,-0.3640516,-0.8042487)" />
    <linearGradient
       id="linearGradient2556">
      <stop
         id="stop2558"
         style="stop-color:#dcdcdc;stop-opacity:1"
         offset="0" />
      <stop
         id="stop2564"
         style="stop-color:#b4b4b4;stop-opacity:1"
         offset="1" />
    </linearGradient>
    <linearGradient
       x1="22.505953"
       y1="7.5892501"
       x2="22.505953"
       y2="62.539955"
       id="linearGradient3527"
       xlink:href="#linearGradient2556"
       gradientUnits="userSpaceOnUse"
       gradientTransform="matrix(0.5308006,0,0,0.5755708,-2.0665516,-3.1204831)" />
    <linearGradient
       id="linearGradient5638">
      <stop
         id="stop5640"
         style="stop-color:#ffffff;stop-opacity:1"
         offset="0" />
      <stop
         id="stop5642"
         style="stop-color:#ffffff;stop-opacity:0"
         offset="1" />
    </linearGradient>
    <linearGradient
       x1="24.052597"
       y1="5.0074263"
       x2="24.052597"
       y2="45.054726"
       id="linearGradient3524"
       xlink:href="#linearGradient5638"
       gradientUnits="userSpaceOnUse"
       gradientTransform="matrix(0.4864635,0,0,0.4869814,0.2992903,-0.1781512)" />
    <linearGradient
       x1="24"
       y1="17"
       x2="24"
       y2="4.9924679"
       id="linearGradient3634"
       xlink:href="#linearGradient3426"
       gradientUnits="userSpaceOnUse"
       gradientTransform="matrix(0.4482823,0,0,0.4546001,1.2412243,0.9993989)" />
    <linearGradient
       id="linearGradient3341">
      <stop
         id="stop3343"
         style="stop-color:#ffffff;stop-opacity:1"
         offset="0" />
      <stop
         id="stop3345"
         style="stop-color:#ffffff;stop-opacity:0"
         offset="1" />
    </linearGradient>
    <linearGradient
       x1="22.162495"
       y1="13.755174"
       x2="21.643173"
       y2="3.6441264"
       id="linearGradient3627"
       xlink:href="#linearGradient3341"
       gradientUnits="userSpaceOnUse"
       gradientTransform="matrix(0.4314607,0,0,0.4870291,1.6449437,0.5907962)" />
    <linearGradient
       x1="24"
       y1="17"
       x2="24"
       y2="4.9924679"
       id="linearGradient3705"
       xlink:href="#linearGradient3426"
       gradientUnits="userSpaceOnUse"
       gradientTransform="matrix(0.4482823,0,0,0.4546001,1.2412243,13.999099)" />
    <linearGradient
       x1="24"
       y1="17"
       x2="24"
       y2="4.9924679"
       id="linearGradient3710"
       xlink:href="#linearGradient3426"
       gradientUnits="userSpaceOnUse"
       gradientTransform="matrix(0.4482823,0,0,0.2727273,1.2412243,11)" />
    <linearGradient
       x1="24"
       y1="17"
       x2="24"
       y2="4.9924679"
       id="linearGradient3715"
       xlink:href="#linearGradient3426"
       gradientUnits="userSpaceOnUse"
       gradientTransform="matrix(0.4482823,0,0,0.2727273,1.2412243,7.9999999)" />
    <linearGradient
       id="linearGradient3426">
      <stop
         id="stop3428"
         style="stop-color:#ffffff;stop-opacity:1"
         offset="0" />
      <stop
         id="stop3431"
         style="stop-color:#ffffff;stop-opacity:0"
         offset="1" />
    </linearGradient>
    <linearGradient
       x1="24"
       y1="17"
       x2="24"
       y2="4.9924679"
       id="linearGradient3719"
       xlink:href="#linearGradient3426"
       gradientUnits="userSpaceOnUse"
       gradientTransform="matrix(0.3103448,0,0,0.2727273,2.5516305,14)" />
  </defs>
  <rect
     style="display:inline;overflow:visible;visibility:visible;fill:url(#linearGradient3527);fill-opacity:1;fill-rule:nonzero;stroke:#000000;stroke-width:0.5;stroke-linecap:round;stroke-linejoin:miter;stroke-miterlimit:6;stroke-dasharray:none;stroke-dashoffset:1.39999998;stroke-opacity:0.39215687;marker:none;paint-order:markers fill stroke"
     id="rect2157"
     y="1.5075293"
     x="3.5075293"
     ry="1.0296869"
     rx="1.0355477"
     height="20.984941"
     width="16.984941" />
  <rect
     style="display:inline;overflow:visible;visibility:visible;fill:#4d4d4d;fill-opacity:1;fill-rule:nonzero;stroke:none;stroke-width:1.20604527;stroke-miterlimit:4;stroke-dasharray:none;stroke-opacity:1;marker:none"
     id="rect2662"
     y="4"
     x="6"
     ry="0.52277237"
     rx="0.52279687"
     height="4"
     width="11.999999" />
  <path
     style="font-style:normal;font-variant:normal;font-weight:bold;font-stretch:normal;font-size:6px;font-family:'URW Gothic L';-inkscape-font-specification:'URW Gothic L Book';fill:#ffffff;fill-opacity:1;stroke:none"
     id="text2469"
     inkscape:connector-curvature="0"
     d="m 12.715977,6.0376786 c 0.193527,-0.022514 0.434166,0.077545 0.447399,0.3007121 0.0386,0.2233559 -0.185406,0.4358429 -0.401859,0.3604192 -0.200775,-0.0012 -0.156521,-0.31021 -0.307091,-0.301088 -0.09482,0 -0.189638,0 -0.284457,0 0.0038,0.3618917 0.331926,0.6641244 0.685872,0.6464414 0.347792,0.016493 0.665814,-0.2860044 0.666222,-0.6401874 C 13.575848,6.163416 13.359265,5.922448 13.234503,5.8306301 13.522565,5.5887715 13.356675,5.065472 13.008339,4.9809943 12.7029,4.876403 12.322811,5.1002596 12.320653,5.4432547 c 0.01637,0.064133 0.156598,0.013863 0.225136,0.02981 0.184597,0.069493 0.126472,-0.1942451 0.301983,-0.1827492 0.273776,0.00737 0.193494,0.4520418 -0.06754,0.3955023 -0.116706,-0.018915 -0.04424,0.1458952 -0.06426,0.220987 0,0.043624 0,0.087249 0,0.1308734 z m 1.115004,0.9710259 c 0.119243,0 0.238486,0 0.357729,0 0,-0.1163777 0,-0.2327553 0,-0.3491329 -0.119243,0 -0.238486,0 -0.357729,0 0,0.1163776 0,0.2327552 0,0.3491329 z m 1.21923,0 c 0.119243,0 0.238486,0 0.35773,0 0,-0.671899 0,-1.3437979 0,-2.015697 -0.202624,0 -0.405248,0 -0.607872,0 0,0.11365 0,0.2273 0,0.3409501 0.08338,0 0.166761,0 0.250142,0 0,0.558249 0,1.1164979 0,1.6747469 z m 0.846035,-0.5973446 c 0,0.098193 0,0.1963868 0,0.2945804 0.286004,0 0.572009,0 0.858013,0 0,0.1009213 0,0.2018429 0,0.3027642 0.119243,0 0.238486,0 0.357729,0 0,-0.1009213 0,-0.2018429 0,-0.3027642 0.06275,-0.01584 0.188861,0.03257 0.209796,-0.025678 0,-0.099636 0,-0.1992708 0,-0.2989064 -0.06275,-0.015841 -0.188861,0.032569 -0.209796,-0.025678 0,-0.4542237 0,-0.9084475 0,-1.3626712 -0.100415,0 -0.20083,0 -0.301246,0 -0.304832,0.472784 -0.609664,0.9455683 -0.914496,1.4183532 z m 0.858013,-0.030004 c -0.164968,0 -0.329936,0 -0.494904,0 0.164968,-0.259122 0.329936,-0.5182441 0.494904,-0.7773661 0,0.259122 0,0.5182441 0,0.7773661 z" />
  <path
     style="display:inline;overflow:visible;visibility:visible;fill:#333333;fill-opacity:1;fill-rule:nonzero;stroke:none;stroke-width:0.99600387;marker:none;enable-background:accumulate;opacity:0.8"
     id="rect4008"
     inkscape:connector-curvature="0"
     d="m 15.353812,10 h 2.292376 C 17.8422,10 18,10.236721 18,10.530765 v 0.93847 C 18,11.763279 17.8422,12 17.646188,12 H 15.353812 C 15.1578,12 15,11.763279 15,11.469235 v -0.93847 C 15,10.236721 15.1578,10 15.353812,10 Z m 0,3 h 2.292376 C 17.8422,13 18,13.236721 18,13.530765 v 0.93847 C 18,14.763279 17.8422,15 17.646188,15 H 15.353812 C 15.1578,15 15,14.763279 15,14.469235 v -0.93847 C 15,13.236721 15.1578,13 15.353812,13 Z m -9.91e-4,3 h 2.294358 c 0.195462,0 0.35282,0.234487 0.35282,0.525755 v 3.948479 c 0,0.291268 -0.157358,0.525755 -0.35282,0.525755 H 15.352821 C 15.157358,20.999989 15,20.765502 15,20.474234 V 16.525755 C 15,16.234487 15.157358,16 15.352821,16 Z M 6.3384151,19 H 10.661585 C 10.849067,19 11,19.156419 11,19.350716 v 1.298568 C 11,20.843581 10.849067,21 10.661585,21 H 6.3384151 C 6.1509331,21 6,20.843581 6,20.649284 V 19.350716 C 6,19.156419 6.1509331,19 6.3384151,19 Z m 6.0943719,0 h 1.134424 c 0.239763,0 0.432786,0.240001 0.432786,0.538119 v 0.923766 c 0,0.298117 -0.193023,0.538118 -0.432786,0.538118 H 12.432787 C 12.193023,21.000003 12,20.760002 12,20.461885 V 19.538119 C 12,19.240001 12.193023,19 12.432787,19 Z m -8.9e-5,-3 h 1.134604 C 13.807017,16 14,16.24105 14,16.54047 v 0.919059 C 14,17.75895 13.807017,18 13.567302,18 H 12.432698 C 12.192983,18 12,17.75895 12,17.459529 V 16.54047 C 12,16.24105 12.192983,16 12.432698,16 Z m 9.5e-5,-3 h 1.134414 C 13.806974,13 14,13.239896 14,13.537884 v 0.924232 C 14,14.760104 13.806974,15 13.567207,15 H 12.432793 C 12.193026,15 12,14.760104 12,14.462116 V 13.537884 C 12,13.239896 12.193026,13 12.432793,13 Z m 0,-3 h 1.134417 c 0.239767,0 0.432793,0.239896 0.432793,0.537884 v 0.924233 c 0,0.297988 -0.193026,0.537884 -0.432793,0.537884 H 12.432793 C 12.193026,12.000001 12,11.760105 12,11.462117 V 10.537884 C 12,10.239896 12.193026,10 12.432793,10 Z M 9.4352113,16 H 10.564789 C 10.805896,16 11,16.240931 11,16.540204 v 0.919591 c 0,0.299273 -0.194104,0.540204 -0.435211,0.540204 H 9.4352113 C 9.1941042,17.999999 9,17.759068 9,17.459795 V 16.540204 C 9,16.240931 9.1941042,16 9.4352113,16 Z m 9.59e-5,-3 H 10.564693 C 10.805853,13 11,13.239778 11,13.537618 v 0.924763 C 11,14.760222 10.805853,15 10.564693,15 H 9.4353072 C 9.194147,15 9,14.760222 9,14.462381 V 13.537618 C 9,13.239778 9.194147,13 9.4353072,13 Z m 0,-3 H 10.564693 C 10.805853,10 11,10.239778 11,10.537619 v 0.924762 C 11,11.760222 10.805853,12 10.564693,12 H 9.4353072 C 9.194147,12 9,11.760222 9,11.462381 V 10.537619 C 9,10.239778 9.194147,10 9.4353072,10 Z M 6.4179753,16 H 7.5820247 C 7.813583,16 8,16.240926 8,16.540193 v 0.919613 c 0,0.299267 -0.186417,0.540193 -0.4179753,0.540193 H 6.4179753 C 6.186417,17.999999 6,17.759073 6,17.459806 V 16.540193 C 6,16.240926 6.186417,16 6.4179753,16 Z m 9.22e-5,-3 h 1.163865 C 7.8135419,13 8,13.239773 8,13.537608 v 0.924784 C 8,14.760227 7.8135419,15 7.5819325,15 H 6.4180675 C 6.1864581,15 6,14.760227 6,14.462392 V 13.537608 C 6,13.239773 6.1864581,13 6.4180675,13 Z m 7.53e-4,-3 h 1.162359 C 7.813206,10 8,10.237233 8,10.531912 v 0.936175 C 8,11.762767 7.813206,12 7.5811795,12 H 6.4188205 C 6.186794,12 6,11.762767 6,11.468087 V 10.531912 C 6,10.237233 6.186794,10 6.4188205,10 Z" />
</svg>
