<?xml version="1.0" encoding="UTF-8" standalone="no"?>
<!-- Created with Inkscape (http://www.inkscape.org/) -->

<svg
   xmlns:dc="http://purl.org/dc/elements/1.1/"
   xmlns:cc="http://creativecommons.org/ns#"
   xmlns:rdf="http://www.w3.org/1999/02/22-rdf-syntax-ns#"
   xmlns:svg="http://www.w3.org/2000/svg"
   xmlns="http://www.w3.org/2000/svg"
   xmlns:xlink="http://www.w3.org/1999/xlink"
   xmlns:sodipodi="http://sodipodi.sourceforge.net/DTD/sodipodi-0.dtd"
   xmlns:inkscape="http://www.inkscape.org/namespaces/inkscape"
   version="1.0"
   width="24"
   height="24"
   id="svg2"
   sodipodi:docname="accessories-text-editor.svg"
   inkscape:version="0.92.4 5da689c313, 2019-01-14">
  <sodipodi:namedview
     pagecolor="#ffffff"
     bordercolor="#666666"
     borderopacity="1"
     objecttolerance="10"
     gridtolerance="10"
     guidetolerance="10"
     inkscape:pageopacity="0"
     inkscape:pageshadow="2"
     inkscape:window-width="1680"
     inkscape:window-height="990"
     id="namedview8750"
     showgrid="false"
     inkscape:zoom="32.916666"
     inkscape:cx="18.670673"
     inkscape:cy="9.8518275"
     inkscape:window-x="0"
     inkscape:window-y="31"
     inkscape:window-maximized="1"
     inkscape:current-layer="svg2" />
  <defs
     id="defs4">
    <radialGradient
       cx="605.71429"
       cy="486.64789"
       r="117.14286"
       fx="605.71429"
       fy="486.64789"
       id="radialGradient4536"
       xlink:href="#linearGradient5060"
       gradientUnits="userSpaceOnUse"
       gradientTransform="matrix(-2.774389,0,0,1.969706,112.7623,-872.8854)" />
    <linearGradient
       id="linearGradient5060">
      <stop
         id="stop5062"
         style="stop-color:#000000;stop-opacity:1"
         offset="0" />
      <stop
         id="stop5064"
         style="stop-color:#000000;stop-opacity:0"
         offset="1" />
    </linearGradient>
    <radialGradient
       cx="605.71429"
       cy="486.64789"
       r="117.14286"
       fx="605.71429"
       fy="486.64789"
       id="radialGradient4534"
       xlink:href="#linearGradient5060"
       gradientUnits="userSpaceOnUse"
       gradientTransform="matrix(2.774389,0,0,1.969706,-1891.633,-872.8854)" />
    <linearGradient
       id="linearGradient5048">
      <stop
         id="stop5050"
         style="stop-color:#000000;stop-opacity:0"
         offset="0" />
      <stop
         id="stop5056"
         style="stop-color:#000000;stop-opacity:1"
         offset="0.5" />
      <stop
         id="stop5052"
         style="stop-color:#000000;stop-opacity:0"
         offset="1" />
    </linearGradient>
    <linearGradient
       x1="302.85715"
       y1="366.64789"
       x2="302.85715"
       y2="609.50507"
       id="linearGradient4532"
       xlink:href="#linearGradient5048"
       gradientUnits="userSpaceOnUse"
       gradientTransform="matrix(2.774389,0,0,1.969706,-1892.179,-872.8854)" />
    <linearGradient
       id="linearGradient3104">
      <stop
         id="stop3106"
         style="stop-color:#969696;stop-opacity:1"
         offset="0" />
      <stop
         id="stop3108"
         style="stop-color:#bebebe;stop-opacity:1"
         offset="1" />
    </linearGradient>
    <linearGradient
       x1="11.536495"
       y1="44.952385"
       x2="11.536495"
       y2="-1.0040783"
       id="linearGradient4196"
       xlink:href="#linearGradient3104"
       gradientUnits="userSpaceOnUse"
       gradientTransform="matrix(0.4857163,0,0,0.489929,0.34281,0.7216336)" />
    <linearGradient
       id="linearGradient3600">
      <stop
         id="stop3602"
         style="stop-color:#f4f4f4;stop-opacity:1"
         offset="0" />
      <stop
         id="stop3604"
         style="stop-color:#dbdbdb;stop-opacity:1"
         offset="1" />
    </linearGradient>
    <linearGradient
       x1="-60.969666"
       y1="13.668072"
       x2="-60.908253"
       y2="114.5354"
       id="linearGradient4194"
       xlink:href="#linearGradient3600"
       gradientUnits="userSpaceOnUse"
       gradientTransform="matrix(0.2187514,1.3312651e-4,-1.3318587e-4,0.2186539,23.078109,-2.7267432)" />
    <linearGradient
       id="linearGradient3191-577">
      <stop
         id="stop2613"
         style="stop-color:#dbce48;stop-opacity:1"
         offset="0" />
      <stop
         id="stop2615"
         style="stop-color:#c5b625;stop-opacity:1"
         offset="1" />
    </linearGradient>
    <linearGradient
       x1="5.5178981"
       y1="37.371799"
       x2="9.5220556"
       y2="41.391716"
       id="linearGradient3857"
       xlink:href="#linearGradient3191-577"
       gradientUnits="userSpaceOnUse"
       gradientTransform="matrix(0.3763801,0.03615261,0.03669995,0.374874,-2.2182805,-1.1331002)" />
    <linearGradient
       id="linearGradient3290-678">
      <stop
         id="stop2607"
         style="stop-color:#ece5a5;stop-opacity:1"
         offset="0" />
      <stop
         id="stop2609"
         style="stop-color:#fcfbf2;stop-opacity:1"
         offset="1" />
    </linearGradient>
    <linearGradient
       x1="9"
       y1="29.056757"
       x2="9"
       y2="26.02973"
       id="linearGradient3855"
       xlink:href="#linearGradient3290-678"
       gradientUnits="userSpaceOnUse"
       gradientTransform="matrix(0.47234468,-0.47452183,0.71008356,0.70444915,-21.073872,-1.7310953)" />
    <linearGradient
       id="linearGradient3223-699">
      <stop
         id="stop2599"
         style="stop-color:#b1b1b1;stop-opacity:1"
         offset="0" />
      <stop
         id="stop2601"
         style="stop-color:#ffffff;stop-opacity:1"
         offset="0.5" />
      <stop
         id="stop2603"
         style="stop-color:#8f8f8f;stop-opacity:1"
         offset="1" />
    </linearGradient>
    <linearGradient
       x1="30.037716"
       y1="24.989594"
       x2="30.037716"
       y2="30.000141"
       id="linearGradient3853"
       xlink:href="#linearGradient3223-699"
       gradientUnits="userSpaceOnUse"
       gradientTransform="matrix(0.4040235,-0.4056919,0.6073752,0.6022679,-17.177369,-2.1969969e-4)" />
    <linearGradient
       id="linearGradient3240-907">
      <stop
         id="stop2591"
         style="stop-color:#565656;stop-opacity:1"
         offset="0" />
      <stop
         id="stop2593"
         style="stop-color:#9a9a9a;stop-opacity:1"
         offset="0.5" />
      <stop
         id="stop2595"
         style="stop-color:#545454;stop-opacity:1"
         offset="1" />
    </linearGradient>
    <linearGradient
       x1="30.037716"
       y1="24.989594"
       x2="30.037716"
       y2="30.000141"
       id="linearGradient3851"
       xlink:href="#linearGradient3240-907"
       gradientUnits="userSpaceOnUse"
       gradientTransform="matrix(0.4040235,-0.4056919,0.6073752,0.6022679,-17.061661,-0.1164056)" />
    <linearGradient
       id="linearGradient3223-768">
      <stop
         id="stop2583"
         style="stop-color:#b1b1b1;stop-opacity:1"
         offset="0" />
      <stop
         id="stop2585"
         style="stop-color:#ffffff;stop-opacity:1"
         offset="0.5" />
      <stop
         id="stop2587"
         style="stop-color:#8f8f8f;stop-opacity:1"
         offset="1" />
    </linearGradient>
    <linearGradient
       x1="30.037716"
       y1="24.989594"
       x2="30.037716"
       y2="30.000141"
       id="linearGradient3849"
       xlink:href="#linearGradient3223-768"
       gradientUnits="userSpaceOnUse"
       gradientTransform="matrix(0.4040235,-0.4056919,0.6073752,0.6022679,-17.581392,0.4054707)" />
    <linearGradient
       id="linearGradient3240-686">
      <stop
         id="stop2575"
         style="stop-color:#565656;stop-opacity:1"
         offset="0" />
      <stop
         id="stop2577"
         style="stop-color:#9a9a9a;stop-opacity:1"
         offset="0.5" />
      <stop
         id="stop2579"
         style="stop-color:#545454;stop-opacity:1"
         offset="1" />
    </linearGradient>
    <linearGradient
       x1="30.037716"
       y1="24.989594"
       x2="30.037716"
       y2="30.000141"
       id="linearGradient3847"
       xlink:href="#linearGradient3240-686"
       gradientUnits="userSpaceOnUse"
       gradientTransform="matrix(0.4040235,-0.4056919,0.6073752,0.6022679,-17.465684,0.2892868)" />
    <linearGradient
       id="linearGradient3223-789">
      <stop
         id="stop2567"
         style="stop-color:#b1b1b1;stop-opacity:1"
         offset="0" />
      <stop
         id="stop2569"
         style="stop-color:#ffffff;stop-opacity:1"
         offset="0.5" />
      <stop
         id="stop2571"
         style="stop-color:#8f8f8f;stop-opacity:1"
         offset="1" />
    </linearGradient>
    <linearGradient
       x1="30.037716"
       y1="24.989594"
       x2="30.037716"
       y2="30.000141"
       id="linearGradient3845"
       xlink:href="#linearGradient3223-789"
       gradientUnits="userSpaceOnUse"
       gradientTransform="matrix(0.4040235,-0.4056919,0.6073752,0.6022679,-17.983472,0.8092126)" />
    <linearGradient
       id="linearGradient3240-279">
      <stop
         id="stop2559"
         style="stop-color:#565656;stop-opacity:1"
         offset="0" />
      <stop
         id="stop2561"
         style="stop-color:#9a9a9a;stop-opacity:1"
         offset="0.5" />
      <stop
         id="stop2563"
         style="stop-color:#545454;stop-opacity:1"
         offset="1" />
    </linearGradient>
    <linearGradient
       x1="30.037716"
       y1="24.989594"
       x2="30.037716"
       y2="30.000141"
       id="linearGradient3843"
       xlink:href="#linearGradient3240-279"
       gradientUnits="userSpaceOnUse"
       gradientTransform="matrix(0.4040235,-0.4056919,0.6073752,0.6022679,-17.867764,0.6930272)" />
    <linearGradient
       id="linearGradient3155-40">
      <stop
         id="stop2541"
         style="stop-color:#181818;stop-opacity:1"
         offset="0" />
      <stop
         id="stop2543"
         style="stop-color:#dbdbdb;stop-opacity:1"
         offset="0.13482948" />
      <stop
         id="stop2545"
         style="stop-color:#a4a4a4;stop-opacity:1"
         offset="0.20224422" />
      <stop
         id="stop2547"
         style="stop-color:#ffffff;stop-opacity:1"
         offset="0.26965895" />
      <stop
         id="stop2549"
         style="stop-color:#8d8d8d;stop-opacity:1"
         offset="0.44650277" />
      <stop
         id="stop2551"
         style="stop-color:#959595;stop-opacity:1"
         offset="0.57114136" />
      <stop
         id="stop2553"
         style="stop-color:#cecece;stop-opacity:1"
         offset="0.72038066" />
      <stop
         id="stop2555"
         style="stop-color:#181818;stop-opacity:1"
         offset="1" />
    </linearGradient>
    <linearGradient
       x1="23.575972"
       y1="25.356892"
       x2="23.575972"
       y2="31.210939"
       id="linearGradient3841"
       xlink:href="#linearGradient3155-40"
       gradientUnits="userSpaceOnUse"
       gradientTransform="matrix(0.415777,-0.4174938,0.518983,0.5146192,-15.747227,2.6503673)"
       spreadMethod="pad" />
    <linearGradient
       x1="9"
       y1="29.056757"
       x2="9"
       y2="26.02973"
       id="linearGradient3855-2"
       xlink:href="#linearGradient3290-678"
       gradientUnits="userSpaceOnUse"
       gradientTransform="matrix(0.39935733,-0.4011981,0.60036053,0.59559674,-17.528028,0.73185971)" />
  </defs>
  <metadata
     id="metadata7">
    <rdf:RDF>
      <cc:Work
         rdf:about="">
        <dc:format>image/svg+xml</dc:format>
        <dc:type
           rdf:resource="http://purl.org/dc/dcmitype/StillImage" />
      </cc:Work>
    </rdf:RDF>
  </metadata>
  <path
     style="display:inline;fill:url(#linearGradient4194);fill-opacity:1;stroke:#000000;stroke-width:0.5;stroke-linecap:round;stroke-linejoin:round;stroke-miterlimit:4;stroke-dasharray:none;stroke-opacity:0.39215687;paint-order:markers fill stroke"
     id="path2855"
     inkscape:connector-curvature="0"
     d="m 3.5133625,0.49999968 c 4.1393458,0.002518 12.8294425,0.007809 16.9687885,0.010328 -0.0037,6.04861402 0.02118,15.96248032 0.01751,21.98982332 -5.666565,-0.0034 -11.3331314,-0.0069 -16.9996976,-0.01035 0.00447,-7.329933 0.00893,-14.659869 0.013397,-21.98980333 z" />
  <g
     style="fill:#999999"
     id="g4198"
     transform="matrix(1.0195441,0,0,1,32.167123,7.773339)">
    <path
       style="display:inline;opacity:0.7;fill:#999999;fill-opacity:1;stroke:none"
       id="path6035"
       inkscape:connector-curvature="0"
       d="m -25.665515,-2.7733386 h 1.124072 v 1 h -1.124072 z" />
    <path
       style="display:inline;opacity:0.7;fill:#999999;fill-opacity:1;stroke:none"
       id="path6033"
       inkscape:connector-curvature="0"
       d="m -24.388326,-2.7733386 h 1.060612 v 1 h -1.060612 z" />
    <path
       style="display:inline;opacity:0.7;fill:#999999;fill-opacity:1;stroke:none"
       id="path6031"
       inkscape:connector-curvature="0"
       d="m -23.174597,-2.7733386 h 0.933684 v 1 h -0.933684 z" />
    <path
       style="display:inline;opacity:0.7;fill:#999999;fill-opacity:1;stroke:none"
       id="path6029"
       inkscape:connector-curvature="0"
       d="m -22.087797,-2.7733386 h 0.410114 v 1 h -0.410114 z" />
    <path
       style="display:inline;opacity:0.7;fill:#999999;fill-opacity:1;stroke:none"
       id="path6027"
       inkscape:connector-curvature="0"
       d="m -21.524561,-2.7733386 h 0.917815 v 1 h -0.917815 z" />
    <path
       style="display:inline;opacity:0.7;fill:#999999;fill-opacity:1;stroke:none"
       id="path6025"
       inkscape:connector-curvature="0"
       d="m -20.453624,-2.7733386 h 2.377462 v 1 h -2.377462 z" />
    <path
       style="display:inline;opacity:0.7;fill:#999999;fill-opacity:1;stroke:none"
       id="path6023"
       inkscape:connector-curvature="0"
       d="m -17.923045,-2.7733386 h 1.806297 v 1 h -1.806297 z" />
    <path
       style="display:inline;opacity:0.7;fill:#999999;fill-opacity:1;stroke:none"
       id="path6017"
       inkscape:connector-curvature="0"
       d="m -25.665515,3.2266614 h 1.124072 v 1 h -1.124072 z" />
    <path
       style="display:inline;opacity:0.7;fill:#999999;fill-opacity:1;stroke:none"
       id="path6015"
       inkscape:connector-curvature="0"
       d="m -24.388327,3.2266614 h 1.060612 v 1 h -1.060612 z" />
    <path
       style="display:inline;opacity:0.7;fill:#999999;fill-opacity:1;stroke:none"
       id="path6013"
       inkscape:connector-curvature="0"
       d="m -23.174598,3.2266614 h 0.933683 v 1 h -0.933683 z" />
    <path
       style="display:inline;opacity:0.7;fill:#999999;fill-opacity:1;stroke:none"
       id="path6011"
       inkscape:connector-curvature="0"
       d="m -22.087799,3.2266614 h 0.410114 v 1 h -0.410114 z" />
    <path
       style="display:inline;opacity:0.7;fill:#999999;fill-opacity:1;stroke:none"
       id="path6009"
       inkscape:connector-curvature="0"
       d="m -21.524563,3.2266614 h 0.917814 v 1 h -0.917814 z" />
    <path
       style="display:inline;opacity:0.7;fill:#999999;fill-opacity:1;stroke:none"
       id="path6007"
       inkscape:connector-curvature="0"
       d="m -20.453627,3.2266614 h 2.377461 v 1 h -2.377461 z" />
    <path
       style="display:inline;opacity:0.7;fill:#999999;fill-opacity:1;stroke:none"
       id="path6005"
       inkscape:connector-curvature="0"
       d="m -17.923049,3.2266614 h 1.806296 v 1 h -1.806296 z" />
    <path
       style="display:inline;opacity:0.7;fill:#999999;fill-opacity:1;stroke:none"
       id="path6003"
       inkscape:connector-curvature="0"
       d="m -15.963631,3.2266614 h 0.552901 v 1 h -0.552901 z" />
    <path
       style="display:inline;opacity:0.7;fill:#999999;fill-opacity:1;stroke:none"
       id="path6001"
       inkscape:connector-curvature="0"
       d="m -15.257608,3.2266614 h 1.092339 v 1 h -1.092339 z" />
    <path
       style="display:inline;opacity:0.7;fill:#999999;fill-opacity:1;stroke:none"
       id="path5999"
       inkscape:connector-curvature="0"
       d="m -25.665515,-0.77333856 h 1.742834 v 1 h -1.742834 z" />
    <path
       style="display:inline;opacity:0.7;fill:#999999;fill-opacity:1;stroke:none"
       id="path5997"
       inkscape:connector-curvature="0"
       d="m -23.76361,-0.77333856 h 0.838487 v 1 h -0.838487 z" />
    <path
       style="display:inline;opacity:0.7;fill:#999999;fill-opacity:1;stroke:none"
       id="path5995"
       inkscape:connector-curvature="0"
       d="m -22.766052,-0.77333856 h 0.394245 v 1 h -0.394245 z" />
    <path
       style="display:inline;opacity:0.7;fill:#999999;fill-opacity:1;stroke:none"
       id="path5993"
       inkscape:connector-curvature="0"
       d="m -22.212735,-0.77333856 h 0.759159 v 1 h -0.759159 z" />
    <path
       style="display:inline;opacity:0.7;fill:#999999;fill-opacity:1;stroke:none"
       id="path5991"
       inkscape:connector-curvature="0"
       d="m -21.29451,-0.77333856 h 0.759159 v 1 h -0.759159 z" />
    <path
       style="display:inline;opacity:0.7;fill:#999999;fill-opacity:1;stroke:none"
       id="path5989"
       inkscape:connector-curvature="0"
       d="m -20.376281,-0.77333856 h 1.219264 v 1 h -1.219264 z" />
    <path
       style="display:inline;opacity:0.7;fill:#999999;fill-opacity:1;stroke:none"
       id="path5987"
       inkscape:connector-curvature="0"
       d="m -18.99795,-0.77333856 h 1.600045 v 1 h -1.600045 z" />
    <path
       style="display:inline;opacity:0.7;fill:#999999;fill-opacity:1;stroke:none"
       id="path5985"
       inkscape:connector-curvature="0"
       d="m -17.238834,-0.77333856 h 1.076471 v 1 h -1.076471 z" />
    <path
       style="display:inline;opacity:0.7;fill:#999999;fill-opacity:1;stroke:none"
       id="path5983"
       inkscape:connector-curvature="0"
       d="m -16.003291,-0.77333856 h 0.251453 v 1 h -0.251453 z" />
    <path
       style="display:inline;opacity:0.7;fill:#999999;fill-opacity:1;stroke:none"
       id="path5981"
       inkscape:connector-curvature="0"
       d="m -25.665515,1.2266614 h 1.996685 v 1 h -1.996685 z" />
    <path
       style="display:inline;opacity:0.7;fill:#999999;fill-opacity:1;stroke:none"
       id="path5979"
       inkscape:connector-curvature="0"
       d="m -23.512309,1.2266614 h 2.139471 v 1 h -2.139471 z" />
    <path
       style="display:inline;opacity:0.7;fill:#999999;fill-opacity:1;stroke:none"
       id="path5977"
       inkscape:connector-curvature="0"
       d="m -21.216317,1.2266614 h 0.854355 v 1 h -0.854355 z" />
    <path
       style="display:inline;opacity:0.7;fill:#999999;fill-opacity:1;stroke:none"
       id="path5975"
       inkscape:connector-curvature="0"
       d="m -20.205441,1.2266614 h 2.012548 v 1 h -2.012548 z" />
    <path
       style="display:inline;opacity:0.7;fill:#999999;fill-opacity:1;stroke:none"
       id="path5973"
       inkscape:connector-curvature="0"
       d="m -16.501932,1.2266614 h 0.537037 v 1 h -0.537037 z" />
    <path
       style="display:inline;opacity:0.7;fill:#999999;fill-opacity:1;stroke:none"
       id="path5971"
       inkscape:connector-curvature="0"
       d="m -18.036372,1.2266614 h 1.377919 v 1 h -1.377919 z" />
    <path
       style="display:inline;opacity:0.7;fill:#999999;fill-opacity:1;stroke:none"
       id="path5969"
       inkscape:connector-curvature="0"
       d="m -15.808375,1.2266614 h 0.314918 v 1 h -0.314918 z" />
    <path
       style="display:inline;opacity:0.7;fill:#999999;fill-opacity:1;stroke:none"
       id="path5967"
       inkscape:connector-curvature="0"
       d="m -15.336936,1.2266614 h 0.854355 v 1 h -0.854355 z" />
    <path
       style="display:inline;opacity:0.7;fill:#999999;fill-opacity:1;stroke:none"
       id="path5965"
       inkscape:connector-curvature="0"
       d="m -25.665515,9.2266614 h 1.996686 v 0.9999996 h -1.996686 z" />
    <path
       style="display:inline;opacity:0.7;fill:#999999;fill-opacity:1;stroke:none"
       id="path5963"
       inkscape:connector-curvature="0"
       d="m -23.512309,9.2266614 h 2.139473 v 0.9999996 h -2.139473 z" />
    <path
       style="display:inline;opacity:0.7;fill:#999999;fill-opacity:1;stroke:none"
       id="path5961"
       inkscape:connector-curvature="0"
       d="m -21.216315,9.2266614 h 0.854355 v 0.9999996 h -0.854355 z" />
    <path
       style="display:inline;opacity:0.7;fill:#999999;fill-opacity:1;stroke:none"
       id="path5959"
       inkscape:connector-curvature="0"
       d="m -20.205439,9.2266614 h 2.012549 v 0.9999996 h -2.012549 z" />
    <path
       style="display:inline;opacity:0.7;fill:#999999;fill-opacity:1;stroke:none"
       id="path5957"
       inkscape:connector-curvature="0"
       d="m -16.501929,9.2266614 h 0.537037 v 0.9999996 h -0.537037 z" />
    <path
       style="display:inline;opacity:0.7;fill:#999999;fill-opacity:1;stroke:none"
       id="path5955"
       inkscape:connector-curvature="0"
       d="m -18.036369,9.2266614 h 1.377919 v 0.9999996 h -1.377919 z" />
    <path
       style="display:inline;opacity:0.7;fill:#999999;fill-opacity:1;stroke:none"
       id="path5953"
       inkscape:connector-curvature="0"
       d="m -15.808371,9.2266614 h 0.314918 v 0.9999996 h -0.314918 z" />
    <path
       style="display:inline;opacity:0.7;fill:#999999;fill-opacity:1;stroke:none"
       id="path5951"
       inkscape:connector-curvature="0"
       d="m -15.336932,9.2266614 h 0.854355 v 0.9999996 h -0.854355 z" />
    <path
       style="display:inline;opacity:0.7;fill:#999999;fill-opacity:1;stroke:none"
       id="path5949"
       inkscape:connector-curvature="0"
       d="m -25.665515,5.2266614 h 1.441384 v 1 h -1.441384 z" />
    <path
       style="display:inline;opacity:0.7;fill:#999999;fill-opacity:1;stroke:none"
       id="path5947"
       inkscape:connector-curvature="0"
       d="m -24.071009,5.2266614 h 2.393326 v 1 h -2.393326 z" />
    <path
       style="display:inline;opacity:0.7;fill:#999999;fill-opacity:1;stroke:none"
       id="path5945"
       inkscape:connector-curvature="0"
       d="m -21.524561,5.2266614 h 1.155799 v 1 h -1.155799 z" />
    <path
       style="display:inline;opacity:0.7;fill:#999999;fill-opacity:1;stroke:none"
       id="path5943"
       inkscape:connector-curvature="0"
       d="m -18.986049,5.2266614 h 0.917816 v 1 h -0.917816 z" />
    <path
       style="display:inline;opacity:0.7;fill:#999999;fill-opacity:1;stroke:none"
       id="path5941"
       inkscape:connector-curvature="0"
       d="m -17.915112,5.2266614 h 1.473117 v 1 h -1.473117 z" />
    <path
       style="display:inline;opacity:0.7;fill:#999999;fill-opacity:1;stroke:none"
       id="path5939"
       inkscape:connector-curvature="0"
       d="m -16.288879,5.2266614 h 2.393331 v 1 h -2.393331 z" />
    <path
       style="display:inline;opacity:0.7;fill:#999999;fill-opacity:1;stroke:none"
       id="path5937"
       inkscape:connector-curvature="0"
       d="m -20.215641,5.2266614 h 1.076476 v 1 h -1.076476 z" />
    <path
       style="display:inline;opacity:0.7;fill:#999999;fill-opacity:1;stroke:none"
       id="path5935"
       inkscape:connector-curvature="0"
       d="m -25.665515,7.2266614 h 1.806297 v 1 h -1.806297 z" />
    <path
       style="display:inline;opacity:0.7;fill:#999999;fill-opacity:1;stroke:none"
       id="path5933"
       inkscape:connector-curvature="0"
       d="m -23.710065,7.2266614 h 0.56877 v 1 h -0.56877 z" />
    <path
       style="display:inline;opacity:0.7;fill:#999999;fill-opacity:1;stroke:none"
       id="path5931"
       inkscape:connector-curvature="0"
       d="m -22.992143,7.2266614 h 1.298596 v 1 h -1.298596 z" />
    <path
       style="display:inline;opacity:0.7;fill:#999999;fill-opacity:1;stroke:none"
       id="path5929"
       inkscape:connector-curvature="0"
       d="m -21.544395,7.2266614 h 0.886087 v 1 h -0.886087 z" />
    <path
       style="display:inline;opacity:0.7;fill:#999999;fill-opacity:1;stroke:none"
       id="path5927"
       inkscape:connector-curvature="0"
       d="m -20.509155,7.2266614 h 0.886082 v 1 h -0.886082 z" />
    <path
       style="display:inline;opacity:0.7;fill:#999999;fill-opacity:1;stroke:none"
       id="path5925"
       inkscape:connector-curvature="0"
       d="m -19.473916,7.2266614 h 1.282728 v 1 h -1.282728 z" />
    <path
       style="display:inline;opacity:0.7;fill:#999999;fill-opacity:1;stroke:none"
       id="path5923"
       inkscape:connector-curvature="0"
       d="m -18.042041,7.2266614 h 0.267326 v 1 h -0.267326 z" />
    <path
       style="display:inline;opacity:0.7;fill:#999999;fill-opacity:1;stroke:none"
       id="path5921"
       inkscape:connector-curvature="0"
       d="m -17.625563,7.2266614 h 1.663505 v 1 h -1.663505 z" />
    <path
       style="display:inline;opacity:0.7;fill:#999999;fill-opacity:1;stroke:none"
       id="path5919"
       inkscape:connector-curvature="0"
       d="m -15.812906,7.2266614 h 0.886087 v 1 h -0.886087 z" />
    <path
       style="display:inline;opacity:0.7;fill:#999999;fill-opacity:1;stroke:none"
       id="path5917"
       inkscape:connector-curvature="0"
       d="m -25.665515,11.226661 h 0.727427 v 1 h -0.727427 z" />
    <path
       style="display:inline;opacity:0.7;fill:#999999;fill-opacity:1;stroke:none"
       id="path5915"
       inkscape:connector-curvature="0"
       d="m -24.749835,11.226661 h 2.647178 v 1 h -2.647178 z" />
    <path
       style="display:inline;opacity:0.7;fill:#999999;fill-opacity:1;stroke:none"
       id="path6838"
       inkscape:connector-curvature="0"
       d="m -18.374424,11.226661 h -0.727427 v 1 h 0.727427 z" />
    <path
       style="display:inline;opacity:0.7;fill:#999999;fill-opacity:1;stroke:none"
       id="path6840"
       inkscape:connector-curvature="0"
       d="m -19.290104,11.226661 h -2.647178 v 1 h 2.647178 z" />
  </g>
  <g
     id="g8626"
     transform="matrix(0.821403,0,0,0.8233928,10.976317,6.2714886)">
    <path
       style="fill:url(#linearGradient3841);fill-opacity:1;stroke:#000000;stroke-width:0.60797864;stroke-linecap:butt;stroke-linejoin:round;stroke-miterlimit:4;stroke-dasharray:none;stroke-dashoffset:0;stroke-opacity:0.39215687;paint-order:stroke markers fill"
       id="path3041"
       inkscape:connector-curvature="0"
       d="m 2.0488085,11.037368 c 0.2865424,-0.207707 1.1479509,0.256388 1.9603385,1.061945 0.8104458,0.803629 1.2601996,1.641331 1.0575577,1.930575 -7.708e-4,0.0011 0.01977,0.01774 0.01898,0.01882 L 15.224149,3.8683779 C 15.481557,3.6099071 15.011041,2.7247557 14.172862,1.893626 13.334685,1.0624962 12.444681,0.59856571 12.187272,0.85703737 Z" />
    <path
       style="fill:url(#linearGradient3843);fill-opacity:1;stroke:none"
       id="path3047"
       inkscape:connector-curvature="0"
       d="m 9.1785348,3.8767048 c 0.2865413,-0.2077068 1.1479522,0.2563879 1.9603392,1.0619443 0.810445,0.8036291 1.2602,1.6413294 1.057556,1.9305753 -7.71e-4,0.0011 0.01977,0.017736 0.01898,0.01882 l 0.126256,-0.1267795 c 7.9e-4,-0.00108 -0.01975,-0.01772 -0.01898,-0.01882 C 12.525331,6.4531992 12.075576,5.6154986 11.26513,4.8118704 10.452743,4.0063135 9.5913335,3.542219 9.3047918,3.7499256 Z" />
    <path
       style="fill:url(#linearGradient3845);fill-opacity:1;stroke:none"
       id="path3049"
       inkscape:connector-curvature="0"
       d="m 9.0628273,3.9928895 c 0.2865436,-0.2077068 1.1479527,0.2563878 1.9603397,1.061944 0.810444,0.8036294 1.2602,1.6413292 1.057556,1.9305742 -7.71e-4,0.0011 0.01977,0.017738 0.01898,0.018822 L 12.22596,6.8774498 c 7.9e-4,-0.00108 -0.01975,-0.017721 -0.01898,-0.018821 C 12.409623,6.569384 11.95987,5.7316836 11.149423,4.9280545 10.337036,4.1224982 9.4756273,3.6584033 9.1890844,3.8661101 Z" />
    <path
       style="fill:url(#linearGradient3847);fill-opacity:1;stroke:none"
       id="path3051"
       inkscape:connector-curvature="0"
       d="m 9.5806143,3.4729643 c 0.2865426,-0.2077069 1.1479517,0.2563872 1.9603387,1.0619442 0.810446,0.803629 1.2602,1.6413292 1.057558,1.9305747 -7.73e-4,0.0011 0.01977,0.017737 0.01898,0.01882 l 0.126258,-0.1267784 c 7.91e-4,-0.00108 -0.01975,-0.017721 -0.01898,-0.01882 C 12.927411,6.0494594 12.477656,5.2117588 11.66721,4.4081298 10.854824,3.6025731 9.9934151,3.1384786 9.7068717,3.3461854 Z" />
    <path
       style="fill:url(#linearGradient3849);fill-opacity:1;stroke:none"
       id="path3053"
       inkscape:connector-curvature="0"
       d="m 9.4649071,3.5891488 c 0.2865435,-0.207707 1.1479529,0.2563877 1.9603379,1.061944 0.810447,0.8036298 1.260201,1.6413294 1.057558,1.9305748 -7.69e-4,0.0011 0.01977,0.017737 0.01898,0.018821 l 0.126257,-0.12678 c 7.9e-4,-0.00108 -0.01975,-0.01772 -0.01898,-0.01882 C 12.811705,6.1656438 12.361949,5.3279425 11.551504,4.5243147 10.739118,3.718758 9.877708,3.254663 9.5911645,3.46237 Z" />
    <path
       style="fill:url(#linearGradient3851);fill-opacity:1;stroke:none"
       id="path3055"
       inkscape:connector-curvature="0"
       d="M 9.9846388,3.0672723 C 10.27118,2.8595657 11.13259,3.3236601 11.944976,4.1292168 c 0.810446,0.8036288 1.260201,1.641329 1.057558,1.9305741 -7.7e-4,0.0011 0.01977,0.017738 0.01898,0.018821 L 13.14777,5.9518328 c 7.92e-4,-0.00108 -0.01975,-0.017721 -0.01898,-0.018821 C 13.331434,5.6437674 12.881679,4.8060668 12.071233,4.0024374 11.258848,3.1968815 10.397438,2.7327869 10.110895,2.9404937 Z" />
    <path
       style="fill:url(#linearGradient3853);fill-opacity:1;stroke:none"
       id="path3057"
       inkscape:connector-curvature="0"
       d="m 9.8689318,3.1834569 c 0.2865412,-0.2077072 1.1479512,0.2563879 1.9603392,1.0619447 0.810444,0.8036283 1.260198,1.6413291 1.057556,1.9305739 -7.71e-4,0.0011 0.01977,0.017737 0.01898,0.018821 l 0.126258,-0.1267782 c 7.89e-4,-0.00108 -0.01975,-0.017722 -0.01898,-0.018821 C 13.215727,5.7599515 12.765972,4.9222512 11.955527,4.1186224 11.143141,3.313066 10.281731,2.848971 9.9951884,3.0566783 Z" />
    <path
       style="opacity:0.6;fill:#0c0c0c;fill-opacity:1;stroke:none;stroke-width:1.03666222"
       id="path3045"
       inkscape:connector-curvature="0"
       d="m 1.9179993,11.019605 c 0.2539961,-0.160426 1.1354364,0.247236 1.9834181,1.076441 0.8553851,0.836444 1.1451557,1.625003 1.1590472,2.185736 C 7.5688334,11.854957 9.8483211,9.4495624 12.116085,7.1405467 12.344389,6.5029405 11.581401,5.4706895 10.992392,5.0043154 10.07922,4.0545755 9.2084014,3.7802895 8.9125441,3.9964776 6.4550478,6.3702193 4.344918,8.6139101 1.9179993,11.019605 Z"
       sodipodi:nodetypes="csccccc" />
    <path
       style="fill:url(#linearGradient3855-2);fill-opacity:1;fill-rule:evenodd;stroke:#000000;stroke-width:0.60797865;stroke-linecap:butt;stroke-linejoin:miter;stroke-miterlimit:4;stroke-dasharray:none;stroke-opacity:0.39215687;paint-order:stroke markers fill"
       id="path3059"
       inkscape:connector-curvature="0"
       d="m 0.16177799,15.893729 4.71674451,-1.706372 0.038855,-0.03882 C 5.117679,13.862491 4.6678951,13.033729 3.8668093,12.239 3.0638037,11.442369 2.2134497,10.985761 1.9302156,11.191167 Z" />
    <path
       style="fill:#0c0c0c;fill-opacity:1;fill-rule:evenodd;stroke:none;stroke-width:1.03943503;stroke-linecap:butt;stroke-linejoin:miter;stroke-miterlimit:4;stroke-dasharray:none;stroke-opacity:1"
       id="path3061"
       inkscape:connector-curvature="0"
       d="M 0.49693707,14.182976 -0.33333747,16.374013 1.8935157,15.565384 C 1.6989811,15.337968 1.5182865,15.107879 1.2871535,14.879095 1.021056,14.615699 0.76169088,14.399671 0.49693707,14.182976 Z" />
    <path
       style="opacity:1;fill:#e28ccd;fill-opacity:1;stroke:none;stroke-width:0.44848007;stroke-linecap:butt;stroke-linejoin:round;stroke-miterlimit:4;stroke-dasharray:none;stroke-dashoffset:0;stroke-opacity:1"
       d="M 21.027344 6.8144531 C 20.977594 6.8223493 20.935434 6.8390764 20.900391 6.8652344 L 20.875 6.890625 L 20.353516 7.4121094 L 20.328125 7.4375 L 19.646484 8.1191406 L 19.099609 8.6660156 C 19.379952 8.4567522 20.165826 8.8489781 20.888672 9.5644531 C 21.609791 10.278219 21.990761 11.040666 21.785156 11.322266 C 21.784378 11.323303 21.801586 11.338801 21.800781 11.339844 L 22.347656 10.792969 L 23.029297 10.111328 L 23.054688 10.087891 C 23.054733 10.087833 23.054754 10.086074 23.054688 10.085938 L 23.576172 9.5644531 L 23.601562 9.5410156 C 23.602384 9.5399782 23.583204 9.5244972 23.583984 9.5234375 C 23.789582 9.241837 23.410569 8.4774385 22.689453 7.7636719 C 22.056956 7.1376291 21.375594 6.75918 21.027344 6.8144531 z "
       transform="matrix(1.2174292,0,0,1.2144872,-13.362889,-7.6166425)"
       id="rect3175" />
  </g>
</svg>
