<?xml version="1.0" encoding="UTF-8" standalone="no"?>
<!-- Created with Inkscape (http://www.inkscape.org/) -->

<svg
   xmlns:dc="http://purl.org/dc/elements/1.1/"
   xmlns:cc="http://creativecommons.org/ns#"
   xmlns:rdf="http://www.w3.org/1999/02/22-rdf-syntax-ns#"
   xmlns:svg="http://www.w3.org/2000/svg"
   xmlns="http://www.w3.org/2000/svg"
   xmlns:xlink="http://www.w3.org/1999/xlink"
   xmlns:sodipodi="http://sodipodi.sourceforge.net/DTD/sodipodi-0.dtd"
   xmlns:inkscape="http://www.inkscape.org/namespaces/inkscape"
   version="1.1"
   width="24"
   height="24"
   id="svg4191"
   sodipodi:docname="application-default-icon.svg"
   inkscape:version="0.92.4 5da689c313, 2019-01-14">
  <sodipodi:namedview
     pagecolor="#ffffff"
     bordercolor="#666666"
     borderopacity="1"
     objecttolerance="10"
     gridtolerance="10"
     guidetolerance="10"
     inkscape:pageopacity="0"
     inkscape:pageshadow="2"
     inkscape:window-width="1680"
     inkscape:window-height="990"
     id="namedview11087"
     showgrid="false"
     inkscape:zoom="32.916667"
     inkscape:cx="6.182279"
     inkscape:cy="12"
     inkscape:window-x="0"
     inkscape:window-y="31"
     inkscape:window-maximized="1"
     inkscape:current-layer="svg4191" />
  <defs
     id="defs4193">
    <linearGradient
       x1="12.913282"
       y1="14.076225"
       x2="12.913282"
       y2="25.962694"
       id="linearGradient4109"
       xlink:href="#linearGradient4097"
       gradientUnits="userSpaceOnUse"
       gradientTransform="matrix(1,0,0,-1,0,32.006376)" />
    <linearGradient
       id="linearGradient4097">
      <stop
         id="stop4099"
         style="stop-color:#000000;stop-opacity:1"
         offset="0" />
      <stop
         id="stop4101"
         style="stop-color:#000000;stop-opacity:0"
         offset="1" />
    </linearGradient>
    <linearGradient
       x1="12.913282"
       y1="14.076225"
       x2="12.913282"
       y2="25.962694"
       id="linearGradient4103"
       xlink:href="#linearGradient4097"
       gradientUnits="userSpaceOnUse"
       gradientTransform="translate(0,-8)" />
    <linearGradient
       x1="12.098314"
       y1="29.917463"
       x2="12.098314"
       y2="9.9835634"
       id="linearGradient4119"
       xlink:href="#linearGradient3707-319-631-407-324-921"
       gradientUnits="userSpaceOnUse"
       gradientTransform="translate(0,-8)" />
    <linearGradient
       id="linearGradient3707-319-631-407-324-921">
      <stop
         id="stop3109"
         style="stop-color:#505050;stop-opacity:1"
         offset="0" />
      <stop
         id="stop3111"
         style="stop-color:#8e8e8e;stop-opacity:1"
         offset="1" />
    </linearGradient>
    <linearGradient
       x1="23.99999"
       y1="4.999989"
       x2="23.99999"
       y2="43"
       id="linearGradient3302-281"
       xlink:href="#linearGradient3924-742"
       gradientUnits="userSpaceOnUse"
       gradientTransform="matrix(0.45945947,0,0,0.45945947,0.9742203,0.9717328)" />
    <linearGradient
       id="linearGradient3924-742">
      <stop
         id="stop3115"
         style="stop-color:#ffffff;stop-opacity:1"
         offset="0" />
      <stop
         id="stop3117"
         style="stop-color:#ffffff;stop-opacity:0.23529412"
         offset="0.06316455" />
      <stop
         id="stop3119"
         style="stop-color:#ffffff;stop-opacity:0.15686275"
         offset="0.95056331" />
      <stop
         id="stop3121"
         style="stop-color:#ffffff;stop-opacity:0.39215687"
         offset="1" />
    </linearGradient>
    <radialGradient
       cx="7.4956832"
       cy="8.4497671"
       r="19.99999"
       fx="7.4956832"
       fy="8.4497671"
       id="radialGradient3295-435"
       xlink:href="#linearGradient2867-449-88-871-390-598-476-591-434-148-57-177-912"
       gradientUnits="userSpaceOnUse"
       gradientTransform="matrix(0,1.149919,-1.2164771,-2.1185896e-8,22.279003,-5.9277922)" />
    <linearGradient
       id="linearGradient2867-449-88-871-390-598-476-591-434-148-57-177-912">
      <stop
         id="stop3099"
         style="stop-color:#c7c7c7;stop-opacity:1"
         offset="0" />
      <stop
         id="stop3101"
         style="stop-color:#a6a6a6;stop-opacity:1"
         offset="0.26238" />
      <stop
         id="stop3103"
         style="stop-color:#7b7b7b;stop-opacity:1"
         offset="0.704952" />
      <stop
         id="stop3105"
         style="stop-color:#595959;stop-opacity:1"
         offset="1" />
    </linearGradient>
    <linearGradient
       x1="24"
       y1="44"
       x2="24"
       y2="3.8990016"
       id="linearGradient3297-146"
       xlink:href="#linearGradient3707-319-631-407-324-921"
       gradientUnits="userSpaceOnUse"
       gradientTransform="matrix(0.48717951,0,0,0.48717951,0.30769188,0.3076897)" />
    <radialGradient
       cx="4.9929786"
       cy="43.5"
       r="2.5"
       fx="4.9929786"
       fy="43.5"
       id="radialGradient3082-993"
       xlink:href="#linearGradient3688-166-749-49"
       gradientUnits="userSpaceOnUse"
       gradientTransform="matrix(2.003784,0,0,1.4,27.98813,-17.4)" />
    <linearGradient
       id="linearGradient3688-166-749-49">
      <stop
         id="stop3079"
         style="stop-color:#181818;stop-opacity:1"
         offset="0" />
      <stop
         id="stop3081"
         style="stop-color:#181818;stop-opacity:0"
         offset="1" />
    </linearGradient>
    <radialGradient
       cx="4.9929786"
       cy="43.5"
       r="2.5"
       fx="4.9929786"
       fy="43.5"
       id="radialGradient3084-992"
       xlink:href="#linearGradient3688-464-309-276"
       gradientUnits="userSpaceOnUse"
       gradientTransform="matrix(2.003784,0,0,1.4,-20.01187,-104.4)" />
    <linearGradient
       id="linearGradient3688-464-309-276">
      <stop
         id="stop3085"
         style="stop-color:#181818;stop-opacity:1"
         offset="0" />
      <stop
         id="stop3087"
         style="stop-color:#181818;stop-opacity:0"
         offset="1" />
    </linearGradient>
    <linearGradient
       x1="25.058096"
       y1="47.027729"
       x2="25.058096"
       y2="39.999443"
       id="linearGradient3086-631"
       xlink:href="#linearGradient3702-501-757-979"
       gradientUnits="userSpaceOnUse" />
    <linearGradient
       id="linearGradient3702-501-757-979">
      <stop
         id="stop3091"
         style="stop-color:#181818;stop-opacity:0"
         offset="0" />
      <stop
         id="stop3093"
         style="stop-color:#181818;stop-opacity:1"
         offset="0.5" />
      <stop
         id="stop3095"
         style="stop-color:#181818;stop-opacity:0"
         offset="1" />
    </linearGradient>
  </defs>
  <metadata
     id="metadata4196">
    <rdf:RDF>
      <cc:Work
         rdf:about="">
        <dc:format>image/svg+xml</dc:format>
        <dc:type
           rdf:resource="http://purl.org/dc/dcmitype/StillImage" />
        <dc:title />
      </cc:Work>
    </rdf:RDF>
  </metadata>
  <rect
     style="color:#000000;display:inline;overflow:visible;visibility:visible;fill:url(#radialGradient3295-435);fill-opacity:1;fill-rule:nonzero;stroke:#000000;stroke-width:0.505;stroke-linecap:round;stroke-linejoin:round;stroke-miterlimit:4;stroke-dasharray:none;stroke-dashoffset:0;stroke-opacity:0.39215686;marker:none;paint-order:markers fill stroke;enable-background:accumulate"
     id="rect5505-21"
     y="2.4049981"
     x="2.405"
     ry="1.01"
     rx="1.01"
     height="19.190002"
     width="19.190002" />
  <path
     style="display:inline;overflow:visible;visibility:visible;fill:#505050;fill-opacity:1;fill-rule:nonzero;stroke:none;stroke-width:1.70000005;marker:none;enable-background:accumulate;opacity:0.8"
     id="rect3557"
     inkscape:connector-curvature="0"
     d="m 11.500001,6.000002 c -0.277,0 -0.5,0.223 -0.5,0.5 v 1.125 c -0.502703,0.11447 -0.967437,0.31081 -1.3906258,0.578125 L 8.8125002,7.406252 c -0.195869,-0.195868 -0.507256,-0.195868 -0.703125,0 l -0.703125,0.703125 c -0.195869,0.195869 -0.195869,0.507256 0,0.703125 l 0.796875,0.796875 c -0.267316,0.423189 -0.463656,0.887921 -0.578125,1.390625 h -1.125 c -0.277,0 -0.5,0.223 -0.5,0.5 v 1 c 0,0.276999 0.223,0.5 0.5,0.5 h 1.125 c 0.114469,0.502703 0.310809,0.967435 0.578125,1.390624 l -0.796875,0.796876 c -0.195869,0.195868 -0.195869,0.507255 0,0.703125 l 0.703125,0.703124 c 0.195868,0.195869 0.507256,0.195871 0.703125,0 l 0.796875,-0.796874 c 0.4231888,0.267316 0.8879228,0.463654 1.3906258,0.578124 v 1.125001 c 0,0.276999 0.223,0.499999 0.5,0.499999 H 12.5 c 0.277001,0 0.500001,-0.223 0.500001,-0.499999 v -1.125001 c 0.502703,-0.11447 0.967436,-0.310808 1.390625,-0.578124 l 0.796874,0.796874 c 0.195869,0.195869 0.507257,0.195869 0.703125,0 l 0.703126,-0.703124 c 0.195867,-0.195869 0.195869,-0.507257 0,-0.703125 l -0.796876,-0.796876 c 0.267317,-0.423189 0.463656,-0.887921 0.578126,-1.390624 H 17.5 c 0.277001,0 0.500001,-0.223001 0.500001,-0.5 v -1 c 0,-0.277 -0.223,-0.5 -0.500001,-0.5 h -1.124999 c -0.11447,-0.502704 -0.310809,-0.967436 -0.578126,-1.390625 l 0.796876,-0.796875 c 0.195867,-0.195868 0.195867,-0.507256 0,-0.703125 L 15.890625,7.406252 c -0.195868,-0.195868 -0.507256,-0.195868 -0.703125,0 L 14.390626,8.203127 C 13.967437,7.935812 13.502704,7.739472 13.000001,7.625002 v -1.125 c 0,-0.277 -0.223,-0.5 -0.500001,-0.5 z m 0.5,4 c 1.103999,-1e-6 2,0.896 2,2 0,1.104 -0.896001,2 -2,2 -1.104,0 -2.000001,-0.896 -2.000001,-2 10e-7,-1.104 0.896001,-2 2.000001,-2 z" />
</svg>
