<?xml version="1.0" encoding="UTF-8" standalone="no"?>
<!-- Created with Inkscape (http://www.inkscape.org/) -->

<svg
   xmlns:dc="http://purl.org/dc/elements/1.1/"
   xmlns:cc="http://creativecommons.org/ns#"
   xmlns:rdf="http://www.w3.org/1999/02/22-rdf-syntax-ns#"
   xmlns:svg="http://www.w3.org/2000/svg"
   xmlns="http://www.w3.org/2000/svg"
   xmlns:xlink="http://www.w3.org/1999/xlink"
   xmlns:sodipodi="http://sodipodi.sourceforge.net/DTD/sodipodi-0.dtd"
   xmlns:inkscape="http://www.inkscape.org/namespaces/inkscape"
   version="1.1"
   width="24"
   height="24"
   id="svg10994"
   inkscape:version="0.92.4 5da689c313, 2019-01-14"
   sodipodi:docname="catfish.svg">
  <sodipodi:namedview
     pagecolor="#ffffff"
     bordercolor="#666666"
     borderopacity="1"
     objecttolerance="10"
     gridtolerance="10"
     guidetolerance="10"
     inkscape:pageopacity="0"
     inkscape:pageshadow="2"
     inkscape:window-width="1680"
     inkscape:window-height="990"
     id="namedview63"
     showgrid="true"
     inkscape:zoom="27.812867"
     inkscape:cx="12"
     inkscape:cy="12.493506"
     inkscape:window-x="0"
     inkscape:window-y="31"
     inkscape:window-maximized="1"
     inkscape:current-layer="svg10994">
    <inkscape:grid
       type="xygrid"
       id="grid3042" />
  </sodipodi:namedview>
  <defs
     id="defs10996">
    <linearGradient
       x1="27.557428"
       y1="7.162672"
       x2="27.557428"
       y2="21.386522"
       id="linearGradient4440-9"
       xlink:href="#linearGradient3454-2-5-0-3-4-1"
       gradientUnits="userSpaceOnUse"
       gradientTransform="matrix(0.62762637,0,0,0.7245642,2.9730682,-4.3726321)" />
    <linearGradient
       id="linearGradient3454-2-5-0-3-4-1">
      <stop
         id="stop3456-4-9-38-1-8-8"
         style="stop-color:#ffffff;stop-opacity:1"
         offset="0" />
      <stop
         id="stop3458-39-80-3-5-5-8"
         style="stop-color:#ffffff;stop-opacity:0.23529412"
         offset="0.0097359" />
      <stop
         id="stop3460-7-0-2-4-2-7"
         style="stop-color:#ffffff;stop-opacity:0.15686275"
         offset="0.99001008" />
      <stop
         id="stop3462-0-9-8-7-2-3"
         style="stop-color:#ffffff;stop-opacity:0.39215687"
         offset="1" />
    </linearGradient>
    <linearGradient
       x1="22.934725"
       y1="49.629246"
       x2="22.809399"
       y2="36.657963"
       id="linearGradient4436-4"
       xlink:href="#linearGradient6129-963-697-142-998-580-273-5-3"
       gradientUnits="userSpaceOnUse"
       gradientTransform="matrix(0.54761895,0,0,0.48299421,-1.1065518,-8.2449121)" />
    <linearGradient
       id="linearGradient6129-963-697-142-998-580-273-5-3">
      <stop
         id="stop2661-1-2"
         style="stop-color:#0a0a0a;stop-opacity:0.498"
         offset="0" />
      <stop
         id="stop2663-85-8"
         style="stop-color:#0a0a0a;stop-opacity:0"
         offset="1" />
    </linearGradient>
    <linearGradient
       x1="35.792694"
       y1="17.118193"
       x2="35.792694"
       y2="43.761127"
       id="linearGradient4430-9"
       xlink:href="#linearGradient4632-0-6-4-3-4-0"
       gradientUnits="userSpaceOnUse"
       gradientTransform="matrix(0.4666607,0,0,0.46428558,0.83644822,-8.1607121)" />
    <linearGradient
       id="linearGradient4632-0-6-4-3-4-0">
      <stop
         id="stop4634-4-4-7-7-4-8"
         style="stop-color:#e9e9e9;stop-opacity:1"
         offset="0" />
      <stop
         id="stop4636-3-1-5-1-3-9"
         style="stop-color:#b4b4b4;stop-opacity:1"
         offset="1" />
    </linearGradient>
    <linearGradient
       x1="21.37039"
       y1="4.73244"
       x2="21.37039"
       y2="34.143417"
       id="linearGradient4418-4"
       xlink:href="#linearGradient4325-0"
       gradientUnits="userSpaceOnUse"
       gradientTransform="matrix(0.43131243,0,0,0.48638011,1.9898582,-5.8145921)" />
    <linearGradient
       id="linearGradient4325-0">
      <stop
         id="stop4327-4"
         style="stop-color:#ffffff;stop-opacity:1"
         offset="0" />
      <stop
         id="stop4329-5"
         style="stop-color:#ffffff;stop-opacity:0.23529412"
         offset="0.1106325" />
      <stop
         id="stop4331-6"
         style="stop-color:#ffffff;stop-opacity:0.15686275"
         offset="0.99001008" />
      <stop
         id="stop4333-7"
         style="stop-color:#ffffff;stop-opacity:0.39215687"
         offset="1" />
    </linearGradient>
    <linearGradient
       x1="62.988873"
       y1="13"
       x2="62.988873"
       y2="16"
       id="linearGradient4414-2"
       xlink:href="#linearGradient4646-7-4-3-5-6"
       gradientUnits="userSpaceOnUse"
       gradientTransform="matrix(0.49096263,0,0,0.48984879,-24.706222,-8.7127621)" />
    <linearGradient
       id="linearGradient4646-7-4-3-5-6">
      <stop
         id="stop4648-8-0-3-6-5"
         style="stop-color:#f9f9f9;stop-opacity:1"
         offset="0" />
      <stop
         id="stop4650-1-7-3-4-8"
         style="stop-color:#d8d8d8;stop-opacity:1"
         offset="1" />
    </linearGradient>
    <linearGradient
       x1="302.85715"
       y1="366.64789"
       x2="302.85715"
       y2="609.50507"
       id="linearGradient3028"
       xlink:href="#linearGradient5048"
       gradientUnits="userSpaceOnUse"
       gradientTransform="matrix(2.774389,0,0,1.969706,-1892.179,-872.8854)" />
    <linearGradient
       id="linearGradient5048">
      <stop
         id="stop5050"
         style="stop-color:#000000;stop-opacity:0"
         offset="0" />
      <stop
         id="stop5056"
         style="stop-color:#000000;stop-opacity:1"
         offset="0.5" />
      <stop
         id="stop5052"
         style="stop-color:#000000;stop-opacity:0"
         offset="1" />
    </linearGradient>
    <radialGradient
       cx="605.71429"
       cy="486.64789"
       r="117.14286"
       fx="605.71429"
       fy="486.64789"
       id="radialGradient3030"
       xlink:href="#linearGradient5060"
       gradientUnits="userSpaceOnUse"
       gradientTransform="matrix(2.774389,0,0,1.969706,-1891.633,-872.8854)" />
    <linearGradient
       id="linearGradient5060">
      <stop
         id="stop5062"
         style="stop-color:#000000;stop-opacity:1"
         offset="0" />
      <stop
         id="stop5064"
         style="stop-color:#000000;stop-opacity:0"
         offset="1" />
    </linearGradient>
    <radialGradient
       cx="605.71429"
       cy="486.64789"
       r="117.14286"
       fx="605.71429"
       fy="486.64789"
       id="radialGradient3032"
       xlink:href="#linearGradient5060"
       gradientUnits="userSpaceOnUse"
       gradientTransform="matrix(-2.774389,0,0,1.969706,112.7623,-872.8854)" />
    <linearGradient
       id="linearGradient3104-8-8-97-4-6-11-5-5-0-5">
      <stop
         id="stop3106-5-4-3-5-0-2-1-0-6-6"
         style="stop-color:#000000;stop-opacity:0.32173914"
         offset="0" />
      <stop
         id="stop3108-4-3-7-8-2-0-7-9-1-4"
         style="stop-color:#000000;stop-opacity:0.27826086"
         offset="1" />
    </linearGradient>
    <linearGradient
       x1="-51.786404"
       y1="53.514328"
       x2="-51.786404"
       y2="3.6336823"
       id="linearGradient10992"
       xlink:href="#linearGradient3104-8-8-97-4-6-11-5-5-0-5"
       gradientUnits="userSpaceOnUse"
       gradientTransform="matrix(0.40212523,0,0,0.398023,53.350858,-8.7909421)" />
    <linearGradient
       x1="27.557428"
       y1="7.162672"
       x2="27.557428"
       y2="21.386522"
       id="linearGradient3044"
       xlink:href="#linearGradient3454-2-5-0-3-4-1"
       gradientUnits="userSpaceOnUse"
       gradientTransform="matrix(0.62762637,0,0,0.7245642,2.9730682,3.6273678)" />
    <linearGradient
       x1="22.934725"
       y1="49.629246"
       x2="22.809399"
       y2="36.657963"
       id="linearGradient3047"
       xlink:href="#linearGradient6129-963-697-142-998-580-273-5-3"
       gradientUnits="userSpaceOnUse"
       gradientTransform="matrix(0.54761895,0,0,0.48299421,-1.1065518,-0.24491222)" />
    <linearGradient
       x1="35.792694"
       y1="17.118193"
       x2="35.792694"
       y2="43.761127"
       id="linearGradient3050"
       xlink:href="#linearGradient4632-0-6-4-3-4-0"
       gradientUnits="userSpaceOnUse"
       gradientTransform="matrix(0.4666607,0,0,0.46428558,0.83644822,-0.16071222)" />
    <linearGradient
       x1="21.37039"
       y1="4.73244"
       x2="21.37039"
       y2="34.143417"
       id="linearGradient3053"
       xlink:href="#linearGradient4325-0"
       gradientUnits="userSpaceOnUse"
       gradientTransform="matrix(0.43131243,0,0,0.48638011,1.9898582,2.1854078)" />
    <linearGradient
       x1="62.988873"
       y1="13"
       x2="62.988873"
       y2="16"
       id="linearGradient3056"
       xlink:href="#linearGradient4646-7-4-3-5-6"
       gradientUnits="userSpaceOnUse"
       gradientTransform="matrix(0.44186637,0,0,0.44086391,-21.03197,-0.04461122)" />
    <linearGradient
       x1="-51.786404"
       y1="53.514328"
       x2="-51.786404"
       y2="3.6336823"
       id="linearGradient3064"
       xlink:href="#linearGradient3104-8-8-97-4-6-11-5-5-0-5"
       gradientUnits="userSpaceOnUse"
       gradientTransform="matrix(0.36191271,0,0,0.3582207,49.219402,-0.11497322)" />
  </defs>
  <metadata
     id="metadata10999">
    <rdf:RDF>
      <cc:Work
         rdf:about="">
        <dc:format>image/svg+xml</dc:format>
        <dc:type
           rdf:resource="http://purl.org/dc/dcmitype/StillImage" />
        <dc:title />
      </cc:Work>
    </rdf:RDF>
  </metadata>
  <path
     style="color:#000000;display:inline;overflow:visible;visibility:visible;opacity:1;fill:#646464;stroke:none;stroke-width:1;stroke-linecap:square;stroke-linejoin:round;stroke-miterlimit:4;stroke-dasharray:none;stroke-dashoffset:0;stroke-opacity:0.39215687;marker:none;enable-background:accumulate;fill-opacity:1;paint-order:markers stroke fill"
     d="M 3.9355469 3.1914062 C 3.4178955 3.1914062 2.9863281 3.6229736 2.9863281 4.140625 L 2.9863281 5.0683594 C 2.4950276 5.0994445 2.0859375 5.4980846 2.0859375 5.9960938 L 2.0859375 7.5859375 A 0.50005 0.50005 0 0 0 2.5859375 8.0859375 L 21.486328 8.0859375 A 0.50005 0.50005 0 0 0 21.986328 7.5859375 L 21.986328 5.9960938 C 21.986328 5.4784423 21.554761 5.046875 21.037109 5.046875 L 11.185547 5.046875 L 11.185547 4.140625 C 11.185547 3.6229736 10.75398 3.1914063 10.236328 3.1914062 L 3.9355469 3.1914062 z "
     id="rect3186" />
  <path
     style="color:#000000;fill:url(#linearGradient3050);fill-opacity:1;fill-rule:nonzero;stroke:#000000;stroke-width:0.5;marker:none;visibility:visible;display:inline;overflow:visible;enable-background:accumulate;stroke-opacity:0.39215687;stroke-miterlimit:4;stroke-dasharray:none;paint-order:markers fill stroke"
     d="M 1.8457031 7 A 0.50004994 0.50004994 0 0 0 1.7890625 7.0039062 C 1.5618953 7.0300053 1.3114352 7.1584732 1.1816406 7.3535156 C 1.051846 7.5485581 1.0376468 7.7392713 1.0371094 7.8867188 C 1.0360346 8.1816136 1.07641 8.4257393 1.0761719 8.4277344 A 0.50004994 0.50004994 0 0 0 1.0898438 8.6152344 C 1.0610427 8.5081652 1.0782961 8.5617323 1.0800781 8.5820312 C 1.0818681 8.6023303 1.0850706 8.6371906 1.0878906 8.6816406 C 1.0935306 8.7705416 1.0995839 8.8989271 1.1074219 9.0605469 C 1.1230989 9.3837864 1.1424415 9.8375218 1.1640625 10.376953 C 1.2073035 11.455816 1.2600925 12.879673 1.3105469 14.308594 C 1.3610019 15.737514 1.4092919 17.170862 1.4453125 18.271484 C 1.4813335 19.372107 1.5058594 20.206772 1.5058594 20.220703 C 1.5058594 20.344945 1.5128191 20.479706 1.5957031 20.636719 C 1.6785901 20.793731 1.861611 20.922605 1.9980469 20.962891 C 2.2709187 21.043461 2.400553 20.996094 2.5859375 20.996094 L 21.701172 20.996094 C 21.806732 20.998594 21.885434 21.001994 21.976562 20.996094 C 22.071572 20.989894 22.246162 20.990894 22.416016 20.802734 C 22.585869 20.614539 22.563718 20.426019 22.560547 20.357422 C 22.557647 20.295392 22.555387 20.266392 22.554688 20.228516 C 22.555435 20.218916 22.555941 20.209969 22.556641 20.199219 C 22.558741 20.167729 22.561953 20.127799 22.564453 20.078125 C 22.569553 19.978765 22.574531 19.841496 22.582031 19.667969 C 22.597031 19.320915 22.617995 18.833974 22.640625 18.253906 C 22.685885 17.093772 22.741907 15.559146 22.798828 14.023438 C 22.855748 12.487728 22.913818 10.950041 22.957031 9.7851562 C 22.978641 9.2027139 22.996356 8.7146751 23.009766 8.3652344 C 23.016466 8.190514 23.021351 8.0496136 23.025391 7.9511719 C 23.029391 7.8527299 23.03595 7.7500021 23.03125 7.8046875 A 0.50004994 0.50004994 0 0 0 23.033203 7.7617188 C 23.033203 7.6957907 23.125574 7.6122292 22.958984 7.3125 C 22.875612 7.1626419 22.697761 7.0590108 22.585938 7.0292969 C 22.474113 6.999583 22.397252 7 22.3125 7 L 1.8457031 7 z "
     id="path3388-3" />
  <path
     style="fill:#4d4d4d;fill-opacity:1;fill-rule:evenodd;stroke:none;display:inline"
     id="path3220"
     d="m 15.335315,16.53803 c -0.05398,0.02159 -0.10488,0.05148 -0.150736,0.08852 l -0.911087,0.617837 c -0.138608,0.08765 -0.235819,0.22977 -0.26466,0.386927 -0.02884,0.157157 0.01376,0.312631 0.115975,0.423282 l 5.513109,5.790109 c 0.09497,0.105821 0.234268,0.162049 0.383128,0.154646 0.148861,-0.0074 0.293228,-0.07774 0.397058,-0.193447 l 0.944433,-1.051287 c 0.19322,-0.219769 0.192317,-0.537725 -0.0021,-0.721685 L 15.814028,16.676278 C 15.69691,16.547631 15.515648,16.495284 15.335315,16.53803 z"
     inkscape:connector-curvature="0" />
  <path
     style="fill:#000000;fill-opacity:0;fill-rule:evenodd;stroke:#4d4d4d;stroke-width:1.88733149;stroke-linecap:butt;stroke-linejoin:miter;stroke-miterlimit:4;stroke-opacity:1;stroke-dasharray:none"
     id="path2447"
     d="m 16.056334,14 c 0,2.240252 -1.816082,4.056334 -4.056334,4.056334 -2.2402516,0 -4.0563343,-1.816082 -4.0563343,-4.056334 0,-2.240252 1.8160827,-4.0563346 4.0563343,-4.0563346 2.240252,0 4.056334,1.8160826 4.056334,4.0563346 l 0,0 z"
     inkscape:connector-curvature="0" />
</svg>
