<?xml version="1.0" encoding="UTF-8" standalone="no"?>
<!-- Created with Inkscape (http://www.inkscape.org/) -->

<svg
   xmlns:serif="http://www.serif.com/"
   xmlns:dc="http://purl.org/dc/elements/1.1/"
   xmlns:cc="http://creativecommons.org/ns#"
   xmlns:rdf="http://www.w3.org/1999/02/22-rdf-syntax-ns#"
   xmlns:svg="http://www.w3.org/2000/svg"
   xmlns="http://www.w3.org/2000/svg"
   xmlns:sodipodi="http://sodipodi.sourceforge.net/DTD/sodipodi-0.dtd"
   xmlns:inkscape="http://www.inkscape.org/namespaces/inkscape"
   width="48px"
   height="48px"
   id="svg19807"
   version="1.1"
   inkscape:version="0.92.4 5da689c313, 2019-01-14"
   sodipodi:docname="folder-videos.svg">
  <defs
     id="defs19809">
    <linearGradient
       id="linearGradient3454-2-8-6-1-1-8-0">
      <stop
         offset="0"
         style="stop-color:#ffffff;stop-opacity:1"
         id="stop3456-4-7-9-4-0-3-6" />
      <stop
         offset="0.0097359"
         style="stop-color:#ffffff;stop-opacity:0.23529412"
         id="stop3458-39-0-8-61-3-8-9" />
      <stop
         offset="0.99001008"
         style="stop-color:#ffffff;stop-opacity:0.15686275"
         id="stop3460-7-5-4-1-6-6-6" />
      <stop
         offset="1"
         style="stop-color:#ffffff;stop-opacity:0.39215687"
         id="stop3462-0-5-6-6-2-1-6" />
    </linearGradient>
    <linearGradient
       id="linearGradient6129-963-697-142-998-580-273-0-8-4-9-0-0">
      <stop
         id="stop2661-3-02-4-8-0-4"
         style="stop-color:#0a0a0a;stop-opacity:0.498"
         offset="0" />
      <stop
         id="stop2663-2-8-06-2-4-6"
         style="stop-color:#0a0a0a;stop-opacity:0"
         offset="1" />
    </linearGradient>
    <linearGradient
       id="linearGradient4632-0-6-4">
      <stop
         style="stop-color:#b4cee1;stop-opacity:1;"
         offset="0"
         id="stop4634-4-4-7" />
      <stop
         style="stop-color:#5d9fcd;stop-opacity:1;"
         offset="1"
         id="stop4636-3-1-5" />
    </linearGradient>
    <linearGradient
       id="linearGradient5060-820-9-0-7-1-7-7">
      <stop
         id="stop2681-5-4-3-6-3-8"
         style="stop-color:#000000;stop-opacity:1"
         offset="0" />
      <stop
         id="stop2683-8-6-9-4-6-6"
         style="stop-color:#000000;stop-opacity:0"
         offset="1" />
    </linearGradient>
    <linearGradient
       id="linearGradient5060-179-2-0-3-6-2-2">
      <stop
         id="stop2675-9-9-4-1-4-4"
         style="stop-color:#000000;stop-opacity:1"
         offset="0" />
      <stop
         id="stop2677-1-7-2-6-1-8"
         style="stop-color:#000000;stop-opacity:0"
         offset="1" />
    </linearGradient>
    <linearGradient
       id="linearGradient5048-585-4-0-56-2-5-2">
      <stop
         id="stop2667-5-0-7-4-7-7"
         style="stop-color:#000000;stop-opacity:0"
         offset="0" />
      <stop
         id="stop2669-4-1-8-0-6-9"
         style="stop-color:#000000;stop-opacity:1"
         offset="0.5" />
      <stop
         id="stop2671-2-6-3-2-0-6"
         style="stop-color:#000000;stop-opacity:0"
         offset="1" />
    </linearGradient>
    <linearGradient
       id="linearGradient4507-9-2-2-3-6-9">
      <stop
         id="stop4509-9-8-4-2-3-4"
         style="stop-color:#ffffff;stop-opacity:1"
         offset="0" />
      <stop
         id="stop4511-7-50-2-1-3-9"
         style="stop-color:#ffffff;stop-opacity:0.23529412"
         offset="0.07395859" />
      <stop
         id="stop4513-2-0-2-9-2-6"
         style="stop-color:#ffffff;stop-opacity:0.15686275"
         offset="0.99001008" />
      <stop
         id="stop4515-3-9-8-6-6-0"
         style="stop-color:#ffffff;stop-opacity:0.39215687"
         offset="1" />
    </linearGradient>
    <linearGradient
       id="linearGradient4646-6-91-5-0-5-8">
      <stop
         offset="0"
         style="stop-color:#f9f9f9;stop-opacity:1"
         id="stop4648-2-4-6-6-8-7" />
      <stop
         offset="1"
         style="stop-color:#d8d8d8;stop-opacity:1"
         id="stop4650-3-8-5-3-4-5" />
    </linearGradient>
    <linearGradient
       id="linearGradient3104-8-8-97-4-6-2-0-1-4-0-5">
      <stop
         offset="0"
         style="stop-color:#000000;stop-opacity:0.32173914"
         id="stop3106-5-4-3-5-0-1-61-9-2-7-3" />
      <stop
         offset="1"
         style="stop-color:#000000;stop-opacity:0.27826086"
         id="stop3108-4-3-7-8-2-4-01-9-9-0-6" />
    </linearGradient>
    <radialGradient
       id="_Radial9-4-7"
       cx="0"
       cy="0"
       r="1"
       gradientUnits="userSpaceOnUse"
       gradientTransform="matrix(87.4019,0,0,77.8688,292.70029,144.961)">
      <stop
         offset="0"
         style="stop-color:rgb(11,222,255);stop-opacity:1"
         id="stop34329-5-9" />
      <stop
         offset="1"
         style="stop-color:rgb(0,168,221);stop-opacity:1"
         id="stop34331-0-2" />
    </radialGradient>
  </defs>
  <sodipodi:namedview
     id="base"
     pagecolor="#ffffff"
     bordercolor="#666666"
     borderopacity="1.0"
     inkscape:pageopacity="0.0"
     inkscape:pageshadow="2"
     inkscape:zoom="7"
     inkscape:cx="24"
     inkscape:cy="24"
     inkscape:current-layer="layer1"
     showgrid="true"
     inkscape:grid-bbox="true"
     inkscape:document-units="px"
     inkscape:window-width="1680"
     inkscape:window-height="991"
     inkscape:window-x="0"
     inkscape:window-y="30"
     inkscape:window-maximized="1" />
  <metadata
     id="metadata19812">
    <rdf:RDF>
      <cc:Work
         rdf:about="">
        <dc:format>image/svg+xml</dc:format>
        <dc:type
           rdf:resource="http://purl.org/dc/dcmitype/StillImage" />
        <dc:title />
      </cc:Work>
    </rdf:RDF>
  </metadata>
  <g
     id="layer1"
     inkscape:label="Layer 1"
     inkscape:groupmode="layer">
    <path
       inkscape:connector-curvature="0"
       style="color:#000000;display:inline;overflow:visible;visibility:visible;opacity:0.8;fill:#c8c8c8;fill-opacity:1;stroke:none;stroke-width:1;stroke-linecap:butt;stroke-linejoin:miter;stroke-miterlimit:4;stroke-dasharray:none;stroke-dashoffset:0;stroke-opacity:1;marker:none;enable-background:accumulate"
       d="m 5.4999955,8.5 c -0.554,0 -1,0.446 -1,1 v 2 h -1 c -0.554,0 -1,0.446 -1,1 v 6 c 0,0.554 0.446,1 1,1 H 44.499996 c 0.554,0 1,-0.446 1,-1 v -6 c 0,-0.554 -0.446,-1 -1,-1 h -23 v -2 c 0,-0.554 -0.446,-1 -1,-1 z"
       id="rect4251-0-0-1-1-9-5-2-3" />
    <g
       style="clip-rule:evenodd;fill-rule:evenodd;stroke:#000000;stroke-width:0.12803584;stroke-miterlimit:4;stroke-dasharray:none;stroke-opacity:0.39215686"
       id="path3388-7-21"
       serif:id="path3388-7-2"
       transform="matrix(0.75520335,0,0,0.80774256,-207.42672,-95.68019)">
      <path
         d="m 276.99029,137.057 c -1.438,0.164 -0.87,1.86 -0.985,2.813 0.527,11.236 1.258,22.244 1.781,33.48 0.459,1.281 2.138,0.625 3.202,0.787 17.69,0 35.38,0 53.07,0 1.461,-0.141 0.853,-1.867 1.059,-2.855 0.526,-11.235 1.258,-22.244 1.781,-33.479 -0.337,-1.266 -2.238,-0.562 -3.235,-0.746 -18.891,0 -37.782,0 -56.673,0 z"
         style="fill:url(#_Radial9-4-7);fill-rule:nonzero;stroke:#000000;stroke-width:0.12803584;stroke-miterlimit:4;stroke-dasharray:none;stroke-opacity:0.39215686"
         id="path31381"
         inkscape:connector-curvature="0" />
    </g>
    <g
       id="layer1-3-4"
       transform="translate(16.000016,22.999988)"
       style="color:#000000;fill:#175f85;fill-opacity:0.55216283;fill-rule:nonzero;stroke:none;stroke-width:1.70000005;marker:none;visibility:visible;display:inline;overflow:visible;enable-background:accumulate">
      <path
         style="color:#000000;fill:#175f85;fill-opacity:0.55216283;fill-rule:nonzero;stroke:none;stroke-width:1.70000005;marker:none;visibility:visible;display:inline;overflow:visible;enable-background:accumulate"
         id="rect3032-7"
         inkscape:connector-curvature="0"
         d="M 1.75,0 C 1.3345,0 1,0.3345 1,0.75 l 0,13.5 C 1,14.6655 1.3345,15 1.75,15 l 12.5,0 C 14.6655,15 15,14.6655 15,14.25 L 15,0.75 C 15,0.3345 14.6655,0 14.25,0 L 1.75,0 z M 2,1 3,1 3,2 2,2 2,1 z m 2.5,0 7,0 C 11.777,1 12,1.223 12,1.5 l 0,5 C 12,6.777 11.777,7 11.5,7 l -7,0 C 4.223,7 4,6.777 4,6.5 l 0,-5 C 4,1.223 4.223,1 4.5,1 z m 8.5,0 1,0 0,1 -1,0 0,-1 z M 2,3 3,3 3,4 2,4 2,3 z m 11,0 1,0 0,1 -1,0 0,-1 z M 2,5 3,5 3,6 2,6 2,5 z m 11,0 1,0 0,1 -1,0 0,-1 z M 2,7 3,7 3,8 2,8 2,7 z m 11,0 1,0 0,1 -1,0 0,-1 z m -8.5,1 7,0 C 11.777,8 12,8.223 12,8.5 l 0,5 c 0,0.277 -0.223,0.5 -0.5,0.5 l -7,0 C 4.223,14 4,13.777 4,13.5 l 0,-5 C 4,8.223 4.223,8 4.5,8 z M 2,9 3,9 3,10 2,10 2,9 z m 11,0 1,0 0,1 -1,0 0,-1 z m -11,2 1,0 0,1 -1,0 0,-1 z m 11,0 1,0 0,1 -1,0 0,-1 z m -11,2 1,0 0,1 -1,0 0,-1 z m 11,0 1,0 0,1 -1,0 0,-1 z" />
    </g>
  </g>
</svg>
