<?xml version="1.0" encoding="UTF-8" standalone="no"?>
<!-- Created with Inkscape (http://www.inkscape.org/) -->

<svg
   xmlns:dc="http://purl.org/dc/elements/1.1/"
   xmlns:cc="http://creativecommons.org/ns#"
   xmlns:rdf="http://www.w3.org/1999/02/22-rdf-syntax-ns#"
   xmlns:svg="http://www.w3.org/2000/svg"
   xmlns="http://www.w3.org/2000/svg"
   xmlns:xlink="http://www.w3.org/1999/xlink"
   xmlns:sodipodi="http://sodipodi.sourceforge.net/DTD/sodipodi-0.dtd"
   xmlns:inkscape="http://www.inkscape.org/namespaces/inkscape"
   width="48px"
   height="48px"
   id="svg21739"
   version="1.1"
   inkscape:version="0.92.4 5da689c313, 2019-01-14"
   sodipodi:docname="folder-saved-search.svg">
  <defs
     id="defs21741">
    <linearGradient
       id="linearGradient3454-2-8-7-0-3">
      <stop
         offset="0"
         style="stop-color:#ffffff;stop-opacity:1"
         id="stop3456-4-7-1-7-23" />
      <stop
         offset="0.0097359"
         style="stop-color:#ffffff;stop-opacity:0.23529412"
         id="stop3458-39-0-1-8-77" />
      <stop
         offset="0.99001008"
         style="stop-color:#ffffff;stop-opacity:0.15686275"
         id="stop3460-7-5-9-6-3" />
      <stop
         offset="1"
         style="stop-color:#ffffff;stop-opacity:0.39215687"
         id="stop3462-0-5-41-2-7" />
    </linearGradient>
    <linearGradient
       id="linearGradient6129-963-697-142-998-580-273-0-4-4-5">
      <stop
         id="stop2661-3-72-3-7"
         style="stop-color:#0a0a0a;stop-opacity:0.498"
         offset="0" />
      <stop
         id="stop2663-2-85-1-5"
         style="stop-color:#0a0a0a;stop-opacity:0"
         offset="1" />
    </linearGradient>
    <linearGradient
       inkscape:collect="always"
       xlink:href="#linearGradient4632-92-3-0-8"
       id="linearGradient4638-4-65-4-6"
       x1="35.792694"
       y1="17.118193"
       x2="35.792694"
       y2="43.761127"
       gradientUnits="userSpaceOnUse"
       gradientTransform="matrix(1.0221081,0,0,1.0714977,-0.53214787,-2.6807073)" />
    <linearGradient
       id="linearGradient4632-92-3-0-8">
      <stop
         style="stop-color:#cdc9e3;stop-opacity:1"
         offset="0"
         id="stop4634-68-8-0-2" />
      <stop
         style="stop-color:#9389cb;stop-opacity:1"
         offset="1"
         id="stop4636-8-21-7-1" />
    </linearGradient>
    <linearGradient
       id="linearGradient5060-820-9-8-0-1">
      <stop
         id="stop2681-5-8-1-8"
         style="stop-color:#000000;stop-opacity:1"
         offset="0" />
      <stop
         id="stop2683-8-8-6-4"
         style="stop-color:#000000;stop-opacity:0"
         offset="1" />
    </linearGradient>
    <linearGradient
       id="linearGradient5060-179-2-5-1-0">
      <stop
         id="stop2675-9-8-3-2"
         style="stop-color:#000000;stop-opacity:1"
         offset="0" />
      <stop
         id="stop2677-1-21-7-4"
         style="stop-color:#000000;stop-opacity:0"
         offset="1" />
    </linearGradient>
    <linearGradient
       id="linearGradient5048-585-4-34-3-5">
      <stop
         id="stop2667-5-7-5-6"
         style="stop-color:#000000;stop-opacity:0"
         offset="0" />
      <stop
         id="stop2669-4-9-4-0"
         style="stop-color:#000000;stop-opacity:1"
         offset="0.5" />
      <stop
         id="stop2671-2-5-4-8"
         style="stop-color:#000000;stop-opacity:0"
         offset="1" />
    </linearGradient>
    <linearGradient
       id="linearGradient4507-9-5-4-6">
      <stop
         id="stop4509-9-5-3-5"
         style="stop-color:#ffffff;stop-opacity:1"
         offset="0" />
      <stop
         id="stop4511-7-3-2-5"
         style="stop-color:#ffffff;stop-opacity:0.23529412"
         offset="0.07395859" />
      <stop
         id="stop4513-2-3-2-9"
         style="stop-color:#ffffff;stop-opacity:0.15686275"
         offset="0.99001008" />
      <stop
         id="stop4515-3-0-7-3"
         style="stop-color:#ffffff;stop-opacity:0.39215687"
         offset="1" />
    </linearGradient>
    <linearGradient
       id="linearGradient4646-6-8-7-4">
      <stop
         offset="0"
         style="stop-color:#f9f9f9;stop-opacity:1"
         id="stop4648-2-38-0-2" />
      <stop
         offset="1"
         style="stop-color:#d8d8d8;stop-opacity:1"
         id="stop4650-3-1-2-70" />
    </linearGradient>
    <linearGradient
       id="linearGradient3104-8-8-97-4-6-2-75-0-1">
      <stop
         offset="0"
         style="stop-color:#000000;stop-opacity:0.32173914"
         id="stop3106-5-4-3-5-0-1-9-2-1" />
      <stop
         offset="1"
         style="stop-color:#000000;stop-opacity:0.27826086"
         id="stop3108-4-3-7-8-2-4-1-8-9" />
    </linearGradient>
    <radialGradient
       id="_Radial9-4-7"
       cx="0"
       cy="0"
       r="1"
       gradientUnits="userSpaceOnUse"
       gradientTransform="matrix(87.4019,0,0,77.8688,292.70029,144.961)">
      <stop
         offset="0"
         style="stop-color:rgb(11,222,255);stop-opacity:1"
         id="stop34329-5-9" />
      <stop
         offset="1"
         style="stop-color:rgb(0,168,221);stop-opacity:1"
         id="stop34331-0-2" />
    </radialGradient>
  </defs>
  <sodipodi:namedview
     id="base"
     pagecolor="#ffffff"
     bordercolor="#666666"
     borderopacity="1.0"
     inkscape:pageopacity="0.0"
     inkscape:pageshadow="2"
     inkscape:zoom="14"
     inkscape:cx="24"
     inkscape:cy="24"
     inkscape:current-layer="layer1"
     showgrid="true"
     inkscape:grid-bbox="true"
     inkscape:document-units="px"
     inkscape:window-width="1680"
     inkscape:window-height="991"
     inkscape:window-x="0"
     inkscape:window-y="30"
     inkscape:window-maximized="1" />
  <metadata
     id="metadata21744">
    <rdf:RDF>
      <cc:Work
         rdf:about="">
        <dc:format>image/svg+xml</dc:format>
        <dc:type
           rdf:resource="http://purl.org/dc/dcmitype/StillImage" />
        <dc:title />
      </cc:Work>
    </rdf:RDF>
  </metadata>
  <g
     id="layer1"
     inkscape:label="Layer 1"
     inkscape:groupmode="layer">
    <path
       inkscape:connector-curvature="0"
       style="color:#000000;display:inline;overflow:visible;visibility:visible;opacity:0.8;fill:#c8c8c8;fill-opacity:1;stroke:none;stroke-width:1;stroke-linecap:butt;stroke-linejoin:miter;stroke-miterlimit:4;stroke-dasharray:none;stroke-dashoffset:0;stroke-opacity:1;marker:none;enable-background:accumulate"
       d="m 5.499996,8.5 c -0.554001,0 -1,0.446 -1,1 v 2 h -1 c -0.554001,0 -1,0.446 -1,1 v 6 c 0,0.554 0.445999,1 1,1 h 41 c 0.554,0 1,-0.446 1,-1 v -6 c 0,-0.554 -0.446,-1 -1,-1 h -23 v -2 c 0,-0.554 -0.446,-1 -1,-1 z"
       id="rect4251-0-0-1-1-9-5-2-3" />
    <path
       style="fill:url(#linearGradient4638-4-65-4-6);fill-opacity:1;stroke:#000000;stroke-width:0.1;stroke-miterlimit:4;stroke-dasharray:none;stroke-opacity:0.39215686"
       id="path3388-1-5-0-5"
       inkscape:connector-curvature="0"
       d="m 1.6782632,14.998999 c -1.09600665,0.132722 -0.5106453,1.5044 -0.5980355,2.27574 0.1272523,0.498467 0.9480052,27.080813 0.9480052,27.080813 0,0.767014 0.3594754,0.637065 1.2703781,0.637065 13.480175,0 28.386598,0 41.866672,0 0.981326,0.0239 0.77394,0.01252 0.77394,-0.64916 0,0 1.014954,-28.299285 1.051238,-28.740923 0,-0.465019 0.09199,-0.603535 -0.483661,-0.603535 -14.395371,0 -30.433064,0 -44.8285368,0 z"
       sodipodi:nodetypes="ccsscccsc" />
    <path
       d="m 22.485415,23.500743 c -0.277,0 -0.5,0.223 -0.5,0.5 v 1.6875 c -0.5487,0.14074 -1.055,0.37601 -1.5313,0.65625 l -1.2187,-1.21875 c -0.1959,-0.19587 -0.4916,-0.19587 -0.6875,0 l -1.4375,1.4375 c -0.1959,0.19587 -0.1959,0.49163 0,0.6875 l 1.2187,1.21875 c -0.2802,0.47623 -0.5155,0.98261 -0.6562,1.53125 h -1.6875 c -0.277,0 -0.5,0.223 -0.5,0.5 v 2 c 0,0.277 0.223,0.5 0.5,0.5 h 1.6875 c 0.1407,0.54864 0.376,1.05502 0.6562,1.53125 l -1.2187,1.21875 c -0.1959,0.19587 -0.1959,0.49163 0,0.6875 l 1.4375,1.4375 c 0.1959,0.19587 0.4916,0.19587 0.6875,0 l 1.2187,-1.21875 c 0.4763,0.28024 0.9826,0.51551 1.5313,0.65625 v 1.6875 c 0,0.277 0.223,0.5 0.5,0.5 h 2 c 0.277,0 0.5,-0.223 0.5,-0.5 v -1.6875 c 0.5486,-0.14074 1.055,-0.37601 1.5312,-0.65625 l 1.2188,1.21875 c 0.1959,0.19587 0.4916,0.19587 0.6875,0 l 1.4375,-1.4375 c 0.1959,-0.19587 0.1959,-0.49163 0,-0.6875 l -1.2188,-1.21875 c 0.2803,-0.47623 0.5155,-0.98261 0.6563,-1.53125 h 1.6875 c 0.277,0 0.5,-0.223 0.5,-0.5 v -2 c 0,-0.277 -0.223,-0.5 -0.5,-0.5 h -1.6875 c -0.1408,-0.54864 -0.376,-1.05502 -0.6563,-1.53125 l 1.2188,-1.21875 c 0.1959,-0.19587 0.1959,-0.49163 0,-0.6875 l -1.4375,-1.4375 c -0.1959,-0.19587 -0.4916,-0.19587 -0.6875,0 l -1.2188,1.21875 c -0.4762,-0.28024 -0.9826,-0.51551 -1.5312,-0.65625 v -1.6875 c 0,-0.277 -0.223,-0.5 -0.5,-0.5 z m 1,5 c 1.6568,0 3,1.34315 3,3 0,1.65685 -1.3432,3 -3,3 -1.6569,0 -3,-1.34315 -3,-3 0,-1.65685 1.3431,-3 3,-3 z"
       id="path3575-5-8-4-7"
       style="color:#000000;display:inline;overflow:visible;visibility:visible;fill:#382a72;fill-opacity:0.5521628;fill-rule:nonzero;stroke:none;stroke-width:1.70000005;marker:none;enable-background:accumulate"
       inkscape:connector-curvature="0" />
  </g>
</svg>
