<?xml version="1.0" encoding="UTF-8" standalone="no"?>
<!-- Created with Inkscape (http://www.inkscape.org/) -->

<svg
   xmlns:dc="http://purl.org/dc/elements/1.1/"
   xmlns:cc="http://creativecommons.org/ns#"
   xmlns:rdf="http://www.w3.org/1999/02/22-rdf-syntax-ns#"
   xmlns:svg="http://www.w3.org/2000/svg"
   xmlns="http://www.w3.org/2000/svg"
   xmlns:xlink="http://www.w3.org/1999/xlink"
   xmlns:sodipodi="http://sodipodi.sourceforge.net/DTD/sodipodi-0.dtd"
   xmlns:inkscape="http://www.inkscape.org/namespaces/inkscape"
   width="128"
   height="128"
   id="svg27522"
   version="1.1"
   inkscape:version="0.92.4 5da689c313, 2019-01-14"
   sodipodi:docname="folder-saved-search.svg">
  <defs
     id="defs27524">
    <linearGradient
       id="linearGradient8272-4">
      <stop
         offset="0"
         style="stop-color:#ffffff;stop-opacity:1"
         id="stop8274-2" />
      <stop
         offset="0.0221225"
         style="stop-color:#ffffff;stop-opacity:0.23529412"
         id="stop8276-6" />
      <stop
         offset="0.97909725"
         style="stop-color:#ffffff;stop-opacity:0.15686275"
         id="stop8278-2" />
      <stop
         offset="1"
         style="stop-color:#ffffff;stop-opacity:0.39215687"
         id="stop8280-4" />
    </linearGradient>
    <linearGradient
       x1="22.934725"
       y1="49.629246"
       x2="22.934725"
       y2="36.599415"
       id="linearGradient2438-2"
       xlink:href="#linearGradient6129-963-697-142-998-580-273-3"
       gradientUnits="userSpaceOnUse"
       gradientTransform="matrix(3.036796,0,0,2.6909694,-8.8831133,-65.364593)" />
    <linearGradient
       id="linearGradient6129-963-697-142-998-580-273-3">
      <stop
         id="stop2661-9"
         style="stop-color:#0a0a0a;stop-opacity:0.498"
         offset="0" />
      <stop
         id="stop2663-0"
         style="stop-color:#0a0a0a;stop-opacity:0"
         offset="1" />
    </linearGradient>
    <linearGradient
       inkscape:collect="always"
       xlink:href="#linearGradient4632-92-3-0-8"
       id="linearGradient10080"
       gradientUnits="userSpaceOnUse"
       gradientTransform="matrix(1.0082645,0,0,1.0400004,147.68596,-71.279899)"
       x1="-91"
       y1="43.999817"
       x2="-91"
       y2="119.05979" />
    <linearGradient
       id="linearGradient4632-92-3-0-8">
      <stop
         style="stop-color:#cdc9e3;stop-opacity:1"
         offset="0"
         id="stop4634-68-8-0-2" />
      <stop
         style="stop-color:#9389cb;stop-opacity:1"
         offset="1"
         id="stop4636-8-21-7-1" />
    </linearGradient>
    <linearGradient
       x1="302.85715"
       y1="366.64789"
       x2="302.85715"
       y2="609.50507"
       id="linearGradient2484-0"
       xlink:href="#linearGradient5048-585-6"
       gradientUnits="userSpaceOnUse"
       gradientTransform="matrix(0.2134205,0,0,0.06641689,-13.147881,75.518568)" />
    <linearGradient
       id="linearGradient5048-585-6">
      <stop
         id="stop2667-4"
         style="stop-color:#000000;stop-opacity:0"
         offset="0" />
      <stop
         id="stop2669-4"
         style="stop-color:#000000;stop-opacity:1"
         offset="0.5" />
      <stop
         id="stop2671-0"
         style="stop-color:#000000;stop-opacity:0"
         offset="1" />
    </linearGradient>
    <radialGradient
       cx="605.71429"
       cy="486.64789"
       r="117.14286"
       fx="605.71429"
       fy="486.64789"
       id="radialGradient2486-9"
       xlink:href="#linearGradient5060-179-6"
       gradientUnits="userSpaceOnUse"
       gradientTransform="matrix(0.08277507,0,0,0.06641689,65.628912,75.518568)" />
    <linearGradient
       id="linearGradient5060-179-6">
      <stop
         id="stop2675-0"
         style="stop-color:#000000;stop-opacity:1"
         offset="0" />
      <stop
         id="stop2677-6"
         style="stop-color:#000000;stop-opacity:0"
         offset="1" />
    </linearGradient>
    <linearGradient
       id="linearGradient5060-820-3">
      <stop
         id="stop2681-3"
         style="stop-color:#000000;stop-opacity:1"
         offset="0" />
      <stop
         id="stop2683-1"
         style="stop-color:#000000;stop-opacity:0"
         offset="1" />
    </linearGradient>
    <linearGradient
       id="linearGradient9235-7">
      <stop
         id="stop9237-9"
         style="stop-color:#ffffff;stop-opacity:1"
         offset="0" />
      <stop
         id="stop9239-2"
         style="stop-color:#ffffff;stop-opacity:0.23529412"
         offset="0.1088333" />
      <stop
         id="stop9241-3"
         style="stop-color:#ffffff;stop-opacity:0.15686275"
         offset="0.97909725" />
      <stop
         id="stop9243-3"
         style="stop-color:#ffffff;stop-opacity:0.39215687"
         offset="1" />
    </linearGradient>
    <linearGradient
       id="linearGradient3104-8-8-97-4-6-11-5-5-1-0-25">
      <stop
         offset="0"
         style="stop-color:#000000;stop-opacity:0.32173914"
         id="stop3106-5-4-3-5-0-2-1-0-1-2-2" />
      <stop
         offset="1"
         style="stop-color:#000000;stop-opacity:0.27826086"
         id="stop3108-4-3-7-8-2-0-7-9-4-9-4" />
    </linearGradient>
    <linearGradient
       id="linearGradient6404-7-5-4">
      <stop
         id="stop6406-1-8-7"
         style="stop-color:#f9f9f9;stop-opacity:1"
         offset="0" />
      <stop
         id="stop6408-9-6-30"
         style="stop-color:#c9c9c9;stop-opacity:1"
         offset="1" />
    </linearGradient>
    <radialGradient
       id="_Radial9-4"
       cx="0"
       cy="0"
       r="1"
       gradientUnits="userSpaceOnUse"
       gradientTransform="matrix(87.4019,0,0,77.8688,293.022,144.961)">
      <stop
         offset="0"
         style="stop-color:rgb(11,222,255);stop-opacity:1"
         id="stop34329-5" />
      <stop
         offset="1"
         style="stop-color:rgb(0,168,221);stop-opacity:1"
         id="stop34331-0" />
    </radialGradient>
  </defs>
  <sodipodi:namedview
     id="base"
     pagecolor="#ffffff"
     bordercolor="#666666"
     borderopacity="1.0"
     inkscape:pageopacity="0.0"
     inkscape:pageshadow="2"
     inkscape:zoom="5.5"
     inkscape:cx="87.324582"
     inkscape:cy="60.96513"
     inkscape:current-layer="layer1"
     showgrid="true"
     inkscape:document-units="px"
     inkscape:grid-bbox="true"
     inkscape:window-width="1680"
     inkscape:window-height="991"
     inkscape:window-x="0"
     inkscape:window-y="30"
     inkscape:window-maximized="1" />
  <metadata
     id="metadata27527">
    <rdf:RDF>
      <cc:Work
         rdf:about="">
        <dc:format>image/svg+xml</dc:format>
        <dc:type
           rdf:resource="http://purl.org/dc/dcmitype/StillImage" />
        <dc:title />
      </cc:Work>
    </rdf:RDF>
  </metadata>
  <g
     id="layer1"
     inkscape:label="Layer 1"
     inkscape:groupmode="layer"
     transform="translate(0,64)">
    <path
       inkscape:connector-curvature="0"
       style="color:#000000;display:inline;overflow:visible;visibility:visible;fill:#c8c8c8;fill-opacity:1;stroke:none;stroke-width:0.99999982;stroke-linecap:round;stroke-linejoin:round;stroke-miterlimit:4;stroke-dasharray:none;stroke-dashoffset:0;stroke-opacity:1;marker:none;enable-background:accumulate"
       id="use13975"
       d="m 13.499997,-42.49984 c -1.108,0 -2,0.892 -2,2 v 6 h -3 c -1.108,0 -2,0.892 -2,2 v 11 c 0,1.108 0.892,2 2,2 H 119.5 c 1.108,0 2,-0.892 2,-2 v -11 c 0,-1.108 -0.892,-2 -2,-2 H 56.499995 v -6 c 0,-1.108 -0.892,-2 -2,-2 z" />
    <path
       d="m 5.7727139,-25.000043 116.4545561,0.001 c 1.68239,0 2.77273,1.199123 2.77273,2.689916 l -2.73885,72.712877 c 0.0393,1.886293 -0.55475,2.634212 -2.50947,2.594655 L 8.9101304,52.951111 c -1.68239,0 -3.3788958,-1.113222 -3.3788958,-2.604024 l -2.531248,-72.656161 c 0,-1.490802 1.0903372,-2.690969 2.7727273,-2.690969 z"
       inkscape:connector-curvature="0"
       id="path3369-3"
       style="display:inline;overflow:visible;visibility:visible;fill:url(#linearGradient10080);fill-opacity:1;fill-rule:nonzero;stroke:#000000;stroke-width:0.3;marker:none;enable-background:accumulate;stroke-opacity:0.39215687;stroke-miterlimit:4;stroke-dasharray:none" />
    <path
       d="m 61.377797,-5.9998431 c -0.7271,0 -1.3126,0.58537 -1.3126,1.31249 l 0,4.42968998 c -1.4402,0.36944 -2.7694,0.98702 -4.0195,1.72266002 l -3.1992,-3.19922 c -0.514,-0.51415 -1.2904,-0.51415 -1.8047,0 l -3.7733,3.77345 c -0.5143,0.51415 -0.5143,1.29052 0,1.80469 l 3.1989,3.19922 c -0.7355,1.2501 -1.3531,2.57935 -1.7223,4.0195191 l -4.4297,0 c -0.7272,0 -1.3125,0.58539 -1.3125,1.31251 l 0,5.24999 c 0,0.72714 0.5853,1.3125 1.3125,1.3125 l 4.4297,0 c 0.3693,1.44018 0.9868,2.76944 1.7223,4.01954 l -3.1989,3.19921 c -0.5143,0.51416 -0.5143,1.29053 0,1.80469 l 3.7733,3.773441 c 0.5143,0.51417 1.2907,0.51417 1.8047,0 l 3.1992,-3.199231 c 1.2501,0.73564 2.5793,1.35322 4.0195,1.722671 l 0,4.42969 c 0,0.72711 0.5855,1.31249 1.3126,1.31249 l 5.2501,0 c 0.727,0 1.3123,-0.58538 1.3123,-1.31249 l 0,-4.42969 c 1.4402,-0.369451 2.7695,-0.987031 4.0194,-1.722671 l 3.1995,3.199231 c 0.5142,0.51417 1.2906,0.51417 1.8047,0 l 3.7733,-3.773441 c 0.5143,-0.51416 0.5143,-1.29053 0,-1.80469 l -3.1993,-3.19921 c 0.7359,-1.2501 1.3533,-2.57936 1.7227,-4.01954 l 4.4298,0 c 0.7271,0 1.3126,-0.58536 1.3126,-1.3125 l 0,-5.24999 c 0,-0.72712 -0.5855,-1.31251 -1.3126,-1.31251 l -4.4298,0 c -0.3694,-1.4401691 -0.9867,-2.7694191 -1.7227,-4.0195191 l 3.1993,-3.19922 c 0.5143,-0.51417 0.5143,-1.29054 0,-1.80469 l -3.7733,-3.77345 c -0.5141,-0.51415 -1.2905,-0.51415 -1.8047,0 l -3.1995,3.19922 c -1.2499,-0.73564002 -2.5792,-1.35322002 -4.0194,-1.72266002 l 0,-4.42968998 c 0,-0.72712 -0.5853,-1.31249 -1.3123,-1.31249 l -5.2501,0 z m 2.6251,13.125 c 4.3491,0 7.875,3.5257791 7.875,7.8749991 0,4.34923 -3.5259,7.87501 -7.875,7.87501 -4.3494,0 -7.8751,-3.52578 -7.8751,-7.87501 0,-4.34922 3.5257,-7.8749991 7.8751,-7.8749991 z"
       id="path3575-5-8-4-7-7"
       style="color:#000000;fill:#382a72;fill-opacity:0.5521628;fill-rule:nonzero;stroke:none;stroke-width:1.70000005;marker:none;visibility:visible;display:inline;overflow:visible;enable-background:accumulate"
       inkscape:connector-curvature="0" />
  </g>
</svg>
