<?xml version="1.0" encoding="UTF-8" standalone="no"?>
<!-- Created with Inkscape (http://www.inkscape.org/) -->

<svg
   xmlns:dc="http://purl.org/dc/elements/1.1/"
   xmlns:cc="http://creativecommons.org/ns#"
   xmlns:rdf="http://www.w3.org/1999/02/22-rdf-syntax-ns#"
   xmlns:svg="http://www.w3.org/2000/svg"
   xmlns="http://www.w3.org/2000/svg"
   xmlns:xlink="http://www.w3.org/1999/xlink"
   xmlns:sodipodi="http://sodipodi.sourceforge.net/DTD/sodipodi-0.dtd"
   xmlns:inkscape="http://www.inkscape.org/namespaces/inkscape"
   width="32px"
   height="32px"
   id="svg17618"
   version="1.1"
   inkscape:version="0.92.4 5da689c313, 2019-01-14"
   sodipodi:docname="folder-saved-search.svg">
  <defs
     id="defs17620">
    <linearGradient
       id="linearGradient3454-2-5-0-3-4">
      <stop
         offset="0"
         style="stop-color:#ffffff;stop-opacity:1"
         id="stop3456-4-9-38-1-8" />
      <stop
         offset="0.0097359"
         style="stop-color:#ffffff;stop-opacity:0.23529412"
         id="stop3458-39-80-3-5-5" />
      <stop
         offset="0.99001008"
         style="stop-color:#ffffff;stop-opacity:0.15686275"
         id="stop3460-7-0-2-4-2" />
      <stop
         offset="1"
         style="stop-color:#ffffff;stop-opacity:0.39215687"
         id="stop3462-0-9-8-7-2" />
    </linearGradient>
    <linearGradient
       id="linearGradient6129-963-697-142-998-580-273-5">
      <stop
         id="stop2661-1"
         style="stop-color:#0a0a0a;stop-opacity:0.498"
         offset="0" />
      <stop
         id="stop2663-85"
         style="stop-color:#0a0a0a;stop-opacity:0"
         offset="1" />
    </linearGradient>
    <linearGradient
       inkscape:collect="always"
       xlink:href="#linearGradient4632-92-3-0-8-1"
       id="linearGradient8239"
       gradientUnits="userSpaceOnUse"
       gradientTransform="matrix(0.66655107,0,0,0.66325328,3.6675122e-4,0.48426817)"
       x1="35.792694"
       y1="17.118193"
       x2="35.792694"
       y2="43.761127" />
    <linearGradient
       id="linearGradient4632-92-3-0-8-1">
      <stop
         style="stop-color:#cdc9e3;stop-opacity:1"
         offset="0"
         id="stop4634-68-8-0-2-9" />
      <stop
         style="stop-color:#9389cb;stop-opacity:1"
         offset="1"
         id="stop4636-8-21-7-1-4" />
    </linearGradient>
    <linearGradient
       id="linearGradient5048-585-0">
      <stop
         id="stop2667-18"
         style="stop-color:#000000;stop-opacity:0"
         offset="0" />
      <stop
         id="stop2669-9"
         style="stop-color:#000000;stop-opacity:1"
         offset="0.5" />
      <stop
         id="stop2671-33"
         style="stop-color:#000000;stop-opacity:0"
         offset="1" />
    </linearGradient>
    <linearGradient
       id="linearGradient5060-179-67">
      <stop
         id="stop2675-81"
         style="stop-color:#000000;stop-opacity:1"
         offset="0" />
      <stop
         id="stop2677-2"
         style="stop-color:#000000;stop-opacity:0"
         offset="1" />
    </linearGradient>
    <linearGradient
       id="linearGradient5060-820-4">
      <stop
         id="stop2681-5"
         style="stop-color:#000000;stop-opacity:1"
         offset="0" />
      <stop
         id="stop2683-00"
         style="stop-color:#000000;stop-opacity:0"
         offset="1" />
    </linearGradient>
    <linearGradient
       id="linearGradient4325">
      <stop
         offset="0"
         style="stop-color:#ffffff;stop-opacity:1"
         id="stop4327" />
      <stop
         offset="0.1106325"
         style="stop-color:#ffffff;stop-opacity:0.23529412"
         id="stop4329" />
      <stop
         offset="0.99001008"
         style="stop-color:#ffffff;stop-opacity:0.15686275"
         id="stop4331" />
      <stop
         offset="1"
         style="stop-color:#ffffff;stop-opacity:0.39215687"
         id="stop4333" />
    </linearGradient>
    <linearGradient
       id="linearGradient4646-7-4-3-5">
      <stop
         offset="0"
         style="stop-color:#f9f9f9;stop-opacity:1"
         id="stop4648-8-0-3-6" />
      <stop
         offset="1"
         style="stop-color:#d8d8d8;stop-opacity:1"
         id="stop4650-1-7-3-4" />
    </linearGradient>
    <linearGradient
       id="linearGradient3104-8-8-97-4-6-11-5-5-0">
      <stop
         offset="0"
         style="stop-color:#000000;stop-opacity:0.32173914"
         id="stop3106-5-4-3-5-0-2-1-0-6" />
      <stop
         offset="1"
         style="stop-color:#000000;stop-opacity:0.27826086"
         id="stop3108-4-3-7-8-2-0-7-9-1" />
    </linearGradient>
    <radialGradient
       id="_Radial9-4-7-3"
       cx="0"
       cy="0"
       r="1"
       gradientUnits="userSpaceOnUse"
       gradientTransform="matrix(87.4019,0,0,77.8688,292.70029,144.961)">
      <stop
         offset="0"
         style="stop-color:rgb(11,222,255);stop-opacity:1"
         id="stop34329-5-9-6" />
      <stop
         offset="1"
         style="stop-color:rgb(0,168,221);stop-opacity:1"
         id="stop34331-0-2-7" />
    </radialGradient>
  </defs>
  <sodipodi:namedview
     id="base"
     pagecolor="#ffffff"
     bordercolor="#666666"
     borderopacity="1.0"
     inkscape:pageopacity="0.0"
     inkscape:pageshadow="2"
     inkscape:zoom="11.197802"
     inkscape:cx="16"
     inkscape:cy="16"
     inkscape:current-layer="layer1"
     showgrid="true"
     inkscape:grid-bbox="true"
     inkscape:document-units="px"
     inkscape:window-width="1680"
     inkscape:window-height="991"
     inkscape:window-x="0"
     inkscape:window-y="30"
     inkscape:window-maximized="1" />
  <metadata
     id="metadata17623">
    <rdf:RDF>
      <cc:Work
         rdf:about="">
        <dc:format>image/svg+xml</dc:format>
        <dc:type
           rdf:resource="http://purl.org/dc/dcmitype/StillImage" />
        <dc:title />
      </cc:Work>
    </rdf:RDF>
  </metadata>
  <g
     id="layer1"
     inkscape:label="Layer 1"
     inkscape:groupmode="layer">
    <path
       style="color:#000000;font-style:normal;font-variant:normal;font-weight:normal;font-stretch:normal;font-size:medium;line-height:normal;font-family:sans-serif;font-variant-ligatures:normal;font-variant-position:normal;font-variant-caps:normal;font-variant-numeric:normal;font-variant-alternates:normal;font-feature-settings:normal;text-indent:0;text-align:start;text-decoration:none;text-decoration-line:none;text-decoration-style:solid;text-decoration-color:#000000;letter-spacing:normal;word-spacing:normal;text-transform:none;writing-mode:lr-tb;direction:ltr;text-orientation:mixed;dominant-baseline:auto;baseline-shift:baseline;text-anchor:start;white-space:normal;shape-padding:0;clip-rule:nonzero;display:inline;overflow:visible;visibility:visible;opacity:0.8;isolation:auto;mix-blend-mode:normal;color-interpolation:sRGB;color-interpolation-filters:linearRGB;solid-color:#000000;solid-opacity:1;vector-effect:none;fill:#c8c8c8;fill-opacity:1;fill-rule:nonzero;stroke:none;stroke-width:1.18092275;stroke-linecap:butt;stroke-linejoin:miter;stroke-miterlimit:4;stroke-dasharray:none;stroke-dashoffset:0;stroke-opacity:1;marker:none;color-rendering:auto;image-rendering:auto;shape-rendering:auto;text-rendering:auto;enable-background:accumulate"
       d="m 4.785711,6.428573 c -0.681689,0 -1.25,0.5072346 -1.25,1.1156628 v 1.1853919 c -0.681689,0 -1.25,0.5072344 -1.25,1.1156627 V 12.372964 H 29.78571 V 9.8452904 c 0,-0.6084283 -0.56831,-1.1156627 -1.25,-1.1156627 h -13.75 V 7.5442358 c 0,-0.6084282 -0.56831,-1.1156628 -1.249999,-1.1156628 z"
       id="rect3186"
       inkscape:connector-curvature="0"
       sodipodi:nodetypes="sscsccsscsss" />
    <path
       style="color:#000000;display:inline;overflow:visible;visibility:visible;fill:url(#linearGradient8239);fill-opacity:1;fill-rule:nonzero;stroke:#000000;stroke-width:0.2;stroke-miterlimit:4;stroke-dasharray:none;stroke-opacity:0.39215686;marker:none;enable-background:accumulate"
       id="use7695-9"
       inkscape:connector-curvature="0"
       d="m 1.4416689,11.427946 c -0.71475555,0.08213 -0.3330045,0.931216 -0.3899843,1.408669 0.082951,0.308549 0.6182137,16.216683 0.6182137,16.762932 0,0.474778 0.2344456,0.394346 0.8284875,0.394346 8.7909582,0 18.5120472,0 27.3030072,0 0.639944,0.01475 0.504699,0.0072 0.504699,-0.401828 0.04675,-0.20912 0.661881,-17.517163 0.685556,-17.79053 0,-0.287853 0.06009,-0.373589 -0.31539,-0.373589 -9.387856,0 -19.846724,0 -29.2345891,0 z" />
    <path
       d="m 15.500178,16.999999 c -0.1385,0 -0.25,0.1115 -0.25,0.25 l 0,0.84375 c -0.27435,0.0704 -0.5275,0.188 -0.76565,0.32812 l -0.60935,-0.60937 c -0.098,-0.0979 -0.2458,-0.0979 -0.34375,0 l -0.71875,0.71875 c -0.098,0.0979 -0.098,0.24581 0,0.34375 l 0.60935,0.60937 c -0.1401,0.23812 -0.25775,0.49131 -0.3281,0.76563 l -0.84375,0 c -0.1385,0 -0.25,0.1115 -0.25,0.25 l 0,1 c 0,0.1385 0.1115,0.25 0.25,0.25 l 0.84375,0 c 0.0703,0.27432 0.188,0.52751 0.3281,0.76562 l -0.60935,0.60938 c -0.098,0.0979 -0.098,0.24581 0,0.34375 l 0.71875,0.71875 c 0.0979,0.0979 0.2458,0.0979 0.34375,0 l 0.60935,-0.60938 c 0.23815,0.14012 0.4913,0.25776 0.76565,0.32813 l 0,0.84375 c 0,0.1385 0.1115,0.25 0.25,0.25 l 1,0 c 0.1385,0 0.25,-0.1115 0.25,-0.25 l 0,-0.84375 c 0.2743,-0.0704 0.5275,-0.18801 0.7656,-0.32813 l 0.6094,0.60938 c 0.0979,0.0979 0.2458,0.0979 0.34375,0 l 0.71875,-0.71875 c 0.0979,-0.0979 0.0979,-0.24582 0,-0.34375 l -0.6094,-0.60938 c 0.14015,-0.23811 0.25775,-0.4913 0.32815,-0.76562 l 0.84375,0 c 0.1385,0 0.25,-0.1115 0.25,-0.25 l 0,-1 c 0,-0.1385 -0.1115,-0.25 -0.25,-0.25 l -0.84375,0 c -0.0704,-0.27432 -0.188,-0.52751 -0.32815,-0.76563 l 0.6094,-0.60937 c 0.0979,-0.0979 0.0979,-0.24582 0,-0.34375 l -0.71875,-0.71875 c -0.098,-0.0979 -0.2458,-0.0979 -0.34375,0 l -0.6094,0.60937 c -0.2381,-0.14012 -0.4913,-0.25775 -0.7656,-0.32812 l 0,-0.84375 c 0,-0.1385 -0.1115,-0.25 -0.25,-0.25 l -1,0 z m 0.5,2.5 c 0.8284,0 1.5,0.67157 1.5,1.5 0,0.82842 -0.6716,1.5 -1.5,1.5 -0.82845,0 -1.5,-0.67158 -1.5,-1.5 0,-0.82843 0.67155,-1.5 1.5,-1.5 z"
       id="path3575-5-8-4-7-0"
       style="color:#000000;fill:#382a72;fill-opacity:0.5521628;fill-rule:nonzero;stroke:none;stroke-width:1.70000005;marker:none;visibility:visible;display:inline;overflow:visible;enable-background:accumulate"
       inkscape:connector-curvature="0" />
  </g>
</svg>
