<?xml version="1.0" encoding="UTF-8" standalone="no"?>
<!-- Created with Inkscape (http://www.inkscape.org/) -->

<svg
   xmlns:dc="http://purl.org/dc/elements/1.1/"
   xmlns:cc="http://creativecommons.org/ns#"
   xmlns:rdf="http://www.w3.org/1999/02/22-rdf-syntax-ns#"
   xmlns:svg="http://www.w3.org/2000/svg"
   xmlns="http://www.w3.org/2000/svg"
   xmlns:xlink="http://www.w3.org/1999/xlink"
   xmlns:sodipodi="http://sodipodi.sourceforge.net/DTD/sodipodi-0.dtd"
   xmlns:inkscape="http://www.inkscape.org/namespaces/inkscape"
   version="1.0"
   width="128"
   height="128"
   id="svg4175"
   sodipodi:docname="accessories-dictionary.svg"
   inkscape:version="0.92.4 5da689c313, 2019-01-14">
  <sodipodi:namedview
     pagecolor="#ffffff"
     bordercolor="#666666"
     borderopacity="1"
     objecttolerance="10"
     gridtolerance="10"
     guidetolerance="10"
     inkscape:pageopacity="0"
     inkscape:pageshadow="2"
     inkscape:window-width="1674"
     inkscape:window-height="987"
     id="namedview4863"
     showgrid="false"
     inkscape:zoom="10"
     inkscape:cx="64"
     inkscape:cy="88"
     inkscape:window-x="0"
     inkscape:window-y="31"
     inkscape:window-maximized="0"
     inkscape:current-layer="svg4175" />
  <metadata
     id="metadata52">
    <rdf:RDF>
      <cc:Work
         rdf:about="">
        <dc:format>image/svg+xml</dc:format>
        <dc:type
           rdf:resource="http://purl.org/dc/dcmitype/StillImage" />
      </cc:Work>
    </rdf:RDF>
  </metadata>
  <defs
     id="defs4177">
    <linearGradient
       id="linearGradient3287">
      <stop
         id="stop3289"
         style="stop-color:#000000;stop-opacity:1"
         offset="0" />
      <stop
         id="stop3291"
         style="stop-color:#000000;stop-opacity:0"
         offset="1" />
    </linearGradient>
    <linearGradient
       id="linearGradient2346">
      <stop
         id="stop2348"
         style="stop-color:#eeeeee;stop-opacity:1"
         offset="0" />
      <stop
         id="stop2350"
         style="stop-color:#d9d9da;stop-opacity:1"
         offset="1" />
    </linearGradient>
    <linearGradient
       id="linearGradient3211">
      <stop
         id="stop3213"
         style="stop-color:#ffffff;stop-opacity:1"
         offset="0" />
      <stop
         id="stop3215"
         style="stop-color:#ffffff;stop-opacity:0"
         offset="1" />
    </linearGradient>
    <linearGradient
       id="linearGradient2490">
      <stop
         id="stop2492"
         style="stop-color:#791235;stop-opacity:1"
         offset="0" />
      <stop
         id="stop2494"
         style="stop-color:#dd3b27;stop-opacity:1"
         offset="1" />
    </linearGradient>
    <linearGradient
       id="linearGradient5048">
      <stop
         id="stop5050"
         style="stop-color:#000000;stop-opacity:0"
         offset="0" />
      <stop
         id="stop5056"
         style="stop-color:#000000;stop-opacity:1"
         offset="0.5" />
      <stop
         id="stop5052"
         style="stop-color:#000000;stop-opacity:0"
         offset="1" />
    </linearGradient>
    <linearGradient
       id="linearGradient5060">
      <stop
         id="stop5062"
         style="stop-color:#000000;stop-opacity:1"
         offset="0" />
      <stop
         id="stop5064"
         style="stop-color:#000000;stop-opacity:0"
         offset="1" />
    </linearGradient>
    <linearGradient
       id="linearGradient3242-2">
      <stop
         id="stop3244"
         style="stop-color:#f8b17e;stop-opacity:1"
         offset="0" />
      <stop
         id="stop3246-9"
         style="stop-color:#e35d4f;stop-opacity:1"
         offset="0.31209752" />
      <stop
         id="stop3248-3"
         style="stop-color:#c6262e;stop-opacity:1"
         offset="0.57054454" />
      <stop
         id="stop3250-9"
         style="stop-color:#690b54;stop-opacity:1"
         offset="1" />
    </linearGradient>
    <radialGradient
       cx="17.949392"
       cy="25.435272"
       r="13.427935"
       fx="17.949392"
       fy="25.435272"
       id="radialGradient2454"
       xlink:href="#linearGradient2346"
       gradientUnits="userSpaceOnUse"
       gradientTransform="matrix(-0.01983284,-4.5149276,7.128812,-0.02771567,-91.208878,142.51545)" />
    <linearGradient
       x1="25.579119"
       y1="0.30611229"
       x2="25.579119"
       y2="42.257183"
       id="linearGradient2458"
       xlink:href="#linearGradient3211"
       gradientUnits="userSpaceOnUse"
       gradientTransform="matrix(2.7323977,0,0,2.7513978,-5.8923193,2.1577661)" />
    <radialGradient
       cx="38.810284"
       cy="15.690213"
       r="20.714195"
       fx="38.810284"
       fy="15.690213"
       id="radialGradient2462"
       xlink:href="#linearGradient3242-2"
       gradientUnits="userSpaceOnUse"
       gradientTransform="matrix(0.1259464,7.9667192,-11.803425,9.062367e-7,204.8525,-326.97901)" />
    <linearGradient
       x1="24.008854"
       y1="38.246284"
       x2="24.008854"
       y2="0.99999988"
       id="linearGradient2464"
       xlink:href="#linearGradient2490"
       gradientUnits="userSpaceOnUse"
       gradientTransform="matrix(2.7448245,0,0,2.7313022,-1.9000957,-1.5967333)" />
    <linearGradient
       x1="21.13592"
       y1="40.884956"
       x2="21.13592"
       y2="35.298134"
       id="linearGradient2468"
       xlink:href="#linearGradient2346"
       gradientUnits="userSpaceOnUse"
       gradientTransform="matrix(2.462962,0,0,1.9664314,6.7269513,29.014874)" />
    <radialGradient
       cx="605.71429"
       cy="486.64789"
       r="117.14286"
       fx="605.71429"
       fy="486.64789"
       id="radialGradient3253"
       xlink:href="#linearGradient5060"
       gradientUnits="userSpaceOnUse"
       gradientTransform="matrix(-0.09638865,0,0,0.08235294,76.089646,75.805468)" />
    <radialGradient
       cx="605.71429"
       cy="486.64789"
       r="117.14286"
       fx="605.71429"
       fy="486.64789"
       id="radialGradient3256"
       xlink:href="#linearGradient5060"
       gradientUnits="userSpaceOnUse"
       gradientTransform="matrix(0.09638865,0,0,0.08235294,51.910372,75.805468)" />
    <linearGradient
       x1="302.85715"
       y1="366.64789"
       x2="302.85715"
       y2="609.50507"
       id="linearGradient3260"
       xlink:href="#linearGradient5048"
       gradientUnits="userSpaceOnUse"
       gradientTransform="matrix(0.1905325,0,0,0.08235294,-4.8639067,75.805468)" />
    <radialGradient
       cx="63"
       cy="107.00003"
       r="52.5"
       fx="63"
       fy="107.00003"
       id="radialGradient3295"
       xlink:href="#linearGradient3287"
       gradientUnits="userSpaceOnUse"
       gradientTransform="matrix(1.5810671,-2.1966087e-8,0,0.1904762,-36.607229,89.619043)" />
    <radialGradient
       inkscape:collect="always"
       xlink:href="#linearGradient3242-2"
       id="radialGradient4971"
       gradientUnits="userSpaceOnUse"
       gradientTransform="matrix(0.12712532,8.0473169,-11.913911,9.1540492e-7,206.17095,-330.81307)"
       cx="38.810284"
       cy="15.690213"
       fx="38.810284"
       fy="15.690213"
       r="20.714195" />
  </defs>
  <path
     d="M 117.52675,118.99895 H 14.467075 c -0.956039,0 -1.725701,-0.8717 -1.725701,-1.9545 L 10.751,101.95321 c 0,-1.08281 0.769663,-1.95451 1.725701,-1.95451 H 117.41408"
     inkscape:connector-curvature="0"
     id="rect8840"
     style="display:inline;overflow:visible;visibility:visible;fill:url(#linearGradient2468);fill-opacity:1;fill-rule:nonzero;stroke:#7a1235;stroke-width:1.00094831;stroke-linecap:round;stroke-linejoin:round;stroke-miterlimit:4;stroke-dasharray:none;stroke-dashoffset:0.06;stroke-opacity:1;marker:none;enable-background:accumulate" />
  <path
     d="m 116.99995,117.94522 -0.10003,-16.2464"
     inkscape:connector-curvature="0"
     id="path9017"
     style="opacity:1;vector-effect:none;fill:none;fill-opacity:1;stroke:#c8c8c8;stroke-width:0.98299998;stroke-linecap:square;stroke-linejoin:miter;stroke-miterlimit:4;stroke-dasharray:none;stroke-dashoffset:0;stroke-opacity:1"
     sodipodi:nodetypes="cc" />
  <path
     d="m 17.126041,1.9990879 c -0.984339,0 -1.750561,1.1202419 -1.750559,2.5394509 L 9.9990843,99.461458 c 0,1.419222 0.8423317,2.539462 1.8266687,2.539452 H 116.17424 c 0.98435,10e-6 1.82667,-1.12023 1.82667,-2.539452 L 111.98834,4.5385388 c 0,-1.419209 -0.76623,-2.5394509 -1.75056,-2.5394509 z"
     inkscape:connector-curvature="0"
     id="rect8064"
     style="display:inline;overflow:visible;visibility:visible;fill:url(#radialGradient4971);fill-opacity:1;fill-rule:nonzero;stroke:#000000;stroke-width:0.3;stroke-linecap:round;stroke-linejoin:round;stroke-miterlimit:4;stroke-dasharray:none;stroke-dashoffset:0.06;stroke-opacity:0.39215687;marker:none;enable-background:accumulate" />
  <path
     d="M 13.843749,117.96697 11.732915,102.55351"
     inkscape:connector-curvature="0"
     id="path3267"
     style="opacity:0.2;fill:none;stroke:#000000;stroke-width:0.98363149px;stroke-linecap:square;stroke-linejoin:miter;stroke-opacity:1" />
  <path
     d="m 38.102948,52.246356 c 5.224214,0 10.448434,0 15.67265,0 C 51.16349,45.721528 48.551382,39.1967 45.939272,32.671866 43.327162,39.1967 40.715056,45.721528 38.102948,52.246356 l 0,0 z M 26.033862,67.161564 c 0.130506,-0.905188 -0.253452,-2.30632 0.176986,-2.922388 1.189868,0 2.379726,0 3.56959,0 5.071686,-12.746392 10.14337,-25.492784 15.215054,-38.239174 1.601586,0 3.203172,0 4.804756,0 5.081218,12.74639 10.162436,25.492782 15.243658,38.239174 1.401382,0 2.80277,0 4.204158,0 -0.130508,0.905186 0.253438,2.306316 -0.176988,2.922388 -5.117558,0 -10.235116,0 -15.352676,0 0.130506,-0.905188 -0.253438,-2.30632 0.176988,-2.922388 1.523524,0 3.047052,0 4.57058,0 -1.191656,-3.014288 -2.383312,-6.028574 -3.574972,-9.042864 -5.986872,0 -11.97375,0 -17.960624,0 -1.19166,3.01429 -2.383312,6.028576 -3.574966,9.042864 1.563448,0 3.126904,0 4.690352,0 -0.130506,0.905186 0.253466,2.306316 -0.176988,2.922388 -3.944968,0 -7.88994,0 -11.834908,0 l 0,0 z m 65.979578,-9.20828 c 0,-2.067726 0,-4.135454 0,-6.20318 -3.51611,0.138528 -7.118832,-0.377484 -10.552642,0.514676 -4.641706,1.36544 -5.175896,7.96282 -2.03124,10.95432 3.70891,3.312672 11.055984,1.988408 12.298314,-3.075314 0.201258,-0.712672 0.285684,-1.452916 0.285568,-2.190502 l 0,0 z m 5.26235,-9.098 c 0,5.127964 0,10.255924 0,15.383892 1.563448,0 3.1269,0 4.69035,0 -0.1305,0.905186 0.25344,2.306316 -0.17698,2.922388 -3.258582,0 -6.517154,0 -9.77573,0 0,-1.05684 0,-2.113676 0,-3.170518 -3.764482,4.579442 -11.21136,5.09664 -16.228456,2.259208 -5.747948,-3.370422 -5.60703,-12.954834 0.615008,-15.793874 4.844758,-2.3847 10.385852,-1.470288 15.613448,-1.656238 0.14457,-2.842646 -0.08837,-6.19162 -2.959638,-7.79586 -3.295568,-1.793424 -8.158508,-1.832352 -10.895152,0.93102 -1.240194,1.691798 -1.089616,4.057558 -3.775364,3.308352 -0.929152,-0.147948 -0.1702,-1.923228 -0.416278,-2.729648 0,-1.065946 0,-2.131894 0,-3.197838 5.795664,-2.377612 12.972778,-3.52318 18.65126,-0.258662 3.407992,2.075018 4.733356,6.081706 4.657518,9.797784 l 1.4e-5,-6e-6 z"
     inkscape:connector-curvature="0"
     id="path3271"
     style="font-size:21.12489128px;font-style:normal;font-variant:normal;font-weight:normal;font-stretch:normal;fill:#7b1234;fill-opacity:1;stroke:none;font-family:Serif;-inkscape-font-specification:Serif;opacity:0.3" />
  <path
     d="m 38.102948,53.246355 c 5.224214,0 10.448434,0 15.67265,0 -2.612108,-6.524828 -5.224216,-13.049656 -7.836326,-19.57449 -2.61211,6.524834 -5.224216,13.049662 -7.836324,19.57449 l 0,0 z M 26.033862,68.161563 c 0.130506,-0.905188 -0.253452,-2.30632 0.176986,-2.922388 1.189868,0 2.379726,0 3.56959,0 5.071686,-12.746392 10.14337,-25.492784 15.215054,-38.239174 1.601586,0 3.203172,0 4.804756,0 5.081218,12.74639 10.162436,25.492782 15.243658,38.239174 1.401382,0 2.80277,0 4.204158,0 -0.130508,0.905186 0.253438,2.306316 -0.176988,2.922388 -5.117558,0 -10.235116,0 -15.352676,0 0.130506,-0.905188 -0.253438,-2.30632 0.176988,-2.922388 1.523524,0 3.047052,0 4.57058,0 -1.191656,-3.014288 -2.383312,-6.028574 -3.574972,-9.042864 -5.986872,0 -11.97375,0 -17.960624,0 -1.19166,3.01429 -2.383312,6.028576 -3.574966,9.042864 1.563448,0 3.126904,0 4.690352,0 -0.130506,0.905186 0.253466,2.306316 -0.176988,2.922388 -3.944968,0 -7.88994,0 -11.834908,0 l 0,0 z m 65.979578,-9.20828 c 0,-2.067726 0,-4.135454 0,-6.20318 -3.51611,0.138528 -7.118832,-0.377484 -10.552642,0.514676 -4.641706,1.36544 -5.175896,7.96282 -2.03124,10.95432 3.70891,3.312672 11.055984,1.988408 12.298314,-3.075314 0.201258,-0.712672 0.285684,-1.452916 0.285568,-2.190502 l 0,0 z m 5.26235,-9.098 c 0,5.127964 0,10.255924 0,15.383892 1.563448,0 3.1269,0 4.69035,0 -0.1305,0.905186 0.25344,2.306316 -0.17698,2.922388 -3.258582,0 -6.517154,0 -9.77573,0 0,-1.05684 0,-2.113676 0,-3.170518 -3.764482,4.579442 -11.21136,5.09664 -16.228456,2.259208 -5.747948,-3.370422 -5.60703,-12.954834 0.615008,-15.793874 4.844758,-2.3847 10.385852,-1.470288 15.613448,-1.656238 0.14457,-2.842646 -0.08837,-6.19162 -2.959638,-7.79586 -3.295568,-1.793424 -8.158508,-1.832352 -10.895152,0.93102 -1.240194,1.691798 -1.089616,4.057558 -3.775364,3.308352 -0.929152,-0.147948 -0.1702,-1.923228 -0.416278,-2.729648 0,-1.065946 0,-2.131894 0,-3.197838 5.795664,-2.377612 12.972778,-3.52318 18.65126,-0.258662 3.407992,2.075018 4.733356,6.081706 4.657518,9.797784 l 1.4e-5,-6e-6 z"
     inkscape:connector-curvature="0"
     id="text2537-9"
     style="font-size:21.12489128px;font-style:normal;font-variant:normal;font-weight:normal;font-stretch:normal;fill:url(#radialGradient2454);fill-opacity:1;stroke:none;font-family:Serif;-inkscape-font-specification:Serif" />
  <path
     d="M 14.81543,117.92812 12.704595,102.51466"
     inkscape:connector-curvature="0"
     id="path3246"
     style="opacity:0.15;fill:none;stroke:#000000;stroke-width:0.98363149px;stroke-linecap:square;stroke-linejoin:miter;stroke-opacity:1" />
  <path
     d="M 15.78711,117.96697 13.676276,102.55351"
     inkscape:connector-curvature="0"
     id="path3248"
     style="opacity:0.05;fill:none;stroke:#000000;stroke-width:0.98363149px;stroke-linecap:square;stroke-linejoin:miter;stroke-opacity:1" />
</svg>
